<?xml version="1.0" encoding="UTF-8" standalone="no"?>
<!-- Created with Inkscape (http://www.inkscape.org/) -->

<svg
   xmlns:dc="http://purl.org/dc/elements/1.1/"
   xmlns:cc="http://creativecommons.org/ns#"
   xmlns:rdf="http://www.w3.org/1999/02/22-rdf-syntax-ns#"
   xmlns:svg="http://www.w3.org/2000/svg"
   xmlns="http://www.w3.org/2000/svg"
   xmlns:sodipodi="http://sodipodi.sourceforge.net/DTD/sodipodi-0.dtd"
   xmlns:inkscape="http://www.inkscape.org/namespaces/inkscape"
   width="420"
   height="120"
   viewBox="0 0 420 120"
   id="svg2"
   version="1.1"
   inkscape:version="0.91 r13725"
   sodipodi:docname="お-bw.svg"
   inkscape:export-filename="/home/manuel/Desktop/Drawings/Kana-flash-cards/a-bw.png"
   inkscape:export-xdpi="900"
   inkscape:export-ydpi="900">
  <defs
     id="defs4">
    <inkscape:path-effect
       effect="spiro"
       id="path-effect6339"
       is_visible="true" />
    <marker
       inkscape:stockid="TriangleOutM"
       orient="auto"
       refY="0"
       refX="0"
       id="marker6825"
       style="overflow:visible"
       inkscape:isstock="true">
      <path
         id="path6827"
         d="m 5.77,0 -8.65,5 0,-10 8.65,5 z"
         style="fill:#ff0000;fill-opacity:1;fill-rule:evenodd;stroke:#ff0000;stroke-width:1pt;stroke-opacity:1"
         transform="scale(0.4,0.4)"
         inkscape:connector-curvature="0" />
    </marker>
    <inkscape:path-effect
       effect="spiro"
       id="path-effect6539"
       is_visible="true" />
    <inkscape:path-effect
       effect="spiro"
       id="path-effect6535"
       is_visible="true" />
    <inkscape:path-effect
       effect="spiro"
       id="path-effect6531"
       is_visible="true" />
    <marker
       inkscape:stockid="EmptyTriangleOutM"
       orient="auto"
       refY="0"
       refX="0"
       id="EmptyTriangleOutM"
       style="overflow:visible"
       inkscape:isstock="true">
      <path
         id="path4860"
         d="m 5.77,0 -8.65,5 0,-10 8.65,5 z"
         style="fill:#ffffff;fill-rule:evenodd;stroke:#ff0000;stroke-width:1pt;stroke-opacity:0.58823529"
         transform="matrix(0.4,0,0,0.4,-1.8,0)"
         inkscape:connector-curvature="0" />
    </marker>
    <marker
       inkscape:stockid="TriangleOutL"
       orient="auto"
       refY="0"
       refX="0"
       id="TriangleOutL"
       style="overflow:visible"
       inkscape:isstock="true">
      <path
         id="path4839"
         d="m 5.77,0 -8.65,5 0,-10 8.65,5 z"
         style="fill:#ff0000;fill-opacity:0.58823529;fill-rule:evenodd;stroke:#ff0000;stroke-width:1pt;stroke-opacity:0.58823529"
         transform="scale(0.8,0.8)"
         inkscape:connector-curvature="0" />
    </marker>
    <marker
       inkscape:stockid="Arrow2Lend"
       orient="auto"
       refY="0"
       refX="0"
       id="marker5235"
       style="overflow:visible"
       inkscape:isstock="true">
      <path
         id="path5237"
         style="fill:#ff0000;fill-opacity:0.58823529;fill-rule:evenodd;stroke:#ff0000;stroke-width:0.625;stroke-linejoin:round;stroke-opacity:0.58823529"
         d="M 8.7185878,4.0337352 -2.2072895,0.01601326 8.7185884,-4.0017078 c -1.7454984,2.3720609 -1.7354408,5.6174519 -6e-7,8.035443 z"
         transform="matrix(-1.1,0,0,-1.1,-1.1,0)"
         inkscape:connector-curvature="0" />
    </marker>
    <marker
       inkscape:stockid="Arrow1Lend"
       orient="auto"
       refY="0"
       refX="0"
       id="marker5177"
       style="overflow:visible"
       inkscape:isstock="true">
      <path
         id="path5179"
         d="M 0,0 5,-5 -12.5,0 5,5 0,0 Z"
         style="fill:#ff0000;fill-opacity:0.58823529;fill-rule:evenodd;stroke:#ff0000;stroke-width:1pt;stroke-opacity:0.58823529"
         transform="matrix(-0.8,0,0,-0.8,-10,0)"
         inkscape:connector-curvature="0" />
    </marker>
    <marker
       inkscape:stockid="Arrow1Mstart"
       orient="auto"
       refY="0"
       refX="0"
       id="Arrow1Mstart"
       style="overflow:visible"
       inkscape:isstock="true">
      <path
         id="path4703"
         d="M 0,0 5,-5 -12.5,0 5,5 0,0 Z"
         style="fill:#ff0000;fill-opacity:0.58823529;fill-rule:evenodd;stroke:#ff0000;stroke-width:1pt;stroke-opacity:0.58823529"
         transform="matrix(0.4,0,0,0.4,4,0)"
         inkscape:connector-curvature="0" />
    </marker>
    <marker
       inkscape:stockid="Arrow1Lend"
       orient="auto"
       refY="0"
       refX="0"
       id="Arrow1Lend"
       style="overflow:visible"
       inkscape:isstock="true">
      <path
         id="path4700"
         d="M 0,0 5,-5 -12.5,0 5,5 0,0 Z"
         style="fill:#ff0000;fill-opacity:0.58823529;fill-rule:evenodd;stroke:#ff0000;stroke-width:1pt;stroke-opacity:0.58823529"
         transform="matrix(-0.8,0,0,-0.8,-10,0)"
         inkscape:connector-curvature="0" />
    </marker>
    <marker
       inkscape:stockid="Arrow2Mend"
       orient="auto"
       refY="0"
       refX="0"
       id="marker5031"
       style="overflow:visible"
       inkscape:isstock="true">
      <path
         id="path5033"
         style="fill:#ff0000;fill-opacity:0.58823529;fill-rule:evenodd;stroke:#ff0000;stroke-width:0.625;stroke-linejoin:round;stroke-opacity:0.58823529"
         d="M 8.7185878,4.0337352 -2.2072895,0.01601326 8.7185884,-4.0017078 c -1.7454984,2.3720609 -1.7354408,5.6174519 -6e-7,8.035443 z"
         transform="scale(-0.6,-0.6)"
         inkscape:connector-curvature="0" />
    </marker>
    <marker
       inkscape:stockid="Arrow2Mend"
       orient="auto"
       refY="0"
       refX="0"
       id="Arrow2Mend"
       style="overflow:visible"
       inkscape:isstock="true">
      <path
         id="path4724"
         style="fill:#ff0000;fill-opacity:0.58823529;fill-rule:evenodd;stroke:#ff0000;stroke-width:0.625;stroke-linejoin:round;stroke-opacity:0.58823529"
         d="M 8.7185878,4.0337352 -2.2072895,0.01601326 8.7185884,-4.0017078 c -1.7454984,2.3720609 -1.7354408,5.6174519 -6e-7,8.035443 z"
         transform="scale(-0.6,-0.6)"
         inkscape:connector-curvature="0" />
    </marker>
    <marker
       inkscape:stockid="Arrow1Mend"
       orient="auto"
       refY="0"
       refX="0"
       id="Arrow1Mend"
       style="overflow:visible"
       inkscape:isstock="true">
      <path
         id="path4706"
         d="M 0,0 5,-5 -12.5,0 5,5 0,0 Z"
         style="fill:#ff0000;fill-opacity:0.58823529;fill-rule:evenodd;stroke:#ff0000;stroke-width:1pt;stroke-opacity:0.58823529"
         transform="matrix(-0.4,0,0,-0.4,-4,0)"
         inkscape:connector-curvature="0" />
    </marker>
    <marker
       inkscape:stockid="Arrow2Lend"
       orient="auto"
       refY="0"
       refX="0"
       id="Arrow2Lend"
       style="overflow:visible"
       inkscape:isstock="true">
      <path
         id="path4718"
         style="fill:#ff0000;fill-opacity:0.58823529;fill-rule:evenodd;stroke:#ff0000;stroke-width:0.625;stroke-linejoin:round;stroke-opacity:0.58823529"
         d="M 8.7185878,4.0337352 -2.2072895,0.01601326 8.7185884,-4.0017078 c -1.7454984,2.3720609 -1.7354408,5.6174519 -6e-7,8.035443 z"
         transform="matrix(-1.1,0,0,-1.1,-1.1,0)"
         inkscape:connector-curvature="0" />
    </marker>
    <inkscape:path-effect
       effect="spiro"
       id="path-effect4268"
       is_visible="true" />
    <clipPath
       clipPathUnits="userSpaceOnUse"
       id="clipPath4252">
      <text
         transform="scale(0.95401358,1.0482031)"
         sodipodi:linespacing="125%"
         id="text4254"
         y="982.66449"
         x="-79.682037"
         style="font-style:normal;font-weight:normal;font-size:110.1632309px;line-height:125%;font-family:sans-serif;letter-spacing:0px;word-spacing:0px;fill:#ff1a01;fill-opacity:1;stroke:none;stroke-width:1px;stroke-linecap:butt;stroke-linejoin:miter;stroke-opacity:1"
         xml:space="preserve"><tspan
           id="tspan4256"
           y="982.66449"
           x="-79.682037"
           sodipodi:role="line"
           style="font-style:normal;font-variant:normal;font-weight:normal;font-stretch:normal;font-size:100px;font-family:'EPSON 太明朝体Ｂ';-inkscape-font-specification:'EPSON 太明朝体Ｂ'">┃ああああ┃</tspan></text>
    </clipPath>
    <marker
       inkscape:stockid="TriangleOutM"
       orient="auto"
       refY="0"
       refX="0"
       id="marker6825-4"
       style="overflow:visible"
       inkscape:isstock="true">
      <path
         id="path6827-0"
         d="m 5.77,0 -8.65,5 0,-10 8.65,5 z"
         style="fill:#ff0000;fill-opacity:1;fill-rule:evenodd;stroke:#ff0000;stroke-width:1pt;stroke-opacity:1"
         transform="scale(0.4,0.4)"
         inkscape:connector-curvature="0" />
    </marker>
    <clipPath
       clipPathUnits="userSpaceOnUse"
       id="clipPath4371">
      <path
         inkscape:connector-curvature="0"
         id="path4373"
         style="font-style:normal;font-variant:normal;font-weight:normal;font-stretch:normal;font-size:100px;line-height:125%;font-family:'EPSON 正楷書体Ｍ';-inkscape-font-specification:'EPSON 正楷書体Ｍ';letter-spacing:0px;word-spacing:0px;fill:#ff0000;fill-opacity:1;stroke:none;stroke-width:1px;stroke-linecap:butt;stroke-linejoin:miter;stroke-opacity:1"
         d="m 387.92969,966.58093 q -3.02735,-3.90625 -12.5,-3.90625 l -0.39063,0.78125 q 0,0.78125 2.73438,1.5625 1.17187,0.29297 1.17187,1.95313 0,1.66015 -1.5625,2.73437 -1.17187,0.78125 -1.17187,1.17188 l 0.39062,0.78125 q 3.22266,-1.17188 6.25,-1.17188 1.85547,0 2.73438,0.78125 2.24609,1.95313 3.125,1.95313 1.5625,0 1.5625,-1.5625 0,-2.05078 -2.34375,-5.07813 z m -36.32813,-6.25 q -2.92969,-5.46875 -11.32812,-5.46875 l -0.39063,0.78125 q 0,0.97657 1.5625,1.95313 1.95313,1.17187 1.95313,3.125 l 0,16.40625 q -4.49219,1.95312 -9.375,2.73437 l -5.85938,0 -0.39062,0.78125 q 0,1.17188 7.03125,2.34375 3.90625,0 8.59375,-1.17187 l 0,21.09379 q -14.84375,9.4726 -14.84375,13.6718 0,1.7578 1.95312,3.125 2.73438,0.9766 4.6875,1.9532 4.49219,2.539 7.42188,7.0312 1.26953,1.9531 2.34375,1.9531 1.95312,0 3.125,-5.8593 0.39062,-8.0079 0.39062,-19.5313 4.29688,-2.9297 8.98438,-4.6875 12.5,-4.68749 17.57812,-4.68749 4.6875,0 8.20313,3.125 3.125,2.73439 3.125,8.20309 0,6.0547 -5.07813,10.1563 -3.90625,3.125 -11.71875,3.125 -2.92969,0 -10.15625,-1.1719 l -0.39062,0.7813 q 3.125,2.1484 6.64062,3.125 6.64063,1.5625 11.71875,1.5625 6.05469,0 11.71875,-5.8594 4.29688,-4.4922 4.29688,-10.5469 0,-6.1523 -4.6875,-11.32812 -4.19922,-4.6875 -12.5,-4.6875 -7.03125,0 -18.35938,3.90625 -5.07812,1.66016 -9.375,3.90627 0,-8.00783 0.39063,-20.31252 6.44531,-2.34375 12.10937,-5.46875 1.5625,-0.8789 1.5625,-1.95312 0,-2.05078 -4.6875,-2.73438 -1.5625,1.36719 -3.125,2.34375 -2.53906,1.5625 -5.46875,2.73438 0.19531,-5.17578 0.78125,-9.76563 0.39063,-2.14843 1.5625,-4.6875 z m -17.1875,57.03127 q 0,-3.0274 8.98438,-9.375 l 0,11.7187 q 0,2.7344 -1.5625,2.7344 -1.75782,0 -4.6875,-1.9531 -2.73438,-1.8555 -2.73438,-3.125 z" />
    </clipPath>
    <clipPath
       clipPathUnits="userSpaceOnUse"
       id="clipPath4447">
      <path
         inkscape:connector-curvature="0"
         id="path4449"
         style="font-style:normal;font-variant:normal;font-weight:normal;font-stretch:normal;font-size:100px;line-height:125%;font-family:'EPSON 正楷書体Ｍ';-inkscape-font-specification:'EPSON 正楷書体Ｍ';letter-spacing:0px;word-spacing:0px;fill:#ff0000;fill-opacity:1;stroke:none;stroke-width:1px;stroke-linecap:butt;stroke-linejoin:miter;stroke-opacity:1"
         d="m 87.929687,966.58093 q -3.027343,-3.90625 -12.5,-3.90625 l -0.390625,0.78125 q 0,0.78125 2.734375,1.5625 1.171875,0.29297 1.171875,1.95313 0,1.66015 -1.5625,2.73437 -1.171875,0.78125 -1.171875,1.17188 l 0.390625,0.78125 q 3.222657,-1.17188 6.25,-1.17188 1.855469,0 2.734375,0.78125 2.246094,1.95313 3.125,1.95313 1.5625,0 1.5625,-1.5625 0,-2.05078 -2.34375,-5.07813 z m -36.328125,-6.25 q -2.929687,-5.46875 -11.328125,-5.46875 l -0.390625,0.78125 q 0,0.97657 1.5625,1.95313 1.953125,1.17187 1.953125,3.125 l 0,16.40625 q -4.492187,1.95312 -9.375,2.73437 l -5.859375,0 -0.390625,0.78125 q 0,1.17188 7.03125,2.34375 3.90625,0 8.59375,-1.17187 l 0,21.09379 q -14.84375,9.4726 -14.84375,13.6718 0,1.7578 1.953125,3.125 2.734375,0.9766 4.6875,1.9532 4.492188,2.539 7.421875,7.0312 1.269532,1.9531 2.34375,1.9531 1.953125,0 3.125,-5.8593 0.390625,-8.0079 0.390625,-19.5313 4.296875,-2.9297 8.984375,-4.6875 12.5,-4.68749 17.578125,-4.68749 4.6875,0 8.203125,3.125 3.125,2.73439 3.125,8.20309 0,6.0547 -5.078125,10.1563 -3.90625,3.125 -11.71875,3.125 -2.929687,0 -10.15625,-1.1719 l -0.390625,0.7813 q 3.125,2.1484 6.640625,3.125 6.640625,1.5625 11.71875,1.5625 6.054688,0 11.71875,-5.8594 4.296875,-4.4922 4.296875,-10.5469 0,-6.1523 -4.6875,-11.32812 -4.199218,-4.6875 -12.5,-4.6875 -7.03125,0 -18.359375,3.90625 -5.078125,1.66016 -9.375,3.90627 0,-8.00783 0.390625,-20.31252 6.445313,-2.34375 12.109375,-5.46875 1.5625,-0.8789 1.5625,-1.95312 0,-2.05078 -4.6875,-2.73438 -1.5625,1.36719 -3.125,2.34375 -2.539062,1.5625 -5.46875,2.73438 0.195313,-5.17578 0.78125,-9.76563 0.390625,-2.14843 1.5625,-4.6875 z m -17.1875,57.03127 q 0,-3.0274 8.984375,-9.375 l 0,11.7187 q 0,2.7344 -1.5625,2.7344 -1.757812,0 -4.6875,-1.9531 -2.734375,-1.8555 -2.734375,-3.125 z" />
    </clipPath>
    <clipPath
       clipPathUnits="userSpaceOnUse"
       id="clipPath4451">
      <path
         inkscape:connector-curvature="0"
         id="path4453"
         style="font-style:normal;font-variant:normal;font-weight:normal;font-stretch:normal;font-size:100px;line-height:125%;font-family:'EPSON 正楷書体Ｍ';-inkscape-font-specification:'EPSON 正楷書体Ｍ';letter-spacing:0px;word-spacing:0px;fill:#ff0000;fill-opacity:1;stroke:none;stroke-width:1px;stroke-linecap:butt;stroke-linejoin:miter;stroke-opacity:1"
         d="m 187.92969,966.58093 q -3.02735,-3.90625 -12.5,-3.90625 l -0.39063,0.78125 q 0,0.78125 2.73438,1.5625 1.17187,0.29297 1.17187,1.95313 0,1.66015 -1.5625,2.73437 -1.17187,0.78125 -1.17187,1.17188 l 0.39062,0.78125 q 3.22266,-1.17188 6.25,-1.17188 1.85547,0 2.73438,0.78125 2.24609,1.95313 3.125,1.95313 1.5625,0 1.5625,-1.5625 0,-2.05078 -2.34375,-5.07813 z m -36.32813,-6.25 q -2.92969,-5.46875 -11.32812,-5.46875 l -0.39063,0.78125 q 0,0.97657 1.5625,1.95313 1.95313,1.17187 1.95313,3.125 l 0,16.40625 q -4.49219,1.95312 -9.375,2.73437 l -5.85938,0 -0.39062,0.78125 q 0,1.17188 7.03125,2.34375 3.90625,0 8.59375,-1.17187 l 0,21.09379 q -14.84375,9.4726 -14.84375,13.6718 0,1.7578 1.95312,3.125 2.73438,0.9766 4.6875,1.9532 4.49219,2.539 7.42188,7.0312 1.26953,1.9531 2.34375,1.9531 1.95312,0 3.125,-5.8593 0.39062,-8.0079 0.39062,-19.5313 4.29688,-2.9297 8.98438,-4.6875 12.5,-4.68749 17.57812,-4.68749 4.6875,0 8.20313,3.125 3.125,2.73439 3.125,8.20309 0,6.0547 -5.07813,10.1563 -3.90625,3.125 -11.71875,3.125 -2.92969,0 -10.15625,-1.1719 l -0.39062,0.7813 q 3.125,2.1484 6.64062,3.125 6.64063,1.5625 11.71875,1.5625 6.05469,0 11.71875,-5.8594 4.29688,-4.4922 4.29688,-10.5469 0,-6.1523 -4.6875,-11.32812 -4.19922,-4.6875 -12.5,-4.6875 -7.03125,0 -18.35938,3.90625 -5.07812,1.66016 -9.375,3.90627 0,-8.00783 0.39063,-20.31252 6.44531,-2.34375 12.10937,-5.46875 1.5625,-0.8789 1.5625,-1.95312 0,-2.05078 -4.6875,-2.73438 -1.5625,1.36719 -3.125,2.34375 -2.53906,1.5625 -5.46875,2.73438 0.19531,-5.17578 0.78125,-9.76563 0.39063,-2.14843 1.5625,-4.6875 z m -17.1875,57.03127 q 0,-3.0274 8.98438,-9.375 l 0,11.7187 q 0,2.7344 -1.5625,2.7344 -1.75782,0 -4.6875,-1.9531 -2.73438,-1.8555 -2.73438,-3.125 z" />
    </clipPath>
    <clipPath
       clipPathUnits="userSpaceOnUse"
       id="clipPath4455">
      <path
         inkscape:connector-curvature="0"
         id="path4457"
         style="font-style:normal;font-variant:normal;font-weight:normal;font-stretch:normal;font-size:100px;line-height:125%;font-family:'EPSON 正楷書体Ｍ';-inkscape-font-specification:'EPSON 正楷書体Ｍ';letter-spacing:0px;word-spacing:0px;fill:#ff0000;fill-opacity:1;stroke:none;stroke-width:1px;stroke-linecap:butt;stroke-linejoin:miter;stroke-opacity:1"
         d="m 187.92969,966.58093 q -3.02735,-3.90625 -12.5,-3.90625 l -0.39063,0.78125 q 0,0.78125 2.73438,1.5625 1.17187,0.29297 1.17187,1.95313 0,1.66015 -1.5625,2.73437 -1.17187,0.78125 -1.17187,1.17188 l 0.39062,0.78125 q 3.22266,-1.17188 6.25,-1.17188 1.85547,0 2.73438,0.78125 2.24609,1.95313 3.125,1.95313 1.5625,0 1.5625,-1.5625 0,-2.05078 -2.34375,-5.07813 z m -36.32813,-6.25 q -2.92969,-5.46875 -11.32812,-5.46875 l -0.39063,0.78125 q 0,0.97657 1.5625,1.95313 1.95313,1.17187 1.95313,3.125 l 0,16.40625 q -4.49219,1.95312 -9.375,2.73437 l -5.85938,0 -0.39062,0.78125 q 0,1.17188 7.03125,2.34375 3.90625,0 8.59375,-1.17187 l 0,21.09379 q -14.84375,9.4726 -14.84375,13.6718 0,1.7578 1.95312,3.125 2.73438,0.9766 4.6875,1.9532 4.49219,2.539 7.42188,7.0312 1.26953,1.9531 2.34375,1.9531 1.95312,0 3.125,-5.8593 0.39062,-8.0079 0.39062,-19.5313 4.29688,-2.9297 8.98438,-4.6875 12.5,-4.68749 17.57812,-4.68749 4.6875,0 8.20313,3.125 3.125,2.73439 3.125,8.20309 0,6.0547 -5.07813,10.1563 -3.90625,3.125 -11.71875,3.125 -2.92969,0 -10.15625,-1.1719 l -0.39062,0.7813 q 3.125,2.1484 6.64062,3.125 6.64063,1.5625 11.71875,1.5625 6.05469,0 11.71875,-5.8594 4.29688,-4.4922 4.29688,-10.5469 0,-6.1523 -4.6875,-11.32812 -4.19922,-4.6875 -12.5,-4.6875 -7.03125,0 -18.35938,3.90625 -5.07812,1.66016 -9.375,3.90627 0,-8.00783 0.39063,-20.31252 6.44531,-2.34375 12.10937,-5.46875 1.5625,-0.8789 1.5625,-1.95312 0,-2.05078 -4.6875,-2.73438 -1.5625,1.36719 -3.125,2.34375 -2.53906,1.5625 -5.46875,2.73438 0.19531,-5.17578 0.78125,-9.76563 0.39063,-2.14843 1.5625,-4.6875 z m -17.1875,57.03127 q 0,-3.0274 8.98438,-9.375 l 0,11.7187 q 0,2.7344 -1.5625,2.7344 -1.75782,0 -4.6875,-1.9531 -2.73438,-1.8555 -2.73438,-3.125 z" />
    </clipPath>
    <clipPath
       clipPathUnits="userSpaceOnUse"
       id="clipPath4459">
      <path
         inkscape:connector-curvature="0"
         id="path4461"
         style="font-style:normal;font-variant:normal;font-weight:normal;font-stretch:normal;font-size:100px;line-height:125%;font-family:'EPSON 正楷書体Ｍ';-inkscape-font-specification:'EPSON 正楷書体Ｍ';letter-spacing:0px;word-spacing:0px;fill:#ff0000;fill-opacity:1;stroke:none;stroke-width:1px;stroke-linecap:butt;stroke-linejoin:miter;stroke-opacity:1"
         d="m 287.92969,966.58093 q -3.02735,-3.90625 -12.5,-3.90625 l -0.39063,0.78125 q 0,0.78125 2.73438,1.5625 1.17187,0.29297 1.17187,1.95313 0,1.66015 -1.5625,2.73437 -1.17187,0.78125 -1.17187,1.17188 l 0.39062,0.78125 q 3.22266,-1.17188 6.25,-1.17188 1.85547,0 2.73438,0.78125 2.24609,1.95313 3.125,1.95313 1.5625,0 1.5625,-1.5625 0,-2.05078 -2.34375,-5.07813 z m -36.32813,-6.25 q -2.92969,-5.46875 -11.32812,-5.46875 l -0.39063,0.78125 q 0,0.97657 1.5625,1.95313 1.95313,1.17187 1.95313,3.125 l 0,16.40625 q -4.49219,1.95312 -9.375,2.73437 l -5.85938,0 -0.39062,0.78125 q 0,1.17188 7.03125,2.34375 3.90625,0 8.59375,-1.17187 l 0,21.09379 q -14.84375,9.4726 -14.84375,13.6718 0,1.7578 1.95312,3.125 2.73438,0.9766 4.6875,1.9532 4.49219,2.539 7.42188,7.0312 1.26953,1.9531 2.34375,1.9531 1.95312,0 3.125,-5.8593 0.39062,-8.0079 0.39062,-19.5313 4.29688,-2.9297 8.98438,-4.6875 12.5,-4.68749 17.57812,-4.68749 4.6875,0 8.20313,3.125 3.125,2.73439 3.125,8.20309 0,6.0547 -5.07813,10.1563 -3.90625,3.125 -11.71875,3.125 -2.92969,0 -10.15625,-1.1719 l -0.39062,0.7813 q 3.125,2.1484 6.64062,3.125 6.64063,1.5625 11.71875,1.5625 6.05469,0 11.71875,-5.8594 4.29688,-4.4922 4.29688,-10.5469 0,-6.1523 -4.6875,-11.32812 -4.19922,-4.6875 -12.5,-4.6875 -7.03125,0 -18.35938,3.90625 -5.07812,1.66016 -9.375,3.90627 0,-8.00783 0.39063,-20.31252 6.44531,-2.34375 12.10937,-5.46875 1.5625,-0.8789 1.5625,-1.95312 0,-2.05078 -4.6875,-2.73438 -1.5625,1.36719 -3.125,2.34375 -2.53906,1.5625 -5.46875,2.73438 0.19531,-5.17578 0.78125,-9.76563 0.39063,-2.14843 1.5625,-4.6875 z m -17.1875,57.03127 q 0,-3.0274 8.98438,-9.375 l 0,11.7187 q 0,2.7344 -1.5625,2.7344 -1.75782,0 -4.6875,-1.9531 -2.73438,-1.8555 -2.73438,-3.125 z" />
    </clipPath>
    <clipPath
       clipPathUnits="userSpaceOnUse"
       id="clipPath4463">
      <path
         inkscape:connector-curvature="0"
         id="path4465"
         style="font-style:normal;font-variant:normal;font-weight:normal;font-stretch:normal;font-size:100px;line-height:125%;font-family:'EPSON 正楷書体Ｍ';-inkscape-font-specification:'EPSON 正楷書体Ｍ';letter-spacing:0px;word-spacing:0px;fill:#ff0000;fill-opacity:1;stroke:none;stroke-width:1px;stroke-linecap:butt;stroke-linejoin:miter;stroke-opacity:1"
         d="m 287.92969,966.58093 q -3.02735,-3.90625 -12.5,-3.90625 l -0.39063,0.78125 q 0,0.78125 2.73438,1.5625 1.17187,0.29297 1.17187,1.95313 0,1.66015 -1.5625,2.73437 -1.17187,0.78125 -1.17187,1.17188 l 0.39062,0.78125 q 3.22266,-1.17188 6.25,-1.17188 1.85547,0 2.73438,0.78125 2.24609,1.95313 3.125,1.95313 1.5625,0 1.5625,-1.5625 0,-2.05078 -2.34375,-5.07813 z m -36.32813,-6.25 q -2.92969,-5.46875 -11.32812,-5.46875 l -0.39063,0.78125 q 0,0.97657 1.5625,1.95313 1.95313,1.17187 1.95313,3.125 l 0,16.40625 q -4.49219,1.95312 -9.375,2.73437 l -5.85938,0 -0.39062,0.78125 q 0,1.17188 7.03125,2.34375 3.90625,0 8.59375,-1.17187 l 0,21.09379 q -14.84375,9.4726 -14.84375,13.6718 0,1.7578 1.95312,3.125 2.73438,0.9766 4.6875,1.9532 4.49219,2.539 7.42188,7.0312 1.26953,1.9531 2.34375,1.9531 1.95312,0 3.125,-5.8593 0.39062,-8.0079 0.39062,-19.5313 4.29688,-2.9297 8.98438,-4.6875 12.5,-4.68749 17.57812,-4.68749 4.6875,0 8.20313,3.125 3.125,2.73439 3.125,8.20309 0,6.0547 -5.07813,10.1563 -3.90625,3.125 -11.71875,3.125 -2.92969,0 -10.15625,-1.1719 l -0.39062,0.7813 q 3.125,2.1484 6.64062,3.125 6.64063,1.5625 11.71875,1.5625 6.05469,0 11.71875,-5.8594 4.29688,-4.4922 4.29688,-10.5469 0,-6.1523 -4.6875,-11.32812 -4.19922,-4.6875 -12.5,-4.6875 -7.03125,0 -18.35938,3.90625 -5.07812,1.66016 -9.375,3.90627 0,-8.00783 0.39063,-20.31252 6.44531,-2.34375 12.10937,-5.46875 1.5625,-0.8789 1.5625,-1.95312 0,-2.05078 -4.6875,-2.73438 -1.5625,1.36719 -3.125,2.34375 -2.53906,1.5625 -5.46875,2.73438 0.19531,-5.17578 0.78125,-9.76563 0.39063,-2.14843 1.5625,-4.6875 z m -17.1875,57.03127 q 0,-3.0274 8.98438,-9.375 l 0,11.7187 q 0,2.7344 -1.5625,2.7344 -1.75782,0 -4.6875,-1.9531 -2.73438,-1.8555 -2.73438,-3.125 z" />
    </clipPath>
    <marker
       inkscape:stockid="TriangleOutM"
       orient="auto"
       refY="0"
       refX="0"
       id="marker6825-4-9"
       style="overflow:visible"
       inkscape:isstock="true">
      <path
         id="path6827-0-5"
         d="m 5.77,0 -8.65,5 0,-10 8.65,5 z"
         style="fill:#ff0000;fill-opacity:1;fill-rule:evenodd;stroke:#ff0000;stroke-width:1pt;stroke-opacity:1"
         transform="scale(0.4,0.4)"
         inkscape:connector-curvature="0" />
    </marker>
    <marker
       inkscape:stockid="TriangleOutM"
       orient="auto"
       refY="0"
       refX="0"
       id="marker6825-4-7"
       style="overflow:visible"
       inkscape:isstock="true">
      <path
         id="path6827-0-0"
         d="m 5.77,0 -8.65,5 0,-10 8.65,5 z"
         style="fill:#ff0000;fill-opacity:1;fill-rule:evenodd;stroke:#ff0000;stroke-width:1pt;stroke-opacity:1"
         transform="scale(0.4,0.4)"
         inkscape:connector-curvature="0" />
    </marker>
    <marker
       inkscape:stockid="TriangleOutM"
       orient="auto"
       refY="0"
       refX="0"
       id="marker6825-4-4"
       style="overflow:visible"
       inkscape:isstock="true">
      <path
         id="path6827-0-2"
         d="m 5.77,0 -8.65,5 0,-10 8.65,5 z"
         style="fill:#ff0000;fill-opacity:1;fill-rule:evenodd;stroke:#ff0000;stroke-width:1pt;stroke-opacity:1"
         transform="scale(0.4,0.4)"
         inkscape:connector-curvature="0" />
    </marker>
    <marker
       inkscape:stockid="TriangleOutM"
       orient="auto"
       refY="0"
       refX="0"
       id="marker6825-4-47"
       style="overflow:visible"
       inkscape:isstock="true">
      <path
         id="path6827-0-53"
         d="m 5.77,0 -8.65,5 0,-10 8.65,5 z"
         style="fill:#ff0000;fill-opacity:1;fill-rule:evenodd;stroke:#ff0000;stroke-width:1pt;stroke-opacity:1"
         transform="scale(0.4,0.4)"
         inkscape:connector-curvature="0" />
    </marker>
  </defs>
  <sodipodi:namedview
     id="base"
     pagecolor="#ffffff"
     bordercolor="#666666"
     borderopacity="1.0"
     inkscape:pageopacity="0.0"
     inkscape:pageshadow="2"
     inkscape:zoom="1.4175807"
     inkscape:cx="228.34958"
     inkscape:cy="71.068802"
     inkscape:document-units="px"
     inkscape:current-layer="layer1"
     showgrid="false"
     units="px"
     inkscape:window-width="1366"
     inkscape:window-height="749"
     inkscape:window-x="0"
     inkscape:window-y="0"
     inkscape:window-maximized="0"
     inkscape:snap-intersection-paths="false"
     inkscape:snap-smooth-nodes="false"
     inkscape:object-nodes="false"
     showguides="false" />
  <metadata
     id="metadata7">
    <rdf:RDF>
      <cc:Work
         rdf:about="">
        <dc:format>image/svg+xml</dc:format>
        <dc:type
           rdf:resource="http://purl.org/dc/dcmitype/StillImage" />
        <dc:title />
      </cc:Work>
    </rdf:RDF>
  </metadata>
  <g
     inkscape:label="Layer 1"
     inkscape:groupmode="layer"
     id="layer1"
     transform="translate(0,-932.36216)">
    <path
       style="opacity:1;fill:#c8c8c8;fill-opacity:1;stroke:none;stroke-width:1.38716519;stroke-linecap:round;stroke-linejoin:miter;stroke-miterlimit:4;stroke-dasharray:none;stroke-dashoffset:0;stroke-opacity:1"
       clip-path="url(#clipPath4463)"
       d="m 210,942.36207 100,0 0,100.00013 -100,0 z"
       id="rect4223-8"
       inkscape:connector-curvature="0" />
    <path
       style="opacity:1;fill:#000000;fill-opacity:1;stroke:none;stroke-width:1.33659101;stroke-linecap:round;stroke-linejoin:miter;stroke-miterlimit:4;stroke-dasharray:none;stroke-dashoffset:0;stroke-opacity:1"
       clip-path="url(#clipPath4447)"
       d="m 10,942.36212 100,0 0,99.99998 -100,0 z"
       id="rect4225"
       inkscape:connector-curvature="0" />
    <path
       style="opacity:1;fill:#c8c8c8;fill-opacity:1;stroke:none;stroke-width:1.38716519;stroke-linecap:round;stroke-linejoin:miter;stroke-miterlimit:4;stroke-dasharray:none;stroke-dashoffset:0;stroke-opacity:1"
       clip-path="url(#clipPath4455)"
       d="m 110,942.36218 100,0 0,100.00002 -100,0 z"
       id="rect4223"
       inkscape:connector-curvature="0" />
    <path
       style="opacity:1;fill:#646464;fill-opacity:1;fill-rule:evenodd;stroke:none;stroke-width:2;stroke-linecap:round;stroke-linejoin:miter;stroke-miterlimit:4;stroke-dasharray:none;stroke-dashoffset:0;stroke-opacity:1;marker-end:"
       clip-path="url(#clipPath4371)"
       d="m 310,942.36214 100,0 0,100.00006 -100,0 z"
       id="rect4627"
       inkscape:connector-curvature="0" />
    <path
       style="opacity:1;fill:#646464;fill-opacity:1;fill-rule:evenodd;stroke:none;stroke-width:1px;stroke-linecap:butt;stroke-linejoin:miter;stroke-opacity:1"
       d="m 125.46054,976.89793 2.00731,11.38887 15.93059,-6.47149 5.46875,-1.95313 18.1461,-3.43497 -6.19948,-11.89871 -11.556,10.25556 -5.85937,2.34375 z"
       id="path4364"
       inkscape:connector-curvature="0"
       clip-path="url(#clipPath4451)"
       sodipodi:nodetypes="ccccccccc" />
    <path
       style="opacity:1;fill:#646464;fill-opacity:1;fill-rule:evenodd;stroke:none;stroke-width:1px;stroke-linecap:butt;stroke-linejoin:miter;stroke-opacity:1"
       d="m 226.75771,950.73323 0.17387,83.34667 68.41826,-2.64 0.55664,-29.2038 -45.29613,-49.48491 z"
       id="path4364-8"
       inkscape:connector-curvature="0"
       clip-path="url(#clipPath4459)"
       sodipodi:nodetypes="cccccc" />
    <circle
       style="opacity:0.6;fill:#00ff00;fill-opacity:1;stroke:none;stroke-width:2;stroke-linecap:round;stroke-linejoin:miter;stroke-miterlimit:4;stroke-dasharray:none;stroke-dashoffset:0;stroke-opacity:1"
       id="path6335"
       cx="130"
       cy="980.86218"
       clip-path="none"
       r="5" />
    <path
       style="opacity:0.6;fill:none;fill-rule:evenodd;stroke:#ff0000;stroke-width:1.5;stroke-linecap:square;stroke-linejoin:miter;stroke-miterlimit:4;stroke-dasharray:none;stroke-opacity:1;marker-end:url(#marker6825-4)"
       d="m 138.07139,988.21521 c 7.34153,-0.56165 13.40693,-3.39197 19.74955,-5.72947"
       id="path6337-7"
       inkscape:connector-curvature="0"
       sodipodi:nodetypes="cc"
       clip-path="none" />
    <circle
       style="opacity:0.6;fill:#00ff00;fill-opacity:1;stroke:none;stroke-width:2;stroke-linecap:round;stroke-linejoin:miter;stroke-miterlimit:4;stroke-dasharray:none;stroke-dashoffset:0;stroke-opacity:1"
       id="path6335-2"
       cx="242"
       cy="956.36218"
       clip-path="none"
       r="5" />
    <circle
       style="opacity:0.6;fill:#00ff00;fill-opacity:1;stroke:none;stroke-width:2;stroke-linecap:round;stroke-linejoin:miter;stroke-miterlimit:4;stroke-dasharray:none;stroke-dashoffset:0;stroke-opacity:1"
       id="path6335-9"
       cx="377"
       cy="963.36218"
       clip-path="none"
       r="5" />
    <path
       style="opacity:0.6;fill:none;fill-rule:evenodd;stroke:#ff0000;stroke-width:1.5;stroke-linecap:square;stroke-linejoin:miter;stroke-miterlimit:4;stroke-dasharray:none;stroke-opacity:1;marker-end:url(#marker6825-4-9)"
       d="m 288.60384,990.2764 c 8.29659,3.67975 12.08383,11.2763 9.81707,22.9353"
       id="path6337-7-5"
       inkscape:connector-curvature="0"
       sodipodi:nodetypes="cc"
       clip-path="none" />
    <path
       style="opacity:0.6;fill:none;fill-rule:evenodd;stroke:#ff0000;stroke-width:1.5;stroke-linecap:square;stroke-linejoin:miter;stroke-miterlimit:4;stroke-dasharray:none;stroke-opacity:1;marker-end:url(#marker6825-4-7)"
       d="m 253.79158,1021.2664 c 0.0473,17.9422 -9.51729,18.4281 -15.84301,11.7368"
       id="path6337-7-7"
       inkscape:connector-curvature="0"
       sodipodi:nodetypes="cc"
       clip-path="none" />
    <path
       style="opacity:0.6;fill:none;fill-rule:evenodd;stroke:#ff0000;stroke-width:1.5;stroke-linecap:square;stroke-linejoin:miter;stroke-miterlimit:4;stroke-dasharray:none;stroke-opacity:1;marker-end:url(#marker6825-4-4)"
       d="m 238.17636,971.48523 c -0.0882,6.29115 -0.0882,14.58306 -0.17636,21.92583"
       id="path6337-7-0"
       inkscape:connector-curvature="0"
       sodipodi:nodetypes="cc"
       clip-path="none" />
    <path
       style="opacity:0.6;fill:none;fill-rule:evenodd;stroke:#ff0000;stroke-width:1.5;stroke-linecap:square;stroke-linejoin:miter;stroke-miterlimit:4;stroke-dasharray:none;stroke-opacity:1;marker-end:url(#marker6825-4-47)"
       d="m 383.76656,958.13067 c 4.90993,0.9485 7.88783,2.97633 11.22775,8.20962"
       id="path6337-7-75"
       inkscape:connector-curvature="0"
       sodipodi:nodetypes="cc"
       clip-path="none" />
  </g>
</svg>
