<?xml version="1.0" encoding="UTF-8" standalone="no"?>
<svg
   xmlns:dc="http://purl.org/dc/elements/1.1/"
   xmlns:cc="http://creativecommons.org/ns#"
   xmlns:rdf="http://www.w3.org/1999/02/22-rdf-syntax-ns#"
   xmlns:svg="http://www.w3.org/2000/svg"
   xmlns="http://www.w3.org/2000/svg"
   xmlns:sodipodi="http://sodipodi.sourceforge.net/DTD/sodipodi-0.dtd"
   xmlns:inkscape="http://www.inkscape.org/namespaces/inkscape"
   version="1.1"
   id="svg2"
   viewBox="0 0 320 120"
   height="120"
   width="320"
   inkscape:version="0.91 r13725"
   sodipodi:docname="ア-bw.svg">
  <sodipodi:namedview
     pagecolor="#ffffff"
     bordercolor="#666666"
     borderopacity="1"
     objecttolerance="10"
     gridtolerance="10"
     guidetolerance="10"
     inkscape:pageopacity="0"
     inkscape:pageshadow="2"
     inkscape:window-width="1366"
     inkscape:window-height="749"
     id="namedview4745"
     showgrid="false"
     inkscape:zoom="7.4422989"
     inkscape:cx="164.75044"
     inkscape:cy="73.11641"
     inkscape:window-x="0"
     inkscape:window-y="0"
     inkscape:window-maximized="0"
     inkscape:current-layer="svg2" />
  <defs
     id="defs4">
    <marker
       style="overflow:visible"
       id="marker6825"
       refX="0"
       refY="0"
       orient="auto">
      <path
         transform="scale(0.4,0.4)"
         style="fill:#ff0000;fill-opacity:1;fill-rule:evenodd;stroke:#ff0000;stroke-width:1pt;stroke-opacity:1"
         d="m 5.77,0 -8.65,5 0,-10 8.65,5 z"
         id="path6827" />
    </marker>
    <marker
       style="overflow:visible"
       id="EmptyTriangleOutM"
       refX="0"
       refY="0"
       orient="auto">
      <path
         transform="matrix(0.4,0,0,0.4,-1.8,0)"
         style="fill:#ffffff;fill-rule:evenodd;stroke:#ff0000;stroke-width:1pt;stroke-opacity:0.58823529"
         d="m 5.77,0 -8.65,5 0,-10 8.65,5 z"
         id="path4860" />
    </marker>
    <marker
       style="overflow:visible"
       id="TriangleOutL"
       refX="0"
       refY="0"
       orient="auto">
      <path
         transform="scale(0.8,0.8)"
         style="fill:#ff0000;fill-opacity:0.58823529;fill-rule:evenodd;stroke:#ff0000;stroke-width:1pt;stroke-opacity:0.58823529"
         d="m 5.77,0 -8.65,5 0,-10 8.65,5 z"
         id="path4839" />
    </marker>
    <marker
       style="overflow:visible"
       id="marker5235"
       refX="0"
       refY="0"
       orient="auto">
      <path
         transform="matrix(-1.1,0,0,-1.1,-1.1,0)"
         d="M 8.7185878,4.0337352 -2.2072895,0.01601326 8.7185884,-4.0017078 c -1.7454984,2.3720609 -1.7354408,5.6174519 -6e-7,8.035443 z"
         style="fill:#ff0000;fill-opacity:0.58823529;fill-rule:evenodd;stroke:#ff0000;stroke-width:0.625;stroke-linejoin:round;stroke-opacity:0.58823529"
         id="path5237" />
    </marker>
    <marker
       style="overflow:visible"
       id="marker5177"
       refX="0"
       refY="0"
       orient="auto">
      <path
         transform="matrix(-0.8,0,0,-0.8,-10,0)"
         style="fill:#ff0000;fill-opacity:0.58823529;fill-rule:evenodd;stroke:#ff0000;stroke-width:1pt;stroke-opacity:0.58823529"
         d="M 0,0 5,-5 -12.5,0 5,5 0,0 Z"
         id="path5179" />
    </marker>
    <marker
       style="overflow:visible"
       id="Arrow1Mstart"
       refX="0"
       refY="0"
       orient="auto">
      <path
         transform="matrix(0.4,0,0,0.4,4,0)"
         style="fill:#ff0000;fill-opacity:0.58823529;fill-rule:evenodd;stroke:#ff0000;stroke-width:1pt;stroke-opacity:0.58823529"
         d="M 0,0 5,-5 -12.5,0 5,5 0,0 Z"
         id="path4703" />
    </marker>
    <marker
       style="overflow:visible"
       id="Arrow1Lend"
       refX="0"
       refY="0"
       orient="auto">
      <path
         transform="matrix(-0.8,0,0,-0.8,-10,0)"
         style="fill:#ff0000;fill-opacity:0.58823529;fill-rule:evenodd;stroke:#ff0000;stroke-width:1pt;stroke-opacity:0.58823529"
         d="M 0,0 5,-5 -12.5,0 5,5 0,0 Z"
         id="path4700" />
    </marker>
    <marker
       style="overflow:visible"
       id="marker5031"
       refX="0"
       refY="0"
       orient="auto">
      <path
         transform="scale(-0.6,-0.6)"
         d="M 8.7185878,4.0337352 -2.2072895,0.01601326 8.7185884,-4.0017078 c -1.7454984,2.3720609 -1.7354408,5.6174519 -6e-7,8.035443 z"
         style="fill:#ff0000;fill-opacity:0.58823529;fill-rule:evenodd;stroke:#ff0000;stroke-width:0.625;stroke-linejoin:round;stroke-opacity:0.58823529"
         id="path5033" />
    </marker>
    <marker
       style="overflow:visible"
       id="Arrow2Mend"
       refX="0"
       refY="0"
       orient="auto">
      <path
         transform="scale(-0.6,-0.6)"
         d="M 8.7185878,4.0337352 -2.2072895,0.01601326 8.7185884,-4.0017078 c -1.7454984,2.3720609 -1.7354408,5.6174519 -6e-7,8.035443 z"
         style="fill:#ff0000;fill-opacity:0.58823529;fill-rule:evenodd;stroke:#ff0000;stroke-width:0.625;stroke-linejoin:round;stroke-opacity:0.58823529"
         id="path4724" />
    </marker>
    <marker
       style="overflow:visible"
       id="Arrow1Mend"
       refX="0"
       refY="0"
       orient="auto">
      <path
         transform="matrix(-0.4,0,0,-0.4,-4,0)"
         style="fill:#ff0000;fill-opacity:0.58823529;fill-rule:evenodd;stroke:#ff0000;stroke-width:1pt;stroke-opacity:0.58823529"
         d="M 0,0 5,-5 -12.5,0 5,5 0,0 Z"
         id="path4706" />
    </marker>
    <marker
       style="overflow:visible"
       id="Arrow2Lend"
       refX="0"
       refY="0"
       orient="auto">
      <path
         transform="matrix(-1.1,0,0,-1.1,-1.1,0)"
         d="M 8.7185878,4.0337352 -2.2072895,0.01601326 8.7185884,-4.0017078 c -1.7454984,2.3720609 -1.7354408,5.6174519 -6e-7,8.035443 z"
         style="fill:#ff0000;fill-opacity:0.58823529;fill-rule:evenodd;stroke:#ff0000;stroke-width:0.625;stroke-linejoin:round;stroke-opacity:0.58823529"
         id="path4718" />
    </marker>
    <clipPath
       id="clipPath4252"
       clipPathUnits="userSpaceOnUse">
      <text
         xml:space="preserve"
         style="font-style:normal;font-weight:normal;font-size:110.1632309px;line-height:125%;font-family:sans-serif;letter-spacing:0px;word-spacing:0px;fill:#ff1a01;fill-opacity:1;stroke:none;stroke-width:1px;stroke-linecap:butt;stroke-linejoin:miter;stroke-opacity:1"
         x="-79.682037"
         y="982.66449"
         id="text4254"
         transform="scale(0.95401358,1.0482031)"><tspan
           style="font-style:normal;font-variant:normal;font-weight:normal;font-stretch:normal;font-size:100px;font-family:'EPSON 太明朝体Ｂ';-inkscape-font-specification:'EPSON 太明朝体Ｂ'"
           x="-79.682037"
           y="982.66449"
           id="tspan4256">┃ああああ┃</tspan></text>
    </clipPath>
    <marker
       style="overflow:visible"
       id="marker6825-4"
       refX="0"
       refY="0"
       orient="auto">
      <path
         transform="scale(0.4,0.4)"
         style="fill:#ff0000;fill-opacity:1;fill-rule:evenodd;stroke:#ff0000;stroke-width:1pt;stroke-opacity:1"
         d="m 5.77,0 -8.65,5 0,-10 8.65,5 z"
         id="path6827-0" />
    </marker>
    <marker
       style="overflow:visible"
       id="marker6825-4-3"
       refX="0"
       refY="0"
       orient="auto">
      <path
         transform="scale(0.4,0.4)"
         style="fill:#ff0000;fill-opacity:1;fill-rule:evenodd;stroke:#ff0000;stroke-width:1pt;stroke-opacity:1"
         d="m 5.77,0 -8.65,5 0,-10 8.65,5 z"
         id="path6827-0-1" />
    </marker>
    <clipPath
       clipPathUnits="userSpaceOnUse"
       id="clipPath5480">
      <path
         inkscape:connector-curvature="0"
         id="path5482"
         style="font-style:normal;font-variant:normal;font-weight:normal;font-stretch:normal;font-size:100px;line-height:125%;font-family:'EPSON 正楷書体Ｍ';-inkscape-font-specification:'EPSON 正楷書体Ｍ';letter-spacing:0px;word-spacing:0px;fill:#ff0000;fill-opacity:1;stroke:none;stroke-width:1px;stroke-linecap:butt;stroke-linejoin:miter;stroke-opacity:1"
         d="m 55.898437,977.12781 q 0.09766,0.78125 1.5625,2.73437 1.5625,2.05078 1.5625,3.90625 -0.09766,12.30469 -3.90625,22.26567 -4.199218,11.5234 -11.71875,20.7031 -1.269531,1.5625 -2.34375,2.7344 l 0.390625,0.7812 q 1.464844,-0.7812 3.125,-1.9531 10.742188,-8.9844 16.015625,-20.7031 4.296875,-8.59379 5.859375,-23.43754 0.390625,-1.46485 0.78125,-3.51563 -3.125,-4.29687 -10.9375,-4.29687 l -0.390625,0.78125 z m -29.6875,-6.25 q 0.195313,1.66015 3.90625,4.29687 3.90625,2.73438 5.46875,2.73438 0.78125,0 8.203125,-2.34375 17.96875,-4.29688 38.671875,-7.8125 1.171875,0 1.171875,1.5625 -5.078125,7.42187 -11.71875,14.45312 -2.050781,1.95313 -3.515625,3.51563 l 0.390625,0.78125 q 2.246094,-0.78125 5.46875,-2.34375 8.789063,-5.66406 19.140625,-15.23438 3.125,-0.39062 3.125,-1.17187 0,-3.8086 -9.375,-7.42188 -3.320312,1.17188 -5.859375,1.95313 -24.023437,4.10156 -46.484375,7.42187 -2.734375,0 -8.203125,-1.17187 l -0.390625,0.78125 z" />
    </clipPath>
    <clipPath
       clipPathUnits="userSpaceOnUse"
       id="clipPath5484">
      <path
         inkscape:connector-curvature="0"
         id="path5486"
         style="font-style:normal;font-variant:normal;font-weight:normal;font-stretch:normal;font-size:100px;line-height:125%;font-family:'EPSON 正楷書体Ｍ';-inkscape-font-specification:'EPSON 正楷書体Ｍ';letter-spacing:0px;word-spacing:0px;fill:#ff0000;fill-opacity:1;stroke:none;stroke-width:1px;stroke-linecap:butt;stroke-linejoin:miter;stroke-opacity:1"
         d="m 255.89844,977.12781 q 0.0977,0.78125 1.5625,2.73437 1.5625,2.05078 1.5625,3.90625 -0.0977,12.30469 -3.90625,22.26567 -4.19922,11.5234 -11.71875,20.7031 -1.26953,1.5625 -2.34375,2.7344 l 0.39062,0.7812 q 1.46485,-0.7812 3.125,-1.9531 10.74219,-8.9844 16.01563,-20.7031 4.29687,-8.59379 5.85937,-23.43754 0.39063,-1.46485 0.78125,-3.51563 -3.125,-4.29687 -10.9375,-4.29687 l -0.39062,0.78125 z m -29.6875,-6.25 q 0.19531,1.66015 3.90625,4.29687 3.90625,2.73438 5.46875,2.73438 0.78125,0 8.20312,-2.34375 17.96875,-4.29688 38.67188,-7.8125 1.17187,0 1.17187,1.5625 -5.07812,7.42187 -11.71875,14.45312 -2.05078,1.95313 -3.51562,3.51563 l 0.39062,0.78125 q 2.2461,-0.78125 5.46875,-2.34375 8.78906,-5.66406 19.14063,-15.23438 3.125,-0.39062 3.125,-1.17187 0,-3.8086 -9.375,-7.42188 -3.32032,1.17188 -5.85938,1.95313 -24.02344,4.10156 -46.48437,7.42187 -2.73438,0 -8.20313,-1.17187 l -0.39062,0.78125 z" />
    </clipPath>
    <clipPath
       clipPathUnits="userSpaceOnUse"
       id="clipPath5488">
      <path
         inkscape:connector-curvature="0"
         id="path5490"
         style="font-style:normal;font-variant:normal;font-weight:normal;font-stretch:normal;font-size:100px;line-height:125%;font-family:'EPSON 正楷書体Ｍ';-inkscape-font-specification:'EPSON 正楷書体Ｍ';letter-spacing:0px;word-spacing:0px;fill:#ff0000;fill-opacity:1;stroke:none;stroke-width:1px;stroke-linecap:butt;stroke-linejoin:miter;stroke-opacity:1"
         d="m 155.89844,977.12781 q 0.0977,0.78125 1.5625,2.73437 1.5625,2.05078 1.5625,3.90625 -0.0977,12.30469 -3.90625,22.26567 -4.19922,11.5234 -11.71875,20.7031 -1.26953,1.5625 -2.34375,2.7344 l 0.39062,0.7812 q 1.46485,-0.7812 3.125,-1.9531 10.74219,-8.9844 16.01563,-20.7031 4.29687,-8.59379 5.85937,-23.43754 0.39063,-1.46485 0.78125,-3.51563 -3.125,-4.29687 -10.9375,-4.29687 l -0.39062,0.78125 z m -29.6875,-6.25 q 0.19531,1.66015 3.90625,4.29687 3.90625,2.73438 5.46875,2.73438 0.78125,0 8.20312,-2.34375 17.96875,-4.29688 38.67188,-7.8125 1.17187,0 1.17187,1.5625 -5.07812,7.42187 -11.71875,14.45312 -2.05078,1.95313 -3.51562,3.51563 l 0.39062,0.78125 q 2.2461,-0.78125 5.46875,-2.34375 8.78906,-5.66406 19.14063,-15.23438 3.125,-0.39062 3.125,-1.17187 0,-3.8086 -9.375,-7.42188 -3.32032,1.17188 -5.85938,1.95313 -24.02344,4.10156 -46.48437,7.42187 -2.73438,0 -8.20313,-1.17187 l -0.39062,0.78125 z" />
    </clipPath>
    <clipPath
       clipPathUnits="userSpaceOnUse"
       id="clipPath5492">
      <path
         inkscape:connector-curvature="0"
         id="path5494"
         style="font-style:normal;font-variant:normal;font-weight:normal;font-stretch:normal;font-size:100px;line-height:125%;font-family:'EPSON 正楷書体Ｍ';-inkscape-font-specification:'EPSON 正楷書体Ｍ';letter-spacing:0px;word-spacing:0px;fill:#ff0000;fill-opacity:1;stroke:none;stroke-width:1px;stroke-linecap:butt;stroke-linejoin:miter;stroke-opacity:1"
         d="m 155.89844,977.12781 q 0.0977,0.78125 1.5625,2.73437 1.5625,2.05078 1.5625,3.90625 -0.0977,12.30469 -3.90625,22.26567 -4.19922,11.5234 -11.71875,20.7031 -1.26953,1.5625 -2.34375,2.7344 l 0.39062,0.7812 q 1.46485,-0.7812 3.125,-1.9531 10.74219,-8.9844 16.01563,-20.7031 4.29687,-8.59379 5.85937,-23.43754 0.39063,-1.46485 0.78125,-3.51563 -3.125,-4.29687 -10.9375,-4.29687 l -0.39062,0.78125 z m -29.6875,-6.25 q 0.19531,1.66015 3.90625,4.29687 3.90625,2.73438 5.46875,2.73438 0.78125,0 8.20312,-2.34375 17.96875,-4.29688 38.67188,-7.8125 1.17187,0 1.17187,1.5625 -5.07812,7.42187 -11.71875,14.45312 -2.05078,1.95313 -3.51562,3.51563 l 0.39062,0.78125 q 2.2461,-0.78125 5.46875,-2.34375 8.78906,-5.66406 19.14063,-15.23438 3.125,-0.39062 3.125,-1.17187 0,-3.8086 -9.375,-7.42188 -3.32032,1.17188 -5.85938,1.95313 -24.02344,4.10156 -46.48437,7.42187 -2.73438,0 -8.20313,-1.17187 l -0.39062,0.78125 z" />
    </clipPath>
  </defs>
  <metadata
     id="metadata7">
    <rdf:RDF>
      <cc:Work
         rdf:about="">
        <dc:format>image/svg+xml</dc:format>
        <dc:type
           rdf:resource="http://purl.org/dc/dcmitype/StillImage" />
        <dc:title />
      </cc:Work>
    </rdf:RDF>
  </metadata>
  <path
     inkscape:connector-curvature="0"
     style="opacity:1;fill:#000000;fill-opacity:1;stroke:none;stroke-width:1.33659101;stroke-linecap:round;stroke-linejoin:miter;stroke-miterlimit:4;stroke-dasharray:none;stroke-dashoffset:0;stroke-opacity:1"
     clip-path="url(#clipPath5480)"
     d="m 10,942.36212 100,0 0,99.99998 -100,0 z"
     id="rect4225"
     transform="translate(0,-932.36216)" />
  <path
     inkscape:connector-curvature="0"
     style="opacity:1;fill:#c8c8c8;fill-opacity:1;stroke:none;stroke-width:1.38716519;stroke-linecap:round;stroke-linejoin:miter;stroke-miterlimit:4;stroke-dasharray:none;stroke-dashoffset:0;stroke-opacity:1"
     clip-path="url(#clipPath5492)"
     d="m 110,942.36218 100,0 0,100.00002 -100,0 z"
     id="rect4223"
     transform="translate(0,-932.36216)" />
  <path
     inkscape:connector-curvature="0"
     style="opacity:1;fill:#646464;fill-opacity:1;fill-rule:evenodd;stroke:none;stroke-width:2;stroke-linecap:round;stroke-linejoin:miter;stroke-miterlimit:4;stroke-dasharray:none;stroke-dashoffset:0;stroke-opacity:1"
     clip-path="url(#clipPath5484)"
     d="m 210,942.36214 100,0 0,100.00006 -100,0 z"
     id="rect4627"
     transform="translate(0,-932.36216)" />
  <path
     inkscape:connector-curvature="0"
     style="opacity:1;fill:#646464;fill-opacity:1;fill-rule:evenodd;stroke:none;stroke-width:1px;stroke-linecap:butt;stroke-linejoin:miter;stroke-opacity:1"
     d="m 176.22645,989.57742 24.979,-19.94772 -8.55414,-10.38567 -70.3678,10.89027 10.3337,10.94547 48.39433,-11.44209 -14.55532,19.13434 z"
     id="path4364"
     clip-path="url(#clipPath5488)"
     transform="translate(0,-932.36216)" />
  <circle
     style="opacity:0.6;fill:#00ff00;fill-opacity:1;stroke:none;stroke-width:2;stroke-linecap:round;stroke-linejoin:miter;stroke-miterlimit:4;stroke-dasharray:none;stroke-dashoffset:0;stroke-opacity:1"
     id="path6335"
     cx="129"
     cy="40.000023"
     r="5"
     clip-path="none" />
  <path
     inkscape:connector-curvature="0"
     style="opacity:0.6;fill:none;fill-rule:evenodd;stroke:#ff0000;stroke-width:1.5;stroke-linecap:square;stroke-linejoin:miter;stroke-miterlimit:4;stroke-dasharray:none;stroke-opacity:1;marker-end:url(#marker6825-4)"
     d="m 147.31876,46.84293 c 8.57833,-1.979905 16.64525,-4.045045 27.26052,-5.685462 -1.7166,3.038725 -4.49959,5.162509 -6.56814,7.145356"
     id="path6337-7"
     clip-path="none"
     sodipodi:nodetypes="ccc" />
  <circle
     style="opacity:0.6;fill:#00ff00;fill-opacity:1;stroke:none;stroke-width:2;stroke-linecap:round;stroke-linejoin:miter;stroke-miterlimit:4;stroke-dasharray:none;stroke-dashoffset:0;stroke-opacity:1"
     id="path6335-1"
     cx="259"
     cy="46.000023"
     r="5"
     clip-path="none" />
  <path
     inkscape:connector-curvature="0"
     style="opacity:0.6;fill:none;fill-rule:evenodd;stroke:#ff0000;stroke-width:1.5;stroke-linecap:square;stroke-linejoin:miter;stroke-miterlimit:4;stroke-dasharray:none;stroke-opacity:1;marker-end:url(#marker6825-4-3)"
     d="m 253.50367,58.99165 c -1.88566,10.63829 -6.18529,20.10289 -11.75,29.56329"
     id="path6337-7-0"
     clip-path="none" />
</svg>
