<?xml version="1.0" encoding="UTF-8" standalone="no"?>
<svg
   xmlns:dc="http://purl.org/dc/elements/1.1/"
   xmlns:cc="http://creativecommons.org/ns#"
   xmlns:rdf="http://www.w3.org/1999/02/22-rdf-syntax-ns#"
   xmlns:svg="http://www.w3.org/2000/svg"
   xmlns="http://www.w3.org/2000/svg"
   xmlns:sodipodi="http://sodipodi.sourceforge.net/DTD/sodipodi-0.dtd"
   xmlns:inkscape="http://www.inkscape.org/namespaces/inkscape"
   version="1.1"
   id="svg2"
   viewBox="0 0 420 120"
   height="120"
   width="420"
   inkscape:version="0.91 r13725"
   sodipodi:docname="ウ-bw.svg">
  <sodipodi:namedview
     pagecolor="#ffffff"
     bordercolor="#666666"
     borderopacity="1"
     objecttolerance="10"
     gridtolerance="10"
     guidetolerance="10"
     inkscape:pageopacity="0"
     inkscape:pageshadow="2"
     inkscape:window-width="1366"
     inkscape:window-height="749"
     id="namedview8056"
     showgrid="false"
     inkscape:zoom="8.0190474"
     inkscape:cx="358.77029"
     inkscape:cy="59.89681"
     inkscape:window-x="0"
     inkscape:window-y="0"
     inkscape:window-maximized="0"
     inkscape:current-layer="svg2" />
  <defs
     id="defs4">
    <marker
       style="overflow:visible"
       id="marker6825"
       refX="0"
       refY="0"
       orient="auto">
      <path
         transform="scale(0.4,0.4)"
         style="fill:#ff0000;fill-opacity:1;fill-rule:evenodd;stroke:#ff0000;stroke-width:1pt;stroke-opacity:1"
         d="m 5.77,0 -8.65,5 0,-10 8.65,5 z"
         id="path6827" />
    </marker>
    <marker
       style="overflow:visible"
       id="EmptyTriangleOutM"
       refX="0"
       refY="0"
       orient="auto">
      <path
         transform="matrix(0.4,0,0,0.4,-1.8,0)"
         style="fill:#ffffff;fill-rule:evenodd;stroke:#ff0000;stroke-width:1pt;stroke-opacity:0.58823529"
         d="m 5.77,0 -8.65,5 0,-10 8.65,5 z"
         id="path4860" />
    </marker>
    <marker
       style="overflow:visible"
       id="TriangleOutL"
       refX="0"
       refY="0"
       orient="auto">
      <path
         transform="scale(0.8,0.8)"
         style="fill:#ff0000;fill-opacity:0.58823529;fill-rule:evenodd;stroke:#ff0000;stroke-width:1pt;stroke-opacity:0.58823529"
         d="m 5.77,0 -8.65,5 0,-10 8.65,5 z"
         id="path4839" />
    </marker>
    <marker
       style="overflow:visible"
       id="marker5235"
       refX="0"
       refY="0"
       orient="auto">
      <path
         transform="matrix(-1.1,0,0,-1.1,-1.1,0)"
         d="M 8.7185878,4.0337352 -2.2072895,0.01601326 8.7185884,-4.0017078 c -1.7454984,2.3720609 -1.7354408,5.6174519 -6e-7,8.035443 z"
         style="fill:#ff0000;fill-opacity:0.58823529;fill-rule:evenodd;stroke:#ff0000;stroke-width:0.625;stroke-linejoin:round;stroke-opacity:0.58823529"
         id="path5237" />
    </marker>
    <marker
       style="overflow:visible"
       id="marker5177"
       refX="0"
       refY="0"
       orient="auto">
      <path
         transform="matrix(-0.8,0,0,-0.8,-10,0)"
         style="fill:#ff0000;fill-opacity:0.58823529;fill-rule:evenodd;stroke:#ff0000;stroke-width:1pt;stroke-opacity:0.58823529"
         d="M 0,0 5,-5 -12.5,0 5,5 0,0 Z"
         id="path5179" />
    </marker>
    <marker
       style="overflow:visible"
       id="Arrow1Mstart"
       refX="0"
       refY="0"
       orient="auto">
      <path
         transform="matrix(0.4,0,0,0.4,4,0)"
         style="fill:#ff0000;fill-opacity:0.58823529;fill-rule:evenodd;stroke:#ff0000;stroke-width:1pt;stroke-opacity:0.58823529"
         d="M 0,0 5,-5 -12.5,0 5,5 0,0 Z"
         id="path4703" />
    </marker>
    <marker
       style="overflow:visible"
       id="Arrow1Lend"
       refX="0"
       refY="0"
       orient="auto">
      <path
         transform="matrix(-0.8,0,0,-0.8,-10,0)"
         style="fill:#ff0000;fill-opacity:0.58823529;fill-rule:evenodd;stroke:#ff0000;stroke-width:1pt;stroke-opacity:0.58823529"
         d="M 0,0 5,-5 -12.5,0 5,5 0,0 Z"
         id="path4700" />
    </marker>
    <marker
       style="overflow:visible"
       id="marker5031"
       refX="0"
       refY="0"
       orient="auto">
      <path
         transform="scale(-0.6,-0.6)"
         d="M 8.7185878,4.0337352 -2.2072895,0.01601326 8.7185884,-4.0017078 c -1.7454984,2.3720609 -1.7354408,5.6174519 -6e-7,8.035443 z"
         style="fill:#ff0000;fill-opacity:0.58823529;fill-rule:evenodd;stroke:#ff0000;stroke-width:0.625;stroke-linejoin:round;stroke-opacity:0.58823529"
         id="path5033" />
    </marker>
    <marker
       style="overflow:visible"
       id="Arrow2Mend"
       refX="0"
       refY="0"
       orient="auto">
      <path
         transform="scale(-0.6,-0.6)"
         d="M 8.7185878,4.0337352 -2.2072895,0.01601326 8.7185884,-4.0017078 c -1.7454984,2.3720609 -1.7354408,5.6174519 -6e-7,8.035443 z"
         style="fill:#ff0000;fill-opacity:0.58823529;fill-rule:evenodd;stroke:#ff0000;stroke-width:0.625;stroke-linejoin:round;stroke-opacity:0.58823529"
         id="path4724" />
    </marker>
    <marker
       style="overflow:visible"
       id="Arrow1Mend"
       refX="0"
       refY="0"
       orient="auto">
      <path
         transform="matrix(-0.4,0,0,-0.4,-4,0)"
         style="fill:#ff0000;fill-opacity:0.58823529;fill-rule:evenodd;stroke:#ff0000;stroke-width:1pt;stroke-opacity:0.58823529"
         d="M 0,0 5,-5 -12.5,0 5,5 0,0 Z"
         id="path4706" />
    </marker>
    <marker
       style="overflow:visible"
       id="Arrow2Lend"
       refX="0"
       refY="0"
       orient="auto">
      <path
         transform="matrix(-1.1,0,0,-1.1,-1.1,0)"
         d="M 8.7185878,4.0337352 -2.2072895,0.01601326 8.7185884,-4.0017078 c -1.7454984,2.3720609 -1.7354408,5.6174519 -6e-7,8.035443 z"
         style="fill:#ff0000;fill-opacity:0.58823529;fill-rule:evenodd;stroke:#ff0000;stroke-width:0.625;stroke-linejoin:round;stroke-opacity:0.58823529"
         id="path4718" />
    </marker>
    <clipPath
       id="clipPath4252"
       clipPathUnits="userSpaceOnUse">
      <text
         xml:space="preserve"
         style="font-style:normal;font-weight:normal;font-size:110.1632309px;line-height:125%;font-family:sans-serif;letter-spacing:0px;word-spacing:0px;fill:#ff1a01;fill-opacity:1;stroke:none;stroke-width:1px;stroke-linecap:butt;stroke-linejoin:miter;stroke-opacity:1"
         x="-79.682037"
         y="982.66449"
         id="text4254"
         transform="scale(0.95401358,1.0482031)"><tspan
           style="font-style:normal;font-variant:normal;font-weight:normal;font-stretch:normal;font-size:100px;font-family:'EPSON 太明朝体Ｂ';-inkscape-font-specification:'EPSON 太明朝体Ｂ'"
           x="-79.682037"
           y="982.66449"
           id="tspan4256">┃ああああ┃</tspan></text>
    </clipPath>
    <marker
       style="overflow:visible"
       id="marker6825-4"
       refX="0"
       refY="0"
       orient="auto">
      <path
         transform="scale(0.4,0.4)"
         style="fill:#ff0000;fill-opacity:1;fill-rule:evenodd;stroke:#ff0000;stroke-width:1pt;stroke-opacity:1"
         d="m 5.77,0 -8.65,5 0,-10 8.65,5 z"
         id="path6827-0" />
    </marker>
    <marker
       style="overflow:visible"
       id="marker6825-4-2"
       refX="0"
       refY="0"
       orient="auto">
      <path
         transform="scale(0.4,0.4)"
         style="fill:#ff0000;fill-opacity:1;fill-rule:evenodd;stroke:#ff0000;stroke-width:1pt;stroke-opacity:1"
         d="m 5.77,0 -8.65,5 0,-10 8.65,5 z"
         id="path6827-0-9" />
    </marker>
    <marker
       style="overflow:visible"
       id="marker6825-4-4"
       refX="0"
       refY="0"
       orient="auto">
      <path
         transform="scale(0.4,0.4)"
         style="fill:#ff0000;fill-opacity:1;fill-rule:evenodd;stroke:#ff0000;stroke-width:1pt;stroke-opacity:1"
         d="m 5.77,0 -8.65,5 0,-10 8.65,5 z"
         id="path6827-0-98" />
    </marker>
    <clipPath
       clipPathUnits="userSpaceOnUse"
       id="clipPath8826">
      <path
         inkscape:connector-curvature="0"
         id="path8828"
         style="font-style:normal;font-variant:normal;font-weight:normal;font-stretch:normal;font-size:100px;line-height:125%;font-family:'EPSON 正楷書体Ｍ';-inkscape-font-specification:'EPSON 正楷書体Ｍ';letter-spacing:0px;word-spacing:0px;fill:#ff0000;fill-opacity:1;stroke:none;stroke-width:1px;stroke-linecap:butt;stroke-linejoin:miter;stroke-opacity:1"
         d="m 60.976562,961.50281 q -3.125,-3.90625 -10.546875,-3.90625 l -0.390625,0.78125 q 0,0.78125 1.953125,2.34375 0.976563,0.68359 1.171875,2.73437 0.390625,5.46875 0.390625,10.9375 -9.570312,1.17188 -17.578125,1.95313 l -2.34375,0 q -2.734375,-1.17188 -5.46875,-1.95313 l -0.390625,0.78125 q 0,0.78125 0.78125,2.34375 1.171875,2.2461 1.171875,2.73438 0,9.375 -0.390625,13.67187 2.246094,6.25002 4.6875,6.25002 1.953125,0 1.953125,-4.29689 -0.390625,-7.61719 -0.78125,-16.40625 1.953125,0.39062 3.515625,0.39062 18.359375,-2.73437 39.84375,-4.6875 2.34375,0 2.34375,1.95313 -10.15625,30.46879 -28.90625,47.65629 -2.539062,2.2461 -4.6875,3.9062 l 0.390625,0.7813 q 1.269532,-0.586 3.125,-1.5625 21.875,-12.8907 37.890625,-50.00004 2.34375,-1.46485 2.34375,-1.95313 0,-2.53906 -8.984375,-5.85937 -2.34375,0.78125 -4.296875,1.17187 -8.789062,1.36719 -18.359375,2.34375 0.488282,-6.44531 1.5625,-12.10937 z" />
    </clipPath>
    <clipPath
       clipPathUnits="userSpaceOnUse"
       id="clipPath8845">
      <path
         inkscape:connector-curvature="0"
         id="path8847"
         style="font-style:normal;font-variant:normal;font-weight:normal;font-stretch:normal;font-size:100px;line-height:125%;font-family:'EPSON 正楷書体Ｍ';-inkscape-font-specification:'EPSON 正楷書体Ｍ';letter-spacing:0px;word-spacing:0px;fill:#ff0000;fill-opacity:1;stroke:none;stroke-width:1px;stroke-linecap:butt;stroke-linejoin:miter;stroke-opacity:1"
         d="m 160.97656,961.50281 q -3.125,-3.90625 -10.54687,-3.90625 l -0.39063,0.78125 q 0,0.78125 1.95313,2.34375 0.97656,0.68359 1.17187,2.73437 0.39063,5.46875 0.39063,10.9375 -9.57032,1.17188 -17.57813,1.95313 l -2.34375,0 q -2.73437,-1.17188 -5.46875,-1.95313 l -0.39062,0.78125 q 0,0.78125 0.78125,2.34375 1.17187,2.2461 1.17187,2.73438 0,9.375 -0.39062,13.67187 2.24609,6.25002 4.6875,6.25002 1.95312,0 1.95312,-4.29689 -0.39062,-7.61719 -0.78125,-16.40625 1.95313,0.39062 3.51563,0.39062 18.35937,-2.73437 39.84375,-4.6875 2.34375,0 2.34375,1.95313 -10.15625,30.46879 -28.90625,47.65629 -2.53907,2.2461 -4.6875,3.9062 l 0.39062,0.7813 q 1.26953,-0.586 3.125,-1.5625 21.875,-12.8907 37.89063,-50.00004 2.34375,-1.46485 2.34375,-1.95313 0,-2.53906 -8.98438,-5.85937 -2.34375,0.78125 -4.29687,1.17187 -8.78907,1.36719 -18.35938,2.34375 0.48828,-6.44531 1.5625,-12.10937 z" />
    </clipPath>
    <clipPath
       clipPathUnits="userSpaceOnUse"
       id="clipPath8849">
      <path
         inkscape:connector-curvature="0"
         id="path8851"
         style="font-style:normal;font-variant:normal;font-weight:normal;font-stretch:normal;font-size:100px;line-height:125%;font-family:'EPSON 正楷書体Ｍ';-inkscape-font-specification:'EPSON 正楷書体Ｍ';letter-spacing:0px;word-spacing:0px;fill:#ff0000;fill-opacity:1;stroke:none;stroke-width:1px;stroke-linecap:butt;stroke-linejoin:miter;stroke-opacity:1"
         d="m 160.97656,29.14065 q -3.125,-3.90625 -10.54687,-3.90625 l -0.39063,0.78125 q 0,0.78125 1.95313,2.34375 0.97656,0.68359 1.17187,2.73437 0.39063,5.46875 0.39063,10.9375 -9.57032,1.17188 -17.57813,1.95313 l -2.34375,0 q -2.73437,-1.17188 -5.46875,-1.95313 l -0.39062,0.78125 q 0,0.78125 0.78125,2.34375 1.17187,2.2461 1.17187,2.73438 0,9.375 -0.39062,13.67187 2.24609,6.25002 4.6875,6.25002 1.95312,0 1.95312,-4.29689 -0.39062,-7.61719 -0.78125,-16.40625 1.95313,0.39062 3.51563,0.39062 18.35937,-2.73437 39.84375,-4.6875 2.34375,0 2.34375,1.95313 -10.15625,30.46879 -28.90625,47.65629 -2.53907,2.2461 -4.6875,3.9062 l 0.39062,0.7813 q 1.26953,-0.586 3.125,-1.5625 21.875,-12.8907 37.89063,-50.00004 2.34375,-1.46485 2.34375,-1.95313 0,-2.53906 -8.98438,-5.85937 -2.34375,0.78125 -4.29687,1.17187 -8.78907,1.36719 -18.35938,2.34375 0.48828,-6.44531 1.5625,-12.10937 z" />
    </clipPath>
    <clipPath
       clipPathUnits="userSpaceOnUse"
       id="clipPath8853">
      <path
         inkscape:connector-curvature="0"
         id="path8855"
         style="font-style:normal;font-variant:normal;font-weight:normal;font-stretch:normal;font-size:100px;line-height:125%;font-family:'EPSON 正楷書体Ｍ';-inkscape-font-specification:'EPSON 正楷書体Ｍ';letter-spacing:0px;word-spacing:0px;fill:#ff0000;fill-opacity:1;stroke:none;stroke-width:1px;stroke-linecap:butt;stroke-linejoin:miter;stroke-opacity:1"
         d="m 260.97656,961.50281 q -3.125,-3.90625 -10.54687,-3.90625 l -0.39063,0.78125 q 0,0.78125 1.95313,2.34375 0.97656,0.68359 1.17187,2.73437 0.39063,5.46875 0.39063,10.9375 -9.57032,1.17188 -17.57813,1.95313 l -2.34375,0 q -2.73437,-1.17188 -5.46875,-1.95313 l -0.39062,0.78125 q 0,0.78125 0.78125,2.34375 1.17187,2.2461 1.17187,2.73438 0,9.375 -0.39062,13.67187 2.24609,6.25002 4.6875,6.25002 1.95312,0 1.95312,-4.29689 -0.39062,-7.61719 -0.78125,-16.40625 1.95313,0.39062 3.51563,0.39062 18.35937,-2.73437 39.84375,-4.6875 2.34375,0 2.34375,1.95313 -10.15625,30.46879 -28.90625,47.65629 -2.53907,2.2461 -4.6875,3.9062 l 0.39062,0.7813 q 1.26953,-0.586 3.125,-1.5625 21.875,-12.8907 37.89063,-50.00004 2.34375,-1.46485 2.34375,-1.95313 0,-2.53906 -8.98438,-5.85937 -2.34375,0.78125 -4.29687,1.17187 -8.78907,1.36719 -18.35938,2.34375 0.48828,-6.44531 1.5625,-12.10937 z" />
    </clipPath>
    <clipPath
       clipPathUnits="userSpaceOnUse"
       id="clipPath8857">
      <path
         inkscape:connector-curvature="0"
         id="path8859"
         style="font-style:normal;font-variant:normal;font-weight:normal;font-stretch:normal;font-size:100px;line-height:125%;font-family:'EPSON 正楷書体Ｍ';-inkscape-font-specification:'EPSON 正楷書体Ｍ';letter-spacing:0px;word-spacing:0px;fill:#ff0000;fill-opacity:1;stroke:none;stroke-width:1px;stroke-linecap:butt;stroke-linejoin:miter;stroke-opacity:1"
         d="m 260.97656,961.50281 q -3.125,-3.90625 -10.54687,-3.90625 l -0.39063,0.78125 q 0,0.78125 1.95313,2.34375 0.97656,0.68359 1.17187,2.73437 0.39063,5.46875 0.39063,10.9375 -9.57032,1.17188 -17.57813,1.95313 l -2.34375,0 q -2.73437,-1.17188 -5.46875,-1.95313 l -0.39062,0.78125 q 0,0.78125 0.78125,2.34375 1.17187,2.2461 1.17187,2.73438 0,9.375 -0.39062,13.67187 2.24609,6.25002 4.6875,6.25002 1.95312,0 1.95312,-4.29689 -0.39062,-7.61719 -0.78125,-16.40625 1.95313,0.39062 3.51563,0.39062 18.35937,-2.73437 39.84375,-4.6875 2.34375,0 2.34375,1.95313 -10.15625,30.46879 -28.90625,47.65629 -2.53907,2.2461 -4.6875,3.9062 l 0.39062,0.7813 q 1.26953,-0.586 3.125,-1.5625 21.875,-12.8907 37.89063,-50.00004 2.34375,-1.46485 2.34375,-1.95313 0,-2.53906 -8.98438,-5.85937 -2.34375,0.78125 -4.29687,1.17187 -8.78907,1.36719 -18.35938,2.34375 0.48828,-6.44531 1.5625,-12.10937 z" />
    </clipPath>
    <clipPath
       clipPathUnits="userSpaceOnUse"
       id="clipPath8861">
      <path
         inkscape:connector-curvature="0"
         id="path8863"
         style="font-style:normal;font-variant:normal;font-weight:normal;font-stretch:normal;font-size:100px;line-height:125%;font-family:'EPSON 正楷書体Ｍ';-inkscape-font-specification:'EPSON 正楷書体Ｍ';letter-spacing:0px;word-spacing:0px;fill:#ff0000;fill-opacity:1;stroke:none;stroke-width:1px;stroke-linecap:butt;stroke-linejoin:miter;stroke-opacity:1"
         d="m 260.97656,29.14065 q -3.125,-3.90625 -10.54687,-3.90625 l -0.39063,0.78125 q 0,0.78125 1.95313,2.34375 0.97656,0.68359 1.17187,2.73437 0.39063,5.46875 0.39063,10.9375 -9.57032,1.17188 -17.57813,1.95313 l -2.34375,0 q -2.73437,-1.17188 -5.46875,-1.95313 l -0.39062,0.78125 q 0,0.78125 0.78125,2.34375 1.17187,2.2461 1.17187,2.73438 0,9.375 -0.39062,13.67187 2.24609,6.25002 4.6875,6.25002 1.95312,0 1.95312,-4.29689 -0.39062,-7.61719 -0.78125,-16.40625 1.95313,0.39062 3.51563,0.39062 18.35937,-2.73437 39.84375,-4.6875 2.34375,0 2.34375,1.95313 -10.15625,30.46879 -28.90625,47.65629 -2.53907,2.2461 -4.6875,3.9062 l 0.39062,0.7813 q 1.26953,-0.586 3.125,-1.5625 21.875,-12.8907 37.89063,-50.00004 2.34375,-1.46485 2.34375,-1.95313 0,-2.53906 -8.98438,-5.85937 -2.34375,0.78125 -4.29687,1.17187 -8.78907,1.36719 -18.35938,2.34375 0.48828,-6.44531 1.5625,-12.10937 z" />
    </clipPath>
    <clipPath
       clipPathUnits="userSpaceOnUse"
       id="clipPath8865">
      <path
         inkscape:connector-curvature="0"
         id="path8867"
         style="font-style:normal;font-variant:normal;font-weight:normal;font-stretch:normal;font-size:100px;line-height:125%;font-family:'EPSON 正楷書体Ｍ';-inkscape-font-specification:'EPSON 正楷書体Ｍ';letter-spacing:0px;word-spacing:0px;fill:#ff0000;fill-opacity:1;stroke:none;stroke-width:1px;stroke-linecap:butt;stroke-linejoin:miter;stroke-opacity:1"
         d="m 360.97656,961.50281 q -3.125,-3.90625 -10.54687,-3.90625 l -0.39063,0.78125 q 0,0.78125 1.95313,2.34375 0.97656,0.68359 1.17187,2.73437 0.39063,5.46875 0.39063,10.9375 -9.57032,1.17188 -17.57813,1.95313 l -2.34375,0 q -2.73437,-1.17188 -5.46875,-1.95313 l -0.39062,0.78125 q 0,0.78125 0.78125,2.34375 1.17187,2.2461 1.17187,2.73438 0,9.375 -0.39062,13.67187 2.24609,6.25002 4.6875,6.25002 1.95312,0 1.95312,-4.29689 -0.39062,-7.61719 -0.78125,-16.40625 1.95313,0.39062 3.51563,0.39062 18.35937,-2.73437 39.84375,-4.6875 2.34375,0 2.34375,1.95313 -10.15625,30.46879 -28.90625,47.65629 -2.53907,2.2461 -4.6875,3.9062 l 0.39062,0.7813 q 1.26953,-0.586 3.125,-1.5625 21.875,-12.8907 37.89063,-50.00004 2.34375,-1.46485 2.34375,-1.95313 0,-2.53906 -8.98438,-5.85937 -2.34375,0.78125 -4.29687,1.17187 -8.78907,1.36719 -18.35938,2.34375 0.48828,-6.44531 1.5625,-12.10937 z" />
    </clipPath>
  </defs>
  <metadata
     id="metadata7">
    <rdf:RDF>
      <cc:Work
         rdf:about="">
        <dc:format>image/svg+xml</dc:format>
        <dc:type
           rdf:resource="http://purl.org/dc/dcmitype/StillImage" />
        <dc:title />
      </cc:Work>
    </rdf:RDF>
  </metadata>
  <path
     inkscape:connector-curvature="0"
     style="opacity:1;fill:#c8c8c8;fill-opacity:1;stroke:none;stroke-width:1.38716519;stroke-linecap:round;stroke-linejoin:miter;stroke-miterlimit:4;stroke-dasharray:none;stroke-dashoffset:0;stroke-opacity:1"
     clip-path="url(#clipPath8861)"
     d="m 210,9.9999798 100,0 L 310,110 210,110 Z"
     id="rect4223-9" />
  <path
     inkscape:connector-curvature="0"
     style="opacity:1;fill:#000000;fill-opacity:1;stroke:none;stroke-width:1.33659101;stroke-linecap:round;stroke-linejoin:miter;stroke-miterlimit:4;stroke-dasharray:none;stroke-dashoffset:0;stroke-opacity:1"
     clip-path="url(#clipPath8826)"
     d="m 10,942.36212 100,0 0,99.99998 -100,0 z"
     id="rect4225"
     transform="translate(0,-932.36216)" />
  <path
     inkscape:connector-curvature="0"
     style="opacity:1;fill:#c8c8c8;fill-opacity:1;stroke:none;stroke-width:1.38716519;stroke-linecap:round;stroke-linejoin:miter;stroke-miterlimit:4;stroke-dasharray:none;stroke-dashoffset:0;stroke-opacity:1"
     clip-path="url(#clipPath8849)"
     d="m 110,10.00002 100,0 0,100.00002 -100,0 z"
     id="rect4223" />
  <path
     inkscape:connector-curvature="0"
     style="opacity:1;fill:#646464;fill-opacity:1;fill-rule:evenodd;stroke:none;stroke-width:2;stroke-linecap:round;stroke-linejoin:miter;stroke-miterlimit:4;stroke-dasharray:none;stroke-dashoffset:0;stroke-opacity:1"
     clip-path="url(#clipPath8865)"
     d="m 310,942.36214 100,0 0,100.00006 -100,0 z"
     id="rect4627"
     transform="translate(0,-932.36216)" />
  <path
     inkscape:connector-curvature="0"
     style="opacity:1;fill:#646464;fill-opacity:1;fill-rule:evenodd;stroke:none;stroke-width:1px;stroke-linecap:butt;stroke-linejoin:miter;stroke-opacity:1"
     d="m 233.63281,976.34656 -10.57199,-6.62365 5.7886,32.73709 11.65357,0.5851 -5.30768,-23.57354 c -0.0221,-1.85616 -1.5625,-3.125 -1.5625,-3.125 z"
     id="path4364-5"
     clip-path="url(#clipPath8857)"
     transform="translate(0,-932.36216)" />
  <path
     inkscape:connector-curvature="0"
     style="opacity:1;fill:#646464;fill-opacity:1;fill-rule:evenodd;stroke:none;stroke-width:1px;stroke-linecap:butt;stroke-linejoin:miter;stroke-opacity:1"
     d="m 163.17527,957.52034 -17.59575,-2.15723 7.97517,19.03032 c 1.06066,2.32019 4.96444,2.46702 5.85937,-0.78125 z"
     id="path4364"
     clip-path="url(#clipPath8845)"
     transform="translate(0,-932.36216)" />
  <path
     inkscape:connector-curvature="0"
     style="opacity:1;fill:#646464;fill-opacity:1;fill-rule:evenodd;stroke:none;stroke-width:1px;stroke-linecap:butt;stroke-linejoin:miter;stroke-opacity:1"
     d="m 263.17575,957.52072 -17.59575,-2.15723 7.97517,19.03032 c 1.06066,2.32019 4.96444,2.46702 5.85937,-0.78125 z"
     id="path4364-8"
     clip-path="url(#clipPath8853)"
     transform="translate(0,-932.36216)" />
  <circle
     style="opacity:0.6;fill:#00ff00;fill-opacity:1;stroke:none;stroke-width:2;stroke-linecap:round;stroke-linejoin:miter;stroke-miterlimit:4;stroke-dasharray:none;stroke-dashoffset:0;stroke-opacity:1"
     id="path6335"
     cx="152"
     cy="27.000023"
     r="5"
     clip-path="none" />
  <path
     inkscape:connector-curvature="0"
     style="opacity:0.6;fill:none;fill-rule:evenodd;stroke:#ff0000;stroke-width:1.5;stroke-linecap:square;stroke-linejoin:miter;stroke-miterlimit:4;stroke-dasharray:none;stroke-opacity:1;marker-end:url(#marker6825-4)"
     d="m 165.59609,30.47778 c -0.72415,3.39097 -1.04907,6.88311 -0.82215,10.51508"
     id="path6337-7"
     clip-path="none" />
  <circle
     style="opacity:0.6;fill:#00ff00;fill-opacity:1;stroke:none;stroke-width:2;stroke-linecap:round;stroke-linejoin:miter;stroke-miterlimit:4;stroke-dasharray:none;stroke-dashoffset:0;stroke-opacity:1"
     id="path6335-9"
     cx="230"
     cy="44.000023"
     r="5"
     clip-path="none" />
  <circle
     style="opacity:0.6;fill:#00ff00;fill-opacity:1;stroke:none;stroke-width:2;stroke-linecap:round;stroke-linejoin:miter;stroke-miterlimit:4;stroke-dasharray:none;stroke-dashoffset:0;stroke-opacity:1"
     id="path6335-2"
     cx="338"
     cy="45.000023"
     r="5"
     clip-path="none" />
  <path
     inkscape:connector-curvature="0"
     style="opacity:0.6;fill:none;fill-rule:evenodd;stroke:#ff0000;stroke-width:1.5;stroke-linecap:square;stroke-linejoin:miter;stroke-miterlimit:4;stroke-dasharray:none;stroke-opacity:1;marker-end:url(#marker6825-4-2)"
     d="m 240.06198,48.70946 c -0.0565,5.79714 0.25281,10.07456 1.01309,15.19489"
     id="path6337-7-8"
     clip-path="none" />
  <path
     inkscape:connector-curvature="0"
     style="opacity:0.6;fill:none;fill-rule:evenodd;stroke:#ff0000;stroke-width:1.5;stroke-linecap:square;stroke-linejoin:miter;stroke-miterlimit:4;stroke-dasharray:none;stroke-opacity:1;marker-end:url(#marker6825-4-4)"
     d="m 345.61122,51.52617 c 8.75589,-1.240467 17.69331,-2.35992 27.43732,-2.941643 -0.5447,3.465002 -2.47102,6.930005 -4.30432,10.395007"
     id="path6337-7-6"
     clip-path="none"
     sodipodi:nodetypes="ccc" />
</svg>
