<?xml version="1.0" encoding="UTF-8" standalone="no"?>
<svg
   xmlns:dc="http://purl.org/dc/elements/1.1/"
   xmlns:cc="http://creativecommons.org/ns#"
   xmlns:rdf="http://www.w3.org/1999/02/22-rdf-syntax-ns#"
   xmlns:svg="http://www.w3.org/2000/svg"
   xmlns="http://www.w3.org/2000/svg"
   version="1.1"
   id="svg2"
   viewBox="0 0 420 120"
   height="120"
   width="420">
  <defs
     id="defs4">
    <marker
       style="overflow:visible"
       id="marker6825"
       refX="0"
       refY="0"
       orient="auto">
      <path
         transform="scale(0.4,0.4)"
         style="fill:#ff0000;fill-opacity:1;fill-rule:evenodd;stroke:#ff0000;stroke-width:1pt;stroke-opacity:1"
         d="m 5.77,0 -8.65,5 0,-10 8.65,5 z"
         id="path6827" />
    </marker>
    <marker
       style="overflow:visible"
       id="EmptyTriangleOutM"
       refX="0"
       refY="0"
       orient="auto">
      <path
         transform="matrix(0.4,0,0,0.4,-1.8,0)"
         style="fill:#ffffff;fill-rule:evenodd;stroke:#ff0000;stroke-width:1pt;stroke-opacity:0.58823529"
         d="m 5.77,0 -8.65,5 0,-10 8.65,5 z"
         id="path4860" />
    </marker>
    <marker
       style="overflow:visible"
       id="TriangleOutL"
       refX="0"
       refY="0"
       orient="auto">
      <path
         transform="scale(0.8,0.8)"
         style="fill:#ff0000;fill-opacity:0.58823529;fill-rule:evenodd;stroke:#ff0000;stroke-width:1pt;stroke-opacity:0.58823529"
         d="m 5.77,0 -8.65,5 0,-10 8.65,5 z"
         id="path4839" />
    </marker>
    <marker
       style="overflow:visible"
       id="marker5235"
       refX="0"
       refY="0"
       orient="auto">
      <path
         transform="matrix(-1.1,0,0,-1.1,-1.1,0)"
         d="M 8.7185878,4.0337352 -2.2072895,0.01601326 8.7185884,-4.0017078 c -1.7454984,2.3720609 -1.7354408,5.6174519 -6e-7,8.035443 z"
         style="fill:#ff0000;fill-opacity:0.58823529;fill-rule:evenodd;stroke:#ff0000;stroke-width:0.625;stroke-linejoin:round;stroke-opacity:0.58823529"
         id="path5237" />
    </marker>
    <marker
       style="overflow:visible"
       id="marker5177"
       refX="0"
       refY="0"
       orient="auto">
      <path
         transform="matrix(-0.8,0,0,-0.8,-10,0)"
         style="fill:#ff0000;fill-opacity:0.58823529;fill-rule:evenodd;stroke:#ff0000;stroke-width:1pt;stroke-opacity:0.58823529"
         d="M 0,0 5,-5 -12.5,0 5,5 0,0 Z"
         id="path5179" />
    </marker>
    <marker
       style="overflow:visible"
       id="Arrow1Mstart"
       refX="0"
       refY="0"
       orient="auto">
      <path
         transform="matrix(0.4,0,0,0.4,4,0)"
         style="fill:#ff0000;fill-opacity:0.58823529;fill-rule:evenodd;stroke:#ff0000;stroke-width:1pt;stroke-opacity:0.58823529"
         d="M 0,0 5,-5 -12.5,0 5,5 0,0 Z"
         id="path4703" />
    </marker>
    <marker
       style="overflow:visible"
       id="Arrow1Lend"
       refX="0"
       refY="0"
       orient="auto">
      <path
         transform="matrix(-0.8,0,0,-0.8,-10,0)"
         style="fill:#ff0000;fill-opacity:0.58823529;fill-rule:evenodd;stroke:#ff0000;stroke-width:1pt;stroke-opacity:0.58823529"
         d="M 0,0 5,-5 -12.5,0 5,5 0,0 Z"
         id="path4700" />
    </marker>
    <marker
       style="overflow:visible"
       id="marker5031"
       refX="0"
       refY="0"
       orient="auto">
      <path
         transform="scale(-0.6,-0.6)"
         d="M 8.7185878,4.0337352 -2.2072895,0.01601326 8.7185884,-4.0017078 c -1.7454984,2.3720609 -1.7354408,5.6174519 -6e-7,8.035443 z"
         style="fill:#ff0000;fill-opacity:0.58823529;fill-rule:evenodd;stroke:#ff0000;stroke-width:0.625;stroke-linejoin:round;stroke-opacity:0.58823529"
         id="path5033" />
    </marker>
    <marker
       style="overflow:visible"
       id="Arrow2Mend"
       refX="0"
       refY="0"
       orient="auto">
      <path
         transform="scale(-0.6,-0.6)"
         d="M 8.7185878,4.0337352 -2.2072895,0.01601326 8.7185884,-4.0017078 c -1.7454984,2.3720609 -1.7354408,5.6174519 -6e-7,8.035443 z"
         style="fill:#ff0000;fill-opacity:0.58823529;fill-rule:evenodd;stroke:#ff0000;stroke-width:0.625;stroke-linejoin:round;stroke-opacity:0.58823529"
         id="path4724" />
    </marker>
    <marker
       style="overflow:visible"
       id="Arrow1Mend"
       refX="0"
       refY="0"
       orient="auto">
      <path
         transform="matrix(-0.4,0,0,-0.4,-4,0)"
         style="fill:#ff0000;fill-opacity:0.58823529;fill-rule:evenodd;stroke:#ff0000;stroke-width:1pt;stroke-opacity:0.58823529"
         d="M 0,0 5,-5 -12.5,0 5,5 0,0 Z"
         id="path4706" />
    </marker>
    <marker
       style="overflow:visible"
       id="Arrow2Lend"
       refX="0"
       refY="0"
       orient="auto">
      <path
         transform="matrix(-1.1,0,0,-1.1,-1.1,0)"
         d="M 8.7185878,4.0337352 -2.2072895,0.01601326 8.7185884,-4.0017078 c -1.7454984,2.3720609 -1.7354408,5.6174519 -6e-7,8.035443 z"
         style="fill:#ff0000;fill-opacity:0.58823529;fill-rule:evenodd;stroke:#ff0000;stroke-width:0.625;stroke-linejoin:round;stroke-opacity:0.58823529"
         id="path4718" />
    </marker>
    <clipPath
       id="clipPath4252"
       clipPathUnits="userSpaceOnUse">
      <text
         xml:space="preserve"
         style="font-style:normal;font-weight:normal;font-size:110.1632309px;line-height:125%;font-family:sans-serif;letter-spacing:0px;word-spacing:0px;fill:#ff1a01;fill-opacity:1;stroke:none;stroke-width:1px;stroke-linecap:butt;stroke-linejoin:miter;stroke-opacity:1"
         x="-79.682037"
         y="982.66449"
         id="text4254"
         transform="scale(0.95401358,1.0482031)"><tspan
           style="font-style:normal;font-variant:normal;font-weight:normal;font-stretch:normal;font-size:100px;font-family:'EPSON 太明朝体Ｂ';-inkscape-font-specification:'EPSON 太明朝体Ｂ'"
           x="-79.682037"
           y="982.66449"
           id="tspan4256">┃ああああ┃</tspan></text>
    </clipPath>
    <marker
       style="overflow:visible"
       id="marker6825-4"
       refX="0"
       refY="0"
       orient="auto">
      <path
         transform="scale(0.4,0.4)"
         style="fill:#ff0000;fill-opacity:1;fill-rule:evenodd;stroke:#ff0000;stroke-width:1pt;stroke-opacity:1"
         d="m 5.77,0 -8.65,5 0,-10 8.65,5 z"
         id="path6827-0" />
    </marker>
    <clipPath
       id="clipPath4439"
       clipPathUnits="userSpaceOnUse">
      <path
         d="m 55.898437,1006.4247 q -17.1875,2.539 -34.765625,5.8594 l -0.390625,0.7812 q 1.757813,1.3672 7.03125,3.125 18.359375,-5.2734 40.234375,-6.6406 16.796875,0 26.5625,0.7812 3.90625,0 3.90625,-1.9531 0,-3.0273 -11.328125,-6.25 -2.539062,1.3672 -4.6875,1.5625 -10.742187,1.1719 -20.703125,1.9531 0.292969,-14.06247 1.171875,-28.12497 0,-0.97656 -1.953125,-3.51562 8.886719,-1.36719 16.796875,-2.34375 3.90625,-0.48828 3.90625,-1.95313 0,-2.4414 -5.46875,-3.51562 -3.613281,-0.39063 -4.6875,-0.39063 -1.5625,1.17188 -2.734375,1.95313 -5.46875,1.75781 -12.109375,2.73437 -10.9375,1.5625 -16.015625,1.5625 -2.34375,0 -5.859375,-0.78125 l -0.390625,0.78125 q 2.539063,3.02735 6.640625,4.29688 5.859375,-0.39063 12.890625,-1.5625 1.953125,2.34375 1.953125,5.07812 l 0,26.56252 z"
         style="font-style:normal;font-variant:normal;font-weight:normal;font-stretch:normal;font-size:100px;line-height:125%;font-family:'EPSON 正楷書体Ｍ';-inkscape-font-specification:'EPSON 正楷書体Ｍ';letter-spacing:0px;word-spacing:0px;fill:#ff0000;fill-opacity:1;stroke:none;stroke-width:1px;stroke-linecap:butt;stroke-linejoin:miter;stroke-opacity:1"
         id="path4441" />
    </clipPath>
    <clipPath
       id="clipPath4443"
       clipPathUnits="userSpaceOnUse">
      <path
         d="m 155.89844,1006.4247 q -17.1875,2.539 -34.76563,5.8594 l -0.39062,0.7812 q 1.75781,1.3672 7.03125,3.125 18.35937,-5.2734 40.23437,-6.6406 16.79688,0 26.5625,0.7812 3.90625,0 3.90625,-1.9531 0,-3.0273 -11.32812,-6.25 -2.53907,1.3672 -4.6875,1.5625 -10.74219,1.1719 -20.70313,1.9531 0.29297,-14.06247 1.17188,-28.12497 0,-0.97656 -1.95313,-3.51562 8.88672,-1.36719 16.79688,-2.34375 3.90625,-0.48828 3.90625,-1.95313 0,-2.4414 -5.46875,-3.51562 -3.61328,-0.39063 -4.6875,-0.39063 -1.5625,1.17188 -2.73438,1.95313 -5.46875,1.75781 -12.10937,2.73437 -10.9375,1.5625 -16.01563,1.5625 -2.34375,0 -5.85937,-0.78125 l -0.39063,0.78125 q 2.53906,3.02735 6.64063,4.29688 5.85937,-0.39063 12.89062,-1.5625 1.95313,2.34375 1.95313,5.07812 l 0,26.56252 z"
         style="font-style:normal;font-variant:normal;font-weight:normal;font-stretch:normal;font-size:100px;line-height:125%;font-family:'EPSON 正楷書体Ｍ';-inkscape-font-specification:'EPSON 正楷書体Ｍ';letter-spacing:0px;word-spacing:0px;fill:#ff0000;fill-opacity:1;stroke:none;stroke-width:1px;stroke-linecap:butt;stroke-linejoin:miter;stroke-opacity:1"
         id="path4445" />
    </clipPath>
    <clipPath
       id="clipPath4447"
       clipPathUnits="userSpaceOnUse">
      <path
         d="m 155.89844,1006.4247 q -17.1875,2.539 -34.76563,5.8594 l -0.39062,0.7812 q 1.75781,1.3672 7.03125,3.125 18.35937,-5.2734 40.23437,-6.6406 16.79688,0 26.5625,0.7812 3.90625,0 3.90625,-1.9531 0,-3.0273 -11.32812,-6.25 -2.53907,1.3672 -4.6875,1.5625 -10.74219,1.1719 -20.70313,1.9531 0.29297,-14.06247 1.17188,-28.12497 0,-0.97656 -1.95313,-3.51562 8.88672,-1.36719 16.79688,-2.34375 3.90625,-0.48828 3.90625,-1.95313 0,-2.4414 -5.46875,-3.51562 -3.61328,-0.39063 -4.6875,-0.39063 -1.5625,1.17188 -2.73438,1.95313 -5.46875,1.75781 -12.10937,2.73437 -10.9375,1.5625 -16.01563,1.5625 -2.34375,0 -5.85937,-0.78125 l -0.39063,0.78125 q 2.53906,3.02735 6.64063,4.29688 5.85937,-0.39063 12.89062,-1.5625 1.95313,2.34375 1.95313,5.07812 l 0,26.56252 z"
         style="font-style:normal;font-variant:normal;font-weight:normal;font-stretch:normal;font-size:100px;line-height:125%;font-family:'EPSON 正楷書体Ｍ';-inkscape-font-specification:'EPSON 正楷書体Ｍ';letter-spacing:0px;word-spacing:0px;fill:#ff0000;fill-opacity:1;stroke:none;stroke-width:1px;stroke-linecap:butt;stroke-linejoin:miter;stroke-opacity:1"
         id="path4449" />
    </clipPath>
    <clipPath
       id="clipPath4451"
       clipPathUnits="userSpaceOnUse">
      <path
         d="m 255.89844,1006.4247 q -17.1875,2.539 -34.76563,5.8594 l -0.39062,0.7812 q 1.75781,1.3672 7.03125,3.125 18.35937,-5.2734 40.23437,-6.6406 16.79688,0 26.5625,0.7812 3.90625,0 3.90625,-1.9531 0,-3.0273 -11.32812,-6.25 -2.53907,1.3672 -4.6875,1.5625 -10.74219,1.1719 -20.70313,1.9531 0.29297,-14.06247 1.17188,-28.12497 0,-0.97656 -1.95313,-3.51562 8.88672,-1.36719 16.79688,-2.34375 3.90625,-0.48828 3.90625,-1.95313 0,-2.4414 -5.46875,-3.51562 -3.61328,-0.39063 -4.6875,-0.39063 -1.5625,1.17188 -2.73438,1.95313 -5.46875,1.75781 -12.10937,2.73437 -10.9375,1.5625 -16.01563,1.5625 -2.34375,0 -5.85937,-0.78125 l -0.39063,0.78125 q 2.53906,3.02735 6.64063,4.29688 5.85937,-0.39063 12.89062,-1.5625 1.95313,2.34375 1.95313,5.07812 l 0,26.56252 z"
         style="font-style:normal;font-variant:normal;font-weight:normal;font-stretch:normal;font-size:100px;line-height:125%;font-family:'EPSON 正楷書体Ｍ';-inkscape-font-specification:'EPSON 正楷書体Ｍ';letter-spacing:0px;word-spacing:0px;fill:#ff0000;fill-opacity:1;stroke:none;stroke-width:1px;stroke-linecap:butt;stroke-linejoin:miter;stroke-opacity:1"
         id="path4453" />
    </clipPath>
    <clipPath
       id="clipPath4455"
       clipPathUnits="userSpaceOnUse">
      <path
         d="m 255.89844,1006.4247 q -17.1875,2.539 -34.76563,5.8594 l -0.39062,0.7812 q 1.75781,1.3672 7.03125,3.125 18.35937,-5.2734 40.23437,-6.6406 16.79688,0 26.5625,0.7812 3.90625,0 3.90625,-1.9531 0,-3.0273 -11.32812,-6.25 -2.53907,1.3672 -4.6875,1.5625 -10.74219,1.1719 -20.70313,1.9531 0.29297,-14.06247 1.17188,-28.12497 0,-0.97656 -1.95313,-3.51562 8.88672,-1.36719 16.79688,-2.34375 3.90625,-0.48828 3.90625,-1.95313 0,-2.4414 -5.46875,-3.51562 -3.61328,-0.39063 -4.6875,-0.39063 -1.5625,1.17188 -2.73438,1.95313 -5.46875,1.75781 -12.10937,2.73437 -10.9375,1.5625 -16.01563,1.5625 -2.34375,0 -5.85937,-0.78125 l -0.39063,0.78125 q 2.53906,3.02735 6.64063,4.29688 5.85937,-0.39063 12.89062,-1.5625 1.95313,2.34375 1.95313,5.07812 l 0,26.56252 z"
         style="font-style:normal;font-variant:normal;font-weight:normal;font-stretch:normal;font-size:100px;line-height:125%;font-family:'EPSON 正楷書体Ｍ';-inkscape-font-specification:'EPSON 正楷書体Ｍ';letter-spacing:0px;word-spacing:0px;fill:#ff0000;fill-opacity:1;stroke:none;stroke-width:1px;stroke-linecap:butt;stroke-linejoin:miter;stroke-opacity:1"
         id="path4457" />
    </clipPath>
    <clipPath
       id="clipPath4459"
       clipPathUnits="userSpaceOnUse">
      <path
         d="m 355.89844,1006.4247 q -17.1875,2.539 -34.76563,5.8594 l -0.39062,0.7812 q 1.75781,1.3672 7.03125,3.125 18.35937,-5.2734 40.23437,-6.6406 16.79688,0 26.5625,0.7812 3.90625,0 3.90625,-1.9531 0,-3.0273 -11.32812,-6.25 -2.53907,1.3672 -4.6875,1.5625 -10.74219,1.1719 -20.70313,1.9531 0.29297,-14.06247 1.17188,-28.12497 0,-0.97656 -1.95313,-3.51562 8.88672,-1.36719 16.79688,-2.34375 3.90625,-0.48828 3.90625,-1.95313 0,-2.4414 -5.46875,-3.51562 -3.61328,-0.39063 -4.6875,-0.39063 -1.5625,1.17188 -2.73438,1.95313 -5.46875,1.75781 -12.10937,2.73437 -10.9375,1.5625 -16.01563,1.5625 -2.34375,0 -5.85937,-0.78125 l -0.39063,0.78125 q 2.53906,3.02735 6.64063,4.29688 5.85937,-0.39063 12.89062,-1.5625 1.95313,2.34375 1.95313,5.07812 l 0,26.56252 z"
         style="font-style:normal;font-variant:normal;font-weight:normal;font-stretch:normal;font-size:100px;line-height:125%;font-family:'EPSON 正楷書体Ｍ';-inkscape-font-specification:'EPSON 正楷書体Ｍ';letter-spacing:0px;word-spacing:0px;fill:#ff0000;fill-opacity:1;stroke:none;stroke-width:1px;stroke-linecap:butt;stroke-linejoin:miter;stroke-opacity:1"
         id="path4461" />
    </clipPath>
    <marker
       style="overflow:visible"
       id="marker6825-4-0"
       refX="0"
       refY="0"
       orient="auto">
      <path
         transform="scale(0.4,0.4)"
         style="fill:#ff0000;fill-opacity:1;fill-rule:evenodd;stroke:#ff0000;stroke-width:1pt;stroke-opacity:1"
         d="m 5.77,0 -8.65,5 0,-10 8.65,5 z"
         id="path6827-0-4" />
    </marker>
    <marker
       style="overflow:visible"
       id="marker6825-4-8"
       refX="0"
       refY="0"
       orient="auto">
      <path
         transform="scale(0.4,0.4)"
         style="fill:#ff0000;fill-opacity:1;fill-rule:evenodd;stroke:#ff0000;stroke-width:1pt;stroke-opacity:1"
         d="m 5.77,0 -8.65,5 0,-10 8.65,5 z"
         id="path6827-0-2" />
    </marker>
  </defs>
  <metadata
     id="metadata7">
    <rdf:RDF>
      <cc:Work
         rdf:about="">
        <dc:format>image/svg+xml</dc:format>
        <dc:type
           rdf:resource="http://purl.org/dc/dcmitype/StillImage" />
        <dc:title></dc:title>
      </cc:Work>
    </rdf:RDF>
  </metadata>
  <g
     transform="translate(0,-932.36216)"
     id="layer1">
    <path
       id="rect4223-8"
       d="m 210,942.36207 100,0 0,100.00013 -100,0 z"
       clip-path="url(#clipPath4455)"
       style="opacity:1;fill:#c8c8c8;fill-opacity:1;stroke:none;stroke-width:1.38716519;stroke-linecap:round;stroke-linejoin:miter;stroke-miterlimit:4;stroke-dasharray:none;stroke-dashoffset:0;stroke-opacity:1" />
    <path
       id="rect4225"
       d="m 10,942.36212 100,0 0,99.99998 -100,0 z"
       clip-path="url(#clipPath4439)"
       style="opacity:1;fill:#000000;fill-opacity:1;stroke:none;stroke-width:1.33659101;stroke-linecap:round;stroke-linejoin:miter;stroke-miterlimit:4;stroke-dasharray:none;stroke-dashoffset:0;stroke-opacity:1" />
    <path
       id="rect4223"
       d="m 110,942.36218 100,0 0,100.00002 -100,0 z"
       clip-path="url(#clipPath4447)"
       style="opacity:1;fill:#c8c8c8;fill-opacity:1;stroke:none;stroke-width:1.38716519;stroke-linecap:round;stroke-linejoin:miter;stroke-miterlimit:4;stroke-dasharray:none;stroke-dashoffset:0;stroke-opacity:1" />
    <path
       id="rect4627"
       d="m 310,942.36214 100,0 0,100.00006 -100,0 z"
       clip-path="url(#clipPath4459)"
       style="opacity:1;fill:#646464;fill-opacity:1;fill-rule:evenodd;stroke:none;stroke-width:2;stroke-linecap:round;stroke-linejoin:miter;stroke-miterlimit:4;stroke-dasharray:none;stroke-dashoffset:0;stroke-opacity:1" />
    <path
       clip-path="url(#clipPath4443)"
       id="path4364"
       d="m 131.44629,969.91456 4.00256,10.14184 18.49646,-5.27234 c 2.73325,-0.52562 3.95635,-0.36075 7.03125,-0.78125 l 21.0011,-1.06729 1.28271,-10.15286 z"
       style="opacity:1;fill:#646464;fill-opacity:1;fill-rule:evenodd;stroke:none;stroke-width:1px;stroke-linecap:butt;stroke-linejoin:miter;stroke-opacity:1" />
    <path
       clip-path="url(#clipPath4451)"
       id="path4364-8"
       d="m 221.1143,959.90378 34.78414,46.52092 c 0.0558,2.9362 5.87795,2.6195 5.85937,-0.7813 l 31.35453,-49.71778 z"
       style="opacity:1;fill:#646464;fill-opacity:1;fill-rule:evenodd;stroke:none;stroke-width:1px;stroke-linecap:butt;stroke-linejoin:miter;stroke-opacity:1" />
    <circle
       clip-path="none"
       r="5"
       cy="972.36218"
       cx="137"
       id="path6335"
       style="opacity:0.6;fill:#00ff00;fill-opacity:1;stroke:none;stroke-width:2;stroke-linecap:round;stroke-linejoin:miter;stroke-miterlimit:4;stroke-dasharray:none;stroke-dashoffset:0;stroke-opacity:1" />
    <path
       clip-path="none"
       id="path6337-7"
       d="m 146.58767,980.52266 c 9.54488,-0.70987 14.96173,-1.54767 23.46917,-3.34135"
       style="opacity:0.6;fill:none;fill-rule:evenodd;stroke:#ff0000;stroke-width:1.5;stroke-linecap:square;stroke-linejoin:miter;stroke-miterlimit:4;stroke-dasharray:none;stroke-opacity:1;marker-end:url(#marker6825-4)" />
    <circle
       clip-path="none"
       r="5"
       cy="976.36218"
       cx="259"
       id="path6335-3"
       style="opacity:0.6;fill:#00ff00;fill-opacity:1;stroke:none;stroke-width:2;stroke-linecap:round;stroke-linejoin:miter;stroke-miterlimit:4;stroke-dasharray:none;stroke-dashoffset:0;stroke-opacity:1" />
    <circle
       clip-path="none"
       r="5"
       cy="1013.3622"
       cx="324"
       id="path6335-2"
       style="opacity:0.6;fill:#00ff00;fill-opacity:1;stroke:none;stroke-width:2;stroke-linecap:round;stroke-linejoin:miter;stroke-miterlimit:4;stroke-dasharray:none;stroke-dashoffset:0;stroke-opacity:1" />
    <path
       clip-path="none"
       id="path6337-7-0"
       d="m 268,979.21242 c -0.59032,6.63978 -0.21083,12.95629 0,19.32901"
       style="opacity:0.6;fill:none;fill-rule:evenodd;stroke:#ff0000;stroke-width:1.5;stroke-linecap:square;stroke-linejoin:miter;stroke-miterlimit:4;stroke-dasharray:none;stroke-opacity:1;marker-end:url(#marker6825-4-0)" />
    <path
       clip-path="none"
       id="path6337-7-4"
       d="m 340.00425,1019.4 c 12.60716,-2.5753 25.01972,-4.7614 36.06248,-4.2078"
       style="opacity:0.6;fill:none;fill-rule:evenodd;stroke:#ff0000;stroke-width:1.5;stroke-linecap:square;stroke-linejoin:miter;stroke-miterlimit:4;stroke-dasharray:none;stroke-opacity:1;marker-end:url(#marker6825-4-8)" />
  </g>
</svg>
