<?xml version="1.0" encoding="UTF-8" standalone="no"?>
<svg
   xmlns:dc="http://purl.org/dc/elements/1.1/"
   xmlns:cc="http://creativecommons.org/ns#"
   xmlns:rdf="http://www.w3.org/1999/02/22-rdf-syntax-ns#"
   xmlns:svg="http://www.w3.org/2000/svg"
   xmlns="http://www.w3.org/2000/svg"
   version="1.1"
   id="svg2"
   viewBox="0 0 420 120"
   height="120"
   width="420">
  <defs
     id="defs4">
    <marker
       style="overflow:visible"
       id="marker6825"
       refX="0"
       refY="0"
       orient="auto">
      <path
         transform="scale(0.4,0.4)"
         style="fill:#ff0000;fill-opacity:1;fill-rule:evenodd;stroke:#ff0000;stroke-width:1pt;stroke-opacity:1"
         d="m 5.77,0 -8.65,5 0,-10 8.65,5 z"
         id="path6827" />
    </marker>
    <marker
       style="overflow:visible"
       id="EmptyTriangleOutM"
       refX="0"
       refY="0"
       orient="auto">
      <path
         transform="matrix(0.4,0,0,0.4,-1.8,0)"
         style="fill:#ffffff;fill-rule:evenodd;stroke:#ff0000;stroke-width:1pt;stroke-opacity:0.58823529"
         d="m 5.77,0 -8.65,5 0,-10 8.65,5 z"
         id="path4860" />
    </marker>
    <marker
       style="overflow:visible"
       id="TriangleOutL"
       refX="0"
       refY="0"
       orient="auto">
      <path
         transform="scale(0.8,0.8)"
         style="fill:#ff0000;fill-opacity:0.58823529;fill-rule:evenodd;stroke:#ff0000;stroke-width:1pt;stroke-opacity:0.58823529"
         d="m 5.77,0 -8.65,5 0,-10 8.65,5 z"
         id="path4839" />
    </marker>
    <marker
       style="overflow:visible"
       id="marker5235"
       refX="0"
       refY="0"
       orient="auto">
      <path
         transform="matrix(-1.1,0,0,-1.1,-1.1,0)"
         d="M 8.7185878,4.0337352 -2.2072895,0.01601326 8.7185884,-4.0017078 c -1.7454984,2.3720609 -1.7354408,5.6174519 -6e-7,8.035443 z"
         style="fill:#ff0000;fill-opacity:0.58823529;fill-rule:evenodd;stroke:#ff0000;stroke-width:0.625;stroke-linejoin:round;stroke-opacity:0.58823529"
         id="path5237" />
    </marker>
    <marker
       style="overflow:visible"
       id="marker5177"
       refX="0"
       refY="0"
       orient="auto">
      <path
         transform="matrix(-0.8,0,0,-0.8,-10,0)"
         style="fill:#ff0000;fill-opacity:0.58823529;fill-rule:evenodd;stroke:#ff0000;stroke-width:1pt;stroke-opacity:0.58823529"
         d="M 0,0 5,-5 -12.5,0 5,5 0,0 Z"
         id="path5179" />
    </marker>
    <marker
       style="overflow:visible"
       id="Arrow1Mstart"
       refX="0"
       refY="0"
       orient="auto">
      <path
         transform="matrix(0.4,0,0,0.4,4,0)"
         style="fill:#ff0000;fill-opacity:0.58823529;fill-rule:evenodd;stroke:#ff0000;stroke-width:1pt;stroke-opacity:0.58823529"
         d="M 0,0 5,-5 -12.5,0 5,5 0,0 Z"
         id="path4703" />
    </marker>
    <marker
       style="overflow:visible"
       id="Arrow1Lend"
       refX="0"
       refY="0"
       orient="auto">
      <path
         transform="matrix(-0.8,0,0,-0.8,-10,0)"
         style="fill:#ff0000;fill-opacity:0.58823529;fill-rule:evenodd;stroke:#ff0000;stroke-width:1pt;stroke-opacity:0.58823529"
         d="M 0,0 5,-5 -12.5,0 5,5 0,0 Z"
         id="path4700" />
    </marker>
    <marker
       style="overflow:visible"
       id="marker5031"
       refX="0"
       refY="0"
       orient="auto">
      <path
         transform="scale(-0.6,-0.6)"
         d="M 8.7185878,4.0337352 -2.2072895,0.01601326 8.7185884,-4.0017078 c -1.7454984,2.3720609 -1.7354408,5.6174519 -6e-7,8.035443 z"
         style="fill:#ff0000;fill-opacity:0.58823529;fill-rule:evenodd;stroke:#ff0000;stroke-width:0.625;stroke-linejoin:round;stroke-opacity:0.58823529"
         id="path5033" />
    </marker>
    <marker
       style="overflow:visible"
       id="Arrow2Mend"
       refX="0"
       refY="0"
       orient="auto">
      <path
         transform="scale(-0.6,-0.6)"
         d="M 8.7185878,4.0337352 -2.2072895,0.01601326 8.7185884,-4.0017078 c -1.7454984,2.3720609 -1.7354408,5.6174519 -6e-7,8.035443 z"
         style="fill:#ff0000;fill-opacity:0.58823529;fill-rule:evenodd;stroke:#ff0000;stroke-width:0.625;stroke-linejoin:round;stroke-opacity:0.58823529"
         id="path4724" />
    </marker>
    <marker
       style="overflow:visible"
       id="Arrow1Mend"
       refX="0"
       refY="0"
       orient="auto">
      <path
         transform="matrix(-0.4,0,0,-0.4,-4,0)"
         style="fill:#ff0000;fill-opacity:0.58823529;fill-rule:evenodd;stroke:#ff0000;stroke-width:1pt;stroke-opacity:0.58823529"
         d="M 0,0 5,-5 -12.5,0 5,5 0,0 Z"
         id="path4706" />
    </marker>
    <marker
       style="overflow:visible"
       id="Arrow2Lend"
       refX="0"
       refY="0"
       orient="auto">
      <path
         transform="matrix(-1.1,0,0,-1.1,-1.1,0)"
         d="M 8.7185878,4.0337352 -2.2072895,0.01601326 8.7185884,-4.0017078 c -1.7454984,2.3720609 -1.7354408,5.6174519 -6e-7,8.035443 z"
         style="fill:#ff0000;fill-opacity:0.58823529;fill-rule:evenodd;stroke:#ff0000;stroke-width:0.625;stroke-linejoin:round;stroke-opacity:0.58823529"
         id="path4718" />
    </marker>
    <clipPath
       id="clipPath4252"
       clipPathUnits="userSpaceOnUse">
      <text
         xml:space="preserve"
         style="font-style:normal;font-weight:normal;font-size:110.1632309px;line-height:125%;font-family:sans-serif;letter-spacing:0px;word-spacing:0px;fill:#ff1a01;fill-opacity:1;stroke:none;stroke-width:1px;stroke-linecap:butt;stroke-linejoin:miter;stroke-opacity:1"
         x="-79.682037"
         y="982.66449"
         id="text4254"
         transform="scale(0.95401358,1.0482031)"><tspan
           style="font-style:normal;font-variant:normal;font-weight:normal;font-stretch:normal;font-size:100px;font-family:'EPSON 太明朝体Ｂ';-inkscape-font-specification:'EPSON 太明朝体Ｂ'"
           x="-79.682037"
           y="982.66449"
           id="tspan4256">┃ああああ┃</tspan></text>
    </clipPath>
    <marker
       style="overflow:visible"
       id="marker6825-4"
       refX="0"
       refY="0"
       orient="auto">
      <path
         transform="scale(0.4,0.4)"
         style="fill:#ff0000;fill-opacity:1;fill-rule:evenodd;stroke:#ff0000;stroke-width:1pt;stroke-opacity:1"
         d="m 5.77,0 -8.65,5 0,-10 8.65,5 z"
         id="path6827-0" />
    </marker>
    <clipPath
       id="clipPath8795"
       clipPathUnits="userSpaceOnUse">
      <path
         d="m 69.179687,960.72156 q -3.808593,-5.07813 -9.765625,-5.07813 l -0.390625,0.78125 q 0,1.26953 1.953125,3.51563 1.5625,1.75781 1.5625,5.46875 l 0,10.15625 q -17.773437,3.90625 -30.078125,5.46875 -2.34375,0 -5.46875,0 l -0.390625,0.78125 q 0,1.66015 7.421875,3.51562 12.5,-3.125 25.78125,-5.46875 -11.71875,20.11719 -32.421875,35.54692 -0.976562,0.6836 -1.953125,1.5625 l 0.390625,0.7812 q 1.269532,-0.3906 2.734375,-1.1719 19.335938,-10.7422 33.984375,-28.12497 0,5.27344 0.390625,27.73437 0,5.0781 -2.734375,5.0781 -5.273437,-0.5859 -6.640625,-0.7812 -1.953125,-0.1953 -3.515625,-0.3906 l -0.390625,0.7812 q 1.660157,0.6836 3.125,1.5625 5.46875,3.125 8.984375,6.6406 3.417969,3.9063 3.90625,3.9063 2.246094,0 3.90625,-10.1563 -0.878906,-11.2304 -1.171875,-22.2656 -0.390625,-13.86718 -0.390625,-21.87499 9.570313,-1.26953 20.3125,-2.34375 4.296875,-0.48828 4.296875,-1.95313 0,-3.22265 -10.9375,-4.6875 -2.148437,2.34375 -4.6875,3.125 -4.6875,1.17188 -8.984375,1.5625 0,-5.85937 1.171875,-13.67187 z"
         style="font-style:normal;font-variant:normal;font-weight:normal;font-stretch:normal;font-size:100px;line-height:125%;font-family:'EPSON 正楷書体Ｍ';-inkscape-font-specification:'EPSON 正楷書体Ｍ';letter-spacing:0px;word-spacing:0px;fill:#ff0000;fill-opacity:1;stroke:none;stroke-width:1px;stroke-linecap:butt;stroke-linejoin:miter;stroke-opacity:1"
         id="path8797" />
    </clipPath>
    <clipPath
       id="clipPath8871"
       clipPathUnits="userSpaceOnUse">
      <path
         d="m 369.17969,960.72156 q -3.8086,-5.07813 -9.76563,-5.07813 l -0.39062,0.78125 q 0,1.26953 1.95312,3.51563 1.5625,1.75781 1.5625,5.46875 l 0,10.15625 q -17.77344,3.90625 -30.07812,5.46875 -2.34375,0 -5.46875,0 l -0.39063,0.78125 q 0,1.66015 7.42188,3.51562 12.5,-3.125 25.78125,-5.46875 -11.71875,20.11719 -32.42188,35.54692 -0.97656,0.6836 -1.95312,1.5625 l 0.39062,0.7812 q 1.26953,-0.3906 2.73438,-1.1719 19.33593,-10.7422 33.98437,-28.12497 0,5.27344 0.39063,27.73437 0,5.0781 -2.73438,5.0781 -5.27344,-0.5859 -6.64062,-0.7812 -1.95313,-0.1953 -3.51563,-0.3906 l -0.39062,0.7812 q 1.66015,0.6836 3.125,1.5625 5.46875,3.125 8.98437,6.6406 3.41797,3.9063 3.90625,3.9063 2.2461,0 3.90625,-10.1563 -0.8789,-11.2304 -1.17187,-22.2656 -0.39063,-13.86718 -0.39063,-21.87499 9.57031,-1.26953 20.3125,-2.34375 4.29688,-0.48828 4.29688,-1.95313 0,-3.22265 -10.9375,-4.6875 -2.14844,2.34375 -4.6875,3.125 -4.6875,1.17188 -8.98438,1.5625 0,-5.85937 1.17188,-13.67187 z"
         style="font-style:normal;font-variant:normal;font-weight:normal;font-stretch:normal;font-size:100px;line-height:125%;font-family:'EPSON 正楷書体Ｍ';-inkscape-font-specification:'EPSON 正楷書体Ｍ';letter-spacing:0px;word-spacing:0px;fill:#ff0000;fill-opacity:1;stroke:none;stroke-width:1px;stroke-linecap:butt;stroke-linejoin:miter;stroke-opacity:1"
         id="path8873" />
    </clipPath>
    <clipPath
       id="clipPath8875"
       clipPathUnits="userSpaceOnUse">
      <path
         d="m 269.17969,960.72156 q -3.8086,-5.07813 -9.76563,-5.07813 l -0.39062,0.78125 q 0,1.26953 1.95312,3.51563 1.5625,1.75781 1.5625,5.46875 l 0,10.15625 q -17.77344,3.90625 -30.07812,5.46875 -2.34375,0 -5.46875,0 l -0.39063,0.78125 q 0,1.66015 7.42188,3.51562 12.5,-3.125 25.78125,-5.46875 -11.71875,20.11719 -32.42188,35.54692 -0.97656,0.6836 -1.95312,1.5625 l 0.39062,0.7812 q 1.26953,-0.3906 2.73438,-1.1719 19.33593,-10.7422 33.98437,-28.12497 0,5.27344 0.39063,27.73437 0,5.0781 -2.73438,5.0781 -5.27344,-0.5859 -6.64062,-0.7812 -1.95313,-0.1953 -3.51563,-0.3906 l -0.39062,0.7812 q 1.66015,0.6836 3.125,1.5625 5.46875,3.125 8.98437,6.6406 3.41797,3.9063 3.90625,3.9063 2.2461,0 3.90625,-10.1563 -0.8789,-11.2304 -1.17187,-22.2656 -0.39063,-13.86718 -0.39063,-21.87499 9.57031,-1.26953 20.3125,-2.34375 4.29688,-0.48828 4.29688,-1.95313 0,-3.22265 -10.9375,-4.6875 -2.14844,2.34375 -4.6875,3.125 -4.6875,1.17188 -8.98438,1.5625 0,-5.85937 1.17188,-13.67187 z"
         style="font-style:normal;font-variant:normal;font-weight:normal;font-stretch:normal;font-size:100px;line-height:125%;font-family:'EPSON 正楷書体Ｍ';-inkscape-font-specification:'EPSON 正楷書体Ｍ';letter-spacing:0px;word-spacing:0px;fill:#ff0000;fill-opacity:1;stroke:none;stroke-width:1px;stroke-linecap:butt;stroke-linejoin:miter;stroke-opacity:1"
         id="path8877" />
    </clipPath>
    <clipPath
       id="clipPath8879"
       clipPathUnits="userSpaceOnUse">
      <path
         d="m 269.17969,960.72156 q -3.8086,-5.07813 -9.76563,-5.07813 l -0.39062,0.78125 q 0,1.26953 1.95312,3.51563 1.5625,1.75781 1.5625,5.46875 l 0,10.15625 q -17.77344,3.90625 -30.07812,5.46875 -2.34375,0 -5.46875,0 l -0.39063,0.78125 q 0,1.66015 7.42188,3.51562 12.5,-3.125 25.78125,-5.46875 -11.71875,20.11719 -32.42188,35.54692 -0.97656,0.6836 -1.95312,1.5625 l 0.39062,0.7812 q 1.26953,-0.3906 2.73438,-1.1719 19.33593,-10.7422 33.98437,-28.12497 0,5.27344 0.39063,27.73437 0,5.0781 -2.73438,5.0781 -5.27344,-0.5859 -6.64062,-0.7812 -1.95313,-0.1953 -3.51563,-0.3906 l -0.39062,0.7812 q 1.66015,0.6836 3.125,1.5625 5.46875,3.125 8.98437,6.6406 3.41797,3.9063 3.90625,3.9063 2.2461,0 3.90625,-10.1563 -0.8789,-11.2304 -1.17187,-22.2656 -0.39063,-13.86718 -0.39063,-21.87499 9.57031,-1.26953 20.3125,-2.34375 4.29688,-0.48828 4.29688,-1.95313 0,-3.22265 -10.9375,-4.6875 -2.14844,2.34375 -4.6875,3.125 -4.6875,1.17188 -8.98438,1.5625 0,-5.85937 1.17188,-13.67187 z"
         style="font-style:normal;font-variant:normal;font-weight:normal;font-stretch:normal;font-size:100px;line-height:125%;font-family:'EPSON 正楷書体Ｍ';-inkscape-font-specification:'EPSON 正楷書体Ｍ';letter-spacing:0px;word-spacing:0px;fill:#ff0000;fill-opacity:1;stroke:none;stroke-width:1px;stroke-linecap:butt;stroke-linejoin:miter;stroke-opacity:1"
         id="path8881" />
    </clipPath>
    <clipPath
       id="clipPath8883"
       clipPathUnits="userSpaceOnUse">
      <path
         d="m 169.17969,960.72156 q -3.8086,-5.07813 -9.76563,-5.07813 l -0.39062,0.78125 q 0,1.26953 1.95312,3.51563 1.5625,1.75781 1.5625,5.46875 l 0,10.15625 q -17.77344,3.90625 -30.07812,5.46875 -2.34375,0 -5.46875,0 l -0.39063,0.78125 q 0,1.66015 7.42188,3.51562 12.5,-3.125 25.78125,-5.46875 -11.71875,20.11719 -32.42188,35.54692 -0.97656,0.6836 -1.95312,1.5625 l 0.39062,0.7812 q 1.26953,-0.3906 2.73438,-1.1719 19.33593,-10.7422 33.98437,-28.12497 0,5.27344 0.39063,27.73437 0,5.0781 -2.73438,5.0781 -5.27344,-0.5859 -6.64062,-0.7812 -1.95313,-0.1953 -3.51563,-0.3906 l -0.39062,0.7812 q 1.66015,0.6836 3.125,1.5625 5.46875,3.125 8.98437,6.6406 3.41797,3.9063 3.90625,3.9063 2.2461,0 3.90625,-10.1563 -0.8789,-11.2304 -1.17187,-22.2656 -0.39063,-13.86718 -0.39063,-21.87499 9.57031,-1.26953 20.3125,-2.34375 4.29688,-0.48828 4.29688,-1.95313 0,-3.22265 -10.9375,-4.6875 -2.14844,2.34375 -4.6875,3.125 -4.6875,1.17188 -8.98438,1.5625 0,-5.85937 1.17188,-13.67187 z"
         style="font-style:normal;font-variant:normal;font-weight:normal;font-stretch:normal;font-size:100px;line-height:125%;font-family:'EPSON 正楷書体Ｍ';-inkscape-font-specification:'EPSON 正楷書体Ｍ';letter-spacing:0px;word-spacing:0px;fill:#ff0000;fill-opacity:1;stroke:none;stroke-width:1px;stroke-linecap:butt;stroke-linejoin:miter;stroke-opacity:1"
         id="path8885" />
    </clipPath>
    <clipPath
       id="clipPath8887"
       clipPathUnits="userSpaceOnUse">
      <path
         d="m 169.17969,960.72156 q -3.8086,-5.07813 -9.76563,-5.07813 l -0.39062,0.78125 q 0,1.26953 1.95312,3.51563 1.5625,1.75781 1.5625,5.46875 l 0,10.15625 q -17.77344,3.90625 -30.07812,5.46875 -2.34375,0 -5.46875,0 l -0.39063,0.78125 q 0,1.66015 7.42188,3.51562 12.5,-3.125 25.78125,-5.46875 -11.71875,20.11719 -32.42188,35.54692 -0.97656,0.6836 -1.95312,1.5625 l 0.39062,0.7812 q 1.26953,-0.3906 2.73438,-1.1719 19.33593,-10.7422 33.98437,-28.12497 0,5.27344 0.39063,27.73437 0,5.0781 -2.73438,5.0781 -5.27344,-0.5859 -6.64062,-0.7812 -1.95313,-0.1953 -3.51563,-0.3906 l -0.39062,0.7812 q 1.66015,0.6836 3.125,1.5625 5.46875,3.125 8.98437,6.6406 3.41797,3.9063 3.90625,3.9063 2.2461,0 3.90625,-10.1563 -0.8789,-11.2304 -1.17187,-22.2656 -0.39063,-13.86718 -0.39063,-21.87499 9.57031,-1.26953 20.3125,-2.34375 4.29688,-0.48828 4.29688,-1.95313 0,-3.22265 -10.9375,-4.6875 -2.14844,2.34375 -4.6875,3.125 -4.6875,1.17188 -8.98438,1.5625 0,-5.85937 1.17188,-13.67187 z"
         style="font-style:normal;font-variant:normal;font-weight:normal;font-stretch:normal;font-size:100px;line-height:125%;font-family:'EPSON 正楷書体Ｍ';-inkscape-font-specification:'EPSON 正楷書体Ｍ';letter-spacing:0px;word-spacing:0px;fill:#ff0000;fill-opacity:1;stroke:none;stroke-width:1px;stroke-linecap:butt;stroke-linejoin:miter;stroke-opacity:1"
         id="path8889" />
    </clipPath>
    <marker
       style="overflow:visible"
       id="marker6825-4-0"
       refX="0"
       refY="0"
       orient="auto">
      <path
         transform="scale(0.4,0.4)"
         style="fill:#ff0000;fill-opacity:1;fill-rule:evenodd;stroke:#ff0000;stroke-width:1pt;stroke-opacity:1"
         d="m 5.77,0 -8.65,5 0,-10 8.65,5 z"
         id="path6827-0-1" />
    </marker>
    <marker
       style="overflow:visible"
       id="marker6825-4-06"
       refX="0"
       refY="0"
       orient="auto">
      <path
         transform="scale(0.4,0.4)"
         style="fill:#ff0000;fill-opacity:1;fill-rule:evenodd;stroke:#ff0000;stroke-width:1pt;stroke-opacity:1"
         d="m 5.77,0 -8.65,5 0,-10 8.65,5 z"
         id="path6827-0-7" />
    </marker>
  </defs>
  <metadata
     id="metadata7">
    <rdf:RDF>
      <cc:Work
         rdf:about="">
        <dc:format>image/svg+xml</dc:format>
        <dc:type
           rdf:resource="http://purl.org/dc/dcmitype/StillImage" />
        <dc:title></dc:title>
      </cc:Work>
    </rdf:RDF>
  </metadata>
  <g
     transform="translate(0,-932.36216)"
     id="layer1">
    <path
       id="rect4223-8"
       d="m 210,942.36207 100,0 0,100.00013 -100,0 z"
       clip-path="url(#clipPath8879)"
       style="opacity:1;fill:#c8c8c8;fill-opacity:1;stroke:none;stroke-width:1.38716519;stroke-linecap:round;stroke-linejoin:miter;stroke-miterlimit:4;stroke-dasharray:none;stroke-dashoffset:0;stroke-opacity:1" />
    <path
       id="rect4225"
       d="m 10,942.36212 100,0 0,99.99998 -100,0 z"
       clip-path="url(#clipPath8795)"
       style="opacity:1;fill:#000000;fill-opacity:1;stroke:none;stroke-width:1.33659101;stroke-linecap:round;stroke-linejoin:miter;stroke-miterlimit:4;stroke-dasharray:none;stroke-dashoffset:0;stroke-opacity:1;marker-end:" />
    <path
       id="rect4223"
       d="m 110,942.36218 100,0 0,100.00002 -100,0 z"
       clip-path="url(#clipPath8887)"
       style="opacity:1;fill:#c8c8c8;fill-opacity:1;stroke:none;stroke-width:1.38716519;stroke-linecap:round;stroke-linejoin:miter;stroke-miterlimit:4;stroke-dasharray:none;stroke-dashoffset:0;stroke-opacity:1" />
    <path
       id="rect4627"
       d="m 310,942.36214 100,0 0,100.00006 -100,0 z"
       clip-path="url(#clipPath8871)"
       style="opacity:1;fill:#646464;fill-opacity:1;fill-rule:evenodd;stroke:none;stroke-width:2;stroke-linecap:round;stroke-linejoin:miter;stroke-miterlimit:4;stroke-dasharray:none;stroke-dashoffset:0;stroke-opacity:1" />
    <path
       clip-path="url(#clipPath8883)"
       id="path4364"
       d="m 125.46054,976.89793 0.86099,13.59333 33.48316,-10.62908 c 1.71467,-0.31176 6.14552,-0.8757 8.20312,-1.17187 l 26.6935,-0.85225 -1.70238,-13.83863 -24.99112,10.394 c -2.88376,0.32735 -3.62938,0.82895 -5.46875,1.17188 z"
       style="opacity:1;fill:#646464;fill-opacity:1;fill-rule:evenodd;stroke:none;stroke-width:1px;stroke-linecap:butt;stroke-linejoin:miter;stroke-opacity:1" />
    <path
       clip-path="url(#clipPath8875)"
       id="path4364-8"
       d="m 237.15724,1034.8281 34.99783,1.3505 30.23597,-64.12065 -35.45408,-27.3356 -47.42557,37.0112 18.06274,7.90584 22.23056,-9.77721 c 2.00606,-0.30862 2.53092,-0.50286 2.53092,-0.50286 0,0 0.29161,5.98832 0.20345,9.09661 z"
       style="opacity:1;fill:#646464;fill-opacity:1;fill-rule:evenodd;stroke:none;stroke-width:1px;stroke-linecap:butt;stroke-linejoin:miter;stroke-opacity:1" />
    <circle
       clip-path="none"
       r="5"
       cy="982.36218"
       cx="129"
       id="path6335"
       style="opacity:0.6;fill:#00ff00;fill-opacity:1;stroke:none;stroke-width:2;stroke-linecap:round;stroke-linejoin:miter;stroke-miterlimit:4;stroke-dasharray:none;stroke-dashoffset:0;stroke-opacity:1" />
    <path
       clip-path="none"
       id="path6337-7"
       d="m 140.72775,989.45445 c 11.73761,-2.89344 21.08664,-4.87642 38.01102,-6.36658"
       style="opacity:0.6;fill:none;fill-rule:evenodd;stroke:#ff0000;stroke-width:1.5;stroke-linecap:square;stroke-linejoin:miter;stroke-miterlimit:4;stroke-dasharray:none;stroke-opacity:1;marker-end:url(#marker6825-4)" />
    <circle
       clip-path="none"
       r="5"
       cy="957.36218"
       cx="261"
       id="path6335-5"
       style="opacity:0.6;fill:#00ff00;fill-opacity:1;stroke:none;stroke-width:2;stroke-linecap:round;stroke-linejoin:miter;stroke-miterlimit:4;stroke-dasharray:none;stroke-dashoffset:0;stroke-opacity:1" />
    <circle
       clip-path="none"
       r="5"
       cy="981.36218"
       cx="363.5"
       id="path6335-0"
       style="opacity:0.6;fill:#00ff00;fill-opacity:1;stroke:none;stroke-width:2;stroke-linecap:round;stroke-linejoin:miter;stroke-miterlimit:4;stroke-dasharray:none;stroke-dashoffset:0;stroke-opacity:1" />
    <path
       clip-path="none"
       id="path6337-7-6"
       d="m 257.0592,970.58819 c -0.21526,11.13516 -0.44974,24.82877 -0.36555,35.96391"
       style="opacity:0.6;fill:none;fill-rule:evenodd;stroke:#ff0000;stroke-width:1.5;stroke-linecap:square;stroke-linejoin:miter;stroke-miterlimit:4;stroke-dasharray:none;stroke-opacity:1;marker-end:url(#marker6825-4-0)" />
    <path
       clip-path="none"
       id="path6337-7-3"
       d="m 351.09949,984.45002 c -6.34221,8.2873 -14.49248,15.81318 -22.69374,22.24138"
       style="opacity:0.6;fill:none;fill-rule:evenodd;stroke:#ff0000;stroke-width:1.5;stroke-linecap:square;stroke-linejoin:miter;stroke-miterlimit:4;stroke-dasharray:none;stroke-opacity:1;marker-end:url(#marker6825-4-06)" />
  </g>
</svg>
