<?xml version="1.0" encoding="UTF-8" standalone="no"?>
<svg
   xmlns:dc="http://purl.org/dc/elements/1.1/"
   xmlns:cc="http://creativecommons.org/ns#"
   xmlns:rdf="http://www.w3.org/1999/02/22-rdf-syntax-ns#"
   xmlns:svg="http://www.w3.org/2000/svg"
   xmlns="http://www.w3.org/2000/svg"
   xmlns:sodipodi="http://sodipodi.sourceforge.net/DTD/sodipodi-0.dtd"
   xmlns:inkscape="http://www.inkscape.org/namespaces/inkscape"
   version="1.1"
   id="svg2"
   viewBox="0 0 320 120"
   height="120"
   width="320"
   inkscape:version="0.91 r13725"
   sodipodi:docname="カ-bw.svg">
  <sodipodi:namedview
     pagecolor="#ffffff"
     bordercolor="#666666"
     borderopacity="1"
     objecttolerance="10"
     gridtolerance="10"
     guidetolerance="10"
     inkscape:pageopacity="0"
     inkscape:pageshadow="2"
     inkscape:window-width="1366"
     inkscape:window-height="749"
     id="namedview35453"
     showgrid="false"
     inkscape:zoom="3.5375"
     inkscape:cx="179.84399"
     inkscape:cy="56.726337"
     inkscape:window-x="0"
     inkscape:window-y="0"
     inkscape:window-maximized="0"
     inkscape:current-layer="svg2" />
  <defs
     id="defs4">
    <marker
       style="overflow:visible"
       id="marker6825"
       refX="0"
       refY="0"
       orient="auto">
      <path
         transform="scale(0.4,0.4)"
         style="fill:#ff0000;fill-opacity:1;fill-rule:evenodd;stroke:#ff0000;stroke-width:1pt;stroke-opacity:1"
         d="m 5.77,0 -8.65,5 0,-10 8.65,5 z"
         id="path6827" />
    </marker>
    <marker
       style="overflow:visible"
       id="EmptyTriangleOutM"
       refX="0"
       refY="0"
       orient="auto">
      <path
         transform="matrix(0.4,0,0,0.4,-1.8,0)"
         style="fill:#ffffff;fill-rule:evenodd;stroke:#ff0000;stroke-width:1pt;stroke-opacity:0.58823529"
         d="m 5.77,0 -8.65,5 0,-10 8.65,5 z"
         id="path4860" />
    </marker>
    <marker
       style="overflow:visible"
       id="TriangleOutL"
       refX="0"
       refY="0"
       orient="auto">
      <path
         transform="scale(0.8,0.8)"
         style="fill:#ff0000;fill-opacity:0.58823529;fill-rule:evenodd;stroke:#ff0000;stroke-width:1pt;stroke-opacity:0.58823529"
         d="m 5.77,0 -8.65,5 0,-10 8.65,5 z"
         id="path4839" />
    </marker>
    <marker
       style="overflow:visible"
       id="marker5235"
       refX="0"
       refY="0"
       orient="auto">
      <path
         transform="matrix(-1.1,0,0,-1.1,-1.1,0)"
         d="M 8.7185878,4.0337352 -2.2072895,0.01601326 8.7185884,-4.0017078 c -1.7454984,2.3720609 -1.7354408,5.6174519 -6e-7,8.035443 z"
         style="fill:#ff0000;fill-opacity:0.58823529;fill-rule:evenodd;stroke:#ff0000;stroke-width:0.625;stroke-linejoin:round;stroke-opacity:0.58823529"
         id="path5237" />
    </marker>
    <marker
       style="overflow:visible"
       id="marker5177"
       refX="0"
       refY="0"
       orient="auto">
      <path
         transform="matrix(-0.8,0,0,-0.8,-10,0)"
         style="fill:#ff0000;fill-opacity:0.58823529;fill-rule:evenodd;stroke:#ff0000;stroke-width:1pt;stroke-opacity:0.58823529"
         d="M 0,0 5,-5 -12.5,0 5,5 0,0 Z"
         id="path5179" />
    </marker>
    <marker
       style="overflow:visible"
       id="Arrow1Mstart"
       refX="0"
       refY="0"
       orient="auto">
      <path
         transform="matrix(0.4,0,0,0.4,4,0)"
         style="fill:#ff0000;fill-opacity:0.58823529;fill-rule:evenodd;stroke:#ff0000;stroke-width:1pt;stroke-opacity:0.58823529"
         d="M 0,0 5,-5 -12.5,0 5,5 0,0 Z"
         id="path4703" />
    </marker>
    <marker
       style="overflow:visible"
       id="Arrow1Lend"
       refX="0"
       refY="0"
       orient="auto">
      <path
         transform="matrix(-0.8,0,0,-0.8,-10,0)"
         style="fill:#ff0000;fill-opacity:0.58823529;fill-rule:evenodd;stroke:#ff0000;stroke-width:1pt;stroke-opacity:0.58823529"
         d="M 0,0 5,-5 -12.5,0 5,5 0,0 Z"
         id="path4700" />
    </marker>
    <marker
       style="overflow:visible"
       id="marker5031"
       refX="0"
       refY="0"
       orient="auto">
      <path
         transform="scale(-0.6,-0.6)"
         d="M 8.7185878,4.0337352 -2.2072895,0.01601326 8.7185884,-4.0017078 c -1.7454984,2.3720609 -1.7354408,5.6174519 -6e-7,8.035443 z"
         style="fill:#ff0000;fill-opacity:0.58823529;fill-rule:evenodd;stroke:#ff0000;stroke-width:0.625;stroke-linejoin:round;stroke-opacity:0.58823529"
         id="path5033" />
    </marker>
    <marker
       style="overflow:visible"
       id="Arrow2Mend"
       refX="0"
       refY="0"
       orient="auto">
      <path
         transform="scale(-0.6,-0.6)"
         d="M 8.7185878,4.0337352 -2.2072895,0.01601326 8.7185884,-4.0017078 c -1.7454984,2.3720609 -1.7354408,5.6174519 -6e-7,8.035443 z"
         style="fill:#ff0000;fill-opacity:0.58823529;fill-rule:evenodd;stroke:#ff0000;stroke-width:0.625;stroke-linejoin:round;stroke-opacity:0.58823529"
         id="path4724" />
    </marker>
    <marker
       style="overflow:visible"
       id="Arrow1Mend"
       refX="0"
       refY="0"
       orient="auto">
      <path
         transform="matrix(-0.4,0,0,-0.4,-4,0)"
         style="fill:#ff0000;fill-opacity:0.58823529;fill-rule:evenodd;stroke:#ff0000;stroke-width:1pt;stroke-opacity:0.58823529"
         d="M 0,0 5,-5 -12.5,0 5,5 0,0 Z"
         id="path4706" />
    </marker>
    <marker
       style="overflow:visible"
       id="Arrow2Lend"
       refX="0"
       refY="0"
       orient="auto">
      <path
         transform="matrix(-1.1,0,0,-1.1,-1.1,0)"
         d="M 8.7185878,4.0337352 -2.2072895,0.01601326 8.7185884,-4.0017078 c -1.7454984,2.3720609 -1.7354408,5.6174519 -6e-7,8.035443 z"
         style="fill:#ff0000;fill-opacity:0.58823529;fill-rule:evenodd;stroke:#ff0000;stroke-width:0.625;stroke-linejoin:round;stroke-opacity:0.58823529"
         id="path4718" />
    </marker>
    <clipPath
       id="clipPath4252"
       clipPathUnits="userSpaceOnUse">
      <text
         xml:space="preserve"
         style="font-style:normal;font-weight:normal;font-size:110.1632309px;line-height:125%;font-family:sans-serif;letter-spacing:0px;word-spacing:0px;fill:#ff1a01;fill-opacity:1;stroke:none;stroke-width:1px;stroke-linecap:butt;stroke-linejoin:miter;stroke-opacity:1"
         x="-79.682037"
         y="982.66449"
         id="text4254"
         transform="scale(0.95401358,1.0482031)"><tspan
           style="font-style:normal;font-variant:normal;font-weight:normal;font-stretch:normal;font-size:100px;font-family:'EPSON 太明朝体Ｂ';-inkscape-font-specification:'EPSON 太明朝体Ｂ'"
           x="-79.682037"
           y="982.66449"
           id="tspan4256">┃ああああ┃</tspan></text>
    </clipPath>
    <marker
       style="overflow:visible"
       id="marker6825-4"
       refX="0"
       refY="0"
       orient="auto">
      <path
         transform="scale(0.4,0.4)"
         style="fill:#ff0000;fill-opacity:1;fill-rule:evenodd;stroke:#ff0000;stroke-width:1pt;stroke-opacity:1"
         d="m 5.77,0 -8.65,5 0,-10 8.65,5 z"
         id="path6827-0" />
    </marker>
    <clipPath
       id="clipPath12559"
       clipPathUnits="userSpaceOnUse">
      <path
         d="m 67.617187,963.06531 q -2.539062,-5.27344 -9.765625,-6.64063 l -0.78125,0.39063 q 0.292969,1.17187 1.171875,2.34375 1.171875,0.97656 1.171875,1.95312 0,0.87891 -0.78125,3.90625 -1.5625,5.85938 -3.90625,12.10938 -9.472656,1.75781 -19.53125,2.73437 -2.34375,0 -5.078125,0 l -0.390625,0.78125 q 1.855469,2.92969 7.8125,4.29688 7.8125,-1.75781 15.625,-3.125 -8.59375,22.65629 -29.296875,40.62499 -0.585937,0.5859 -1.171875,1.1719 l 0.390625,0.7812 q 0.78125,-0.2929 1.5625,-0.7812 24.804688,-15.4297 36.328125,-43.35939 8.398438,-1.5625 18.359375,-3.125 1.5625,0 1.5625,1.5625 -2.148437,10.15625 -5.859375,20.3125 -3.90625,10.54689 -8.984375,19.14059 -2.246093,2.7344 -4.296875,2.7344 -1.367187,-0.293 -8.984375,-1.9531 l -0.390625,0.7812 q 1.171875,0.3907 2.34375,1.5625 3.90625,3.0274 6.640625,8.2032 0.878907,2.7343 1.5625,2.7343 1.855469,0 7.421875,-8.5937 4.6875,-8.2031 8.984375,-19.1406 3.710938,-10.3516 7.8125,-23.43754 1.953125,-2.05078 1.953125,-2.73438 0,-2.24609 -8.59375,-5.46875 -1.953125,0.39063 -3.515625,0.78125 -6.835937,0.97657 -14.84375,2.34375 1.757813,-5.07812 3.90625,-10.15625 0.683594,-1.07422 1.5625,-2.73437 z"
         style="font-style:normal;font-variant:normal;font-weight:normal;font-stretch:normal;font-size:100px;line-height:125%;font-family:'EPSON 正楷書体Ｍ';-inkscape-font-specification:'EPSON 正楷書体Ｍ';letter-spacing:0px;word-spacing:0px;fill:#ff0000;fill-opacity:1;stroke:none;stroke-width:1px;stroke-linecap:butt;stroke-linejoin:miter;stroke-opacity:1"
         id="path12561" />
    </clipPath>
    <clipPath
       id="clipPath12563"
       clipPathUnits="userSpaceOnUse">
      <path
         d="m 267.61719,963.06531 q -2.53907,-5.27344 -9.76563,-6.64063 l -0.78125,0.39063 q 0.29297,1.17187 1.17188,2.34375 1.17187,0.97656 1.17187,1.95312 0,0.87891 -0.78125,3.90625 -1.5625,5.85938 -3.90625,12.10938 -9.47265,1.75781 -19.53125,2.73437 -2.34375,0 -5.07812,0 l -0.39063,0.78125 q 1.85547,2.92969 7.8125,4.29688 7.8125,-1.75781 15.625,-3.125 -8.59375,22.65629 -29.29687,40.62499 -0.58594,0.5859 -1.17188,1.1719 l 0.39063,0.7812 q 0.78125,-0.2929 1.5625,-0.7812 24.80468,-15.4297 36.32812,-43.35939 8.39844,-1.5625 18.35938,-3.125 1.5625,0 1.5625,1.5625 -2.14844,10.15625 -5.85938,20.3125 -3.90625,10.54689 -8.98437,19.14059 -2.2461,2.7344 -4.29688,2.7344 -1.36719,-0.293 -8.98437,-1.9531 l -0.39063,0.7812 q 1.17188,0.3907 2.34375,1.5625 3.90625,3.0274 6.64063,8.2032 0.8789,2.7343 1.5625,2.7343 1.85547,0 7.42187,-8.5937 4.6875,-8.2031 8.98438,-19.1406 3.71093,-10.3516 7.8125,-23.43754 1.95312,-2.05078 1.95312,-2.73438 0,-2.24609 -8.59375,-5.46875 -1.95312,0.39063 -3.51562,0.78125 -6.83594,0.97657 -14.84375,2.34375 1.75781,-5.07812 3.90625,-10.15625 0.68359,-1.07422 1.5625,-2.73437 z"
         style="font-style:normal;font-variant:normal;font-weight:normal;font-stretch:normal;font-size:100px;line-height:125%;font-family:'EPSON 正楷書体Ｍ';-inkscape-font-specification:'EPSON 正楷書体Ｍ';letter-spacing:0px;word-spacing:0px;fill:#ff0000;fill-opacity:1;stroke:none;stroke-width:1px;stroke-linecap:butt;stroke-linejoin:miter;stroke-opacity:1"
         id="path12565" />
    </clipPath>
    <clipPath
       id="clipPath12567"
       clipPathUnits="userSpaceOnUse">
      <path
         d="m 167.61719,963.06531 q -2.53907,-5.27344 -9.76563,-6.64063 l -0.78125,0.39063 q 0.29297,1.17187 1.17188,2.34375 1.17187,0.97656 1.17187,1.95312 0,0.87891 -0.78125,3.90625 -1.5625,5.85938 -3.90625,12.10938 -9.47265,1.75781 -19.53125,2.73437 -2.34375,0 -5.07812,0 l -0.39063,0.78125 q 1.85547,2.92969 7.8125,4.29688 7.8125,-1.75781 15.625,-3.125 -8.59375,22.65629 -29.29687,40.62499 -0.58594,0.5859 -1.17188,1.1719 l 0.39063,0.7812 q 0.78125,-0.2929 1.5625,-0.7812 24.80468,-15.4297 36.32812,-43.35939 8.39844,-1.5625 18.35938,-3.125 1.5625,0 1.5625,1.5625 -2.14844,10.15625 -5.85938,20.3125 -3.90625,10.54689 -8.98437,19.14059 -2.2461,2.7344 -4.29688,2.7344 -1.36719,-0.293 -8.98437,-1.9531 l -0.39063,0.7812 q 1.17188,0.3907 2.34375,1.5625 3.90625,3.0274 6.64063,8.2032 0.8789,2.7343 1.5625,2.7343 1.85547,0 7.42187,-8.5937 4.6875,-8.2031 8.98438,-19.1406 3.71093,-10.3516 7.8125,-23.43754 1.95312,-2.05078 1.95312,-2.73438 0,-2.24609 -8.59375,-5.46875 -1.95312,0.39063 -3.51562,0.78125 -6.83594,0.97657 -14.84375,2.34375 1.75781,-5.07812 3.90625,-10.15625 0.68359,-1.07422 1.5625,-2.73437 z"
         style="font-style:normal;font-variant:normal;font-weight:normal;font-stretch:normal;font-size:100px;line-height:125%;font-family:'EPSON 正楷書体Ｍ';-inkscape-font-specification:'EPSON 正楷書体Ｍ';letter-spacing:0px;word-spacing:0px;fill:#ff0000;fill-opacity:1;stroke:none;stroke-width:1px;stroke-linecap:butt;stroke-linejoin:miter;stroke-opacity:1"
         id="path12569" />
    </clipPath>
    <clipPath
       id="clipPath12571"
       clipPathUnits="userSpaceOnUse">
      <path
         d="m 167.61719,963.06531 q -2.53907,-5.27344 -9.76563,-6.64063 l -0.78125,0.39063 q 0.29297,1.17187 1.17188,2.34375 1.17187,0.97656 1.17187,1.95312 0,0.87891 -0.78125,3.90625 -1.5625,5.85938 -3.90625,12.10938 -9.47265,1.75781 -19.53125,2.73437 -2.34375,0 -5.07812,0 l -0.39063,0.78125 q 1.85547,2.92969 7.8125,4.29688 7.8125,-1.75781 15.625,-3.125 -8.59375,22.65629 -29.29687,40.62499 -0.58594,0.5859 -1.17188,1.1719 l 0.39063,0.7812 q 0.78125,-0.2929 1.5625,-0.7812 24.80468,-15.4297 36.32812,-43.35939 8.39844,-1.5625 18.35938,-3.125 1.5625,0 1.5625,1.5625 -2.14844,10.15625 -5.85938,20.3125 -3.90625,10.54689 -8.98437,19.14059 -2.2461,2.7344 -4.29688,2.7344 -1.36719,-0.293 -8.98437,-1.9531 l -0.39063,0.7812 q 1.17188,0.3907 2.34375,1.5625 3.90625,3.0274 6.64063,8.2032 0.8789,2.7343 1.5625,2.7343 1.85547,0 7.42187,-8.5937 4.6875,-8.2031 8.98438,-19.1406 3.71093,-10.3516 7.8125,-23.43754 1.95312,-2.05078 1.95312,-2.73438 0,-2.24609 -8.59375,-5.46875 -1.95312,0.39063 -3.51562,0.78125 -6.83594,0.97657 -14.84375,2.34375 1.75781,-5.07812 3.90625,-10.15625 0.68359,-1.07422 1.5625,-2.73437 z"
         style="font-style:normal;font-variant:normal;font-weight:normal;font-stretch:normal;font-size:100px;line-height:125%;font-family:'EPSON 正楷書体Ｍ';-inkscape-font-specification:'EPSON 正楷書体Ｍ';letter-spacing:0px;word-spacing:0px;fill:#ff0000;fill-opacity:1;stroke:none;stroke-width:1px;stroke-linecap:butt;stroke-linejoin:miter;stroke-opacity:1"
         id="path12573" />
    </clipPath>
    <marker
       style="overflow:visible"
       id="marker6825-4-6"
       refX="0"
       refY="0"
       orient="auto">
      <path
         transform="scale(0.4,0.4)"
         style="fill:#ff0000;fill-opacity:1;fill-rule:evenodd;stroke:#ff0000;stroke-width:1pt;stroke-opacity:1"
         d="m 5.77,0 -8.65,5 0,-10 8.65,5 z"
         id="path6827-0-3" />
    </marker>
  </defs>
  <metadata
     id="metadata7">
    <rdf:RDF>
      <cc:Work
         rdf:about="">
        <dc:format>image/svg+xml</dc:format>
        <dc:type
           rdf:resource="http://purl.org/dc/dcmitype/StillImage" />
        <dc:title />
      </cc:Work>
    </rdf:RDF>
  </metadata>
  <g
     transform="translate(0,-932.36216)"
     id="layer1">
    <path
       id="rect4225"
       d="m 10,942.36212 100,0 0,99.99998 -100,0 z"
       clip-path="url(#clipPath12559)"
       style="opacity:1;fill:#000000;fill-opacity:1;stroke:none;stroke-width:1.33659101;stroke-linecap:round;stroke-linejoin:miter;stroke-miterlimit:4;stroke-dasharray:none;stroke-dashoffset:0;stroke-opacity:1" />
    <path
       id="rect4223"
       d="m 110,942.36218 100,0 0,100.00002 -100,0 z"
       clip-path="url(#clipPath12571)"
       style="opacity:1;fill:#c8c8c8;fill-opacity:1;stroke:none;stroke-width:1.38716519;stroke-linecap:round;stroke-linejoin:miter;stroke-miterlimit:4;stroke-dasharray:none;stroke-dashoffset:0;stroke-opacity:1" />
    <path
       id="rect4627"
       d="m 210,942.36214 100,0 0,100.00006 -100,0 z"
       clip-path="url(#clipPath12563)"
       style="opacity:1;fill:#646464;fill-opacity:1;fill-rule:evenodd;stroke:none;stroke-width:2;stroke-linecap:round;stroke-linejoin:miter;stroke-miterlimit:4;stroke-dasharray:none;stroke-dashoffset:0;stroke-opacity:1" />
    <path
       clip-path="url(#clipPath12567)"
       id="path4364"
       d="m 127.08864,975.50242 1.09357,16.61694 24.98185,-10.30405 c 3.39204,-0.51395 5.1811,-1.08967 7.8125,-1.5625 l -12.59687,46.13749 18.12309,10.6699 36.03215,-77.24731 -40.38649,16.14304 c -3.24814,0.5345 -4.87271,0.71961 -7.42188,1.17188 z"
       style="opacity:1;fill:#646464;fill-opacity:1;fill-rule:evenodd;stroke:none;stroke-width:1px;stroke-linecap:butt;stroke-linejoin:miter;stroke-opacity:1" />
    <circle
       clip-path="none"
       r="5"
       cy="981.36218"
       cx="132"
       id="path6335"
       style="opacity:0.6;fill:#00ff00;fill-opacity:1;stroke:none;stroke-width:2;stroke-linecap:round;stroke-linejoin:miter;stroke-miterlimit:4;stroke-dasharray:none;stroke-dashoffset:0;stroke-opacity:1" />
    <path
       clip-path="none"
       id="path6337-7"
       d="m 153.2681,987.26168 c 6.79259,-1.46245 14.01393,-3.25938 20.99092,-3.98427 -0.73458,4.99716 -3.43663,10.48053 -5.42439,15.29866"
       style="opacity:0.6;fill:none;fill-rule:evenodd;stroke:#ff0000;stroke-width:1.5;stroke-linecap:square;stroke-linejoin:miter;stroke-miterlimit:4;stroke-dasharray:none;stroke-opacity:1;marker-end:url(#marker6825-4)"
       inkscape:connector-curvature="0"
       sodipodi:nodetypes="ccc" />
    <circle
       clip-path="none"
       r="5"
       cy="958.36218"
       cx="260"
       id="path6335-3"
       style="opacity:0.6;fill:#00ff00;fill-opacity:1;stroke:none;stroke-width:2;stroke-linecap:round;stroke-linejoin:miter;stroke-miterlimit:4;stroke-dasharray:none;stroke-dashoffset:0;stroke-opacity:1" />
    <path
       clip-path="none"
       id="path6337-7-3"
       d="m 270.33266,970.84471 c -3.54616,13.09681 -6.49288,21.17369 -15.66024,34.21839"
       style="opacity:0.6;fill:none;fill-rule:evenodd;stroke:#ff0000;stroke-width:1.5;stroke-linecap:square;stroke-linejoin:miter;stroke-miterlimit:4;stroke-dasharray:none;stroke-opacity:1;marker-end:url(#marker6825-4-6)" />
  </g>
</svg>
