<?xml version="1.0" encoding="UTF-8" standalone="no"?>
<svg
   xmlns:dc="http://purl.org/dc/elements/1.1/"
   xmlns:cc="http://creativecommons.org/ns#"
   xmlns:rdf="http://www.w3.org/1999/02/22-rdf-syntax-ns#"
   xmlns:svg="http://www.w3.org/2000/svg"
   xmlns="http://www.w3.org/2000/svg"
   version="1.1"
   id="svg2"
   viewBox="0 0 420 120"
   height="120"
   width="420">
  <defs
     id="defs4">
    <marker
       style="overflow:visible"
       id="marker6825"
       refX="0"
       refY="0"
       orient="auto">
      <path
         transform="scale(0.4,0.4)"
         style="fill:#ff0000;fill-opacity:1;fill-rule:evenodd;stroke:#ff0000;stroke-width:1pt;stroke-opacity:1"
         d="m 5.77,0 -8.65,5 0,-10 8.65,5 z"
         id="path6827" />
    </marker>
    <marker
       style="overflow:visible"
       id="EmptyTriangleOutM"
       refX="0"
       refY="0"
       orient="auto">
      <path
         transform="matrix(0.4,0,0,0.4,-1.8,0)"
         style="fill:#ffffff;fill-rule:evenodd;stroke:#ff0000;stroke-width:1pt;stroke-opacity:0.58823529"
         d="m 5.77,0 -8.65,5 0,-10 8.65,5 z"
         id="path4860" />
    </marker>
    <marker
       style="overflow:visible"
       id="TriangleOutL"
       refX="0"
       refY="0"
       orient="auto">
      <path
         transform="scale(0.8,0.8)"
         style="fill:#ff0000;fill-opacity:0.58823529;fill-rule:evenodd;stroke:#ff0000;stroke-width:1pt;stroke-opacity:0.58823529"
         d="m 5.77,0 -8.65,5 0,-10 8.65,5 z"
         id="path4839" />
    </marker>
    <marker
       style="overflow:visible"
       id="marker5235"
       refX="0"
       refY="0"
       orient="auto">
      <path
         transform="matrix(-1.1,0,0,-1.1,-1.1,0)"
         d="M 8.7185878,4.0337352 -2.2072895,0.01601326 8.7185884,-4.0017078 c -1.7454984,2.3720609 -1.7354408,5.6174519 -6e-7,8.035443 z"
         style="fill:#ff0000;fill-opacity:0.58823529;fill-rule:evenodd;stroke:#ff0000;stroke-width:0.625;stroke-linejoin:round;stroke-opacity:0.58823529"
         id="path5237" />
    </marker>
    <marker
       style="overflow:visible"
       id="marker5177"
       refX="0"
       refY="0"
       orient="auto">
      <path
         transform="matrix(-0.8,0,0,-0.8,-10,0)"
         style="fill:#ff0000;fill-opacity:0.58823529;fill-rule:evenodd;stroke:#ff0000;stroke-width:1pt;stroke-opacity:0.58823529"
         d="M 0,0 5,-5 -12.5,0 5,5 0,0 Z"
         id="path5179" />
    </marker>
    <marker
       style="overflow:visible"
       id="Arrow1Mstart"
       refX="0"
       refY="0"
       orient="auto">
      <path
         transform="matrix(0.4,0,0,0.4,4,0)"
         style="fill:#ff0000;fill-opacity:0.58823529;fill-rule:evenodd;stroke:#ff0000;stroke-width:1pt;stroke-opacity:0.58823529"
         d="M 0,0 5,-5 -12.5,0 5,5 0,0 Z"
         id="path4703" />
    </marker>
    <marker
       style="overflow:visible"
       id="Arrow1Lend"
       refX="0"
       refY="0"
       orient="auto">
      <path
         transform="matrix(-0.8,0,0,-0.8,-10,0)"
         style="fill:#ff0000;fill-opacity:0.58823529;fill-rule:evenodd;stroke:#ff0000;stroke-width:1pt;stroke-opacity:0.58823529"
         d="M 0,0 5,-5 -12.5,0 5,5 0,0 Z"
         id="path4700" />
    </marker>
    <marker
       style="overflow:visible"
       id="marker5031"
       refX="0"
       refY="0"
       orient="auto">
      <path
         transform="scale(-0.6,-0.6)"
         d="M 8.7185878,4.0337352 -2.2072895,0.01601326 8.7185884,-4.0017078 c -1.7454984,2.3720609 -1.7354408,5.6174519 -6e-7,8.035443 z"
         style="fill:#ff0000;fill-opacity:0.58823529;fill-rule:evenodd;stroke:#ff0000;stroke-width:0.625;stroke-linejoin:round;stroke-opacity:0.58823529"
         id="path5033" />
    </marker>
    <marker
       style="overflow:visible"
       id="Arrow2Mend"
       refX="0"
       refY="0"
       orient="auto">
      <path
         transform="scale(-0.6,-0.6)"
         d="M 8.7185878,4.0337352 -2.2072895,0.01601326 8.7185884,-4.0017078 c -1.7454984,2.3720609 -1.7354408,5.6174519 -6e-7,8.035443 z"
         style="fill:#ff0000;fill-opacity:0.58823529;fill-rule:evenodd;stroke:#ff0000;stroke-width:0.625;stroke-linejoin:round;stroke-opacity:0.58823529"
         id="path4724" />
    </marker>
    <marker
       style="overflow:visible"
       id="Arrow1Mend"
       refX="0"
       refY="0"
       orient="auto">
      <path
         transform="matrix(-0.4,0,0,-0.4,-4,0)"
         style="fill:#ff0000;fill-opacity:0.58823529;fill-rule:evenodd;stroke:#ff0000;stroke-width:1pt;stroke-opacity:0.58823529"
         d="M 0,0 5,-5 -12.5,0 5,5 0,0 Z"
         id="path4706" />
    </marker>
    <marker
       style="overflow:visible"
       id="Arrow2Lend"
       refX="0"
       refY="0"
       orient="auto">
      <path
         transform="matrix(-1.1,0,0,-1.1,-1.1,0)"
         d="M 8.7185878,4.0337352 -2.2072895,0.01601326 8.7185884,-4.0017078 c -1.7454984,2.3720609 -1.7354408,5.6174519 -6e-7,8.035443 z"
         style="fill:#ff0000;fill-opacity:0.58823529;fill-rule:evenodd;stroke:#ff0000;stroke-width:0.625;stroke-linejoin:round;stroke-opacity:0.58823529"
         id="path4718" />
    </marker>
    <clipPath
       id="clipPath4252"
       clipPathUnits="userSpaceOnUse">
      <text
         xml:space="preserve"
         style="font-style:normal;font-weight:normal;font-size:110.1632309px;line-height:125%;font-family:sans-serif;letter-spacing:0px;word-spacing:0px;fill:#ff1a01;fill-opacity:1;stroke:none;stroke-width:1px;stroke-linecap:butt;stroke-linejoin:miter;stroke-opacity:1"
         x="-79.682037"
         y="982.66449"
         id="text4254"
         transform="scale(0.95401358,1.0482031)"><tspan
           style="font-style:normal;font-variant:normal;font-weight:normal;font-stretch:normal;font-size:100px;font-family:'EPSON 太明朝体Ｂ';-inkscape-font-specification:'EPSON 太明朝体Ｂ'"
           x="-79.682037"
           y="982.66449"
           id="tspan4256">┃ああああ┃</tspan></text>
    </clipPath>
    <marker
       style="overflow:visible"
       id="marker6825-4"
       refX="0"
       refY="0"
       orient="auto">
      <path
         transform="scale(0.4,0.4)"
         style="fill:#ff0000;fill-opacity:1;fill-rule:evenodd;stroke:#ff0000;stroke-width:1pt;stroke-opacity:1"
         d="m 5.77,0 -8.65,5 0,-10 8.65,5 z"
         id="path6827-0" />
    </marker>
    <clipPath
       id="clipPath18602"
       clipPathUnits="userSpaceOnUse">
      <path
         d="M 59.804687,960.72156 Q 56.875,956.81531 48.476562,956.81531 l -0.390625,0.78125 q 0,0.97656 1.953125,2.34375 2.539063,1.66015 2.734375,2.73437 1.5625,6.15235 2.734375,11.32813 -7.421875,2.34375 -13.28125,3.90625 -1.464843,0 -5.078125,-0.39063 l -0.390625,0.78125 q 3.320313,3.125 7.421875,3.90625 6.25,-1.95312 12.109375,-3.90625 1.5625,7.32422 3.125,15.625 -14.84375,5.07813 -28.515625,8.59372 -1.855468,0.3907 -5.078125,0.3907 l -0.390625,0.7812 q 4.101563,2.7344 8.59375,2.7344 12.109375,-4.4922 26.171875,-8.59377 2.539063,10.35157 3.90625,19.53127 0,2.7344 0,6.25 3.125,6.6406 5.859375,6.6406 2.34375,0 2.34375,-5.0781 -3.710937,-13.6719 -6.640625,-29.29689 15.234375,-4.49219 28.125,-5.07813 3.125,-0.19531 3.125,-1.95312 0,-1.85547 -3.90625,-3.125 -4.492187,-1.17188 -7.03125,-1.17188 -2.539062,1.5625 -4.296875,2.73438 -8.789062,2.73437 -16.796875,5.07812 -1.757812,-7.8125 -3.125,-15.625 6.738282,-2.14843 14.0625,-4.29687 2.734375,-1.17188 2.734375,-2.34375 0,-2.73438 -8.203125,-2.73438 -1.5625,1.75782 -3.125,2.73438 -2.832031,1.17187 -6.640625,2.34375 Q 60,969.12 59.804687,965.79968 q 0,-3.02734 0,-5.07812 z"
         style="font-style:normal;font-variant:normal;font-weight:normal;font-stretch:normal;font-size:100px;line-height:125%;font-family:'EPSON 正楷書体Ｍ';-inkscape-font-specification:'EPSON 正楷書体Ｍ';letter-spacing:0px;word-spacing:0px;fill:#ff0000;fill-opacity:1;stroke:none;stroke-width:1px;stroke-linecap:butt;stroke-linejoin:miter;stroke-opacity:1"
         id="path18604" />
    </clipPath>
    <clipPath
       id="clipPath18606"
       clipPathUnits="userSpaceOnUse">
      <path
         d="m 359.80469,960.72156 q -2.92969,-3.90625 -11.32813,-3.90625 l -0.39062,0.78125 q 0,0.97656 1.95312,2.34375 2.53906,1.66015 2.73438,2.73437 1.5625,6.15235 2.73437,11.32813 -7.42187,2.34375 -13.28125,3.90625 -1.46484,0 -5.07812,-0.39063 l -0.39063,0.78125 q 3.32031,3.125 7.42188,3.90625 6.25,-1.95312 12.10937,-3.90625 1.5625,7.32422 3.125,15.625 -14.84375,5.07813 -28.51562,8.59372 -1.85547,0.3907 -5.07813,0.3907 l -0.39062,0.7812 q 4.10156,2.7344 8.59375,2.7344 12.10937,-4.4922 26.17187,-8.59377 2.53906,10.35157 3.90625,19.53127 0,2.7344 0,6.25 3.125,6.6406 5.85938,6.6406 2.34375,0 2.34375,-5.0781 -3.71094,-13.6719 -6.64063,-29.29689 15.23438,-4.49219 28.125,-5.07813 3.125,-0.19531 3.125,-1.95312 0,-1.85547 -3.90625,-3.125 -4.49219,-1.17188 -7.03125,-1.17188 -2.53906,1.5625 -4.29687,2.73438 -8.78907,2.73437 -16.79688,5.07812 -1.75781,-7.8125 -3.125,-15.625 6.73828,-2.14843 14.0625,-4.29687 2.73438,-1.17188 2.73438,-2.34375 0,-2.73438 -8.20313,-2.73438 -1.5625,1.75782 -3.125,2.73438 -2.83203,1.17187 -6.64062,2.34375 Q 360,969.12 359.80469,965.79968 q 0,-3.02734 0,-5.07812 z"
         style="font-style:normal;font-variant:normal;font-weight:normal;font-stretch:normal;font-size:100px;line-height:125%;font-family:'EPSON 正楷書体Ｍ';-inkscape-font-specification:'EPSON 正楷書体Ｍ';letter-spacing:0px;word-spacing:0px;fill:#ff0000;fill-opacity:1;stroke:none;stroke-width:1px;stroke-linecap:butt;stroke-linejoin:miter;stroke-opacity:1"
         id="path18608" />
    </clipPath>
    <clipPath
       id="clipPath18633"
       clipPathUnits="userSpaceOnUse">
      <path
         d="m 159.80469,960.72156 q -2.92969,-3.90625 -11.32813,-3.90625 l -0.39062,0.78125 q 0,0.97656 1.95312,2.34375 2.53906,1.66015 2.73438,2.73437 1.5625,6.15235 2.73437,11.32813 -7.42187,2.34375 -13.28125,3.90625 -1.46484,0 -5.07812,-0.39063 l -0.39063,0.78125 q 3.32031,3.125 7.42188,3.90625 6.25,-1.95312 12.10937,-3.90625 1.5625,7.32422 3.125,15.625 -14.84375,5.07813 -28.51562,8.59372 -1.85547,0.3907 -5.07813,0.3907 l -0.39062,0.7812 q 4.10156,2.7344 8.59375,2.7344 12.10937,-4.4922 26.17187,-8.59377 2.53906,10.35157 3.90625,19.53127 0,2.7344 0,6.25 3.125,6.6406 5.85938,6.6406 2.34375,0 2.34375,-5.0781 -3.71094,-13.6719 -6.64063,-29.29689 15.23438,-4.49219 28.125,-5.07813 3.125,-0.19531 3.125,-1.95312 0,-1.85547 -3.90625,-3.125 -4.49219,-1.17188 -7.03125,-1.17188 -2.53906,1.5625 -4.29687,2.73438 -8.78907,2.73437 -16.79688,5.07812 -1.75781,-7.8125 -3.125,-15.625 6.73828,-2.14843 14.0625,-4.29687 2.73438,-1.17188 2.73438,-2.34375 0,-2.73438 -8.20313,-2.73438 -1.5625,1.75782 -3.125,2.73438 -2.83203,1.17187 -6.64062,2.34375 Q 160,969.12 159.80469,965.79968 q 0,-3.02734 0,-5.07812 z"
         style="font-style:normal;font-variant:normal;font-weight:normal;font-stretch:normal;font-size:100px;line-height:125%;font-family:'EPSON 正楷書体Ｍ';-inkscape-font-specification:'EPSON 正楷書体Ｍ';letter-spacing:0px;word-spacing:0px;fill:#ff0000;fill-opacity:1;stroke:none;stroke-width:1px;stroke-linecap:butt;stroke-linejoin:miter;stroke-opacity:1"
         id="path18635" />
    </clipPath>
    <clipPath
       id="clipPath18637"
       clipPathUnits="userSpaceOnUse">
      <path
         d="m 159.80469,960.72156 q -2.92969,-3.90625 -11.32813,-3.90625 l -0.39062,0.78125 q 0,0.97656 1.95312,2.34375 2.53906,1.66015 2.73438,2.73437 1.5625,6.15235 2.73437,11.32813 -7.42187,2.34375 -13.28125,3.90625 -1.46484,0 -5.07812,-0.39063 l -0.39063,0.78125 q 3.32031,3.125 7.42188,3.90625 6.25,-1.95312 12.10937,-3.90625 1.5625,7.32422 3.125,15.625 -14.84375,5.07813 -28.51562,8.59372 -1.85547,0.3907 -5.07813,0.3907 l -0.39062,0.7812 q 4.10156,2.7344 8.59375,2.7344 12.10937,-4.4922 26.17187,-8.59377 2.53906,10.35157 3.90625,19.53127 0,2.7344 0,6.25 3.125,6.6406 5.85938,6.6406 2.34375,0 2.34375,-5.0781 -3.71094,-13.6719 -6.64063,-29.29689 15.23438,-4.49219 28.125,-5.07813 3.125,-0.19531 3.125,-1.95312 0,-1.85547 -3.90625,-3.125 -4.49219,-1.17188 -7.03125,-1.17188 -2.53906,1.5625 -4.29687,2.73438 -8.78907,2.73437 -16.79688,5.07812 -1.75781,-7.8125 -3.125,-15.625 6.73828,-2.14843 14.0625,-4.29687 2.73438,-1.17188 2.73438,-2.34375 0,-2.73438 -8.20313,-2.73438 -1.5625,1.75782 -3.125,2.73438 -2.83203,1.17187 -6.64062,2.34375 Q 160,969.12 159.80469,965.79968 q 0,-3.02734 0,-5.07812 z"
         style="font-style:normal;font-variant:normal;font-weight:normal;font-stretch:normal;font-size:100px;line-height:125%;font-family:'EPSON 正楷書体Ｍ';-inkscape-font-specification:'EPSON 正楷書体Ｍ';letter-spacing:0px;word-spacing:0px;fill:#ff0000;fill-opacity:1;stroke:none;stroke-width:1px;stroke-linecap:butt;stroke-linejoin:miter;stroke-opacity:1"
         id="path18639" />
    </clipPath>
    <clipPath
       id="clipPath18641"
       clipPathUnits="userSpaceOnUse">
      <path
         d="m 259.80469,960.72156 q -2.92969,-3.90625 -11.32813,-3.90625 l -0.39062,0.78125 q 0,0.97656 1.95312,2.34375 2.53906,1.66015 2.73438,2.73437 1.5625,6.15235 2.73437,11.32813 -7.42187,2.34375 -13.28125,3.90625 -1.46484,0 -5.07812,-0.39063 l -0.39063,0.78125 q 3.32031,3.125 7.42188,3.90625 6.25,-1.95312 12.10937,-3.90625 1.5625,7.32422 3.125,15.625 -14.84375,5.07813 -28.51562,8.59372 -1.85547,0.3907 -5.07813,0.3907 l -0.39062,0.7812 q 4.10156,2.7344 8.59375,2.7344 12.10937,-4.4922 26.17187,-8.59377 2.53906,10.35157 3.90625,19.53127 0,2.7344 0,6.25 3.125,6.6406 5.85938,6.6406 2.34375,0 2.34375,-5.0781 -3.71094,-13.6719 -6.64063,-29.29689 15.23438,-4.49219 28.125,-5.07813 3.125,-0.19531 3.125,-1.95312 0,-1.85547 -3.90625,-3.125 -4.49219,-1.17188 -7.03125,-1.17188 -2.53906,1.5625 -4.29687,2.73438 -8.78907,2.73437 -16.79688,5.07812 -1.75781,-7.8125 -3.125,-15.625 6.73828,-2.14843 14.0625,-4.29687 2.73438,-1.17188 2.73438,-2.34375 0,-2.73438 -8.20313,-2.73438 -1.5625,1.75782 -3.125,2.73438 -2.83203,1.17187 -6.64062,2.34375 Q 260,969.12 259.80469,965.79968 q 0,-3.02734 0,-5.07812 z"
         style="font-style:normal;font-variant:normal;font-weight:normal;font-stretch:normal;font-size:100px;line-height:125%;font-family:'EPSON 正楷書体Ｍ';-inkscape-font-specification:'EPSON 正楷書体Ｍ';letter-spacing:0px;word-spacing:0px;fill:#ff0000;fill-opacity:1;stroke:none;stroke-width:1px;stroke-linecap:butt;stroke-linejoin:miter;stroke-opacity:1"
         id="path18643" />
    </clipPath>
    <clipPath
       id="clipPath18645"
       clipPathUnits="userSpaceOnUse">
      <path
         d="m 259.80469,960.72156 q -2.92969,-3.90625 -11.32813,-3.90625 l -0.39062,0.78125 q 0,0.97656 1.95312,2.34375 2.53906,1.66015 2.73438,2.73437 1.5625,6.15235 2.73437,11.32813 -7.42187,2.34375 -13.28125,3.90625 -1.46484,0 -5.07812,-0.39063 l -0.39063,0.78125 q 3.32031,3.125 7.42188,3.90625 6.25,-1.95312 12.10937,-3.90625 1.5625,7.32422 3.125,15.625 -14.84375,5.07813 -28.51562,8.59372 -1.85547,0.3907 -5.07813,0.3907 l -0.39062,0.7812 q 4.10156,2.7344 8.59375,2.7344 12.10937,-4.4922 26.17187,-8.59377 2.53906,10.35157 3.90625,19.53127 0,2.7344 0,6.25 3.125,6.6406 5.85938,6.6406 2.34375,0 2.34375,-5.0781 -3.71094,-13.6719 -6.64063,-29.29689 15.23438,-4.49219 28.125,-5.07813 3.125,-0.19531 3.125,-1.95312 0,-1.85547 -3.90625,-3.125 -4.49219,-1.17188 -7.03125,-1.17188 -2.53906,1.5625 -4.29687,2.73438 -8.78907,2.73437 -16.79688,5.07812 -1.75781,-7.8125 -3.125,-15.625 6.73828,-2.14843 14.0625,-4.29687 2.73438,-1.17188 2.73438,-2.34375 0,-2.73438 -8.20313,-2.73438 -1.5625,1.75782 -3.125,2.73438 -2.83203,1.17187 -6.64062,2.34375 Q 260,969.12 259.80469,965.79968 q 0,-3.02734 0,-5.07812 z"
         style="font-style:normal;font-variant:normal;font-weight:normal;font-stretch:normal;font-size:100px;line-height:125%;font-family:'EPSON 正楷書体Ｍ';-inkscape-font-specification:'EPSON 正楷書体Ｍ';letter-spacing:0px;word-spacing:0px;fill:#ff0000;fill-opacity:1;stroke:none;stroke-width:1px;stroke-linecap:butt;stroke-linejoin:miter;stroke-opacity:1"
         id="path18647" />
    </clipPath>
    <clipPath
       id="clipPath18649"
       clipPathUnits="userSpaceOnUse">
      <path
         d="m 259.80469,960.72156 q -2.92969,-3.90625 -11.32813,-3.90625 l -0.39062,0.78125 q 0,0.97656 1.95312,2.34375 2.53906,1.66015 2.73438,2.73437 1.5625,6.15235 2.73437,11.32813 -7.42187,2.34375 -13.28125,3.90625 -1.46484,0 -5.07812,-0.39063 l -0.39063,0.78125 q 3.32031,3.125 7.42188,3.90625 6.25,-1.95312 12.10937,-3.90625 1.5625,7.32422 3.125,15.625 -14.84375,5.07813 -28.51562,8.59372 -1.85547,0.3907 -5.07813,0.3907 l -0.39062,0.7812 q 4.10156,2.7344 8.59375,2.7344 12.10937,-4.4922 26.17187,-8.59377 2.53906,10.35157 3.90625,19.53127 0,2.7344 0,6.25 3.125,6.6406 5.85938,6.6406 2.34375,0 2.34375,-5.0781 -3.71094,-13.6719 -6.64063,-29.29689 15.23438,-4.49219 28.125,-5.07813 3.125,-0.19531 3.125,-1.95312 0,-1.85547 -3.90625,-3.125 -4.49219,-1.17188 -7.03125,-1.17188 -2.53906,1.5625 -4.29687,2.73438 -8.78907,2.73437 -16.79688,5.07812 -1.75781,-7.8125 -3.125,-15.625 6.73828,-2.14843 14.0625,-4.29687 2.73438,-1.17188 2.73438,-2.34375 0,-2.73438 -8.20313,-2.73438 -1.5625,1.75782 -3.125,2.73438 -2.83203,1.17187 -6.64062,2.34375 Q 260,969.12 259.80469,965.79968 q 0,-3.02734 0,-5.07812 z"
         style="font-style:normal;font-variant:normal;font-weight:normal;font-stretch:normal;font-size:100px;line-height:125%;font-family:'EPSON 正楷書体Ｍ';-inkscape-font-specification:'EPSON 正楷書体Ｍ';letter-spacing:0px;word-spacing:0px;fill:#ff0000;fill-opacity:1;stroke:none;stroke-width:1px;stroke-linecap:butt;stroke-linejoin:miter;stroke-opacity:1"
         id="path18651" />
    </clipPath>
    <marker
       style="overflow:visible"
       id="marker6825-4-0"
       refX="0"
       refY="0"
       orient="auto">
      <path
         transform="scale(0.4,0.4)"
         style="fill:#ff0000;fill-opacity:1;fill-rule:evenodd;stroke:#ff0000;stroke-width:1pt;stroke-opacity:1"
         d="m 5.77,0 -8.65,5 0,-10 8.65,5 z"
         id="path6827-0-7" />
    </marker>
    <marker
       style="overflow:visible"
       id="marker6825-4-5"
       refX="0"
       refY="0"
       orient="auto">
      <path
         transform="scale(0.4,0.4)"
         style="fill:#ff0000;fill-opacity:1;fill-rule:evenodd;stroke:#ff0000;stroke-width:1pt;stroke-opacity:1"
         d="m 5.77,0 -8.65,5 0,-10 8.65,5 z"
         id="path6827-0-9" />
    </marker>
  </defs>
  <metadata
     id="metadata7">
    <rdf:RDF>
      <cc:Work
         rdf:about="">
        <dc:format>image/svg+xml</dc:format>
        <dc:type
           rdf:resource="http://purl.org/dc/dcmitype/StillImage" />
        <dc:title></dc:title>
      </cc:Work>
    </rdf:RDF>
  </metadata>
  <g
     transform="translate(0,-932.36216)"
     id="layer1">
    <path
       id="rect4223-5"
       d="m 210,942.36212 100,0 0,100.00008 -100,0 z"
       clip-path="url(#clipPath18649)"
       style="opacity:1;fill:#c8c8c8;fill-opacity:1;stroke:none;stroke-width:1.38716519;stroke-linecap:round;stroke-linejoin:miter;stroke-miterlimit:4;stroke-dasharray:none;stroke-dashoffset:0;stroke-opacity:1" />
    <path
       clip-path="url(#clipPath18645)"
       id="path4364-9"
       d="m 218.22418,998.7714 11.22214,14.2511 30.74899,-15.19157 c 2.384,-0.74137 3.01207,-1.15361 5.46875,-1.95312 l 34.06343,-0.62497 -2.44451,-20.28891 -32.40017,17.39825 c -1.45366,0.42156 -3.50631,0.93743 -5.46875,1.5625 z"
       style="opacity:1;fill:#646464;fill-opacity:1;fill-rule:evenodd;stroke:none;stroke-width:1px;stroke-linecap:butt;stroke-linejoin:miter;stroke-opacity:1" />
    <path
       id="rect4225"
       d="m 10,942.36212 100,0 0,99.99998 -100,0 z"
       clip-path="url(#clipPath18602)"
       style="opacity:1;fill:#000000;fill-opacity:1;stroke:none;stroke-width:1.33659101;stroke-linecap:round;stroke-linejoin:miter;stroke-miterlimit:4;stroke-dasharray:none;stroke-dashoffset:0;stroke-opacity:1" />
    <path
       id="rect4223"
       d="m 110,942.36218 100,0 0,100.00002 -100,0 z"
       clip-path="url(#clipPath18637)"
       style="opacity:1;fill:#c8c8c8;fill-opacity:1;stroke:none;stroke-width:1.38716519;stroke-linecap:round;stroke-linejoin:miter;stroke-miterlimit:4;stroke-dasharray:none;stroke-dashoffset:0;stroke-opacity:1" />
    <path
       id="rect4627"
       d="m 310,942.36214 100,0 0,100.00006 -100,0 z"
       clip-path="url(#clipPath18606)"
       style="opacity:1;fill:#646464;fill-opacity:1;fill-rule:evenodd;stroke:none;stroke-width:2;stroke-linecap:round;stroke-linejoin:miter;stroke-miterlimit:4;stroke-dasharray:none;stroke-dashoffset:0;stroke-opacity:1" />
    <path
       clip-path="url(#clipPath18633)"
       id="path4364"
       d="m 133.34305,973.68365 6.55733,16.74491 16.38868,-12.12888 c 1.39793,-0.49339 3.98859,-1.08967 5.46875,-1.5625 l 22.06296,-1.99732 -9.22596,-17.00312 -14.00887,14.70357 c -1.21291,0.3906 -3.92689,1.1719 -5.07813,1.5625 z"
       style="opacity:1;fill:#646464;fill-opacity:1;fill-rule:evenodd;stroke:none;stroke-width:1px;stroke-linecap:butt;stroke-linejoin:miter;stroke-opacity:1" />
    <circle
       clip-path="none"
       r="5"
       cy="978.36218"
       cx="139"
       id="path6335"
       style="opacity:0.6;fill:#00ff00;fill-opacity:1;stroke:none;stroke-width:2;stroke-linecap:round;stroke-linejoin:miter;stroke-miterlimit:4;stroke-dasharray:none;stroke-dashoffset:0;stroke-opacity:1" />
    <path
       clip-path="none"
       id="path6337-7"
       d="m 149.57906,985.96505 c 8.20183,-3.19437 16.50295,-5.53798 25.35766,-7.6442"
       style="opacity:0.6;fill:none;fill-rule:evenodd;stroke:#ff0000;stroke-width:1.5;stroke-linecap:square;stroke-linejoin:miter;stroke-miterlimit:4;stroke-dasharray:none;stroke-opacity:1;marker-end:url(#marker6825-4)" />
    <path
       clip-path="url(#clipPath18641)"
       id="path4364-4"
       d="m 233.343,973.68325 6.55733,16.74491 16.38868,-12.12888 c 1.87522,-0.61054 3.49178,-0.93743 5.46875,-1.5625 l 22.06296,-1.99732 -9.22596,-17.00312 -14.00887,14.70357 c -0.98849,0.33434 -4.11872,1.25723 -5.07813,1.5625 z"
       style="opacity:1;fill:#646464;fill-opacity:1;fill-rule:evenodd;stroke:none;stroke-width:1px;stroke-linecap:butt;stroke-linejoin:miter;stroke-opacity:1" />
    <circle
       clip-path="none"
       r="5"
       cy="1003.8622"
       cx="228"
       id="path6335-4"
       style="opacity:0.6;fill:#00ff00;fill-opacity:1;stroke:none;stroke-width:2;stroke-linecap:round;stroke-linejoin:miter;stroke-miterlimit:4;stroke-dasharray:none;stroke-dashoffset:0;stroke-opacity:1" />
    <circle
       clip-path="none"
       r="5"
       cy="958.36218"
       cx="350"
       id="path6335-7"
       style="opacity:0.6;fill:#00ff00;fill-opacity:1;stroke:none;stroke-width:2;stroke-linecap:round;stroke-linejoin:miter;stroke-miterlimit:4;stroke-dasharray:none;stroke-dashoffset:0;stroke-opacity:1" />
    <path
       clip-path="none"
       id="path6337-7-3"
       d="m 247.69307,1008.0041 c 10.74236,-4.1175 21.53467,-7.0885 32.89414,-9.97172"
       style="opacity:0.6;fill:none;fill-rule:evenodd;stroke:#ff0000;stroke-width:1.5;stroke-linecap:square;stroke-linejoin:miter;stroke-miterlimit:4;stroke-dasharray:none;stroke-opacity:1;marker-end:url(#marker6825-4-0)" />
    <path
       clip-path="none"
       id="path6337-7-1"
       d="m 365.27243,968.12655 c 2.25087,16.01469 4.96324,25.7975 8.30415,40.91945"
       style="opacity:0.6;fill:none;fill-rule:evenodd;stroke:#ff0000;stroke-width:1.5;stroke-linecap:square;stroke-linejoin:miter;stroke-miterlimit:4;stroke-dasharray:none;stroke-opacity:1;marker-end:url(#marker6825-4-5)" />
  </g>
</svg>
