<?xml version="1.0" encoding="UTF-8" standalone="no"?>
<svg
   xmlns:dc="http://purl.org/dc/elements/1.1/"
   xmlns:cc="http://creativecommons.org/ns#"
   xmlns:rdf="http://www.w3.org/1999/02/22-rdf-syntax-ns#"
   xmlns:svg="http://www.w3.org/2000/svg"
   xmlns="http://www.w3.org/2000/svg"
   version="1.1"
   id="svg2"
   viewBox="0 0 320 120"
   height="120"
   width="320">
  <defs
     id="defs4">
    <marker
       style="overflow:visible"
       id="marker6825"
       refX="0"
       refY="0"
       orient="auto">
      <path
         transform="scale(0.4,0.4)"
         style="fill:#ff0000;fill-opacity:1;fill-rule:evenodd;stroke:#ff0000;stroke-width:1pt;stroke-opacity:1"
         d="m 5.77,0 -8.65,5 0,-10 8.65,5 z"
         id="path6827" />
    </marker>
    <marker
       style="overflow:visible"
       id="EmptyTriangleOutM"
       refX="0"
       refY="0"
       orient="auto">
      <path
         transform="matrix(0.4,0,0,0.4,-1.8,0)"
         style="fill:#ffffff;fill-rule:evenodd;stroke:#ff0000;stroke-width:1pt;stroke-opacity:0.58823529"
         d="m 5.77,0 -8.65,5 0,-10 8.65,5 z"
         id="path4860" />
    </marker>
    <marker
       style="overflow:visible"
       id="TriangleOutL"
       refX="0"
       refY="0"
       orient="auto">
      <path
         transform="scale(0.8,0.8)"
         style="fill:#ff0000;fill-opacity:0.58823529;fill-rule:evenodd;stroke:#ff0000;stroke-width:1pt;stroke-opacity:0.58823529"
         d="m 5.77,0 -8.65,5 0,-10 8.65,5 z"
         id="path4839" />
    </marker>
    <marker
       style="overflow:visible"
       id="marker5235"
       refX="0"
       refY="0"
       orient="auto">
      <path
         transform="matrix(-1.1,0,0,-1.1,-1.1,0)"
         d="M 8.7185878,4.0337352 -2.2072895,0.01601326 8.7185884,-4.0017078 c -1.7454984,2.3720609 -1.7354408,5.6174519 -6e-7,8.035443 z"
         style="fill:#ff0000;fill-opacity:0.58823529;fill-rule:evenodd;stroke:#ff0000;stroke-width:0.625;stroke-linejoin:round;stroke-opacity:0.58823529"
         id="path5237" />
    </marker>
    <marker
       style="overflow:visible"
       id="marker5177"
       refX="0"
       refY="0"
       orient="auto">
      <path
         transform="matrix(-0.8,0,0,-0.8,-10,0)"
         style="fill:#ff0000;fill-opacity:0.58823529;fill-rule:evenodd;stroke:#ff0000;stroke-width:1pt;stroke-opacity:0.58823529"
         d="M 0,0 5,-5 -12.5,0 5,5 0,0 Z"
         id="path5179" />
    </marker>
    <marker
       style="overflow:visible"
       id="Arrow1Mstart"
       refX="0"
       refY="0"
       orient="auto">
      <path
         transform="matrix(0.4,0,0,0.4,4,0)"
         style="fill:#ff0000;fill-opacity:0.58823529;fill-rule:evenodd;stroke:#ff0000;stroke-width:1pt;stroke-opacity:0.58823529"
         d="M 0,0 5,-5 -12.5,0 5,5 0,0 Z"
         id="path4703" />
    </marker>
    <marker
       style="overflow:visible"
       id="Arrow1Lend"
       refX="0"
       refY="0"
       orient="auto">
      <path
         transform="matrix(-0.8,0,0,-0.8,-10,0)"
         style="fill:#ff0000;fill-opacity:0.58823529;fill-rule:evenodd;stroke:#ff0000;stroke-width:1pt;stroke-opacity:0.58823529"
         d="M 0,0 5,-5 -12.5,0 5,5 0,0 Z"
         id="path4700" />
    </marker>
    <marker
       style="overflow:visible"
       id="marker5031"
       refX="0"
       refY="0"
       orient="auto">
      <path
         transform="scale(-0.6,-0.6)"
         d="M 8.7185878,4.0337352 -2.2072895,0.01601326 8.7185884,-4.0017078 c -1.7454984,2.3720609 -1.7354408,5.6174519 -6e-7,8.035443 z"
         style="fill:#ff0000;fill-opacity:0.58823529;fill-rule:evenodd;stroke:#ff0000;stroke-width:0.625;stroke-linejoin:round;stroke-opacity:0.58823529"
         id="path5033" />
    </marker>
    <marker
       style="overflow:visible"
       id="Arrow2Mend"
       refX="0"
       refY="0"
       orient="auto">
      <path
         transform="scale(-0.6,-0.6)"
         d="M 8.7185878,4.0337352 -2.2072895,0.01601326 8.7185884,-4.0017078 c -1.7454984,2.3720609 -1.7354408,5.6174519 -6e-7,8.035443 z"
         style="fill:#ff0000;fill-opacity:0.58823529;fill-rule:evenodd;stroke:#ff0000;stroke-width:0.625;stroke-linejoin:round;stroke-opacity:0.58823529"
         id="path4724" />
    </marker>
    <marker
       style="overflow:visible"
       id="Arrow1Mend"
       refX="0"
       refY="0"
       orient="auto">
      <path
         transform="matrix(-0.4,0,0,-0.4,-4,0)"
         style="fill:#ff0000;fill-opacity:0.58823529;fill-rule:evenodd;stroke:#ff0000;stroke-width:1pt;stroke-opacity:0.58823529"
         d="M 0,0 5,-5 -12.5,0 5,5 0,0 Z"
         id="path4706" />
    </marker>
    <marker
       style="overflow:visible"
       id="Arrow2Lend"
       refX="0"
       refY="0"
       orient="auto">
      <path
         transform="matrix(-1.1,0,0,-1.1,-1.1,0)"
         d="M 8.7185878,4.0337352 -2.2072895,0.01601326 8.7185884,-4.0017078 c -1.7454984,2.3720609 -1.7354408,5.6174519 -6e-7,8.035443 z"
         style="fill:#ff0000;fill-opacity:0.58823529;fill-rule:evenodd;stroke:#ff0000;stroke-width:0.625;stroke-linejoin:round;stroke-opacity:0.58823529"
         id="path4718" />
    </marker>
    <clipPath
       id="clipPath4252"
       clipPathUnits="userSpaceOnUse">
      <text
         xml:space="preserve"
         style="font-style:normal;font-weight:normal;font-size:110.1632309px;line-height:125%;font-family:sans-serif;letter-spacing:0px;word-spacing:0px;fill:#ff1a01;fill-opacity:1;stroke:none;stroke-width:1px;stroke-linecap:butt;stroke-linejoin:miter;stroke-opacity:1"
         x="-79.682037"
         y="982.66449"
         id="text4254"
         transform="scale(0.95401358,1.0482031)"><tspan
           style="font-style:normal;font-variant:normal;font-weight:normal;font-stretch:normal;font-size:100px;font-family:'EPSON 太明朝体Ｂ';-inkscape-font-specification:'EPSON 太明朝体Ｂ'"
           x="-79.682037"
           y="982.66449"
           id="tspan4256">┃ああああ┃</tspan></text>
    </clipPath>
    <marker
       style="overflow:visible"
       id="marker6825-4"
       refX="0"
       refY="0"
       orient="auto">
      <path
         transform="scale(0.4,0.4)"
         style="fill:#ff0000;fill-opacity:1;fill-rule:evenodd;stroke:#ff0000;stroke-width:1pt;stroke-opacity:1"
         d="m 5.77,0 -8.65,5 0,-10 8.65,5 z"
         id="path6827-0" />
    </marker>
    <clipPath
       id="clipPath23218"
       clipPathUnits="userSpaceOnUse">
      <path
         d="m 259.80469,965.79968 q -2.05078,-7.03125 -8.20313,-7.8125 -0.78125,0.19532 -0.78125,0.78125 0,0.6836 0.78125,1.95313 0.48828,0.68359 0.78125,1.5625 0,0.8789 -0.39062,1.95312 -6.44532,13.86719 -20.70313,27.34375 -0.97656,0.97657 -1.95312,1.95313 l 0.39062,0.78125 q 1.46485,-0.6836 3.125,-1.5625 11.13281,-6.44531 20.70313,-18.35938 3.41797,0 5.07812,0 7.8125,-1.17187 16.40625,-3.90625 1.17188,0 1.17188,1.5625 -8.20313,18.35938 -20.3125,32.42192 -12.69532,14.8437 -28.90625,25 -1.26953,0.8789 -2.34375,1.5625 l 0.39062,0.7812 q 1.36719,-0.3906 3.125,-1.1719 17.96875,-7.6172 32.42188,-22.2656 14.0625,-14.84374 24.21875,-35.15624 1.95312,-0.6836 1.95312,-1.5625 0,-2.34375 -7.8125,-5.85938 -1.75781,0.78125 -2.73437,1.17188 -8.39844,2.34375 -15.23438,3.125 -2.53906,0 -4.29687,-0.39063 1.75781,-1.85547 3.125,-3.90625 z"
         style="font-style:normal;font-variant:normal;font-weight:normal;font-stretch:normal;font-size:100px;line-height:125%;font-family:'EPSON 正楷書体Ｍ';-inkscape-font-specification:'EPSON 正楷書体Ｍ';letter-spacing:0px;word-spacing:0px;fill:#ff0000;fill-opacity:1;stroke:none;stroke-width:1px;stroke-linecap:butt;stroke-linejoin:miter;stroke-opacity:1"
         id="path23220" />
    </clipPath>
    <clipPath
       id="clipPath23222"
       clipPathUnits="userSpaceOnUse">
      <path
         d="m 59.804687,965.79968 q -2.050781,-7.03125 -8.203125,-7.8125 -0.78125,0.19532 -0.78125,0.78125 0,0.6836 0.78125,1.95313 0.488282,0.68359 0.78125,1.5625 0,0.8789 -0.390625,1.95312 -6.445312,13.86719 -20.703125,27.34375 -0.976562,0.97657 -1.953125,1.95313 l 0.390625,0.78125 q 1.464844,-0.6836 3.125,-1.5625 11.132813,-6.44531 20.703125,-18.35938 3.417969,0 5.078125,0 7.8125,-1.17187 16.40625,-3.90625 1.171875,0 1.171875,1.5625 -8.203125,18.35938 -20.3125,32.42192 -12.695312,14.8437 -28.90625,25 -1.269531,0.8789 -2.34375,1.5625 l 0.390625,0.7812 q 1.367188,-0.3906 3.125,-1.1719 17.96875,-7.6172 32.421875,-22.2656 14.0625,-14.84374 24.21875,-35.15624 1.953125,-0.6836 1.953125,-1.5625 0,-2.34375 -7.8125,-5.85938 -1.757812,0.78125 -2.734375,1.17188 -8.398437,2.34375 -15.234375,3.125 -2.539062,0 -4.296875,-0.39063 1.757813,-1.85547 3.125,-3.90625 z"
         style="font-style:normal;font-variant:normal;font-weight:normal;font-stretch:normal;font-size:100px;line-height:125%;font-family:'EPSON 正楷書体Ｍ';-inkscape-font-specification:'EPSON 正楷書体Ｍ';letter-spacing:0px;word-spacing:0px;fill:#ff0000;fill-opacity:1;stroke:none;stroke-width:1px;stroke-linecap:butt;stroke-linejoin:miter;stroke-opacity:1"
         id="path23224" />
    </clipPath>
    <clipPath
       id="clipPath23226"
       clipPathUnits="userSpaceOnUse">
      <path
         d="m 159.80469,965.79968 q -2.05078,-7.03125 -8.20313,-7.8125 -0.78125,0.19532 -0.78125,0.78125 0,0.6836 0.78125,1.95313 0.48828,0.68359 0.78125,1.5625 0,0.8789 -0.39062,1.95312 -6.44532,13.86719 -20.70313,27.34375 -0.97656,0.97657 -1.95312,1.95313 l 0.39062,0.78125 q 1.46485,-0.6836 3.125,-1.5625 11.13281,-6.44531 20.70313,-18.35938 3.41797,0 5.07812,0 7.8125,-1.17187 16.40625,-3.90625 1.17188,0 1.17188,1.5625 -8.20313,18.35938 -20.3125,32.42192 -12.69532,14.8437 -28.90625,25 -1.26953,0.8789 -2.34375,1.5625 l 0.39062,0.7812 q 1.36719,-0.3906 3.125,-1.1719 17.96875,-7.6172 32.42188,-22.2656 14.0625,-14.84374 24.21875,-35.15624 1.95312,-0.6836 1.95312,-1.5625 0,-2.34375 -7.8125,-5.85938 -1.75781,0.78125 -2.73437,1.17188 -8.39844,2.34375 -15.23438,3.125 -2.53906,0 -4.29687,-0.39063 1.75781,-1.85547 3.125,-3.90625 z"
         style="font-style:normal;font-variant:normal;font-weight:normal;font-stretch:normal;font-size:100px;line-height:125%;font-family:'EPSON 正楷書体Ｍ';-inkscape-font-specification:'EPSON 正楷書体Ｍ';letter-spacing:0px;word-spacing:0px;fill:#ff0000;fill-opacity:1;stroke:none;stroke-width:1px;stroke-linecap:butt;stroke-linejoin:miter;stroke-opacity:1"
         id="path23228" />
    </clipPath>
    <clipPath
       id="clipPath23230"
       clipPathUnits="userSpaceOnUse">
      <path
         d="m 159.80469,965.79968 q -2.05078,-7.03125 -8.20313,-7.8125 -0.78125,0.19532 -0.78125,0.78125 0,0.6836 0.78125,1.95313 0.48828,0.68359 0.78125,1.5625 0,0.8789 -0.39062,1.95312 -6.44532,13.86719 -20.70313,27.34375 -0.97656,0.97657 -1.95312,1.95313 l 0.39062,0.78125 q 1.46485,-0.6836 3.125,-1.5625 11.13281,-6.44531 20.70313,-18.35938 3.41797,0 5.07812,0 7.8125,-1.17187 16.40625,-3.90625 1.17188,0 1.17188,1.5625 -8.20313,18.35938 -20.3125,32.42192 -12.69532,14.8437 -28.90625,25 -1.26953,0.8789 -2.34375,1.5625 l 0.39062,0.7812 q 1.36719,-0.3906 3.125,-1.1719 17.96875,-7.6172 32.42188,-22.2656 14.0625,-14.84374 24.21875,-35.15624 1.95312,-0.6836 1.95312,-1.5625 0,-2.34375 -7.8125,-5.85938 -1.75781,0.78125 -2.73437,1.17188 -8.39844,2.34375 -15.23438,3.125 -2.53906,0 -4.29687,-0.39063 1.75781,-1.85547 3.125,-3.90625 z"
         style="font-style:normal;font-variant:normal;font-weight:normal;font-stretch:normal;font-size:100px;line-height:125%;font-family:'EPSON 正楷書体Ｍ';-inkscape-font-specification:'EPSON 正楷書体Ｍ';letter-spacing:0px;word-spacing:0px;fill:#ff0000;fill-opacity:1;stroke:none;stroke-width:1px;stroke-linecap:butt;stroke-linejoin:miter;stroke-opacity:1"
         id="path23232" />
    </clipPath>
    <marker
       style="overflow:visible"
       id="marker6825-4-5"
       refX="0"
       refY="0"
       orient="auto">
      <path
         transform="scale(0.4,0.4)"
         style="fill:#ff0000;fill-opacity:1;fill-rule:evenodd;stroke:#ff0000;stroke-width:1pt;stroke-opacity:1"
         d="m 5.77,0 -8.65,5 0,-10 8.65,5 z"
         id="path6827-0-6" />
    </marker>
    <marker
       style="overflow:visible"
       id="marker6825-4-4"
       refX="0"
       refY="0"
       orient="auto">
      <path
         transform="scale(0.4,0.4)"
         style="fill:#ff0000;fill-opacity:1;fill-rule:evenodd;stroke:#ff0000;stroke-width:1pt;stroke-opacity:1"
         d="m 5.77,0 -8.65,5 0,-10 8.65,5 z"
         id="path6827-0-3" />
    </marker>
  </defs>
  <metadata
     id="metadata7">
    <rdf:RDF>
      <cc:Work
         rdf:about="">
        <dc:format>image/svg+xml</dc:format>
        <dc:type
           rdf:resource="http://purl.org/dc/dcmitype/StillImage" />
        <dc:title></dc:title>
      </cc:Work>
    </rdf:RDF>
  </metadata>
  <g
     transform="translate(0,-932.36216)"
     id="layer1">
    <path
       id="rect4225"
       d="m 10,942.36212 100,0 0,99.99998 -100,0 z"
       clip-path="url(#clipPath23222)"
       style="opacity:1;fill:#000000;fill-opacity:1;stroke:none;stroke-width:1.33659101;stroke-linecap:round;stroke-linejoin:miter;stroke-miterlimit:4;stroke-dasharray:none;stroke-dashoffset:0;stroke-opacity:1" />
    <path
       id="rect4223"
       d="m 110,942.36218 100,0 0,100.00002 -100,0 z"
       clip-path="url(#clipPath23230)"
       style="opacity:1;fill:#c8c8c8;fill-opacity:1;stroke:none;stroke-width:1.38716519;stroke-linecap:round;stroke-linejoin:miter;stroke-miterlimit:4;stroke-dasharray:none;stroke-dashoffset:0;stroke-opacity:1" />
    <path
       id="rect4627"
       d="m 210,942.36214 100,0 0,100.00006 -100,0 z"
       clip-path="url(#clipPath23218)"
       style="opacity:1;fill:#646464;fill-opacity:1;fill-rule:evenodd;stroke:none;stroke-width:2;stroke-linecap:round;stroke-linejoin:miter;stroke-miterlimit:4;stroke-dasharray:none;stroke-dashoffset:0;stroke-opacity:1" />
    <path
       clip-path="url(#clipPath23226)"
       id="path4364"
       d="m 136.89069,1005.35 -11.55594,-11.73395 24.77502,-38.83945 20.4795,8.86084 -13.90958,6.06849 c -1.48273,1.79961 -1.71684,2.88789 -3.125,4.6875 z"
       style="opacity:1;fill:#646464;fill-opacity:1;fill-rule:evenodd;stroke:none;stroke-width:1px;stroke-linecap:butt;stroke-linejoin:miter;stroke-opacity:1" />
    <circle
       clip-path="none"
       r="5"
       cy="959.36218"
       cx="153"
       id="path6335"
       style="opacity:0.6;fill:#00ff00;fill-opacity:1;stroke:none;stroke-width:2;stroke-linecap:round;stroke-linejoin:miter;stroke-miterlimit:4;stroke-dasharray:none;stroke-dashoffset:0;stroke-opacity:1" />
    <path
       clip-path="none"
       id="path6337-7"
       d="m 145.54578,965.96592 c -2.85648,5.52668 -6.73098,10.87698 -11.70409,16.01976"
       style="opacity:0.6;fill:none;fill-rule:evenodd;stroke:#ff0000;stroke-width:1.5;stroke-linecap:square;stroke-linejoin:miter;stroke-miterlimit:4;stroke-dasharray:none;stroke-opacity:1;marker-end:url(#marker6825-4)" />
    <circle
       clip-path="none"
       r="5"
       cy="971.36218"
       cx="255"
       id="path6335-3"
       style="opacity:0.6;fill:#00ff00;fill-opacity:1;stroke:none;stroke-width:2;stroke-linecap:round;stroke-linejoin:miter;stroke-miterlimit:4;stroke-dasharray:none;stroke-dashoffset:0;stroke-opacity:1" />
    <path
       clip-path="none"
       id="path6337-7-8"
       d="m 275.60331,998.11919 c -8.40798,13.85571 -16.60989,21.34721 -30.65808,30.84701"
       style="opacity:0.6;fill:none;fill-rule:evenodd;stroke:#ff0000;stroke-width:1.5;stroke-linecap:square;stroke-linejoin:miter;stroke-miterlimit:4;stroke-dasharray:none;stroke-opacity:1;marker-end:url(#marker6825-4-5)" />
    <path
       clip-path="none"
       id="path6337-7-80"
       d="m 262.06319,964.76257 c 5.71638,0.0998 12.57947,-2.38054 19.10808,-4.10826"
       style="opacity:0.6;fill:none;fill-rule:evenodd;stroke:#ff0000;stroke-width:1.5;stroke-linecap:square;stroke-linejoin:miter;stroke-miterlimit:4;stroke-dasharray:none;stroke-opacity:1;marker-end:url(#marker6825-4-4)" />
  </g>
</svg>
