<?xml version="1.0" encoding="UTF-8" standalone="no"?>
<svg
   xmlns:dc="http://purl.org/dc/elements/1.1/"
   xmlns:cc="http://creativecommons.org/ns#"
   xmlns:rdf="http://www.w3.org/1999/02/22-rdf-syntax-ns#"
   xmlns:svg="http://www.w3.org/2000/svg"
   xmlns="http://www.w3.org/2000/svg"
   version="1.1"
   id="svg2"
   viewBox="0 0 420 120"
   height="120"
   width="420">
  <defs
     id="defs4">
    <marker
       style="overflow:visible"
       id="marker6825"
       refX="0"
       refY="0"
       orient="auto">
      <path
         transform="scale(0.4,0.4)"
         style="fill:#ff0000;fill-opacity:1;fill-rule:evenodd;stroke:#ff0000;stroke-width:1pt;stroke-opacity:1"
         d="m 5.77,0 -8.65,5 0,-10 8.65,5 z"
         id="path6827" />
    </marker>
    <marker
       style="overflow:visible"
       id="EmptyTriangleOutM"
       refX="0"
       refY="0"
       orient="auto">
      <path
         transform="matrix(0.4,0,0,0.4,-1.8,0)"
         style="fill:#ffffff;fill-rule:evenodd;stroke:#ff0000;stroke-width:1pt;stroke-opacity:0.58823529"
         d="m 5.77,0 -8.65,5 0,-10 8.65,5 z"
         id="path4860" />
    </marker>
    <marker
       style="overflow:visible"
       id="TriangleOutL"
       refX="0"
       refY="0"
       orient="auto">
      <path
         transform="scale(0.8,0.8)"
         style="fill:#ff0000;fill-opacity:0.58823529;fill-rule:evenodd;stroke:#ff0000;stroke-width:1pt;stroke-opacity:0.58823529"
         d="m 5.77,0 -8.65,5 0,-10 8.65,5 z"
         id="path4839" />
    </marker>
    <marker
       style="overflow:visible"
       id="marker5235"
       refX="0"
       refY="0"
       orient="auto">
      <path
         transform="matrix(-1.1,0,0,-1.1,-1.1,0)"
         d="M 8.7185878,4.0337352 -2.2072895,0.01601326 8.7185884,-4.0017078 c -1.7454984,2.3720609 -1.7354408,5.6174519 -6e-7,8.035443 z"
         style="fill:#ff0000;fill-opacity:0.58823529;fill-rule:evenodd;stroke:#ff0000;stroke-width:0.625;stroke-linejoin:round;stroke-opacity:0.58823529"
         id="path5237" />
    </marker>
    <marker
       style="overflow:visible"
       id="marker5177"
       refX="0"
       refY="0"
       orient="auto">
      <path
         transform="matrix(-0.8,0,0,-0.8,-10,0)"
         style="fill:#ff0000;fill-opacity:0.58823529;fill-rule:evenodd;stroke:#ff0000;stroke-width:1pt;stroke-opacity:0.58823529"
         d="M 0,0 5,-5 -12.5,0 5,5 0,0 Z"
         id="path5179" />
    </marker>
    <marker
       style="overflow:visible"
       id="Arrow1Mstart"
       refX="0"
       refY="0"
       orient="auto">
      <path
         transform="matrix(0.4,0,0,0.4,4,0)"
         style="fill:#ff0000;fill-opacity:0.58823529;fill-rule:evenodd;stroke:#ff0000;stroke-width:1pt;stroke-opacity:0.58823529"
         d="M 0,0 5,-5 -12.5,0 5,5 0,0 Z"
         id="path4703" />
    </marker>
    <marker
       style="overflow:visible"
       id="Arrow1Lend"
       refX="0"
       refY="0"
       orient="auto">
      <path
         transform="matrix(-0.8,0,0,-0.8,-10,0)"
         style="fill:#ff0000;fill-opacity:0.58823529;fill-rule:evenodd;stroke:#ff0000;stroke-width:1pt;stroke-opacity:0.58823529"
         d="M 0,0 5,-5 -12.5,0 5,5 0,0 Z"
         id="path4700" />
    </marker>
    <marker
       style="overflow:visible"
       id="marker5031"
       refX="0"
       refY="0"
       orient="auto">
      <path
         transform="scale(-0.6,-0.6)"
         d="M 8.7185878,4.0337352 -2.2072895,0.01601326 8.7185884,-4.0017078 c -1.7454984,2.3720609 -1.7354408,5.6174519 -6e-7,8.035443 z"
         style="fill:#ff0000;fill-opacity:0.58823529;fill-rule:evenodd;stroke:#ff0000;stroke-width:0.625;stroke-linejoin:round;stroke-opacity:0.58823529"
         id="path5033" />
    </marker>
    <marker
       style="overflow:visible"
       id="Arrow2Mend"
       refX="0"
       refY="0"
       orient="auto">
      <path
         transform="scale(-0.6,-0.6)"
         d="M 8.7185878,4.0337352 -2.2072895,0.01601326 8.7185884,-4.0017078 c -1.7454984,2.3720609 -1.7354408,5.6174519 -6e-7,8.035443 z"
         style="fill:#ff0000;fill-opacity:0.58823529;fill-rule:evenodd;stroke:#ff0000;stroke-width:0.625;stroke-linejoin:round;stroke-opacity:0.58823529"
         id="path4724" />
    </marker>
    <marker
       style="overflow:visible"
       id="Arrow1Mend"
       refX="0"
       refY="0"
       orient="auto">
      <path
         transform="matrix(-0.4,0,0,-0.4,-4,0)"
         style="fill:#ff0000;fill-opacity:0.58823529;fill-rule:evenodd;stroke:#ff0000;stroke-width:1pt;stroke-opacity:0.58823529"
         d="M 0,0 5,-5 -12.5,0 5,5 0,0 Z"
         id="path4706" />
    </marker>
    <marker
       style="overflow:visible"
       id="Arrow2Lend"
       refX="0"
       refY="0"
       orient="auto">
      <path
         transform="matrix(-1.1,0,0,-1.1,-1.1,0)"
         d="M 8.7185878,4.0337352 -2.2072895,0.01601326 8.7185884,-4.0017078 c -1.7454984,2.3720609 -1.7354408,5.6174519 -6e-7,8.035443 z"
         style="fill:#ff0000;fill-opacity:0.58823529;fill-rule:evenodd;stroke:#ff0000;stroke-width:0.625;stroke-linejoin:round;stroke-opacity:0.58823529"
         id="path4718" />
    </marker>
    <clipPath
       id="clipPath4252"
       clipPathUnits="userSpaceOnUse">
      <text
         xml:space="preserve"
         style="font-style:normal;font-weight:normal;font-size:110.1632309px;line-height:125%;font-family:sans-serif;letter-spacing:0px;word-spacing:0px;fill:#ff1a01;fill-opacity:1;stroke:none;stroke-width:1px;stroke-linecap:butt;stroke-linejoin:miter;stroke-opacity:1"
         x="-79.682037"
         y="982.66449"
         id="text4254"
         transform="scale(0.95401358,1.0482031)"><tspan
           style="font-style:normal;font-variant:normal;font-weight:normal;font-stretch:normal;font-size:100px;font-family:'EPSON 太明朝体Ｂ';-inkscape-font-specification:'EPSON 太明朝体Ｂ'"
           x="-79.682037"
           y="982.66449"
           id="tspan4256">┃ああああ┃</tspan></text>
    </clipPath>
    <marker
       style="overflow:visible"
       id="marker6825-4"
       refX="0"
       refY="0"
       orient="auto">
      <path
         transform="scale(0.4,0.4)"
         style="fill:#ff0000;fill-opacity:1;fill-rule:evenodd;stroke:#ff0000;stroke-width:1pt;stroke-opacity:1"
         d="m 5.77,0 -8.65,5 0,-10 8.65,5 z"
         id="path6827-0" />
    </marker>
    <clipPath
       id="clipPath27103"
       clipPathUnits="userSpaceOnUse">
      <path
         d="m 51.992187,963.06531 q -2.636718,-6.25 -10.546875,-6.25 l -0.390625,0.78125 q 0,0.58594 1.171875,1.95312 0.390625,0.6836 0.78125,1.5625 0.390625,0.97657 0.390625,1.95313 -6.445312,15.42969 -17.96875,30.07812 -1.269531,1.5625 -2.34375,2.73438 l 0.390625,0.78125 q 1.367188,-0.58594 3.125,-1.95313 6.054688,-4.88281 12.890625,-12.89062 3.125,1.5625 5.46875,1.5625 7.03125,-1.17188 15.234375,-2.34375 2.734375,2.92969 2.734375,6.64062 -5.078125,21.09372 -24.609375,38.28122 -1.855468,1.4649 -3.515625,2.7344 l 0.390625,0.7813 q 1.074219,-0.3907 3.515625,-1.5625 22.65625,-12.6954 31.25,-39.06254 1.171875,-2.44141 1.171875,-3.125 0,-1.75781 -5.078125,-5.46875 12.304688,-1.95313 25,-3.51563 3.515625,-0.48828 3.515625,-1.95312 0,-4.10156 -10.9375,-4.29688 -2.34375,2.53907 -5.078125,3.125 -15.625,3.125 -32.421875,5.85938 -1.660156,0 -3.90625,-0.78125 4.101563,-6.44531 8.203125,-12.89063 1.5625,-1.75781 1.5625,-2.73437 z"
         style="font-style:normal;font-variant:normal;font-weight:normal;font-stretch:normal;font-size:100px;line-height:125%;font-family:'EPSON 正楷書体Ｍ';-inkscape-font-specification:'EPSON 正楷書体Ｍ';letter-spacing:0px;word-spacing:0px;fill:#ff0000;fill-opacity:1;stroke:none;stroke-width:1px;stroke-linecap:butt;stroke-linejoin:miter;stroke-opacity:1"
         id="path27105" />
    </clipPath>
    <clipPath
       id="clipPath27107"
       clipPathUnits="userSpaceOnUse">
      <path
         d="m 351.99219,963.06531 q -2.63672,-6.25 -10.54688,-6.25 l -0.39062,0.78125 q 0,0.58594 1.17187,1.95312 0.39063,0.6836 0.78125,1.5625 0.39063,0.97657 0.39063,1.95313 -6.44532,15.42969 -17.96875,30.07812 -1.26953,1.5625 -2.34375,2.73438 l 0.39062,0.78125 q 1.36719,-0.58594 3.125,-1.95313 6.05469,-4.88281 12.89063,-12.89062 3.125,1.5625 5.46875,1.5625 7.03125,-1.17188 15.23437,-2.34375 2.73438,2.92969 2.73438,6.64062 -5.07813,21.09372 -24.60938,38.28122 -1.85547,1.4649 -3.51562,2.7344 l 0.39062,0.7813 q 1.07422,-0.3907 3.51563,-1.5625 22.65625,-12.6954 31.25,-39.06254 1.17187,-2.44141 1.17187,-3.125 0,-1.75781 -5.07812,-5.46875 12.30468,-1.95313 25,-3.51563 3.51562,-0.48828 3.51562,-1.95312 0,-4.10156 -10.9375,-4.29688 -2.34375,2.53907 -5.07812,3.125 -15.625,3.125 -32.42188,5.85938 -1.66015,0 -3.90625,-0.78125 4.10156,-6.44531 8.20313,-12.89063 1.5625,-1.75781 1.5625,-2.73437 z"
         style="font-style:normal;font-variant:normal;font-weight:normal;font-stretch:normal;font-size:100px;line-height:125%;font-family:'EPSON 正楷書体Ｍ';-inkscape-font-specification:'EPSON 正楷書体Ｍ';letter-spacing:0px;word-spacing:0px;fill:#ff0000;fill-opacity:1;stroke:none;stroke-width:1px;stroke-linecap:butt;stroke-linejoin:miter;stroke-opacity:1"
         id="path27109" />
    </clipPath>
    <clipPath
       id="clipPath27111"
       clipPathUnits="userSpaceOnUse">
      <path
         d="m 151.99219,963.06531 q -2.63672,-6.25 -10.54688,-6.25 l -0.39062,0.78125 q 0,0.58594 1.17187,1.95312 0.39063,0.6836 0.78125,1.5625 0.39063,0.97657 0.39063,1.95313 -6.44532,15.42969 -17.96875,30.07812 -1.26953,1.5625 -2.34375,2.73438 l 0.39062,0.78125 q 1.36719,-0.58594 3.125,-1.95313 6.05469,-4.88281 12.89063,-12.89062 3.125,1.5625 5.46875,1.5625 7.03125,-1.17188 15.23437,-2.34375 2.73438,2.92969 2.73438,6.64062 -5.07813,21.09372 -24.60938,38.28122 -1.85547,1.4649 -3.51562,2.7344 l 0.39062,0.7813 q 1.07422,-0.3907 3.51563,-1.5625 22.65625,-12.6954 31.25,-39.06254 1.17187,-2.44141 1.17187,-3.125 0,-1.75781 -5.07812,-5.46875 12.30468,-1.95313 25,-3.51563 3.51562,-0.48828 3.51562,-1.95312 0,-4.10156 -10.9375,-4.29688 -2.34375,2.53907 -5.07812,3.125 -15.625,3.125 -32.42188,5.85938 -1.66015,0 -3.90625,-0.78125 4.10156,-6.44531 8.20313,-12.89063 1.5625,-1.75781 1.5625,-2.73437 z"
         style="font-style:normal;font-variant:normal;font-weight:normal;font-stretch:normal;font-size:100px;line-height:125%;font-family:'EPSON 正楷書体Ｍ';-inkscape-font-specification:'EPSON 正楷書体Ｍ';letter-spacing:0px;word-spacing:0px;fill:#ff0000;fill-opacity:1;stroke:none;stroke-width:1px;stroke-linecap:butt;stroke-linejoin:miter;stroke-opacity:1"
         id="path27113" />
    </clipPath>
    <clipPath
       id="clipPath27115"
       clipPathUnits="userSpaceOnUse">
      <path
         d="m 151.99219,963.06531 q -2.63672,-6.25 -10.54688,-6.25 l -0.39062,0.78125 q 0,0.58594 1.17187,1.95312 0.39063,0.6836 0.78125,1.5625 0.39063,0.97657 0.39063,1.95313 -6.44532,15.42969 -17.96875,30.07812 -1.26953,1.5625 -2.34375,2.73438 l 0.39062,0.78125 q 1.36719,-0.58594 3.125,-1.95313 6.05469,-4.88281 12.89063,-12.89062 3.125,1.5625 5.46875,1.5625 7.03125,-1.17188 15.23437,-2.34375 2.73438,2.92969 2.73438,6.64062 -5.07813,21.09372 -24.60938,38.28122 -1.85547,1.4649 -3.51562,2.7344 l 0.39062,0.7813 q 1.07422,-0.3907 3.51563,-1.5625 22.65625,-12.6954 31.25,-39.06254 1.17187,-2.44141 1.17187,-3.125 0,-1.75781 -5.07812,-5.46875 12.30468,-1.95313 25,-3.51563 3.51562,-0.48828 3.51562,-1.95312 0,-4.10156 -10.9375,-4.29688 -2.34375,2.53907 -5.07812,3.125 -15.625,3.125 -32.42188,5.85938 -1.66015,0 -3.90625,-0.78125 4.10156,-6.44531 8.20313,-12.89063 1.5625,-1.75781 1.5625,-2.73437 z"
         style="font-style:normal;font-variant:normal;font-weight:normal;font-stretch:normal;font-size:100px;line-height:125%;font-family:'EPSON 正楷書体Ｍ';-inkscape-font-specification:'EPSON 正楷書体Ｍ';letter-spacing:0px;word-spacing:0px;fill:#ff0000;fill-opacity:1;stroke:none;stroke-width:1px;stroke-linecap:butt;stroke-linejoin:miter;stroke-opacity:1"
         id="path27117" />
    </clipPath>
    <clipPath
       id="clipPath27119"
       clipPathUnits="userSpaceOnUse">
      <path
         d="m 251.99219,963.06531 q -2.63672,-6.25 -10.54688,-6.25 l -0.39062,0.78125 q 0,0.58594 1.17187,1.95312 0.39063,0.6836 0.78125,1.5625 0.39063,0.97657 0.39063,1.95313 -6.44532,15.42969 -17.96875,30.07812 -1.26953,1.5625 -2.34375,2.73438 l 0.39062,0.78125 q 1.36719,-0.58594 3.125,-1.95313 6.05469,-4.88281 12.89063,-12.89062 3.125,1.5625 5.46875,1.5625 7.03125,-1.17188 15.23437,-2.34375 2.73438,2.92969 2.73438,6.64062 -5.07813,21.09372 -24.60938,38.28122 -1.85547,1.4649 -3.51562,2.7344 l 0.39062,0.7813 q 1.07422,-0.3907 3.51563,-1.5625 22.65625,-12.6954 31.25,-39.06254 1.17187,-2.44141 1.17187,-3.125 0,-1.75781 -5.07812,-5.46875 12.30468,-1.95313 25,-3.51563 3.51562,-0.48828 3.51562,-1.95312 0,-4.10156 -10.9375,-4.29688 -2.34375,2.53907 -5.07812,3.125 -15.625,3.125 -32.42188,5.85938 -1.66015,0 -3.90625,-0.78125 4.10156,-6.44531 8.20313,-12.89063 1.5625,-1.75781 1.5625,-2.73437 z"
         style="font-style:normal;font-variant:normal;font-weight:normal;font-stretch:normal;font-size:100px;line-height:125%;font-family:'EPSON 正楷書体Ｍ';-inkscape-font-specification:'EPSON 正楷書体Ｍ';letter-spacing:0px;word-spacing:0px;fill:#ff0000;fill-opacity:1;stroke:none;stroke-width:1px;stroke-linecap:butt;stroke-linejoin:miter;stroke-opacity:1"
         id="path27121" />
    </clipPath>
    <clipPath
       id="clipPath27123"
       clipPathUnits="userSpaceOnUse">
      <path
         d="m 251.99219,963.06531 q -2.63672,-6.25 -10.54688,-6.25 l -0.39062,0.78125 q 0,0.58594 1.17187,1.95312 0.39063,0.6836 0.78125,1.5625 0.39063,0.97657 0.39063,1.95313 -6.44532,15.42969 -17.96875,30.07812 -1.26953,1.5625 -2.34375,2.73438 l 0.39062,0.78125 q 1.36719,-0.58594 3.125,-1.95313 6.05469,-4.88281 12.89063,-12.89062 3.125,1.5625 5.46875,1.5625 7.03125,-1.17188 15.23437,-2.34375 2.73438,2.92969 2.73438,6.64062 -5.07813,21.09372 -24.60938,38.28122 -1.85547,1.4649 -3.51562,2.7344 l 0.39062,0.7813 q 1.07422,-0.3907 3.51563,-1.5625 22.65625,-12.6954 31.25,-39.06254 1.17187,-2.44141 1.17187,-3.125 0,-1.75781 -5.07812,-5.46875 12.30468,-1.95313 25,-3.51563 3.51562,-0.48828 3.51562,-1.95312 0,-4.10156 -10.9375,-4.29688 -2.34375,2.53907 -5.07812,3.125 -15.625,3.125 -32.42188,5.85938 -1.66015,0 -3.90625,-0.78125 4.10156,-6.44531 8.20313,-12.89063 1.5625,-1.75781 1.5625,-2.73437 z"
         style="font-style:normal;font-variant:normal;font-weight:normal;font-stretch:normal;font-size:100px;line-height:125%;font-family:'EPSON 正楷書体Ｍ';-inkscape-font-specification:'EPSON 正楷書体Ｍ';letter-spacing:0px;word-spacing:0px;fill:#ff0000;fill-opacity:1;stroke:none;stroke-width:1px;stroke-linecap:butt;stroke-linejoin:miter;stroke-opacity:1"
         id="path27125" />
    </clipPath>
    <marker
       style="overflow:visible"
       id="marker6825-4-4"
       refX="0"
       refY="0"
       orient="auto">
      <path
         transform="scale(0.4,0.4)"
         style="fill:#ff0000;fill-opacity:1;fill-rule:evenodd;stroke:#ff0000;stroke-width:1pt;stroke-opacity:1"
         d="m 5.77,0 -8.65,5 0,-10 8.65,5 z"
         id="path6827-0-3" />
    </marker>
    <marker
       style="overflow:visible"
       id="marker6825-4-42"
       refX="0"
       refY="0"
       orient="auto">
      <path
         transform="scale(0.4,0.4)"
         style="fill:#ff0000;fill-opacity:1;fill-rule:evenodd;stroke:#ff0000;stroke-width:1pt;stroke-opacity:1"
         d="m 5.77,0 -8.65,5 0,-10 8.65,5 z"
         id="path6827-0-31" />
    </marker>
  </defs>
  <metadata
     id="metadata7">
    <rdf:RDF>
      <cc:Work
         rdf:about="">
        <dc:format>image/svg+xml</dc:format>
        <dc:type
           rdf:resource="http://purl.org/dc/dcmitype/StillImage" />
        <dc:title></dc:title>
      </cc:Work>
    </rdf:RDF>
  </metadata>
  <g
     transform="translate(0,-932.36216)"
     id="layer1">
    <path
       id="rect4223-0"
       d="m 210,942.36213 100,0 0,100.00007 -100,0 z"
       clip-path="url(#clipPath27123)"
       style="opacity:1;fill:#c8c8c8;fill-opacity:1;stroke:none;stroke-width:1.38716519;stroke-linecap:round;stroke-linejoin:miter;stroke-miterlimit:4;stroke-dasharray:none;stroke-dashoffset:0;stroke-opacity:1" />
    <path
       id="rect4225"
       d="m 10,942.36212 100,0 0,99.99998 -100,0 z"
       clip-path="url(#clipPath27103)"
       style="opacity:1;fill:#000000;fill-opacity:1;stroke:none;stroke-width:1.33659101;stroke-linecap:round;stroke-linejoin:miter;stroke-miterlimit:4;stroke-dasharray:none;stroke-dashoffset:0;stroke-opacity:1" />
    <path
       id="rect4223"
       d="m 110,942.36218 100,0 0,100.00002 -100,0 z"
       clip-path="url(#clipPath27115)"
       style="opacity:1;fill:#c8c8c8;fill-opacity:1;stroke:none;stroke-width:1.38716519;stroke-linecap:round;stroke-linejoin:miter;stroke-miterlimit:4;stroke-dasharray:none;stroke-dashoffset:0;stroke-opacity:1" />
    <path
       id="rect4627"
       d="m 310,942.36214 100,0 0,100.00006 -100,0 z"
       clip-path="url(#clipPath27107)"
       style="opacity:1;fill:#646464;fill-opacity:1;fill-rule:evenodd;stroke:none;stroke-width:2;stroke-linecap:round;stroke-linejoin:miter;stroke-miterlimit:4;stroke-dasharray:none;stroke-dashoffset:0;stroke-opacity:1" />
    <path
       clip-path="url(#clipPath27111)"
       id="path4364"
       d="m 141.41021,949.24349 -25.02491,48.81684 15.29583,2.83607 7.81106,-19.08109 2.73437,-3.125 18.78384,-16.11827 z"
       style="opacity:1;fill:#646464;fill-opacity:1;fill-rule:evenodd;stroke:none;stroke-width:1px;stroke-linecap:butt;stroke-linejoin:miter;stroke-opacity:1" />
    <circle
       clip-path="none"
       r="5"
       cy="958.36218"
       cx="143"
       id="path6335"
       style="opacity:0.6;fill:#00ff00;fill-opacity:1;stroke:none;stroke-width:2;stroke-linecap:round;stroke-linejoin:miter;stroke-miterlimit:4;stroke-dasharray:none;stroke-dashoffset:0;stroke-opacity:1" />
    <path
       clip-path="none"
       id="path6337-7"
       d="m 134.87837,969.5444 c -3.11499,6.73933 -7.72963,12.9163 -12.12056,19.17716"
       style="opacity:0.6;fill:none;fill-rule:evenodd;stroke:#ff0000;stroke-width:1.5;stroke-linecap:square;stroke-linejoin:miter;stroke-miterlimit:4;stroke-dasharray:none;stroke-opacity:1;marker-end:url(#marker6825-4)" />
    <path
       clip-path="url(#clipPath27119)"
       id="path4364-0"
       d="m 241.58701,945.70757 -23.43392,55.71123 42.04222,-20.38474 5.85938,-0.78125 30.67245,2.09981 2.46705,-14.56605 z"
       style="opacity:1;fill:#646464;fill-opacity:1;fill-rule:evenodd;stroke:none;stroke-width:1px;stroke-linecap:butt;stroke-linejoin:miter;stroke-opacity:1" />
    <circle
       clip-path="none"
       r="5"
       cy="980.36218"
       cx="242"
       id="path6335-8"
       style="opacity:0.6;fill:#00ff00;fill-opacity:1;stroke:none;stroke-width:2;stroke-linecap:round;stroke-linejoin:miter;stroke-miterlimit:4;stroke-dasharray:none;stroke-dashoffset:0;stroke-opacity:1" />
    <circle
       clip-path="none"
       r="5"
       cy="981.36218"
       cx="364"
       id="path6335-0"
       style="opacity:0.6;fill:#00ff00;fill-opacity:1;stroke:none;stroke-width:2;stroke-linecap:round;stroke-linejoin:miter;stroke-miterlimit:4;stroke-dasharray:none;stroke-dashoffset:0;stroke-opacity:1" />
    <path
       clip-path="none"
       id="path6337-7-0"
       d="m 248.22385,987.89659 c 11.25157,-1.23752 21.30427,-3.10599 31.46218,-4.44904"
       style="opacity:0.6;fill:none;fill-rule:evenodd;stroke:#ff0000;stroke-width:1.5;stroke-linecap:square;stroke-linejoin:miter;stroke-miterlimit:4;stroke-dasharray:none;stroke-opacity:1;marker-end:url(#marker6825-4-4)" />
    <path
       clip-path="none"
       id="path6337-7-3"
       d="m 355.57096,994.65086 c -4.40944,8.09994 -9.4073,16.42214 -17.46058,24.21834"
       style="opacity:0.6;fill:none;fill-rule:evenodd;stroke:#ff0000;stroke-width:1.5;stroke-linecap:square;stroke-linejoin:miter;stroke-miterlimit:4;stroke-dasharray:none;stroke-opacity:1;marker-end:url(#marker6825-4-42)" />
  </g>
</svg>
