<?xml version="1.0" encoding="UTF-8" standalone="no"?>
<svg
   version="1.1"
   viewBox="-10 0 1010 1000"
   id="svg1"
   sodipodi:docname="uni4E09_KleeOne-Regular.svg"
   inkscape:version="1.4 (e7c3feb100, 2024-10-09)"
   xmlns:inkscape="http://www.inkscape.org/namespaces/inkscape"
   xmlns:sodipodi="http://sodipodi.sourceforge.net/DTD/sodipodi-0.dtd"
   xmlns="http://www.w3.org/2000/svg"
   xmlns:svg="http://www.w3.org/2000/svg">
  <defs
     id="defs1" />
  <sodipodi:namedview
     id="namedview1"
     pagecolor="#ffffff"
     bordercolor="#000000"
     borderopacity="0.25"
     inkscape:showpageshadow="2"
     inkscape:pageopacity="0.0"
     inkscape:pagecheckerboard="0"
     inkscape:deskcolor="#d1d1d1"
     inkscape:zoom="0.8"
     inkscape:cx="505"
     inkscape:cy="500"
     inkscape:window-width="1920"
     inkscape:window-height="1011"
     inkscape:window-x="0"
     inkscape:window-y="0"
     inkscape:window-maximized="1"
     inkscape:current-layer="svg1" />
  <path
     fill="currentColor"
     d="M263 282l524 -29q13 -2 13 -15q0 -11 -12 -23q-19 -15 -32 -15q-2 0 -3.5 0.5t-3.5 0.5q-11 2 -21 4.5t-24 3.5l-455 27q-4 0 -8.5 0.5t-8.5 0.5q-18 0 -33 -4q-1 0 -2 -0.5t-2 -0.5q-5 0 -5 4q0 3 1 5q7 19 15.5 30.5t24.5 11.5h5h12t15 -1zM319 546l414 -24 q19 -2 19 -18q0 -11 -9 -19t-19 -12.5t-14 -4.5q-5 0 -7 1q-8 3 -17 4t-20 2l-358 21h-7q-11 0 -20 -1.5t-19 -3.5h-3q-5 0 -5 3t1 5q10 31 21 39.5t25 8.5q4 0 8.5 -0.5t9.5 -0.5zM139 848l773 -28q12 0 12 -15q0 -19 -18 -30t-28 -11h-4q-15 3 -26 4.5t-25 2.5l-692 25h-9 q-10 0 -19.5 -1.5t-20.5 -2.5q-1 0 -2.5 -0.5t-2.5 -0.5q-5 0 -5 4q0 3 1 5q12 32 19.5 40t30.5 8h16z"
     id="path1"
     style="fill:#ff0000" />
</svg>
