<?xml version="1.0" encoding="UTF-8" standalone="no"?>
<svg
   version="1.1"
   viewBox="-10 0 1010 1000"
   id="svg1"
   sodipodi:docname="uni4E0D_KleeOne-Regular.svg"
   inkscape:version="1.4 (e7c3feb100, 2024-10-09)"
   xmlns:inkscape="http://www.inkscape.org/namespaces/inkscape"
   xmlns:sodipodi="http://sodipodi.sourceforge.net/DTD/sodipodi-0.dtd"
   xmlns="http://www.w3.org/2000/svg"
   xmlns:svg="http://www.w3.org/2000/svg">
  <defs
     id="defs1" />
  <sodipodi:namedview
     id="namedview1"
     pagecolor="#ffffff"
     bordercolor="#000000"
     borderopacity="0.25"
     inkscape:showpageshadow="2"
     inkscape:pageopacity="0.0"
     inkscape:pagecheckerboard="0"
     inkscape:deskcolor="#d1d1d1"
     inkscape:zoom="0.56568543"
     inkscape:cx="153.79572"
     inkscape:cy="503.81358"
     inkscape:window-width="1920"
     inkscape:window-height="1011"
     inkscape:window-x="0"
     inkscape:window-y="0"
     inkscape:window-maximized="1"
     inkscape:current-layer="svg1" />
  <path
     d="m 590,508 q 62,39 136.5,92.5 Q 801,654 870,710 q 8,6 14,6 10,0 15.5,-7.5 5.5,-7.5 8,-16 2.5,-8.5 2.5,-9.5 0,-10 -8,-16 Q 856,631 806.5,596 757,561 713.5,532 670,503 640.5,485.5 611,468 605,468 q -9,0 -16.5,11 -7.5,11 -7.5,17 0,8 9,12 z"
     id="path2" />
  <path
     id="path4"
     d="m 497,332 -8,-3 c -10.66667,-4.66667 -19,-7 -25,-7 -4.66667,0 -7,1.66667 -7,5 0,0.66667 0.16667,1.16667 0.5,1.5 0.33333,0.33333 0.5,0.83333 0.5,1.5 2,6.66667 3.5,14.33333 4.5,23 1,8.66667 1.83333,16.66667 2.5,24 m 4,73 -2,362 c 0,18 -0.5,36 -1.5,54 -1,18 -2.83333,36.66667 -5.5,56 v 6 c 0,10.66667 5.33333,19.5 16,26.5 10.66667,7 20,10.5 28,10.5 11.33333,0 17,-5.66667 17,-17 l -2,-558" />
  <path
     id="path1"
     d="m 519,390 c 18.66667,-24.66667 36.33333,-50.5 53,-77.5 16.66667,-27 33.33333,-54.83333 50,-83.5 l 253,-13 c 8.66667,-1.33333 13,-6 13,-14 0,-9.33333 -5.66667,-18 -17,-26 -11.33333,-8 -20.66667,-12 -28,-12 -2.66667,0 -5.33333,0.66667 -8,2 -9.33333,2.66667 -18.5,4.66667 -27.5,6 -9,1.33333 -18.83333,2.33333 -29.5,3 l -600,33 c -8,0 -16.33333,-0.16667 -25,-0.5 -8.66667,-0.33333 -18,-1.83333 -28,-4.5 -1.33333,-0.66667 -3,-1 -5,-1 -3.33333,0 -5,1.66667 -5,5 0,2 0.33333,3.66667 1,5 5.33333,16 11.83333,27.16667 19.5,33.5 7.66667,6.33333 16.5,9.5 26.5,9.5 3.33333,0 7.16667,-0.16667 11.5,-0.5 4.33333,-0.33333 9.83333,-0.83333 16.5,-1.5 l 368,-21 c -9.33333,18 -19.16667,35.33333 -29.5,52 -10.33333,16.66667 -20.83333,32.66667 -47.5,70.5 C 413,447.66667 356,510 294,564 232,618 164.33333,669.66667 91,719 c -8.666667,5.33333 -14.833333,10.66667 -18.5,16 -3.666667,5.33333 -5.5,9.66667 -5.5,13 0,5.33333 3,8 9,8 6.666667,0 23.333333,-7.16667 50,-21.5 26.66667,-14.33333 59,-34.83333 97,-61.5 38,-26.66667 78.5,-58.83333 121.5,-96.5 C 387.5,538.83333 429,496.66667 469,450"
     sodipodi:nodetypes="csccssscsccscsscsssccscscssssssc"
     style="fill:#ff0000" />
</svg>
