<?xml version="1.0" encoding="UTF-8" standalone="no"?>
<svg
   version="1.1"
   viewBox="-10 0 1010 1000"
   id="svg1"
   sodipodi:docname="uni4E16_KleeOne-Regular.svg"
   inkscape:version="1.4 (e7c3feb100, 2024-10-09)"
   xmlns:inkscape="http://www.inkscape.org/namespaces/inkscape"
   xmlns:sodipodi="http://sodipodi.sourceforge.net/DTD/sodipodi-0.dtd"
   xmlns="http://www.w3.org/2000/svg"
   xmlns:svg="http://www.w3.org/2000/svg">
  <defs
     id="defs1" />
  <sodipodi:namedview
     id="namedview1"
     pagecolor="#ffffff"
     bordercolor="#000000"
     borderopacity="0.25"
     inkscape:showpageshadow="2"
     inkscape:pageopacity="0.0"
     inkscape:pagecheckerboard="0"
     inkscape:deskcolor="#d1d1d1"
     inkscape:zoom="0.8"
     inkscape:cx="458.75"
     inkscape:cy="502.5"
     inkscape:window-width="1920"
     inkscape:window-height="1011"
     inkscape:window-x="0"
     inkscape:window-y="0"
     inkscape:window-maximized="1"
     inkscape:current-layer="svg1" />
  <path
     d="m 724,393 6,-231 c 0,-8 -4.83333,-14.5 -14.5,-19.5 -9.66667,-5 -19.33333,-8.66667 -29,-11 L 672,128 c -6.66667,0 -10,2 -10,6 0,1.33333 0.66667,3.33333 2,6 8.66667,14.66667 13,30 13,46 l -3,210"
     id="path12" />
  <path
     id="path14"
     d="m 456,453 1,198 c 0,8 -0.33333,16.33333 -1,25 -0.66667,8.66667 -1.66667,18.33333 -3,29 v 3 c 0,10 5,17.83333 15,23.5 10,5.66667 18.33333,8.5 25,8.5 9.33333,0 14,-5.66667 14,-17 v -35 l 217,-7 c 14,0 21,-4 21,-12 0,-8 -9,-19.66667 -27,-35 l 5,-195 m -49,2 -3,196 -165,5 -1,-192" />
  <path
     id="path11"
     d="m 723,439 208,-11 c 8.66667,-1.33333 13,-5.66667 13,-13 0,-6 -3,-12 -9,-18 -6,-6 -12.66667,-11 -20,-15 -7.33333,-4 -13.33333,-6 -18,-6 -3.33333,0 -5.66667,0.33333 -7,1 -18,6 -37,9.33333 -57,10 L 590,400.5 439.5,409 399,411 c -27,1.33333 -43.16667,2.16667 -48.5,2.5 -5.33333,0.33333 -19,1.16667 -41,2.5 l -16.5,1 -2,-182 c 0,-6.66667 -5.83333,-12.16667 -17.5,-16.5 -11.66667,-4.33333 -21.83333,-6.5 -30.5,-6.5 -8.66667,0 -13,2 -13,6 0,2 0.33333,3.33333 1,4 3.33333,7.33333 5.83333,14 7.5,20 1.66667,6 2.5,13 2.5,21 l 2,156 -125,7 h -13 c -6.666667,0 -13.5,-0.33333 -20.5,-1 -7,-0.66667 -13.833333,-1.66667 -20.5,-3 -0.666667,0 -1.333333,-0.16667 -2,-0.5 -0.666667,-0.33333 -1.666667,-0.5 -3,-0.5 -3.333333,0 -5,1.66667 -5,5 0,2 0.333333,3.66667 1,5 5.333333,12 12.333333,22 21,30 4,3.33333 8.333333,5.83333 13,7.5 4.666667,1.66667 11.33333,2.5 20,2.5 2.66667,0 5.5,-0.16667 8.5,-0.5 3,-0.33333 6.16667,-0.5 9.5,-0.5 l 116,-6 3,339 c 0,8.66667 -0.5,16.5 -1.5,23.5 -1,7 -2.16667,12.83333 -3.5,17.5 -2,6 -3,11.33333 -3,16 0,8 3.83333,15.33333 11.5,22 7.66667,6.66667 15.5,10 23.5,10 5.33333,0 11,-1.16667 17,-3.5 6,-2.33333 14.66667,-3.83333 26,-4.5 l 564,-18 c 8,0 12,-4.66667 12,-14 0,-9.33333 -5.5,-18.16667 -16.5,-26.5 -11,-8.33333 -21.16667,-12.5 -30.5,-12.5 -3.33333,0 -5.66667,0.33333 -7,1 -8,2.66667 -16.33333,4.66667 -25,6 -8.66667,1.33333 -19,2.33333 -31,3 l -486,16 -3,-377 16.5,-1 41,-2.5 c 27.33333,-1.66667 43.5,-2.5 48.5,-2.5 5,0 18.5,-0.66667 40.5,-2 l 16.5,-1 m 49,-3 169,-9 m 0,-45 -169,9"
     sodipodi:nodetypes="ccssssccccsssccssscscccsscsssccssscccscssssccssscsccccsssccccc"
     style="fill:#ff0000" />
  <path
     d="m 505,405 -2,-228 c 0,-8 -3.66667,-14.33333 -11,-19 -7.33333,-4.66667 -15.16667,-8 -23.5,-10 -8.33333,-2 -14.5,-3 -18.5,-3 -7.33333,0 -11,2 -11,6 0,0.66667 0.66667,2.33333 2,5 5.33333,8.66667 9,18 11,28 2,10 3,19.66667 3,29 l 1,195"
     id="path1" />
</svg>
