<?xml version="1.0" encoding="UTF-8" standalone="no"?>
<svg
   version="1.1"
   viewBox="-10 0 1010 1000"
   id="svg1"
   sodipodi:docname="uni4E43_KleeOne-Regular.svg"
   inkscape:version="1.4 (e7c3feb100, 2024-10-09)"
   xmlns:inkscape="http://www.inkscape.org/namespaces/inkscape"
   xmlns:sodipodi="http://sodipodi.sourceforge.net/DTD/sodipodi-0.dtd"
   xmlns="http://www.w3.org/2000/svg"
   xmlns:svg="http://www.w3.org/2000/svg">
  <defs
     id="defs1" />
  <sodipodi:namedview
     id="namedview1"
     pagecolor="#ffffff"
     bordercolor="#000000"
     borderopacity="0.25"
     inkscape:showpageshadow="2"
     inkscape:pageopacity="0.0"
     inkscape:pagecheckerboard="0"
     inkscape:deskcolor="#d1d1d1"
     inkscape:zoom="0.8"
     inkscape:cx="505"
     inkscape:cy="500"
     inkscape:window-width="1920"
     inkscape:window-height="1011"
     inkscape:window-x="0"
     inkscape:window-y="0"
     inkscape:window-maximized="1"
     inkscape:current-layer="svg1" />
  <path
     d="m 405,232 243,-17 -83,237 c -2,4.66667 -3,9 -3,13 0,8.66667 3.5,16 10.5,22 7,6 13.83333,9 20.5,9 7.33333,0 15.16667,-1.16667 23.5,-3.5 8.33333,-2.33333 15.16667,-3.83333 20.5,-4.5 l 156,-9 c -4.66667,50.66667 -11,101.16667 -19,151.5 -8,50.33333 -17.33333,97 -28,140 -10.66667,43 -23.33333,80.16667 -38,111.5 -2,3.33333 -4.66667,5 -8,5 -3.33333,0 -16,-6.5 -38,-19.5 -22,-13 -54,-35.83333 -96,-68.5 -8.66667,-7.33333 -16,-12.33333 -22,-15 -6,-2.66667 -11,-4 -15,-4 -4.66667,0 -7,2.33333 -7,7 0,6 5,15.5 15,28.5 10,13 22.83333,27.33333 38.5,43 15.66667,15.66667 31.83333,30.66667 48.5,45 16.66667,14.33333 32.16667,26.16667 46.5,35.5 14.33333,9.33333 24.83333,14 31.5,14 7.33333,0 18,-5 32,-15 2.66667,-2 6.66667,-6.16667 12,-12.5 5.33333,-6.33333 11.5,-17.83333 18.5,-34.5 7,-16.66667 14.83333,-41.16667 23.5,-73.5 8.66667,-32.33333 17.66667,-75.33333 27,-129 9.33333,-53.66667 19,-121.16667 29,-202.5 0.66667,-3.33333 1.83333,-6.83333 3.5,-10.5 1.66667,-3.66667 2.5,-7.83333 2.5,-12.5 0,-5.33333 -3,-11.66667 -9,-19 -6,-7.33333 -15,-11 -27,-11 h -9 l -187,13 82,-227 c 2,-5.33333 4.33333,-10 7,-14 2.66667,-4 4,-8 4,-12 0,-6.66667 -3,-11.83333 -9,-15.5 -6,-3.66667 -12,-6.33333 -18,-8 -6,-1.66667 -9.33333,-2.5 -10,-2.5 h -4 l -454,33 c -2.66667,0 -5.16667,0.16667 -7.5,0.5 -2.33333,0.33333 -5.16667,0.5 -8.5,0.5 -6.66667,0 -13.66667,-0.33333 -21,-1 -7.33333,-0.66667 -14.66667,-1.66667 -22,-3 h -3 c -3.33333,0 -5,1 -5,3 0,2 0.33333,3.66667 1,5 2.66667,8.66667 8.66667,17.66667 18,27 9.33333,9.33333 19,14 29,14 4,0 7.83333,-0.33333 11.5,-1 3.66667,-0.66667 7.83333,-1 12.5,-1 l 129,-9"
     id="path2" />
  <path
     d="m 350,235 c -2.66667,49.33333 -8.16667,101.83333 -16.5,157.5 -8.33333,55.66667 -22.33333,113 -42,172 -19.66667,59 -47.5,118.16667 -83.5,177.5 -36,59.33333 -83,117.33333 -141,174 -9.333333,8.66667 -14,16 -14,22 0,4.66667 2.666667,7 8,7 6,0 19.666667,-8.16667 41,-24.5 21.33333,-16.33333 46.33333,-40.16667 75,-71.5 28.66667,-31.33333 57.5,-69.83333 86.5,-115.5 C 292.5,687.83333 318,635.66667 340,577 359.33333,524.33333 373.83333,468.83333 383.5,410.5 393.16667,352.16667 400.33333,292.66667 405,232"
     id="path1"
     style="fill:#ff0000" />
</svg>
