<?xml version="1.0" encoding="UTF-8" standalone="no"?>
<svg
   version="1.1"
   viewBox="-10 0 1010 1000"
   id="svg1"
   sodipodi:docname="uni4E45_KleeOne-Regular.svg"
   inkscape:version="1.4 (e7c3feb100, 2024-10-09)"
   xmlns:inkscape="http://www.inkscape.org/namespaces/inkscape"
   xmlns:sodipodi="http://sodipodi.sourceforge.net/DTD/sodipodi-0.dtd"
   xmlns="http://www.w3.org/2000/svg"
   xmlns:svg="http://www.w3.org/2000/svg">
  <defs
     id="defs1" />
  <sodipodi:namedview
     id="namedview1"
     pagecolor="#ffffff"
     bordercolor="#000000"
     borderopacity="0.25"
     inkscape:showpageshadow="2"
     inkscape:pageopacity="0.0"
     inkscape:pagecheckerboard="0"
     inkscape:deskcolor="#d1d1d1"
     inkscape:zoom="0.8"
     inkscape:cx="505"
     inkscape:cy="500"
     inkscape:window-width="1920"
     inkscape:window-height="1011"
     inkscape:window-x="0"
     inkscape:window-y="0"
     inkscape:window-maximized="1"
     inkscape:current-layer="svg1" />
  <path
     d="m 561,545 c 20.66667,-34 39.16667,-69.16667 55.5,-105.5 16.33333,-36.33333 29.83333,-74.16667 40.5,-113.5 1.33333,-3.33333 3.5,-7.16667 6.5,-11.5 3,-4.33333 4.5,-8.83333 4.5,-13.5 0,-7.33333 -4.33333,-14.66667 -13,-22 -8.66667,-7.33333 -18,-11 -28,-11 h -6.5 l -8.5,1 -177,18 c 34,-62 58.66667,-119.33333 74,-172 v -3 c 0,-6.66667 -3.83333,-12.666667 -11.5,-18 -7.66667,-5.333333 -15.66667,-9.5 -24,-12.5 -8.33333,-3 -14.16667,-4.5 -17.5,-4.5 -6,0 -9,3.333333 -9,10 v 10 c 0,14.66667 -6.33333,39.16667 -19,73.5 -12.66667,34.33333 -30.66667,74 -54,119 -23.33333,45 -51.16667,91.16667 -83.5,138.5 -32.33333,47.33333 -68.16667,91.66667 -107.5,133 -6.66667,7.33333 -11.5,13.66667 -14.5,19 -3,5.33333 -4.5,9.66667 -4.5,13 0,4.66667 2.33333,7 7,7 8.66667,0 25.33333,-10.83333 50,-32.5 24.66667,-21.66667 53.66667,-52.5 87,-92.5 33.33333,-40 66.66667,-87.33333 100,-142 l 192,-17 c -16.66667,68 -42,131.66667 -76,191 -34,59.33333 -74,114.33333 -120,165 -46,50.66667 -95.16667,97 -147.5,139 -52.33333,42 -104.5,79.33333 -156.5,112 -20.666667,12.66667 -31,24 -31,34 0,5.33333 3.666667,8 11,8 6,0 20.33333,-5.5 43,-16.5 22.66667,-11 50.5,-27 83.5,-48 33,-21 68.66667,-46.83333 107,-77.5 38.33333,-30.66667 76.66667,-65.66667 115,-105 C 466.83333,678.66667 502,635.33333 534,588"
     id="path2"
     style="display:inline;fill:#ff0000" />
  <path
     d="m 534,588 c 35.33333,56 73.33333,106.5 114,151.5 40.66667,45 79.66667,83.66667 117,116 37.33333,32.33333 69.33333,57 96,74 26.66667,17 43.33333,25.5 50,25.5 4,0 9.33333,-2 16,-6 6.66667,-4 12.66667,-8.66667 18,-14 5.33333,-5.33333 8,-10 8,-14 0,-4 -5,-8.33333 -15,-13 C 893.33333,886 848.16667,856.83333 802.5,820.5 756.83333,784.16667 713.33333,742.5 672,695.5 630.66667,648.5 593.66667,598.33333 561,545"
     id="path1"
     style="display:inline" />
</svg>
