<?xml version="1.0" encoding="UTF-8" standalone="no"?>
<svg
   version="1.1"
   viewBox="-10 0 1010 1000"
   id="svg1"
   sodipodi:docname="uni4E4B_KleeOne-Regular.svg"
   inkscape:version="1.4 (e7c3feb100, 2024-10-09)"
   xmlns:inkscape="http://www.inkscape.org/namespaces/inkscape"
   xmlns:sodipodi="http://sodipodi.sourceforge.net/DTD/sodipodi-0.dtd"
   xmlns="http://www.w3.org/2000/svg"
   xmlns:svg="http://www.w3.org/2000/svg">
  <defs
     id="defs1" />
  <sodipodi:namedview
     id="namedview1"
     pagecolor="#ffffff"
     bordercolor="#000000"
     borderopacity="0.25"
     inkscape:showpageshadow="2"
     inkscape:pageopacity="0.0"
     inkscape:pagecheckerboard="0"
     inkscape:deskcolor="#d1d1d1"
     inkscape:zoom="0.8"
     inkscape:cx="505"
     inkscape:cy="500"
     inkscape:window-width="1920"
     inkscape:window-height="1011"
     inkscape:window-x="0"
     inkscape:window-y="0"
     inkscape:window-maximized="1"
     inkscape:current-layer="svg1" />
  <path
     fill="currentColor"
     d="M905 933h6q12 0 21.5 -12t15.5 -24.5t6 -13.5q0 -7 -15 -7q-114 -3 -226.5 -22.5t-217 -49.5t-195.5 -64q-4 -2 -9 -3.5t-10 -2.5q87 -45 176 -102t174.5 -121t158.5 -131q4 -3 8.5 -9t4.5 -14q0 -13 -14 -25.5t-34 -12.5h-11l-230 19v-179q0 -11 -17 -18t-34 -7 q-15 0 -15 6q0 2 2 6q10 17 10 29l2 167l-226 19q-5 0 -10.5 0.5t-11.5 0.5q-8 0 -17 -1t-17 -3q-1 0 -2 -0.5t-3 -0.5q-5 0 -5 5q0 3 1 5q11 30 23 36.5t22 6.5q6 0 14.5 -1t20.5 -2l477 -40q-99 86 -230 179t-283 173q-9 -1 -18 -1.5t-18 -0.5q-8 0 -26.5 1t-38.5 4.5 t-34.5 10.5t-14.5 19t6.5 21.5t17.5 9.5q3 0 9 -2q20 -8 42 -12t45 -4q51 0 111 23q134 53 291.5 91.5t317.5 53.5z"
     id="path1"
     style="fill:#ff0000" />
</svg>
