<?xml version="1.0" encoding="UTF-8" standalone="no"?>
<svg
   version="1.1"
   viewBox="-10 0 1010 1000"
   id="svg1"
   sodipodi:docname="uni4E4E_KleeOne-Regular.svg"
   inkscape:version="1.4 (e7c3feb100, 2024-10-09)"
   xmlns:inkscape="http://www.inkscape.org/namespaces/inkscape"
   xmlns:sodipodi="http://sodipodi.sourceforge.net/DTD/sodipodi-0.dtd"
   xmlns="http://www.w3.org/2000/svg"
   xmlns:svg="http://www.w3.org/2000/svg">
  <defs
     id="defs1" />
  <sodipodi:namedview
     id="namedview1"
     pagecolor="#ffffff"
     bordercolor="#000000"
     borderopacity="0.25"
     inkscape:showpageshadow="2"
     inkscape:pageopacity="0.0"
     inkscape:pagecheckerboard="0"
     inkscape:deskcolor="#d1d1d1"
     inkscape:zoom="0.8"
     inkscape:cx="505"
     inkscape:cy="500"
     inkscape:window-width="1920"
     inkscape:window-height="1011"
     inkscape:window-x="0"
     inkscape:window-y="0"
     inkscape:window-maximized="1"
     inkscape:current-layer="svg1" />
  <path
     d="m 360,501 q 10,0 20,-12 10,-12 10,-19 0,-7 -13,-26 Q 364,425 344,400.5 324,376 303,353 282,330 265.5,315 249,300 243,300 q -7,0 -15,9.5 -8,9.5 -8,17.5 0,6 6,12 65,70 116,148 9,14 18,14 z"
     id="path3"
     style="fill:#ff0000" />
  <path
     d="m 597,507 q 15,0 65,-53.5 50,-53.5 125,-174.5 2,-4 2,-6 0,-10 -11,-19 -11,-9 -24,-15 -13,-6 -18,-6 -8,0 -8,9 0,16 -15.5,53 -15.5,37 -42.5,82.5 -27,45.5 -62,88.5 -10,11 -14,20 -4,9 -4,14 0,7 7,7 z"
     id="path2"
     style="fill:#ff0000" />
  <path
     d="m 447,225 c 11.33333,42 21,91.33333 29,148 8,56.66667 13.66667,114.33333 17,173 L 106,568 H 94 c -6.666667,0 -13.666667,-0.33333 -21,-1 -7.333333,-0.66667 -14.333333,-1.66667 -21,-3 -0.666667,0 -1.333333,-0.16667 -2,-0.5 -0.666667,-0.33333 -1.666667,-0.5 -3,-0.5 -3.333333,0 -5,1.66667 -5,5 0,2 0.333333,3.66667 1,5 1.333333,3.33333 3.5,8.33333 6.5,15 3,6.66667 7.666667,12.83333 14,18.5 6.333333,5.66667 14.5,8.5 24.5,8.5 3.333333,0 7.333333,-0.16667 12,-0.5 4.66667,-0.33333 10.33333,-0.83333 17,-1.5 l 379,-21 c 2,36 3,71 3,105 0,40.66667 -1.5,77.66667 -4.5,111 -3,33.33333 -7.16667,60.66667 -12.5,82 -1.33333,4 -4,6 -8,6 h -3 c -26.66667,-9.33333 -52.66667,-19.5 -78,-30.5 -25.33333,-11 -52,-24.16667 -80,-39.5 -12,-6 -21,-9 -27,-9 -6,0 -9,2.33333 -9,7 0,6 6.33333,14.66667 19,26 12.66667,11.33333 28.83333,23.66667 48.5,37 19.66667,13.33333 39.83333,25.83333 60.5,37.5 20.66667,11.66667 39,21.33333 55,29 16,7.66667 27,11.5 33,11.5 13.33333,0 25.33333,-11 36,-33 5.33333,-10.66667 9.16667,-23.16667 11.5,-37.5 2.33333,-14.33333 3.83333,-28.66667 4.5,-43 0.66667,-14.33333 1.33333,-26.5 2,-36.5 2,-27.33333 3,-57.33333 3,-90 0,-21.33333 -0.33333,-43.33333 -1,-66 -0.66667,-22.66667 -1.66667,-45.66667 -3,-69 l 398,-22 c 8.66667,-1.33333 13,-5.66667 13,-13 0,-4.66667 -2.5,-10 -7.5,-16 -5,-6 -11,-11.5 -18,-16.5 -7,-5 -13.5,-7.5 -19.5,-7.5 -2,0 -3.66667,0.16667 -5,0.5 -1.33333,0.33333 -2.66667,0.83333 -4,1.5 -9.33333,2.66667 -18.5,4.66667 -27.5,6 -9,1.33333 -18.83333,2.33333 -29.5,3 L 543,543 C 536.33333,455.66667 528.5,386.83333 519.5,336.5 510.5,286.16667 502.33333,245.66667 495,215"
     id="path4" />
  <path
     d="m 495,215 c 43.33333,-9.33333 86,-19.5 128,-30.5 42,-11 83,-22.83333 123,-35.5 4,-1.33333 6,-4.66667 6,-10 0,-4.66667 -2,-11.33333 -6,-20 -4,-8.66667 -8.66667,-16.5 -14,-23.5 -5.33333,-7 -10.66667,-10.5 -16,-10.5 -3.33333,0 -6,1.666667 -8,5 -4,5.333333 -8.5,10 -13.5,14 -5,4 -9.5,6.66667 -13.5,8 -46,16.66667 -97.5,32.83333 -154.5,48.5 -57,15.66667 -115.5,30.16667 -175.5,43.5 -60,13.33333 -118,25 -174,35 -19.33333,2.66667 -29,8.66667 -29,18 0,8 7.66667,12 23,12 1.33333,0 3,-0.16667 5,-0.5 2,-0.33333 3.66667,-0.5 5,-0.5 42,-5.33333 85.5,-11.66667 130.5,-19 45,-7.33333 90.16667,-15.33333 135.5,-24"
     id="path1"
     style="fill:#ff0000" />
</svg>
