<?xml version="1.0" encoding="UTF-8" standalone="no"?>
<svg
   version="1.1"
   viewBox="-10 0 1010 1000"
   id="svg1"
   sodipodi:docname="uni4E5F_KleeOne-Regular.svg"
   inkscape:version="1.4 (e7c3feb100, 2024-10-09)"
   xmlns:inkscape="http://www.inkscape.org/namespaces/inkscape"
   xmlns:sodipodi="http://sodipodi.sourceforge.net/DTD/sodipodi-0.dtd"
   xmlns="http://www.w3.org/2000/svg"
   xmlns:svg="http://www.w3.org/2000/svg">
  <defs
     id="defs1" />
  <sodipodi:namedview
     id="namedview1"
     pagecolor="#ffffff"
     bordercolor="#000000"
     borderopacity="0.25"
     inkscape:showpageshadow="2"
     inkscape:pageopacity="0.0"
     inkscape:pagecheckerboard="0"
     inkscape:deskcolor="#d1d1d1"
     inkscape:zoom="0.8"
     inkscape:cx="375"
     inkscape:cy="525"
     inkscape:window-width="1920"
     inkscape:window-height="1011"
     inkscape:window-x="0"
     inkscape:window-y="0"
     inkscape:window-maximized="1"
     inkscape:current-layer="svg1" />
  <path
     style="display:inline"
     d="m 300,431 1,-154 c 0,-4.66667 -3.5,-9.16667 -10.5,-13.5 -7,-4.33333 -14.83333,-8 -23.5,-11 -8.66667,-3 -15.66667,-4.5 -21,-4.5 -6,0 -9,2 -9,6 0,0.66667 0.66667,2.33333 2,5 4.66667,7.33333 7.66667,14.33333 9,21 1.33333,6.66667 2,13.66667 2,21 l -1,149"
     id="path5" />
  <path
     id="path4"
     style="display:inline;fill:#ff0000"
     d="m 300,477 176,-63 -1,252 c 0,16 -0.33333,28.83333 -1,38.5 -0.66667,9.66667 -1.66667,20.16667 -3,31.5 v 6 c 0,8.66667 4.5,16.66667 13.5,24 9,7.33333 17.5,11 25.5,11 8.66667,0 13,-5.66667 13,-17 l 1,-363 207,-75 v 22 c 0,46.66667 -2.83333,96.66667 -8.5,150 -5.66667,53.33333 -13.5,102.66667 -23.5,148 -0.66667,5.33333 -3,8 -7,8 -4,0 -15.66667,-5.33333 -35,-16 -19.33333,-10.66667 -40.33333,-23.66667 -63,-39 -10,-7.33333 -18.66667,-11 -26,-11 -6,0 -9,2.66667 -9,8 0,6 4,13.83333 12,23.5 8,9.66667 17.83333,19.83333 29.5,30.5 11.66667,10.66667 23.5,20.5 35.5,29.5 12,9 21.66667,16.16667 29,21.5 14,10 26,15 36,15 7.33333,0 14.16667,-1.83333 20.5,-5.5 6.33333,-3.66667 12.5,-12 18.5,-25 6,-13 11.66667,-33.5 17,-61.5 5.33333,-28 10.16667,-66.33333 14.5,-115 4.33333,-48.66667 7.83333,-110.33333 10.5,-185 0,-2.66667 0.66667,-6.33333 2,-11 1.33333,-4.66667 2,-9.33333 2,-14 0,-8 -2.66667,-13.83333 -8,-17.5 -5.33333,-3.66667 -11,-6 -17,-7 -6,-1 -10.33333,-1.5 -13,-1.5 -3.33333,0 -7.66667,1 -13,3 l -211,77 1,-228 c 0,-10 -4,-17.33333 -12,-22 -8,-4.666667 -16.16667,-7.833333 -24.5,-9.5 C 480.16667,87.833333 474.66667,87 472,87 c -4.66667,0 -7,1.333333 -7,4 0,0.666667 0.66667,3 2,7 4.66667,9.33333 7.66667,17.66667 9,25 1.33333,7.33333 2,14.66667 2,22 l -1,221 -177,65 -51,19 -144,52 c -8,2.66667 -15.5,5 -22.5,7 -7,2 -14.833333,3.66667 -23.5,5 -4,0.66667 -6,2.66667 -6,6 0,2.66667 4.666667,8 14,16 9.333333,8 18.666667,12 28,12 4.666667,0 9.33333,-0.66667 14,-2 4.66667,-1.33333 10.33333,-3.33333 17,-6 l 122,-44"
     sodipodi:nodetypes="cccscssscccsscsscssssscssssscssssscccsssscscccccscsssscc" />
  <path
     d="m 248,496 -2,301 v 3 c 0,36 8,63 24,81 16,18 38,28 66,30 41.33333,2.66667 82.33333,4.66667 123,6 40.66667,1.33333 80.66667,2 120,2 47.33333,0 93.66667,-1 139,-3 45.33333,-2 90,-5.33333 134,-10 28.66667,-2.66667 49.83333,-11.66667 63.5,-27 13.66667,-15.33333 22.5,-39.16667 26.5,-71.5 4,-32.33333 6,-75.16667 6,-128.5 0,-29.33333 -5,-44 -15,-44 -3.33333,0 -7,3.5 -11,10.5 -4,7 -6.66667,17.16667 -8,30.5 -2.66667,20.66667 -5.5,42.66667 -8.5,66 -3,23.33333 -7.16667,45 -12.5,65 -3.33333,12.66667 -9.16667,23.66667 -17.5,33 -8.33333,9.33333 -19.16667,14.66667 -32.5,16 -84.66667,10 -175.33333,15 -272,15 -36.66667,0 -73.5,-0.83333 -110.5,-2.5 -37,-1.66667 -74.16667,-4.16667 -111.5,-7.5 -20,-2 -33.5,-9 -40.5,-21 -7,-12 -10.5,-30.33333 -10.5,-55 l 2,-308"
     id="path1"
     style="display:inline" />
</svg>
