<?xml version="1.0" encoding="UTF-8" standalone="no"?>
<svg
   version="1.1"
   viewBox="-10 0 1010 1000"
   id="svg1"
   sodipodi:docname="uni4EC1_KleeOne-Regular.svg"
   inkscape:version="1.4 (e7c3feb100, 2024-10-09)"
   xmlns:inkscape="http://www.inkscape.org/namespaces/inkscape"
   xmlns:sodipodi="http://sodipodi.sourceforge.net/DTD/sodipodi-0.dtd"
   xmlns="http://www.w3.org/2000/svg"
   xmlns:svg="http://www.w3.org/2000/svg">
  <defs
     id="defs1" />
  <sodipodi:namedview
     id="namedview1"
     pagecolor="#ffffff"
     bordercolor="#000000"
     borderopacity="0.25"
     inkscape:showpageshadow="2"
     inkscape:pageopacity="0.0"
     inkscape:pagecheckerboard="0"
     inkscape:deskcolor="#d1d1d1"
     inkscape:zoom="0.8"
     inkscape:cx="505"
     inkscape:cy="500"
     inkscape:window-width="1920"
     inkscape:window-height="1011"
     inkscape:window-x="0"
     inkscape:window-y="0"
     inkscape:window-maximized="1"
     inkscape:current-layer="svg1" />
  <path
     d="m 376,777 554,-21 q 18,-2 18,-17 0,-15 -15.5,-27 -15.5,-12 -26.5,-12 -3,0 -9,2 -8,3 -17.5,4 -9.5,1 -21.5,2 l -493,18 h -5 q -11,0 -21.5,-2.5 Q 328,721 318,718 q -1,0 -2,-0.5 -1,-0.5 -2,-0.5 -4,0 -4,5 0,5 4,15.5 4,10.5 9,20 5,9.5 7,11.5 8,8 32,8 z"
     id="path3"
     style="fill:#ff0000" />
  <path
     d="m 457,381 368,-23 q 14,-2 14,-16 0,-14 -15,-25.5 Q 809,305 798,305 h -4 q -10,2 -19.5,5 -9.5,3 -20.5,4 l -310,20 q -4,0 -7.5,0.5 -3.5,0.5 -7.5,0.5 -18,0 -31,-4 -1,0 -2,-0.5 -1,-0.5 -2,-0.5 -4,0 -4,4 0,3 1,5 7,33 17.5,38.5 10.5,5.5 17.5,5.5 6,0 13.5,-0.5 Q 447,382 457,381 Z"
     id="path2"
     style="fill:#ff0000" />
  <path
     d="m 223,408 -5,419 q 0,27 -0.5,43.5 -0.5,16.5 -3.5,40.5 0,1 -0.5,3 -0.5,2 -0.5,4 0,10 15,22 15,12 27,12 15,0 15,-14 l 1,-600 q 33,-51 57,-95 24,-44 37.5,-71.5 Q 379,144 379,143 q 0,-7 -8.5,-16 -8.5,-9 -19.5,-16.5 -11,-7.5 -21,-7.5 -8,0 -8,7 -1,27 -10,47 Q 265,260 197,366.5 129,473 52,562 q -14,15 -14,27 0,8 8,8 5,0 12,-3.5 7,-3.5 15,-11.5 80,-75 150,-174 z"
     id="path1" />
</svg>
