<?xml version="1.0" encoding="UTF-8" standalone="no"?>
<svg
   version="1.1"
   viewBox="-10 0 1010 1000"
   id="svg1"
   sodipodi:docname="uni4ECB_KleeOne-Regular.svg"
   inkscape:version="1.4 (e7c3feb100, 2024-10-09)"
   xmlns:inkscape="http://www.inkscape.org/namespaces/inkscape"
   xmlns:sodipodi="http://sodipodi.sourceforge.net/DTD/sodipodi-0.dtd"
   xmlns="http://www.w3.org/2000/svg"
   xmlns:svg="http://www.w3.org/2000/svg">
  <defs
     id="defs1" />
  <sodipodi:namedview
     id="namedview1"
     pagecolor="#ffffff"
     bordercolor="#000000"
     borderopacity="0.25"
     inkscape:showpageshadow="2"
     inkscape:pageopacity="0.0"
     inkscape:pagecheckerboard="0"
     inkscape:deskcolor="#d1d1d1"
     inkscape:zoom="0.8"
     inkscape:cx="505"
     inkscape:cy="500"
     inkscape:window-width="1920"
     inkscape:window-height="1011"
     inkscape:window-x="0"
     inkscape:window-y="0"
     inkscape:window-maximized="1"
     inkscape:current-layer="svg1" />
  <path
     d="m 348,494 v 15 q 0,95 -16,168.5 -16,73.5 -58,132 -42,58.5 -120,108.5 -32,22 -32,33 0,6 9,6 8,0 35.5,-11.5 Q 194,934 231,909 q 37,-25 72,-64 35,-39 57,-93 24,-59 31.5,-133.5 Q 399,544 400,453 q 0,-9 -9.5,-15.5 -9.5,-6.5 -21.5,-10 -12,-3.5 -19,-3.5 -12,0 -12,8 0,1 0.5,1.5 0.5,0.5 0.5,1.5 5,16 7,32 2,16 2,27 z"
     id="path3"
     style="fill:#ff0000" />
  <path
     d="m 596,927 v 5 q 0,14 14.5,25.5 14.5,11.5 27.5,11.5 15,0 15,-16 l -2,-514 q 0,-14 -12,-21 -12,-7 -24.5,-9.5 L 602,406 q -9,0 -9,7 v 2 q 8,28 8,55 l 1,377 q 0,41 -6,80 z"
     id="path2" />
  <path
     d="m 478,74 v 2 q 1,4 1,7 v 5 q 0,7 -1,11 -1,4 -2,6 Q 407,251 301.5,353 196,455 73,529 q -24,14 -24,25 0,7 11,7 12,0 26,-7 Q 209,495 308,409.5 407,324 494,188 q 89,117 192,198 103,81 231,149 5,3 10,3 10,0 21,-8.5 11,-8.5 19,-18 8,-9.5 8,-11.5 0,-7 -11,-11 Q 834,436 720.5,349 607,262 520,147 q 18,-31 21,-37 3,-6 3,-7 0,-13 -20,-24 -20,-11 -36,-11 -10,0 -10,6 z"
     id="path1"
     style="fill:#ff0000" />
</svg>
