<?xml version="1.0" encoding="UTF-8" standalone="no"?>
<svg
   version="1.1"
   viewBox="-10 0 1013 1000"
   id="svg1"
   sodipodi:docname="uni4F0A_KleeOne-Regular.svg"
   inkscape:version="1.4 (e7c3feb100, 2024-10-09)"
   xmlns:inkscape="http://www.inkscape.org/namespaces/inkscape"
   xmlns:sodipodi="http://sodipodi.sourceforge.net/DTD/sodipodi-0.dtd"
   xmlns="http://www.w3.org/2000/svg"
   xmlns:svg="http://www.w3.org/2000/svg">
  <defs
     id="defs1" />
  <sodipodi:namedview
     id="namedview1"
     pagecolor="#ffffff"
     bordercolor="#000000"
     borderopacity="0.25"
     inkscape:showpageshadow="2"
     inkscape:pageopacity="0.0"
     inkscape:pagecheckerboard="0"
     inkscape:deskcolor="#d1d1d1"
     inkscape:zoom="0.8"
     inkscape:cx="506.25"
     inkscape:cy="500"
     inkscape:window-width="1920"
     inkscape:window-height="1011"
     inkscape:window-x="0"
     inkscape:window-y="0"
     inkscape:window-maximized="1"
     inkscape:current-layer="svg1" />
  <path
     d="m 580,594 232,-11 q 9,-1 16.5,-3.5 7.5,-2.5 7.5,-9.5 0,-10 -21,-30 l 14,-152 146,-9 q 18,-2 18,-14 0,-9 -8.5,-16.5 -8.5,-7.5 -18,-12 Q 957,332 954,332 q -5,0 -8,1 -10,3 -18,4.5 -8,1.5 -20,2.5 l -74,4 12,-131 q 0,-4 2.5,-9 2.5,-5 2.5,-12 0,-15 -14,-22 -14,-7 -22,-7 h -5 l -360,21 h -10 q -7,0 -14,-0.5 -7,-0.5 -16,-1.5 h -2 q -5,0 -5,5 0,1 7.5,13.5 7.5,12.5 15.5,20.5 7,6 23,6 4,0 8.5,-0.5 4.5,-0.5 9.5,-0.5 l 100,-6 -5,140 -222,13 q -7,1 -13.5,1 H 314 306 q 0,0 -9,-1 -1,0 -1.5,-0.5 -0.5,-0.5 -1.5,-0.5 -5,0 -5,4 0,3 1,4 10,25 18.5,31 8.5,6 21.5,6 5,0 10,-0.5 5,-0.5 11,-0.5 l 208,-12 q -3,39 -7.5,76 -4.5,37 -12.5,72 l -117,5 q -4,0 -9,0.5 -5,0.5 -10,0.5 -4,0 -9,-0.5 -5,-0.5 -11,-1.5 h -2 q -6,0 -6,6 0,2 4.5,12 4.5,10 14,19 9.5,9 23.5,9 5,0 10.5,-0.5 Q 433,601 439,601 l 90,-4 q -19,65 -42,118 -23,53 -59,102.5 -36,49.5 -95,106.5 -19,19 -19,29 0,6 7,6 9,0 28,-14 60,-45 103.5,-93.5 Q 496,803 527.5,741 559,679 580,594 Z M 794,206 783,347 612,357 q 2,-33 3.5,-68 1.5,-35 2.5,-72 z m -14,185 -12,150 -178,8 q 7,-35 11.5,-71.5 Q 606,441 609,401 Z"
     id="path2" />
  <path
     d="m 199,915 v 6 q 0,13 9,21 9,8 19.5,12 10.5,4 12.5,4 14,0 14,-13 l 6,-631 q 50,-83 96,-180 0,-1 0.5,-2 0.5,-1 0.5,-2 0,-9 -9.5,-17.5 Q 338,104 326,98 q -12,-6 -20,-6 -7,0 -7,7 v 5 q 0,10 -2,19 -2,9 -5,16 Q 249,242 185.5,348.5 122,455 51,547 q -14,17 -14,28 0,9 8,9 9,0 27.5,-18 18.5,-18 40.5,-45 22,-27 43,-55 21,-28 36,-49.5 15,-21.5 19,-26.5 l -6,444 q 0,8 -1,32.5 -1,24.5 -5,48.5 z"
     id="path1"
     style="fill:#ff0000" />
</svg>
