<?xml version="1.0" encoding="UTF-8" standalone="no"?>
<svg
   version="1.1"
   viewBox="-10 0 1010 1000"
   id="svg1"
   sodipodi:docname="uni4FDD_KleeOne-Regular.svg"
   inkscape:version="1.4 (e7c3feb100, 2024-10-09)"
   xmlns:inkscape="http://www.inkscape.org/namespaces/inkscape"
   xmlns:sodipodi="http://sodipodi.sourceforge.net/DTD/sodipodi-0.dtd"
   xmlns="http://www.w3.org/2000/svg"
   xmlns:svg="http://www.w3.org/2000/svg">
  <defs
     id="defs1" />
  <sodipodi:namedview
     id="namedview1"
     pagecolor="#ffffff"
     bordercolor="#000000"
     borderopacity="0.25"
     inkscape:showpageshadow="2"
     inkscape:pageopacity="0.0"
     inkscape:pagecheckerboard="0"
     inkscape:deskcolor="#d1d1d1"
     inkscape:zoom="0.8"
     inkscape:cx="505"
     inkscape:cy="500"
     inkscape:window-width="1920"
     inkscape:window-height="1011"
     inkscape:window-x="0"
     inkscape:window-y="0"
     inkscape:window-maximized="1"
     inkscape:current-layer="svg1" />
  <path
     d="m 583,926 v 4 q 0,14 16,24 16,10 24,10 8,0 10,-5 2,-5 2,-11 v -22.5 q 0,0 -0.5,-59 -0.5,-59 -0.5,-79.5 0,-20.5 -0.5,-84.5 -0.5,-64 -1,-73.5 -0.5,-9.5 -0.5,-47 35,55 82,103.5 47,48.5 93,86 46,37.5 79,59 33,21.5 41,21.5 9,0 22.5,-12.5 Q 963,827 963,820 q 0,-6 -7,-9 Q 862,764 792,702.5 722,641 662,568 l 223,-14 q 14,-2 14,-11 0,-9 -9,-17 -9,-8 -20,-13.5 -11,-5.5 -17,-5.5 -4,0 -7,1 -11,3 -21.5,6 -10.5,3 -26.5,4 l -161,10 v -88 q 0,-9 -10,-15 -10,-6 -21.5,-8.5 Q 594,414 588,414 q -10,0 -10,6 0,2 1,4 10,20 10,43 v 64 l -191,10 h -11 q -10,0 -21,-1 -11,-1 -21,-3 -1,0 -2,-0.5 -1,-0.5 -3,-0.5 -6,0 -6,5 0,5 7.5,16 7.5,11 15.5,19 5,4 12,5.5 7,1.5 17,1.5 h 13 q 0,0 15,-1 l 143,-9 Q 501,658 436.5,720.5 372,783 298,834 q -18,12 -18,22 0,7 10,7 9,0 35,-13.5 26,-13.5 61.5,-39 35.5,-25.5 74,-60 38.5,-34.5 73.5,-77 35,-42.5 58,-89.5 0,19 -0.5,52.5 -0.5,33.5 -1.5,72.5 -1,39 -1.5,74 -0.5,35 -1,57.5 L 587,863 q 0,38 -4,63 z"
     id="path3"
     style="fill:#ff0000" />
  <path
     d="m 492,403 288,-15 q 20,-2 20,-11 0,-11 -22,-32 l 25,-157 q 1,-3 3.5,-7.5 2.5,-4.5 2.5,-9.5 0,-10 -14,-20 -13,-8 -29,-8 h -6 l -287,19 q -22,-9 -35,-12.5 -13,-3.5 -20,-3.5 -9,0 -9,6 0,5 5,13 5,10 8,23.5 3,13.5 4,28.5 l 14,133 q 1,5 1,9 v 8 q 0,8 -0.5,14.5 Q 440,388 439,394 v 4 q 0,7 4.5,15 4.5,8 17.5,16 11,6 18,6 14,0 14,-18 z M 750,185 731,347 488,362 472,203 Z"
     id="path2" />
  <path
     d="m 191,912 v 6 q 0,12 8.5,20 8.5,8 18,12 9.5,4 13.5,4 16,0 16,-13 l 1,-602 Q 275,292 300,241.5 325,191 350,136 v -3 q 0,-10 -9.5,-19 Q 331,105 320,99.5 309,94 302,94 q -7,0 -7,7 v 8 q 0,16 -18,62 -18,46 -50,110 -32,64 -75.5,134 -43.5,70 -94.5,133 -14,17 -14,28 0,8 8,8 9,0 26.5,-16 Q 95,552 117,526.5 139,501 161,471 q 22,-30 41,-58 l -7,420 q 0,26 -1,42 -1,16 -3,37 z"
     id="path1" />
</svg>
