<?xml version="1.0" encoding="UTF-8" standalone="no"?>
<svg
   version="1.1"
   viewBox="-10 0 1010 1000"
   id="svg1"
   sodipodi:docname="uni5229_KleeOne-Regular.svg"
   inkscape:version="1.4 (e7c3feb100, 2024-10-09)"
   xmlns:inkscape="http://www.inkscape.org/namespaces/inkscape"
   xmlns:sodipodi="http://sodipodi.sourceforge.net/DTD/sodipodi-0.dtd"
   xmlns="http://www.w3.org/2000/svg"
   xmlns:svg="http://www.w3.org/2000/svg">
  <defs
     id="defs1" />
  <sodipodi:namedview
     id="namedview1"
     pagecolor="#ffffff"
     bordercolor="#000000"
     borderopacity="0.25"
     inkscape:showpageshadow="2"
     inkscape:pageopacity="0.0"
     inkscape:pagecheckerboard="0"
     inkscape:deskcolor="#d1d1d1"
     inkscape:zoom="0.8"
     inkscape:cx="505"
     inkscape:cy="500"
     inkscape:window-width="1920"
     inkscape:window-height="1011"
     inkscape:window-x="0"
     inkscape:window-y="0"
     inkscape:window-maximized="1"
     inkscape:current-layer="svg1" />
  <path
     d="m 610,703 v 6 q 0,10 5.5,16 5.5,6 15.5,12 11,6 18,6 15,0 15,-18 l -3,-441 q 0,-11 -9.5,-17.5 -9.5,-6.5 -21,-9.5 -11.5,-3 -19.5,-3 -10,0 -10,5 0,2 1,4 11,23 11,45 l 1,328 q 0,17 -1,32.5 -1,15.5 -3,34.5 z"
     id="path3"
     style="fill:#ff0000" />
  <path
     d="m 344,419 181,-12 q 18,-2 18,-14 0,-11 -14.5,-23 -14.5,-12 -28.5,-12 -5,0 -8,1 -10,4 -19.5,5.5 Q 463,366 453,367 l -109,9 V 218 Q 379,204 413.5,188.5 448,173 483,156 q 6,-3 6,-10 0,-7 -7,-19 -7,-12 -16,-22.5 Q 457,94 450,94 q -5,0 -9,7 -5,10 -11,16 -6,6 -14,11 -60,35 -133.5,67 -73.5,32 -147.5,55 -18,5 -27,13 -9,8 -9,14 0,10 19,10 9,0 37,-7.5 Q 183,272 221.5,260 260,248 298,235 l -1,145 -167,12 q -2,0 -5,0.5 -3,0.5 -8,0.5 -7,0 -17,-1 -10,-1 -18,-3 -1,0 -2,-0.5 -1,-0.5 -3,-0.5 -4,0 -4,4 0,9 8.5,21 8.5,12 13.5,17 4,4 10,5 6,1 13,1 5,0 11,-0.5 6,-0.5 11,-0.5 L 283,424 Q 237,523 177,610.5 117,698 57,763 q -8,9 -11.5,16 -3.5,7 -3.5,12 0,8 7,8 11,0 40,-26.5 Q 118,746 156.5,701 195,656 233,598.5 271,541 300,480 l -0.5,24.5 q 0,0 -1,58 -1,58 -1.5,61.5 -1,35 -1.5,77 -0.5,42 -0.5,79.5 v 61.5 24 q 0,33 -4,58 0,2 -0.5,4.5 -0.5,2.5 -0.5,4.5 0,13 15.5,23.5 15.5,10.5 25.5,10.5 14,0 14,-17 l -1,-434 q 35,31 71,70.5 36,39.5 70,82.5 11,12 19,12 8,0 18.5,-10.5 Q 533,660 533,649 533,641 520,625 507,609 472,575.5 437,542 372,484 q -10,-9 -18,-9 -5,0 -10,4 z"
     id="path2" />
  <path
     d="m 821,135 -4,776 q -31,-11 -64,-27 -33,-16 -62,-33 -18,-11 -29,-11 -8,0 -8,6 0,7 15.5,22.5 15.5,15.5 39.5,33.5 24,18 49.5,35 25.5,17 45.5,27.5 20,10.5 27,10.5 11,0 24.5,-10.5 Q 869,954 869,928 869,921 868.5,913.5 868,906 868,899 l 4,-787 q 0,-8 -5.5,-14.5 Q 861,91 844,85 q -18,-6 -27,-6 -11,0 -11,6 l 2,4 q 13,23 13,46 z"
     id="path1"
     style="fill:#ff0000" />
</svg>
