<?xml version="1.0" encoding="UTF-8" standalone="no"?>
<svg
   version="1.1"
   viewBox="-10 0 1010 1000"
   id="svg1"
   sodipodi:docname="uni52A0_KleeOne-Regular.svg"
   inkscape:version="1.4 (e7c3feb100, 2024-10-09)"
   xmlns:inkscape="http://www.inkscape.org/namespaces/inkscape"
   xmlns:sodipodi="http://sodipodi.sourceforge.net/DTD/sodipodi-0.dtd"
   xmlns="http://www.w3.org/2000/svg"
   xmlns:svg="http://www.w3.org/2000/svg">
  <defs
     id="defs1" />
  <sodipodi:namedview
     id="namedview1"
     pagecolor="#ffffff"
     bordercolor="#000000"
     borderopacity="0.25"
     inkscape:showpageshadow="2"
     inkscape:pageopacity="0.0"
     inkscape:pagecheckerboard="0"
     inkscape:deskcolor="#d1d1d1"
     inkscape:zoom="0.8"
     inkscape:cx="505"
     inkscape:cy="500"
     inkscape:window-width="1920"
     inkscape:window-height="1011"
     inkscape:window-x="0"
     inkscape:window-y="0"
     inkscape:window-maximized="1"
     inkscape:current-layer="svg1" />
  <path
     d="m 649,799 219,-8 q 7,-1 12.5,-3 5.5,-2 5.5,-8 0,-5 -5,-13 -5,-8 -18,-19 l 23,-379 q 1,-5 4,-11 3,-6 3,-12 0,-11 -8,-17 -8,-6 -17.5,-8.5 Q 858,318 855,318 h -8 l -216,15 q -22,-10 -35.5,-14 -13.5,-4 -20.5,-4 -9,0 -9,7 0,3 1.5,6.5 1.5,3.5 2.5,7.5 4,10 8,21 4,11 5,24 l 16,415 q 0,5 0.5,10.5 0.5,5.5 0.5,10.5 0,6 -0.5,12 -0.5,6 -1.5,12 0,1 -0.5,2.5 -0.5,1.5 -0.5,3.5 0,9 10.5,15.5 10.5,6.5 21,9.5 l 10.5,3 q 8,0 10.5,-4.5 Q 652,866 652,862 Z M 835,361 817,750 648,757 630,374 Z"
     id="path2" />
  <path
     d="M 320,382 444,371 Q 443,522 429.5,649 416,776 388,866 q -1,6 -7,6 -1,0 -2,-0.5 -1,-0.5 -2,-0.5 -16,-8 -40,-19.5 -24,-11.5 -50,-26.5 -1,-1 -9.5,-7 -8.5,-6 -20,-12 -11.5,-6 -21.5,-6 -9,0 -9,7 0,3 2.5,8 2.5,5 13.5,17 11,12 37.5,34 26.5,22 74.5,58 15,12 31,12 17,0 33,-15 15,-14 20,-34 5,-20 11,-45 19,-90 29.5,-205.5 Q 490,521 494,378 q 0,-4 3,-8.5 3,-4.5 3,-11.5 0,-10 -10,-21 -10,-11 -26,-11 h -7 l -133,12 q 5,-53 8,-107 3,-54 5,-108 0,-14 -27,-24 -18,-8 -26,-8 -8,0 -8,8 v 3 q 4,14 4.5,31 0.5,17 0.5,28 0,39 -1.5,85 -1.5,46 -6.5,96 l -117,9 h -12 q -18,0 -39,-3 -1,0 -2,-0.5 -1,-0.5 -2,-0.5 -6,0 -6,5 0,3 5,13.5 5,10.5 14.5,20 9.5,9.5 25.5,9.5 h 10.5 q 0,0 12.5,-1 l 105,-8 Q 253,515 221.5,612 190,709 148.5,779.5 107,850 61,901 q -8,9 -11.5,17 -3.5,8 -3.5,13 0,8 7,8 7,0 36,-25.5 29,-25.5 68,-76 39,-50.5 76.5,-125 Q 271,638 293,539 302,501 308.5,461.5 315,422 320,382 Z"
     id="path1"
     style="fill:#ff0000" />
</svg>
