<?xml version="1.0" encoding="UTF-8" standalone="no"?>
<svg
   version="1.1"
   viewBox="-10 0 1010 1000"
   id="svg1"
   sodipodi:docname="uni5343_KleeOne-Regular.svg"
   inkscape:version="1.4 (e7c3feb100, 2024-10-09)"
   xmlns:inkscape="http://www.inkscape.org/namespaces/inkscape"
   xmlns:sodipodi="http://sodipodi.sourceforge.net/DTD/sodipodi-0.dtd"
   xmlns="http://www.w3.org/2000/svg"
   xmlns:svg="http://www.w3.org/2000/svg">
  <defs
     id="defs1" />
  <sodipodi:namedview
     id="namedview1"
     pagecolor="#ffffff"
     bordercolor="#000000"
     borderopacity="0.25"
     inkscape:showpageshadow="2"
     inkscape:pageopacity="0.0"
     inkscape:pagecheckerboard="0"
     inkscape:deskcolor="#d1d1d1"
     inkscape:zoom="0.8"
     inkscape:cx="505"
     inkscape:cy="500"
     inkscape:window-width="1920"
     inkscape:window-height="1011"
     inkscape:window-x="0"
     inkscape:window-y="0"
     inkscape:window-maximized="1"
     inkscape:current-layer="svg1" />
  <path
     fill="currentColor"
     d="M526 515l383 -20q12 -2 12 -11q0 -8 -8.5 -17.5t-18.5 -16t-17 -6.5q-4 0 -8 2q-13 4 -26.5 5.5t-29.5 2.5l-287 15l2 -248q48 -12 100.5 -27t104.5 -32q6 -2 6 -11q0 -11 -9 -27q-14 -27 -26 -27q-5 0 -8 4q-14 19 -27 23q-94 35 -200.5 67.5t-232.5 57.5q-29 6 -29 20 q0 12 23 12q6 0 10 -1q64 -10 120 -21t114 -24l-1 237l-332 17h-13q-10 0 -20 -1t-20 -3h-4q-6 0 -6 4q0 3 1 5q7 21 21 35q10 7 21 7q5 0 12.5 -0.5t17.5 -1.5l322 -16l-2 328q0 23 -1 39.5t-4 36.5v5q0 13 15.5 24t25.5 11q16 0 16 -19z"
     id="path1"
     style="fill:#ff0000" />
</svg>
