<?xml version="1.0" encoding="UTF-8" standalone="no"?>
<svg
   version="1.1"
   viewBox="-10 0 1010 1000"
   id="svg1"
   sodipodi:docname="uni5442_KleeOne-Regular.svg"
   inkscape:version="1.4 (e7c3feb100, 2024-10-09)"
   xmlns:inkscape="http://www.inkscape.org/namespaces/inkscape"
   xmlns:sodipodi="http://sodipodi.sourceforge.net/DTD/sodipodi-0.dtd"
   xmlns="http://www.w3.org/2000/svg"
   xmlns:svg="http://www.w3.org/2000/svg">
  <defs
     id="defs1" />
  <sodipodi:namedview
     id="namedview1"
     pagecolor="#ffffff"
     bordercolor="#000000"
     borderopacity="0.25"
     inkscape:showpageshadow="2"
     inkscape:pageopacity="0.0"
     inkscape:pagecheckerboard="0"
     inkscape:deskcolor="#d1d1d1"
     inkscape:zoom="0.8"
     inkscape:cx="312.5"
     inkscape:cy="531.25"
     inkscape:window-width="1920"
     inkscape:window-height="1011"
     inkscape:window-x="0"
     inkscape:window-y="0"
     inkscape:window-maximized="1"
     inkscape:current-layer="svg1" />
  <path
     id="path2"
     style="fill:#000000"
     d="m 461,420 c 0,5.33333 -0.33333,10.66667 -1,16 -0.66667,5.33333 -1.66667,9.66667 -3,13 -8.66667,20 -19.83333,43.16667 -33.5,69.5 -13.66667,26.33333 -28.83333,52.16667 -45.5,77.5 l -113,5 c -16,-7.33333 -28.83333,-12.66667 -38.5,-16 -9.66667,-3.33333 -17.16667,-5 -22.5,-5 -7.33333,0 -11,3 -11,9 0,3.33333 1,7 3,11 3.33333,8 6.33333,16 9,24 2.66667,8 4.33333,17 5,27 l 17,218 c 0.66667,3.33333 1,6.66667 1,10 v 10 c 0,11.33333 -1,24 -3,38 v 3 c 0,8.66667 3,15.5 9,20.5 6,5 12.33333,8.66667 19,11 6.66667,2.33333 11.33333,3.5 14,3.5 10.66667,0 16,-4.66667 16,-14 v -2 l -3,-47 498,-13 c 4,0 7.83333,-0.83333 11.5,-2.5 3.66667,-1.66667 5.5,-4.5 5.5,-8.5 0,-3.33333 -1.66667,-7.83333 -5,-13.5 -3.33333,-5.66667 -9.33333,-12.5 -18,-20.5 l 29,-215 c 0.66667,-3.33333 1.83333,-6.66667 3.5,-10 1.66667,-3.33333 2.5,-7 2.5,-11 0,-7.33333 -4,-14.16667 -12,-20.5 -8,-6.33333 -17.33333,-9.5 -28,-9.5 h -11 l -328,15 c 32,-46 60.66667,-94.33333 86,-145 0,-0.66667 0.16667,-1.33333 0.5,-2 0.33333,-0.66667 0.5,-1.33333 0.5,-2 0,-3.33333 -1.66667,-7.33333 -5,-12 -3.33333,-4.66667 -8.66667,-9 -16,-13 M 745,624 721,844 276,857 261,645 Z" />
  <path
     id="path1"
     style="fill:#ff0000"
     d="m 494,419 213,-11 c 4.66667,-0.66667 8.66667,-1.66667 12,-3 3.33333,-1.33333 5,-3.66667 5,-7 0,-6.66667 -8.33333,-18.33333 -25,-35 l 26,-168 c 0.66667,-3.33333 1.66667,-6.66667 3,-10 1.33333,-3.33333 2,-6.66667 2,-10 0,-9.33333 -4.5,-16.66667 -13.5,-22 -9,-5.33333 -17.5,-8 -25.5,-8 h -8 l -374,25 c -14.66667,-6 -26.33333,-10.16667 -35,-12.5 -8.66667,-2.33333 -15.66667,-3.5 -21,-3.5 -7.33333,0 -11,2.33333 -11,7 0,2.66667 1.33333,6.66667 4,12 8.66667,16 13.66667,32.66667 15,50 l 14,176 v 9 c 0,5.33333 -0.16667,10.5 -0.5,15.5 -0.33333,5 -0.83333,10.16667 -1.5,15.5 v 5 c 0,9.33333 5,17 15,23 10,6 19.33333,9 28,9 8.66667,0 13,-4 13,-12 v -2 l -3,-35 135,-7 z M 673,190 653,367 323,385 310,212 Z"
     sodipodi:nodetypes="ccssccssssccssscccsscssssccccccccc" />
</svg>
