<?xml version="1.0" encoding="UTF-8" standalone="no"?>
<svg
   version="1.1"
   viewBox="-10 0 1010 1000"
   id="svg1"
   sodipodi:docname="uni548C_KleeOne-Regular.svg"
   inkscape:version="1.4 (e7c3feb100, 2024-10-09)"
   xmlns:inkscape="http://www.inkscape.org/namespaces/inkscape"
   xmlns:sodipodi="http://sodipodi.sourceforge.net/DTD/sodipodi-0.dtd"
   xmlns="http://www.w3.org/2000/svg"
   xmlns:svg="http://www.w3.org/2000/svg">
  <defs
     id="defs1" />
  <sodipodi:namedview
     id="namedview1"
     pagecolor="#ffffff"
     bordercolor="#000000"
     borderopacity="0.25"
     inkscape:showpageshadow="2"
     inkscape:pageopacity="0.0"
     inkscape:pagecheckerboard="0"
     inkscape:deskcolor="#d1d1d1"
     inkscape:zoom="0.8"
     inkscape:cx="606.25"
     inkscape:cy="533.75"
     inkscape:window-width="1920"
     inkscape:window-height="1011"
     inkscape:window-x="0"
     inkscape:window-y="0"
     inkscape:window-maximized="1"
     inkscape:current-layer="svg1" />
  <path
     id="path10"
     style="fill:#000000"
     d="m 826,659 -194,8 -47,11 v 0 0 20 l -2,36 v 6 c 0,5.33333 1.33333,10.5 4,15.5 2.66667,5 9,9.16667 19,12.5 6,2 11,3 15,3 9.33333,0 14,-4.33333 14,-13 l -2,-46 246,-9 c 5.33333,-0.66667 9.66667,-1.66667 13,-3 3.33333,-1.33333 5,-4 5,-8 0,-3.33333 -1.66667,-8 -5,-14 -3.33333,-6 -9.66667,-13.33333 -19,-22 z"
     sodipodi:nodetypes="cccccccsssscccssscc" />
  <path
     id="path2"
     style="display:inline;fill:#ff0000"
     d="m 626,338 c -28.66667,-12 -47.33333,-18 -56,-18 -6.66667,0 -10,2.66667 -10,8 0,2 0.5,4 1.5,6 1,2 1.83333,4.66667 2.5,8 3.33333,7.33333 5.5,15.16667 6.5,23.5 1,8.33333 1.83333,16.83333 2.5,25.5 l 12,287 47,-11 -11,-286 m 0,0 226,-12 -21,290 47,-3 26,-279 c 0.66667,-4 2,-7.83333 4,-11.5 2,-3.66667 3,-7.5 3,-11.5 0,-10 -5.33333,-17.66667 -16,-23 -10.66667,-5.33333 -19,-8 -25,-8 h -7 l -232,15"
     sodipodi:nodetypes="cssscscccccccccsssscc" />
  <path
     d="m 340,420 173,-12 q 18,-2 18,-13 0,-9 -8,-17 -8,-8 -18,-13 -10,-5 -15,-5 -5,0 -8,1 -21,6 -40,7 l -102,8 V 212 q 51,-22 79.5,-35 28.5,-13 41.5,-20 13,-7 16,-10.5 3,-3.5 3,-6.5 0,-8 -7.5,-19.5 Q 465,109 455.5,100 446,91 440,91 q -5,0 -8,6 -7,16 -25,27 -57,35 -123.5,65.5 Q 217,220 146,246 q -34,13 -34,27 0,9 17,9 10,0 33,-6.5 23,-6.5 50.5,-16 27.5,-9.5 50,-18 Q 285,233 294,230 l -1,149 -153,12 h -10 q -9,0 -19.5,-1 -10.5,-1 -18.5,-3 -1,0 -2,-0.5 -1,-0.5 -2,-0.5 -5,0 -5,5 0,2 6.5,15 6.5,13 14.5,21 5,4 11,5.5 6,1.5 13,1.5 5,0 10,-0.5 5,-0.5 11,-0.5 l 133,-9 Q 241,519 181,609.5 121,700 62,769 q -17,21 -17,32 0,6 6,6 11,0 38,-24.5 27,-24.5 63.5,-68 36.5,-43.5 74,-100 Q 264,558 295,494 l -0.5,17 q 0,0 -1,43 -1,43 -1,55 0,12 -0.5,54 0,28 -0.5,61.5 Q 291,758 291,788 v 49 19 q 0,13 -1,27 -1,14 -3,31 0,2 -0.5,4 -0.5,2 -0.5,4 0,16 17,25.5 17,9.5 26,9.5 12,0 12,-17 l -1,-429 q 40,40 73.5,76.5 33.5,36.5 64.5,80.5 8,12 16,12 8,0 19,-12.5 11,-12.5 11,-19.5 0,-6 -14.5,-25 Q 495,604 471.5,579 448,554 421.5,527.5 395,501 370,479 q -9,-9 -18,-9 -7,0 -12,5 z"
     id="path1"
     style="fill:#000000" />
</svg>
