<?xml version="1.0" encoding="UTF-8" standalone="no"?>
<svg
   version="1.1"
   viewBox="-10 0 1010 1000"
   id="svg1"
   sodipodi:docname="uni591A_KleeOne-Regular.svg"
   inkscape:version="1.4 (e7c3feb100, 2024-10-09)"
   xmlns:inkscape="http://www.inkscape.org/namespaces/inkscape"
   xmlns:sodipodi="http://sodipodi.sourceforge.net/DTD/sodipodi-0.dtd"
   xmlns="http://www.w3.org/2000/svg"
   xmlns:svg="http://www.w3.org/2000/svg">
  <defs
     id="defs1" />
  <sodipodi:namedview
     id="namedview1"
     pagecolor="#ffffff"
     bordercolor="#000000"
     borderopacity="0.25"
     inkscape:showpageshadow="2"
     inkscape:pageopacity="0.0"
     inkscape:pagecheckerboard="0"
     inkscape:deskcolor="#d1d1d1"
     inkscape:zoom="0.8"
     inkscape:cx="505"
     inkscape:cy="500"
     inkscape:window-width="1920"
     inkscape:window-height="1011"
     inkscape:window-x="0"
     inkscape:window-y="0"
     inkscape:window-maximized="1"
     inkscape:current-layer="svg1" />
  <path
     d="M 501,580 770,566 Q 695,668 612,736 547,684 510.5,661 474,638 467,638 q -7,0 -15,9 -9,7 -9,15 0,9 12,15 29,17 60,40.5 Q 546,741 574,765 494,824 398.5,865.5 303,907 185,944 q -21,6 -21,17 0,11 18,11 2,0 5,-0.5 3,-0.5 7,-1.5 Q 326,938 438.5,891.5 551,845 648,769 q 97,-76 181,-193 2,-3 7,-8.5 5,-5.5 5,-12.5 0,-8 -13,-20 -13,-12 -32,-12 h -6 l -242,15 q 31,-29 44,-43 13,-14 16.5,-19.5 3.5,-5.5 3.5,-8.5 0,-9 -9,-18 -9,-9 -19.5,-14.5 Q 573,429 570,429 q -9,0 -12,11 -3,10 -7.5,16.5 -4.5,6.5 -9.5,14.5 -52,62 -123,123 -71,61 -162,114 -21,13 -21,23 0,7 10,7 3,0 8,-1 5,-1 11,-4 129,-59 237,-153 z"
     id="path2" />
  <path
     d="M 424,222 677,204 Q 640,250 601.5,289 563,328 523,360 471,316 436.5,292.5 402,269 391,269 q -7,0 -15,9 -9,7 -9,15 0,9 12,15 25,16 52.5,36.5 Q 459,365 485,388 413,440 332.5,480 252,520 157,558 q -20,9 -20,19 0,9 14,9 7,0 14,-3 86,-28 161.5,-60 75.5,-32 144,-73.5 68.5,-41.5 133,-99 Q 668,293 733,214 q 3,-4 8,-9 5,-5 5,-12 0,-12 -17,-22 -17,-10 -29,-10 h -6 l -222,17 q 16,-14 31,-30 15,-16 29,-32 3,-5 3,-8 0,-6 -8.5,-15 -8.5,-9 -19.5,-16 -11,-7 -18,-7 -7,0 -10,11 -1,7 -4,14 -3,7 -6,13 -29,43 -96,104 -67,61 -159,117 -19,12 -19,21 0,7 9,7 10,0 45,-18 35,-18 82.5,-49 47.5,-31 92.5,-68 z"
     id="path1"
     style="fill:#ff0000" />
</svg>
