<?xml version="1.0" encoding="UTF-8" standalone="no"?>
<svg
   version="1.1"
   viewBox="-10 0 1010 1000"
   id="svg1"
   sodipodi:docname="uni5929_KleeOne-Regular.svg"
   inkscape:version="1.4 (e7c3feb100, 2024-10-09)"
   xmlns:inkscape="http://www.inkscape.org/namespaces/inkscape"
   xmlns:sodipodi="http://sodipodi.sourceforge.net/DTD/sodipodi-0.dtd"
   xmlns="http://www.w3.org/2000/svg"
   xmlns:svg="http://www.w3.org/2000/svg">
  <defs
     id="defs1" />
  <sodipodi:namedview
     id="namedview1"
     pagecolor="#ffffff"
     bordercolor="#000000"
     borderopacity="0.25"
     inkscape:showpageshadow="2"
     inkscape:pageopacity="0.0"
     inkscape:pagecheckerboard="0"
     inkscape:deskcolor="#d1d1d1"
     inkscape:zoom="0.56568543"
     inkscape:cx="296.98485"
     inkscape:cy="533.86562"
     inkscape:window-width="1920"
     inkscape:window-height="1011"
     inkscape:window-x="0"
     inkscape:window-y="0"
     inkscape:window-maximized="1"
     inkscape:current-layer="svg1" />
  <path
     id="path3"
     d="m 463,453 -222,13 h -11 c -6.66667,0 -13.66667,-0.33333 -21,-1 -7.33333,-0.66667 -14.66667,-2 -22,-4 -1.33333,-0.66667 -3.33333,-1 -6,-1 -3.33333,0 -5,1.66667 -5,5 0,2.66667 2.16667,7.83333 6.5,15.5 4.33333,7.66667 10.16667,15.16667 17.5,22.5 7.33333,5.33333 16.33333,8 27,8 h 11.5 l 14.5,-1 199,-12 c -4.66667,17.33333 -10.83333,35.33333 -18.5,54 -7.66667,18.66667 -16.5,37.33333 -26.5,56 l -6,10 c -38.66667,63.33333 -84.66667,118.66667 -138,166 -53.33333,47.33333 -112,88 -176,122 -15.333333,7.33333 -23,15 -23,23 0,5.33333 4.333333,8 13,8 7.333333,0 21.333333,-4.33333 42,-13 20.66667,-8.66667 45.16667,-21.33333 73.5,-38 28.33333,-16.66667 58.16667,-37.33333 89.5,-62 31.33333,-24.66667 61.83333,-53 91.5,-85 29.66667,-32 55.83333,-67.83333 78.5,-107.5 22.66667,-39.66667 39.33333,-82.5 50,-128.5 l 42,-10 279,-14 c 8.66667,-1.33333 13,-6.33333 13,-15 0,-7.33333 -3,-13.66667 -9,-19 -6,-5.33333 -12.66667,-9.66667 -20,-13 -7.33333,-3.33333 -13,-5 -17,-5 -3.33333,0 -6,0.33333 -8,1 -10.66667,2.66667 -20.66667,4.5 -30,5.5 -9.33333,1 -18.33333,1.83333 -27,2.5 l -208,14"
     style="display:inline;fill:#ff0000"
     sodipodi:nodetypes="ccsscssscscccsccscssssssscccsssscscc" />
  <path
     id="path2"
     style="display:inline"
     d="m 517,450 c 4.66667,-29.33333 7.5,-59.16667 8.5,-89.5 1,-30.33333 1.5,-61.83333 1.5,-94.5 v -37 l -56,4 c 0,15.33333 0.16667,30.33333 0.5,45 0.33333,14.66667 0.5,29 0.5,43 0,22.66667 -0.66667,44.83333 -2,66.5 -1.33333,21.66667 -3.66667,43.5 -7,65.5 z m -15,53 c 27.33333,64.66667 62.16667,123.5 104.5,176.5 42.33333,53 89.16667,100.33333 140.5,142 51.33333,41.66667 104,78.16667 158,109.5 3.33333,2 6.33333,3 9,3 5.33333,0 11.5,-2.66667 18.5,-8 7,-5.33333 13.16667,-11.16667 18.5,-17.5 5.33333,-6.33333 8,-10.5 8,-12.5 0,-4 -3.66667,-8 -11,-12 C 857.33333,836.66667 778.33333,782.33333 711,721 643.66667,659.66667 588,583.66667 544,493 Z"
     sodipodi:nodetypes="cssccssscccsscsssscscc" />
  <path
     d="m 527,229 326,-20 c 8.66667,-1.33333 13,-6.33333 13,-15 0,-7.33333 -5.16667,-15.5 -15.5,-24.5 C 840.16667,160.5 830,156 820,156 c -2,0 -5,0.66667 -9,2 -18,4.66667 -36.66667,7.66667 -56,9 l -552,37 h -11 c -6.66667,0 -13.66667,-0.33333 -21,-1 -7.33333,-0.66667 -14.66667,-2 -22,-4 -0.66667,0 -1.33333,-0.16667 -2,-0.5 -0.66667,-0.33333 -1.66667,-0.5 -3,-0.5 -3.33333,0 -5,1.66667 -5,5 0,2.66667 0.33333,4.66667 1,6 2.66667,6.66667 5.83333,13.16667 9.5,19.5 3.66667,6.33333 7.83333,10.83333 12.5,13.5 4,2.66667 8.16667,4.5 12.5,5.5 4.33333,1 9.16667,1.5 14.5,1.5 h 11.5 l 14.5,-1 256,-15"
     id="path1"
     style="display:inline;fill:#ff0000" />
</svg>
