<?xml version="1.0" encoding="UTF-8" standalone="no"?>
<svg
   version="1.1"
   viewBox="-10 0 1010 1000"
   id="svg1"
   sodipodi:docname="uni5948_KleeOne-Regular.svg"
   inkscape:version="1.4 (e7c3feb100, 2024-10-09)"
   xmlns:inkscape="http://www.inkscape.org/namespaces/inkscape"
   xmlns:sodipodi="http://sodipodi.sourceforge.net/DTD/sodipodi-0.dtd"
   xmlns="http://www.w3.org/2000/svg"
   xmlns:svg="http://www.w3.org/2000/svg">
  <defs
     id="defs1" />
  <sodipodi:namedview
     id="namedview1"
     pagecolor="#ffffff"
     bordercolor="#000000"
     borderopacity="0.25"
     inkscape:showpageshadow="2"
     inkscape:pageopacity="0.0"
     inkscape:pagecheckerboard="0"
     inkscape:deskcolor="#d1d1d1"
     inkscape:zoom="0.8"
     inkscape:cx="505"
     inkscape:cy="500"
     inkscape:window-width="1920"
     inkscape:window-height="1011"
     inkscape:window-x="0"
     inkscape:window-y="0"
     inkscape:window-maximized="1"
     inkscape:current-layer="svg1" />
  <path
     d="m 817,883 q 10,0 19.5,-10.5 Q 846,862 846,852 846,844 838,836 828,826 807,807.5 786,789 760.5,767.5 735,746 710,726 685,706 666.5,693.5 648,681 642,681 q -11,0 -18,9 -7,9 -7,17 0,7 8,13 46,35 92.5,75.5 46.5,40.5 80.5,76.5 11,11 19,11 z"
     id="path5" />
  <path
     d="m 309,687 q -1,15 -24,49 -23,34 -61.5,75 -38.5,41 -86.5,78 -11,8 -11,17 0,8 10,8 7,0 40,-20 33,-20 81.5,-62.5 Q 306,789 357,723 q 2,-4 2,-6 0,-12 -15,-26 -15,-14 -26,-14 -9,0 -9,10 z"
     id="path4" />
  <path
     d="m 815,601 h 2 q 10,-2 10,-9 0,-11 -16.5,-24 -16.5,-13 -27.5,-13 -5,0 -7,1 -19,6 -51,8 l -490,23 h -8 q -22,0 -42,-5 -2,-1 -5,-1 -5,0 -5,5 0,6 7.5,17 7.5,11 13.5,16 9,8 33,8 h 14 l 228,-10 3,284 Q 444,893 417.5,883 391,873 366,863 q -19,-9 -30,-9 -8,0 -8,5 0,5 13.5,17 13.5,12 34,26 20.5,14 43,26.5 22.5,12.5 41,21 18.5,8.5 27.5,8.5 2,0 11,-3 9,-3 17.5,-11.5 8.5,-8.5 8.5,-24.5 0,-6 -0.5,-12.5 Q 523,900 523,891 l -3,-277 z"
     id="path3" />
  <path
     d="m 386,484 259,-13 q 17,-2 17,-10 0,-6 -7.5,-14 -7.5,-8 -17.5,-14.5 -10,-6.5 -17,-6.5 -3,0 -5,1 -8,4 -17.5,5.5 Q 588,434 577,435 l -202,10 h -6 q -10,0 -20.5,-2 -10.5,-2 -19.5,-5 -2,-1 -5,-1 -3,0 -3,4 0,3 1,5 9,26 23,32 14,6 30,6 z"
     id="path2" />
  <path
     d="m 529,271 c 33.33333,36.66667 68.16667,70.83333 104.5,102.5 36.33333,31.66667 71.66667,60 106,85 34.33333,25 65.33333,46.5 93,64.5 27.66667,18 50.16667,31.66667 67.5,41 17.33333,9.33333 27,14 29,14 2.66667,0 7.16667,-2.16667 13.5,-6.5 6.33333,-4.33333 12.5,-9.16667 18.5,-14.5 6,-5.33333 9,-9.33333 9,-12 0,-4 -3.66667,-7.66667 -11,-11 C 915,512.66667 869.83333,487.5 823.5,458.5 777.16667,429.5 733.16667,398.66667 691.5,366 649.83333,333.33333 612.66667,300.33333 580,267"
     id="path6" />
  <path
     d="m 580,267 234,-14 c 10.66667,0 16,-4 16,-12 0,-7.33333 -4.83333,-14.66667 -14.5,-22 -9.66667,-7.33333 -18.16667,-11 -25.5,-11 -2.66667,0 -4.66667,0.33333 -6,1 -6,2 -12.5,3.83333 -19.5,5.5 -7,1.66667 -13.83333,2.83333 -20.5,3.5 l -282,16 c 12.66667,-20 24.66667,-40.83333 36,-62.5 11.33333,-21.66667 23,-44.83333 35,-69.5 0,-0.66667 0.16667,-1.16667 0.5,-1.5 0.33333,-0.33333 0.5,-0.833333 0.5,-1.5 0,-3.333333 -1.5,-7.333333 -4.5,-12 -3,-4.666667 -8.5,-9 -16.5,-13 -10.66667,-6.666667 -20.66667,-10 -30,-10 -6.66667,0 -10,2.333333 -10,7 0,0.666667 0.16667,1.333333 0.5,2 0.33333,0.666667 0.5,1.333333 0.5,2 0.66667,2 1,4 1,6 v 6 l -3,15 c -2,10 -7.83333,24.16667 -17.5,42.5 -9.66667,18.33333 -26.5,49.16667 -50.5,92.5 l -184,11 c -2.66667,0 -5.5,0.16667 -8.5,0.5 -3,0.33333 -6.16667,0.5 -9.5,0.5 -10.66667,0 -21,-1 -31,-3 h -2 c -2.66667,0 -4,1.33333 -4,4 v 3 c 2,6 6.5,13.66667 13.5,23 7,9.33333 16.83333,14 29.5,14 3.33333,0 6.83333,-0.16667 10.5,-0.5 3.66667,-0.33333 7.83333,-0.5 12.5,-0.5 l 146,-9 C 336.33333,342.66667 291,398.16667 241,446.5 191,494.83333 133.33333,541.66667 68,587 c -14,9.33333 -21,17.66667 -21,25 0,4.66667 3.333333,7 10,7 6.666667,0 15.333333,-3.33333 26,-10 69.33333,-43.33333 133,-90.66667 191,-142 58,-51.33333 112,-115 162,-191 l 93,-5"
     id="path1"
     style="fill:#ff0000" />
</svg>
