<?xml version="1.0" encoding="UTF-8" standalone="no"?>
<svg
   version="1.1"
   viewBox="-10 0 1010 1000"
   id="svg1"
   sodipodi:docname="uni5973_KleeOne-Regular.svg"
   inkscape:version="1.4 (e7c3feb100, 2024-10-09)"
   xmlns:inkscape="http://www.inkscape.org/namespaces/inkscape"
   xmlns:sodipodi="http://sodipodi.sourceforge.net/DTD/sodipodi-0.dtd"
   xmlns="http://www.w3.org/2000/svg"
   xmlns:svg="http://www.w3.org/2000/svg">
  <defs
     id="defs1" />
  <sodipodi:namedview
     id="namedview1"
     pagecolor="#ffffff"
     bordercolor="#000000"
     borderopacity="0.25"
     inkscape:showpageshadow="2"
     inkscape:pageopacity="0.0"
     inkscape:pagecheckerboard="0"
     inkscape:deskcolor="#d1d1d1"
     inkscape:zoom="0.56568543"
     inkscape:cx="259.86174"
     inkscape:cy="578.05979"
     inkscape:window-width="1920"
     inkscape:window-height="1011"
     inkscape:window-x="0"
     inkscape:window-y="0"
     inkscape:window-maximized="1"
     inkscape:current-layer="svg1" />
  <path
     id="path8"
     style="display:inline;fill:#ff0000"
     d="m 279,601 c 0,3.33333 1,7.66667 3,13 5.33333,10.66667 11,16.33333 17,17 6,0.66667 11.66667,2.33333 17,5 44.66667,20.66667 97,48.33333 157,83 -38.66667,41.33333 -84.16667,77.66667 -136.5,109 -52.33333,31.33333 -114.16667,60 -185.5,86 -29.33333,10.66667 -44,21 -44,31 0,5.33333 6,8 18,8 6,0 18.83333,-2.5 38.5,-7.5 19.66667,-5 44,-12.83333 73,-23.5 29,-10.66667 60,-24.16667 93,-40.5 33,-16.33333 65.83333,-35.83333 98.5,-58.5 32.66667,-22.66667 62.66667,-48.66667 90,-78 48.66667,28.66667 97,59.16667 145,91.5 48,32.33333 90.33333,64.16667 127,95.5 9.33333,8 17,12 23,12 7.33333,0 14,-6.33333 20,-19 4,-7.33333 6,-13.33333 6,-18 0,-5.33333 -1.66667,-9.66667 -5,-13 -3.33333,-3.33333 -7.66667,-7 -13,-11 C 781.66667,854.33333 738.83333,825.33333 692.5,796 646.16667,766.66667 598.33333,737.66667 549,709 579.66667,671 606.66667,627.16667 630,577.5 653.33333,527.83333 674.33333,471.33333 693,408 l -60,3 c -16,56 -34.5,106.33333 -55.5,151 -21,44.66667 -45.83333,85 -74.5,121 -28.66667,-16 -57.33333,-31.5 -86,-46.5 -28.66667,-15 -57,-28.83333 -85,-41.5"
     sodipodi:nodetypes="ccsccscsssssscscscsscscsccscsc" />
  <path
     id="path1"
     style="display:inline"
     d="m 693,408 251,-13 c 8.66667,-1.33333 13,-6 13,-14 0,-7.33333 -3,-13.83333 -9,-19.5 -6,-5.66667 -12.66667,-10.33333 -20,-14 -7.33333,-3.66667 -13,-5.5 -17,-5.5 -2.66667,0 -5.33333,0.66667 -8,2 -9.33333,2.66667 -18.5,4.66667 -27.5,6 -9,1.33333 -18.83333,2.33333 -29.5,3 l -411,23 c 14.66667,-36 29.33333,-74.16667 44,-114.5 14.66667,-40.33333 29.33333,-83.83333 44,-130.5 v -3 c 0,-6 -3.5,-11.66667 -10.5,-17 -7,-5.33333 -14.83333,-9.66667 -23.5,-13 -8.66667,-3.333333 -15.66667,-5 -21,-5 -5.33333,0 -8,2.333333 -8,7 v 2 c 1.33333,2.66667 2,5.66667 2,9 v 10 c 0,8.66667 -3.33333,24.33333 -10,47 -6.66667,22.66667 -14.66667,47.66667 -24,75 -9.33333,27.33333 -18.66667,53.33333 -28,78 -9.33333,24.66667 -16.66667,44 -22,58 L 110,394 H 98 c -6.666667,0 -13.5,-0.33333 -20.5,-1 -7,-0.66667 -14.166667,-2 -21.5,-4 -0.666667,0 -1.333333,-0.16667 -2,-0.5 -0.666667,-0.33333 -1.666667,-0.5 -3,-0.5 -3.333333,0 -5,1.66667 -5,5 0,8 3.666667,16.33333 11,25 7.333333,8.66667 11.333333,13.33333 12,14 4.666667,4.66667 13.666667,7 27,7 h 11.5 l 14.5,-1 237,-12 c -12,28 -24.16667,55 -36.5,81 -12.33333,26 -24.83333,51 -37.5,75 -4,6.66667 -6,13 -6,19 l 53,-6 c 14.66667,-28 28.83333,-56.16667 42.5,-84.5 C 388.16667,482.16667 401.33333,453 414,423 l 219,-12"
     sodipodi:nodetypes="ccsssscsccscssssscsssssccsscsssssscccscccscc" />
</svg>
