<?xml version="1.0" encoding="UTF-8" standalone="no"?>
<svg
   version="1.1"
   viewBox="-10 0 1010 1000"
   id="svg1"
   sodipodi:docname="uni5974_KleeOne-Regular.svg"
   inkscape:version="1.4 (e7c3feb100, 2024-10-09)"
   xmlns:inkscape="http://www.inkscape.org/namespaces/inkscape"
   xmlns:sodipodi="http://sodipodi.sourceforge.net/DTD/sodipodi-0.dtd"
   xmlns="http://www.w3.org/2000/svg"
   xmlns:svg="http://www.w3.org/2000/svg">
  <defs
     id="defs1" />
  <sodipodi:namedview
     id="namedview1"
     pagecolor="#ffffff"
     bordercolor="#000000"
     borderopacity="0.25"
     inkscape:showpageshadow="2"
     inkscape:pageopacity="0.0"
     inkscape:pagecheckerboard="0"
     inkscape:deskcolor="#d1d1d1"
     inkscape:zoom="0.8"
     inkscape:cx="505"
     inkscape:cy="500"
     inkscape:window-width="1920"
     inkscape:window-height="1011"
     inkscape:window-x="0"
     inkscape:window-y="0"
     inkscape:window-maximized="1"
     inkscape:current-layer="svg1" />
  <path
     d="M 549,316 804,296 Q 785,370 754.5,441.5 724,513 686,580 652,527 622.5,472 593,417 568,363 q -2,-5 -8,-10 -6,-5 -13,-5 -2,0 -4.5,0.5 -2.5,0.5 -5.5,1.5 -14,5 -14,16 0,5 16,41.5 16,36.5 46.5,93 Q 616,557 659,625 607,707 545.5,779 484,851 421,907 408,918 402.5,927.5 397,937 397,943 q 0,8 8,8 13,0 57,-34 44,-34 104,-98 60,-64 121,-153 51,75 111,145 60,70 127,132 2,1 5,3 3,2 7,2 7,0 18,-5.5 11,-5.5 19.5,-13 8.5,-7.5 8.5,-12.5 0,-5 -6,-9 Q 900,849 834.5,776 769,703 715,624 762,549 799,467.5 836,386 858,302 q 1,-3 5,-9.5 4,-6.5 4,-13.5 0,-17 -15.5,-22.5 Q 836,251 828,251 h -8 l -283,19 h -12 q -10,0 -20.5,-1 -10.5,-1 -21.5,-3 h -4 q -7,0 -7,4 0,1 2,5 11,29 26.5,36 15.5,7 23.5,7 5,0 11.5,-0.5 Q 542,317 549,316 Z"
     id="path2"
     style="fill:#ff0000" />
  <path
     d="m 436,392 39,-9 q 27,-8 27,-19 0,-9 -16,-9 -4,0 -7.5,0.5 -3.5,0.5 -8.5,1.5 -14,4 -30,5 l 4,-33 v -1 q 0,-9 -10,-16 -10,-7 -22,-11 -12,-4 -18,-4 -8,0 -8,6 0,1 0.5,2 0.5,1 0.5,2 2,7 3.5,14.5 1.5,7.5 1.5,15.5 v 7.5 q 0,0 -1,8.5 -1,8.5 -1.5,11 l -0.5,6 q -32,5 -65,9.5 -33,4.5 -65,9.5 14,-57 26.5,-116.5 Q 298,213 308,148 v -2 q 0,-12 -17,-22 -17,-10 -34,-10 -10,0 -10,6 0,1 0.5,1.5 0.5,0.5 0.5,1.5 2,7 3,15.5 1,8.5 1,16.5 v 10 q -4,50 -15,108.5 -11,58.5 -25,120.5 -37,4 -77.5,7.5 Q 94,405 70,405 h -8 q 0,0 -8,-1 h -3 q -6,0 -6,4 0,1 0.5,1.5 0.5,0.5 0.5,1.5 5,21 24,35 7,4 18,4 10,0 27.5,-2 17.5,-2 36,-4.5 18.5,-2.5 32.5,-5 14,-2.5 17,-2.5 -7,29 -15.5,59 -8.5,30 -16.5,59 -4,12 -4,23 0,6 1,9 3,14 11.5,18.5 8.5,4.5 17.5,11.5 23,16 45.5,35 22.5,19 45.5,40 -38,58 -89,111 -51,53 -109,93 -10,7 -15,13.5 -5,6.5 -5,11.5 0,7 9,7 8,0 33,-13.5 25,-13.5 60,-39.5 35,-26 74,-64.5 39,-38.5 74,-89.5 45,42 94,94 4,4 8.5,7 4.5,3 8.5,3 1,0 14,-7.5 13,-7.5 13,-23.5 0,-10 -10,-19 -51,-48 -102,-93 24,-41 40.5,-80.5 Q 401,561 413.5,511 426,461 436,392 Z m -50,11 q -9,68 -26,129 -17,61 -51,120 -25,-21 -50.5,-41 -25.5,-20 -49.5,-38 11,-36 20.5,-72 9.5,-36 19.5,-73 32,-5 67,-11.5 35,-6.5 70,-13.5 z"
     id="path1" />
</svg>
