<?xml version="1.0" encoding="UTF-8" standalone="no"?>
<svg
   version="1.1"
   viewBox="-10 0 1010 1000"
   id="svg1"
   sodipodi:docname="uni5B87_KleeOne-Regular.svg"
   inkscape:version="1.4 (e7c3feb100, 2024-10-09)"
   xmlns:inkscape="http://www.inkscape.org/namespaces/inkscape"
   xmlns:sodipodi="http://sodipodi.sourceforge.net/DTD/sodipodi-0.dtd"
   xmlns="http://www.w3.org/2000/svg"
   xmlns:svg="http://www.w3.org/2000/svg">
  <defs
     id="defs1" />
  <sodipodi:namedview
     id="namedview1"
     pagecolor="#ffffff"
     bordercolor="#000000"
     borderopacity="0.25"
     inkscape:showpageshadow="2"
     inkscape:pageopacity="0.0"
     inkscape:pagecheckerboard="0"
     inkscape:deskcolor="#d1d1d1"
     inkscape:zoom="0.8"
     inkscape:cx="505"
     inkscape:cy="500"
     inkscape:window-width="1920"
     inkscape:window-height="1011"
     inkscape:window-x="0"
     inkscape:window-y="0"
     inkscape:window-maximized="1"
     inkscape:current-layer="svg1" />
  <path
     d="m 528,628 400,-18 q 12,-2 12,-14 0,-11 -9,-19.5 -9,-8.5 -19,-13.5 -10,-5 -14,-5 -3,0 -9,2 -16,5 -51,7 l -310,15 -1,-152 188,-11 q 17,-2 17,-12 0,-6 -13,-20 -13,-14 -27,-14 -2,0 -4,0.5 -2,0.5 -4,1.5 -8,3 -17,4 -9,1 -20,2 l -344,19 h -6 q -9,0 -19.5,-2 -10.5,-2 -19.5,-4 h -3 q -5,0 -5,4 0,3 1,5 9,29 22,34 13,5 23,5 h 18 l 160,-9 1,152 -346,17 h -8 q -20,0 -42,-5 h -3 q -7,0 -7,5 0,1 5.5,14.5 Q 80,630 90,638 q 11,8 36,8 h 11 l 338,-15 2,281 Q 449,904 413,890.5 377,877 351,863 q -17,-10 -28,-10 -7,0 -7,6 0,7 15,20.5 15,13.5 38,29 23,15.5 48,30 25,14.5 46,24 21,9.5 31,9.5 8,0 22.5,-8 14.5,-8 14.5,-39 0,-8 -0.5,-16 -0.5,-8 -0.5,-16 z"
     id="path2" />
  <path
     d="m 210,283 627,-33 q -13,32 -28,62 -15,30 -30,56 -13,23 -13,36 0,10 7,10 11,0 42.5,-37.5 Q 847,339 894,255 q 2,-5 7.5,-10.5 Q 907,239 907,232 907,222 895,213.5 883,205 869,205 h -8 l -338,18 1,-113 q 0,-9 -17.5,-17 -17.5,-8 -34.5,-8 -14,0 -14,7 0,4 2,6 10,15 10,29 l 1,99 -247,14 q 9,-29 10.5,-35 1.5,-6 1.5,-9 0,-6 -4,-11 -4,-5 -15,-9 -7,-3 -12,-3 -7,0 -10,4.5 -3,4.5 -5,12.5 -10,34 -24.5,72 -14.5,38 -31,72.5 Q 118,369 102,395 q -1,3 -2.5,6 -1.5,3 -1.5,6 0,7 11.5,17.5 11.5,10.5 22.5,10.5 10,0 14,-10 16,-29 33,-66.5 17,-37.5 31,-75.5 z"
     id="path1"
     style="fill:#ff0000" />
</svg>
