<?xml version="1.0" encoding="UTF-8" standalone="no"?>
<svg
   version="1.1"
   viewBox="-10 0 1010 1000"
   id="svg1"
   sodipodi:docname="uni5C13_KleeOne-Regular.svg"
   inkscape:version="1.4 (e7c3feb100, 2024-10-09)"
   xmlns:inkscape="http://www.inkscape.org/namespaces/inkscape"
   xmlns:sodipodi="http://sodipodi.sourceforge.net/DTD/sodipodi-0.dtd"
   xmlns="http://www.w3.org/2000/svg"
   xmlns:svg="http://www.w3.org/2000/svg">
  <defs
     id="defs1" />
  <sodipodi:namedview
     id="namedview1"
     pagecolor="#ffffff"
     bordercolor="#000000"
     borderopacity="0.25"
     inkscape:showpageshadow="2"
     inkscape:pageopacity="0.0"
     inkscape:pagecheckerboard="0"
     inkscape:deskcolor="#d1d1d1"
     inkscape:zoom="0.8"
     inkscape:cx="505"
     inkscape:cy="500"
     inkscape:window-width="1920"
     inkscape:window-height="1011"
     inkscape:window-x="0"
     inkscape:window-y="0"
     inkscape:window-maximized="1"
     inkscape:current-layer="svg1" />
  <path
     d="m 916,771 q 0,-7 -49,-83.5 Q 818,611 706,479 q -5,-5 -11,-5 -10,0 -23,10 -8,8 -8,18 0,6 5,13 51,61 102,130 51,69 93,143 6,11 17,11 11,0 23,-9 12,-9 12,-19 z"
     id="path3" />
  <path
     d="m 117,820 q 13,0 51.5,-35.5 Q 207,749 258,682.5 309,616 360,523 q 3,-6 3,-12 0,-11 -10,-20.5 -10,-9.5 -21.5,-15 Q 320,470 315,470 q -7,0 -8,7 -3,33 -29.5,86 Q 251,616 210,675.5 169,735 121,788 q -14,14 -14,24 0,8 10,8 z"
     id="path2" />
  <path
     d="m 547,323 312,-19 c 8.66667,-1.33333 13,-5.66667 13,-13 0,-6 -3,-12 -9,-18 -6,-6 -12.83333,-10.83333 -20.5,-14.5 -7.66667,-3.66667 -13.83333,-5.5 -18.5,-5.5 -3.33333,0 -6,0.33333 -8,1 -8.66667,2.66667 -17.5,5 -26.5,7 -9,2 -19.16667,3.33333 -30.5,4 l -430,27 c 20,-28.66667 39.16667,-57.83333 57.5,-87.5 18.33333,-29.66667 35.16667,-59.5 50.5,-89.5 0.66667,-0.66667 1,-2 1,-4 0,-6.66667 -3,-13.666667 -9,-21 -6,-7.333333 -12.66667,-13.666667 -20,-19 -7.33333,-5.333333 -13.66667,-8 -19,-8 -3.33333,0 -5.33333,1.666667 -6,5 -2.66667,20 -12,46.5 -28,79.5 -16,33 -36.83333,69.83333 -62.5,110.5 -25.66667,40.66667 -54.33333,82 -86,124 -31.66667,42 -64.5,82 -98.5,120 -8.66667,10.66667 -13,19.33333 -13,26 0,4.66667 2.333333,7 7,7 6,0 19,-8.5 39,-25.5 20,-17 43.5,-40.33333 70.5,-70 C 239.5,409.83333 267,376 295,338 l 198,-12"
     id="path4"
     style="fill:#ff0000" />
  <path
     d="m 493,326 -5,580 c -20.66667,-8 -42.83333,-17.66667 -66.5,-29 -23.66667,-11.33333 -45.16667,-22.33333 -64.5,-33 -4.66667,-3.33333 -9.16667,-5.5 -13.5,-6.5 -4.33333,-1 -8.16667,-1.5 -11.5,-1.5 -7.33333,0 -11,2.66667 -11,8 0,8.66667 10.33333,20.83333 31,36.5 20.66667,15.66667 57.33333,40.16667 110,73.5 8,4.66667 15.33333,8.5 22,11.5 6.66667,3 13,4.5 19,4.5 4,0 9.16667,-1.16667 15.5,-3.5 6.33333,-2.33333 12.16667,-7.16667 17.5,-14.5 5.33333,-7.33333 8,-18 8,-32 0,-4 -0.16667,-8.16667 -0.5,-12.5 -0.33333,-4.33333 -0.5,-8.83333 -0.5,-13.5 l 4,-571"
     id="path1" />
</svg>
