<?xml version="1.0" encoding="UTF-8" standalone="no"?>
<svg
   version="1.1"
   viewBox="-10 0 1010 1000"
   id="svg1"
   sodipodi:docname="uni5DDD_KleeOne-Regular.svg"
   inkscape:version="1.4 (e7c3feb100, 2024-10-09)"
   xmlns:inkscape="http://www.inkscape.org/namespaces/inkscape"
   xmlns:sodipodi="http://sodipodi.sourceforge.net/DTD/sodipodi-0.dtd"
   xmlns="http://www.w3.org/2000/svg"
   xmlns:svg="http://www.w3.org/2000/svg">
  <defs
     id="defs1" />
  <sodipodi:namedview
     id="namedview1"
     pagecolor="#ffffff"
     bordercolor="#000000"
     borderopacity="0.25"
     inkscape:showpageshadow="2"
     inkscape:pageopacity="0.0"
     inkscape:pagecheckerboard="0"
     inkscape:deskcolor="#d1d1d1"
     inkscape:zoom="0.8"
     inkscape:cx="505"
     inkscape:cy="500"
     inkscape:window-width="1920"
     inkscape:window-height="1011"
     inkscape:window-x="0"
     inkscape:window-y="0"
     inkscape:window-maximized="1"
     inkscape:current-layer="svg1" />
  <path
     fill="currentColor"
     d="M740 917v5q0 16 16 25.5t26 9.5q14 0 14 -14l-1 -800q0 -11 -26 -23q-7 -2 -14.5 -4t-12.5 -2q-8 0 -8 5l0.5 0.5t0.5 1.5q6 16 7 27t1 27l2 634q0 34 -1 61t-4 47zM275 272v-89q0 -7 -10 -13t-22.5 -10t-20.5 -4q-9 0 -9 6q0 3 1 5q5 13 7.5 26.5t2.5 24.5 q0 20 0.5 42.5t0.5 48.5q0 101 -5.5 182t-21.5 149.5t-47.5 131t-83.5 127.5q-10 13 -10 22q0 10 9 10q5 0 11.5 -3.5t14.5 -12.5q64 -63 101 -128.5t54.5 -140t22.5 -166.5t5 -208zM472 229l3 451q0 35 -1 59t-6 44q0 1 -0.5 2.5t-0.5 3.5q0 12 9 19.5t19.5 10.5t13.5 3 q15 0 15 -14l-1 -611q0 -11 -15.5 -19.5t-35.5 -8.5q-9 0 -9 4l0.5 0.5t0.5 1.5q5 16 6.5 27t1.5 27z"
     id="path1"
     style="fill:#ff0000" />
</svg>
