<?xml version="1.0" encoding="UTF-8" standalone="no"?>
<svg
   version="1.1"
   viewBox="-10 0 1010 1000"
   id="svg1"
   sodipodi:docname="uni5DF1_KleeOne-Regular.svg"
   inkscape:version="1.4 (e7c3feb100, 2024-10-09)"
   xmlns:inkscape="http://www.inkscape.org/namespaces/inkscape"
   xmlns:sodipodi="http://sodipodi.sourceforge.net/DTD/sodipodi-0.dtd"
   xmlns="http://www.w3.org/2000/svg"
   xmlns:svg="http://www.w3.org/2000/svg">
  <defs
     id="defs1" />
  <sodipodi:namedview
     id="namedview1"
     pagecolor="#ffffff"
     bordercolor="#000000"
     borderopacity="0.25"
     inkscape:showpageshadow="2"
     inkscape:pageopacity="0.0"
     inkscape:pagecheckerboard="0"
     inkscape:deskcolor="#d1d1d1"
     inkscape:zoom="0.32393135"
     inkscape:cx="33.957812"
     inkscape:cy="506.28011"
     inkscape:window-width="1920"
     inkscape:window-height="1011"
     inkscape:window-x="0"
     inkscape:window-y="0"
     inkscape:window-maximized="1"
     inkscape:current-layer="svg1" />
  <path
     d="m 229,481 c 1.33333,7.33333 2,15.66667 2,25 l -6,302 v 3 c 0,26 6.5,47.33333 19.5,64 13,16.66667 31.5,26 55.5,28 39.33333,2.66667 77.83333,4.66667 115.5,6 37.66667,1.33333 74.5,2 110.5,2 54,0 106.66667,-1.5 158,-4.5 51.33333,-3 101.66667,-7.16667 151,-12.5 15.33333,-2 28.33333,-5.66667 39,-11 10.66667,-5.33333 19.83333,-15.16667 27.5,-29.5 7.66667,-14.33333 13.66667,-35.66667 18,-64 C 923.83333,761.16667 927,723 929,675 v -11 c 0,-26 -4.33333,-39 -13,-39 -4,0 -8.16667,4 -12.5,12 -4.33333,8 -7.5,19.66667 -9.5,35 -2.66667,20.66667 -6.16667,41.5 -10.5,62.5 -4.33333,21 -10.16667,43.83333 -17.5,68.5 -4.66667,14.66667 -10.5,24.66667 -17.5,30 -7,5.33333 -17.83333,9 -32.5,11 -47.33333,6 -95.33333,10.33333 -144,13 -48.66667,2.66667 -97,4 -145,4 -34.66667,0 -69,-0.66667 -103,-2 -34,-1.33333 -67.66667,-3.33333 -101,-6 -18,-1.33333 -30,-6.66667 -36,-16 -6,-9.33333 -9,-22.66667 -9,-40 l 4,-285"
     id="path2" />
  <path
     d="m 282,512 443,-23 c 12.66667,-1.33333 19,-5.33333 19,-12 0,-8 -7.66667,-19.66667 -23,-35 l 27,-219 c 0.66667,-2 1.5,-4.66667 2.5,-8 1,-3.33333 1.5,-7 1.5,-11 0,-8 -3.83333,-14.83333 -11.5,-20.5 -7.66667,-5.66667 -17.16667,-8.5 -28.5,-8.5 h -4 l -462,29 c -2.66667,0 -5.16667,0.16667 -7.5,0.5 -2.33333,0.33333 -4.83333,0.5 -7.5,0.5 -10.66667,0 -21.33333,-1.33333 -32,-4 h -4 c -3.33333,0 -5,1.33333 -5,4 0,6.66667 4,16 12,28 8,12 18.66667,18 32,18 3.33333,0 6.66667,-0.16667 10,-0.5 3.33333,-0.33333 7,-0.5 11,-0.5 l 438,-28 -22,223 -386,20 c -26.66667,-14.66667 -45.33333,-22 -56,-22 -7.33333,0 -11,2.66667 -11,8 0,2.66667 1,5.66667 3,9 4,6.66667 6.66667,13.66667 8,21"
     id="path1"
     style="fill:#ff0000" />
</svg>
