<?xml version="1.0" encoding="UTF-8" standalone="no"?>
<svg
   version="1.1"
   viewBox="-10 0 1010 1000"
   id="svg1"
   sodipodi:docname="uni5E7E_KleeOne-Regular.svg"
   inkscape:version="1.4 (e7c3feb100, 2024-10-09)"
   xmlns:inkscape="http://www.inkscape.org/namespaces/inkscape"
   xmlns:sodipodi="http://sodipodi.sourceforge.net/DTD/sodipodi-0.dtd"
   xmlns="http://www.w3.org/2000/svg"
   xmlns:svg="http://www.w3.org/2000/svg">
  <defs
     id="defs1" />
  <sodipodi:namedview
     id="namedview1"
     pagecolor="#ffffff"
     bordercolor="#000000"
     borderopacity="0.25"
     inkscape:showpageshadow="2"
     inkscape:pageopacity="0.0"
     inkscape:pagecheckerboard="0"
     inkscape:deskcolor="#d1d1d1"
     inkscape:zoom="0.8"
     inkscape:cx="432.5"
     inkscape:cy="585"
     inkscape:window-width="1920"
     inkscape:window-height="1011"
     inkscape:window-x="0"
     inkscape:window-y="0"
     inkscape:window-maximized="1"
     inkscape:current-layer="svg1" />
  <path
     d="m 783,567 q 9,0 12,-12 3,-12 3,-13 0,-7 -6.5,-12 -6.5,-5 -29,-12.5 Q 740,510 690,497 q -2,-1 -5,-1 -10,0 -15,15 -1,2 -1,7 0,12 12,15 24,7 47,15 23,8 42,16 8,3 13,3 z"
     id="path4"
     style="display:inline" />
  <path
     d="m 146,505 v 2 q 5,14 16.5,26.5 11.5,12.5 24.5,12.5 14,0 45,-7 31,-7 67,-17 36,-10 67.5,-19 31.5,-9 44.5,-13 9,15 19,34 7,13 15,13 8,0 17.5,-8.5 Q 472,520 472,514 472,506 460.5,486.5 449,467 433,444.5 417,422 404,406 q -9,-9 -16,-9 -4,0 -13,5 -9,5 -9,13 0,4 6,13 5,7 11,15.5 6,8.5 12,18.5 -37,9 -71.5,16 -34.5,7 -68.5,13 28,-34 55.5,-69.5 27.5,-35.5 50,-67 22.5,-31.5 36,-53 Q 410,280 410,275 q 0,-6 -7.5,-16 -7.5,-10 -16.5,-18 -9,-8 -16,-8 -6,0 -6,9 0,13 -3,23 -3,10 -12.5,26.5 Q 339,308 318,341 l -61,-37 q 23,-35 45.5,-75 22.5,-40 43.5,-84 0,-1 0.5,-2 0.5,-1 0.5,-2 0,-6 -8.5,-15 -8.5,-9 -18.5,-15.5 -10,-6.5 -15,-6.5 -6,0 -6,7 v 9 q 0,16 -10.5,43 -10.5,27 -24,55 Q 251,246 240,265.5 229,285 227,288 214,281 201,274.5 188,268 183,268 q -10,0 -16,16 -1,3 -1.5,5.5 -0.5,2.5 -0.5,4.5 0,11 15,17 25,11 54.5,27.5 Q 264,355 295,375 276,403 254.5,434.5 233,466 208,499 l -5.5,0.5 q 0,0 -10.5,1.5 -7,1 -12.5,1 H 169 161 q 0,0 -9,-1 h -2 q -4,0 -4,4 z"
     id="path3"
     style="display:inline" />
  <path
     d="m 554,464 h -2 q -5,0 -5,4 v 0.5 q 0,0 1,1.5 9,22 20,31.5 11,9.5 20,9.5 9,0 32.5,-5.5 23.5,-5.5 55,-14 Q 707,483 739,474 q 32,-9 56,-17 19,34 23.5,40.5 4.5,6.5 9.5,6.5 l 7,-2.5 q 0,0 14,-8 14,-8 7,-13.5 0,-7 -12,-27 -12,-20 -28.5,-43 -16.5,-23 -28.5,-37 -7,-9 -17,-9 -9,0 -14.5,6.5 -5.5,6.5 -5.5,11.5 0,2 3.5,8.5 3.5,6.5 24.5,38.5 -36,8 -68,14.5 -32,6.5 -63,11.5 39,-47 73.5,-94 34.5,-47 71.5,-103 1,-1 1,-5 0,-6 -8,-16.5 -8,-10.5 -18,-19 -10,-8.5 -17,-8.5 -5,0 -5,8 v 5 q 0,2 0.5,4 0.5,2 0.5,4 0,5 -2.5,12.5 Q 741,250 731,268 721,286 697,324 663,300 631,282 655,244 675.5,206.5 696,169 714,131 q 1,-1 1,-4 0,-5 -8,-14 -8,-9 -18,-16 -10,-7 -16,-7 -5,0 -5,10 v 7 q 0,16 -12,45.5 -12,29.5 -27.5,60 Q 613,243 600,265 581,255 575.5,253.5 570,252 569,252 q -10,0 -13.5,9.5 -3.5,9.5 -3.5,15.5 0,10 14,18 25,12 51.5,27 26.5,15 57.5,35 -16,25 -34.5,51 -18.5,26 -39.5,55 -6,1 -14,2 -8,1 -16,1 -4,0 -8.5,-0.5 Q 558,465 554,464 Z"
     id="path2"
     style="display:inline" />
  <path
     style="display:inline;fill:#ff0000"
     d="m 346,632 185,-9 c 11.33333,30 24,57.5 38,82.5 14,25 28.33333,48.16667 43,69.5 -34,23.33333 -69.66667,44.66667 -107,64 -37.33333,19.33333 -76,36.66667 -116,52 -22,8.66667 -33,17 -33,25 0,5.33333 5.33333,8 16,8 5.33333,0 21.33333,-4.16667 48,-12.5 26.66667,-8.33333 59.5,-21 98.5,-38 39,-17 79.16667,-38.83333 120.5,-65.5 28.66667,34.66667 56.33333,62.33333 83,83 26.66667,20.66667 50.66667,36 72,46 21.33333,10 39.33333,16.66667 54,20 14.66667,3.33333 24.33333,5 29,5 10.66667,0 20,-3.5 28,-10.5 8,-7 13,-17.83333 15,-32.5 4.66667,-28.66667 8.66667,-57 12,-85 3.33333,-28 6.33333,-55 9,-81 0.66667,-2.66667 1,-5.16667 1,-7.5 V 739 c 0,-20 -4,-30 -12,-30 -8,0 -14.66667,13 -20,39 -4.66667,25.33333 -10.33333,50.5 -17,75.5 -6.66667,25 -14.33333,50.83333 -23,77.5 -0.66667,2.66667 -3,4 -7,4 -0.66667,0 -1.33333,-0.16667 -2,-0.5 -0.66667,-0.33333 -1.33333,-0.5 -2,-0.5 -66.66667,-16.66667 -127.33333,-57.33333 -182,-122 19.33333,-14 38.83333,-29 58.5,-45 19.66667,-16 38.83333,-33.33333 57.5,-52 1.33333,-1.33333 2,-4 2,-8 0,-8 -2.5,-15.33333 -7.5,-22 -5,-6.66667 -10.16667,-12 -15.5,-16 -5.33333,-4 -9,-6 -11,-6 -2.66667,0 -5,3.33333 -7,10 -2,6.66667 -4.16667,12 -6.5,16 -2.33333,4 -4.83333,7.66667 -7.5,11 -28.66667,28 -58.66667,54 -90,78 -28,-38 -51.66667,-80.33333 -71,-127 l 311,-15 c 9.33333,-1.33333 14,-5.33333 14,-12 0,-8 -5.16667,-15 -15.5,-21 -10.33333,-6 -18.16667,-9 -23.5,-9 -4,0 -6.66667,0.33333 -8,1 l -17.5,3.5 -19.5,2.5 -255,12 -9,-30 C 546,517.66667 537.16667,475.83333 529.5,427.5 521.83333,379.16667 515.66667,326.83333 511,270.5 506.33333,214.16667 502.66667,156.66667 500,98 500,89.333333 496.33333,83 489,79 481.66667,75 474,72.166667 466,70.5 458,68.833333 452.33333,68 449,68 c -7.33333,0 -11,1.666667 -11,5 0,2 0.33333,3.333333 1,4 4,8.666667 7.5,16.5 10.5,23.5 3,7 4.83333,16.5 5.5,28.5 4,76.66667 10,150.66667 18,222 8,71.33333 21.66667,145.33333 41,222 0.66667,2.66667 1.5,5.33333 2.5,8 l 1.5,4 -370,18 h -10 c -11.33333,0 -22,-1.33333 -32,-4 h -3 c -2.66667,0 -4,1 -4,3 0,4.66667 2.16667,10.16667 6.5,16.5 4.33333,6.33333 8.5,12.16667 12.5,17.5 4,4 11,6 21,6 2.66667,0 5.66667,-0.16667 9,-0.5 3.33333,-0.33333 6.66667,-0.5 10,-0.5 l 133,-6"
     id="path69" />
  <path
     style="display:inline"
     d="m 291,635 c -16.66667,52 -39.66667,99.66667 -69,143 -29.33333,43.33333 -63.66667,81.66667 -103,115 -12,10 -18,18.66667 -18,26 0,5.33333 3.33333,8 10,8 7.33333,0 19,-5.33333 35,-16 16,-10.66667 33.83333,-25.5 53.5,-44.5 19.66667,-19 39.5,-41.33333 59.5,-67 20,-25.66667 37.33333,-53.5 52,-83.5 23.33333,14.66667 46,30.83333 68,48.5 22,17.66667 40.33333,33.16667 55,46.5 4,4 8.33333,6 13,6 6.66667,0 12.33333,-5 17,-15 4,-7.33333 6,-13.33333 6,-18 0,-7.33333 -3,-13 -9,-17 C 443.66667,753 423.16667,738.16667 399.5,722.5 375.83333,706.83333 352,692.33333 328,679 c 6.66667,-14 12.66667,-29.66667 18,-47"
     id="path1" />
</svg>
