<?xml version="1.0" encoding="UTF-8" standalone="no"?>
<svg
   version="1.1"
   viewBox="-10 0 1010 1000"
   id="svg1"
   sodipodi:docname="uni6563_KleeOne-Regular.svg"
   inkscape:version="1.4 (e7c3feb100, 2024-10-09)"
   xmlns:inkscape="http://www.inkscape.org/namespaces/inkscape"
   xmlns:sodipodi="http://sodipodi.sourceforge.net/DTD/sodipodi-0.dtd"
   xmlns="http://www.w3.org/2000/svg"
   xmlns:svg="http://www.w3.org/2000/svg">
  <defs
     id="defs1" />
  <sodipodi:namedview
     id="namedview1"
     pagecolor="#ffffff"
     bordercolor="#000000"
     borderopacity="0.25"
     inkscape:showpageshadow="2"
     inkscape:pageopacity="0.0"
     inkscape:pagecheckerboard="0"
     inkscape:deskcolor="#d1d1d1"
     inkscape:zoom="0.8"
     inkscape:cx="505"
     inkscape:cy="500"
     inkscape:window-width="1920"
     inkscape:window-height="1011"
     inkscape:window-x="0"
     inkscape:window-y="0"
     inkscape:window-maximized="1"
     inkscape:current-layer="svg1" />
  <path
     d="m 415,764 v 127 q -23,-9 -44,-18 -21,-9 -41,-21 -9,-6 -16,-8.5 -7,-2.5 -12,-2.5 -8,0 -8,6 0,9 16.5,25 16.5,16 39.5,33 23,17 44,28.5 21,11.5 31,11.5 11,0 24,-9 13,-9 13,-36 0,-8 -0.5,-15.5 Q 461,877 461,870 l -3,-336 q 0,-4 1,-7 1,-3 1,-7 0,-13 -12,-20.5 -12,-7.5 -23,-7.5 -3,0 -6,0.5 -3,0.5 -6,0.5 l -209,12 q -19,-8 -30,-11.5 -11,-3.5 -17,-3.5 -8,0 -8,7 0,1 0.5,3.5 0.5,2.5 1.5,5.5 8,22 8,50 l -6,317 q 0,10 -2,24.5 -2,14.5 -4,27.5 -1,2 -1,6 0,10 15.5,18.5 15.5,8.5 22.5,8.5 7,0 9,-4.5 2,-4.5 2,-8.5 l 2,-172 z m -1,-231 v 77 l -215,11 1,-76 z m 0,114 1,79 -217,10 1,-78 z"
     id="path3"
     style="display:inline" />
  <path
     d="m 831,384 84,-6 q 16,-2 16,-11 0,-8 -13,-22 -13,-14 -27,-14 -3,0 -5.5,0.5 -2.5,0.5 -5.5,1.5 -8,4 -18,5.5 -10,1.5 -21,2.5 l -201,14 q 20,-50 38,-98.5 18,-48.5 32,-91.5 0,-1 0.5,-2 0.5,-1 0.5,-2 0,-14 -18,-27 -18,-13 -32,-13 -6,0 -6,5 v 3 q 1,3 1,6 v 6 q 0,7 -1,13.5 -1,6.5 -2,12.5 -13,58 -36,127 -23,69 -52,137.5 -29,68.5 -61,127.5 -10,19 -10,30 0,9 6,9 8,0 21.5,-17.5 13.5,-17.5 28,-42 Q 564,514 576.5,490 589,466 595,453 615,512 639.5,565 664,618 692,666 653,742 601.5,807 550,872 488,928 q -19,16 -19,26 0,6 8,6 9,0 34.5,-16.5 Q 537,927 572.5,895 608,863 646.5,816.5 685,770 720,710 q 25,39 58,81 33,42 65,77.5 32,35.5 56,58 24,22.5 31,22.5 5,0 13.5,-4.5 8.5,-4.5 24.5,-17.5 4,-3 4,-7 0,-5 -7,-11 Q 901,859 844.5,798.5 788,738 742,667 772,606 793.5,534.5 815,463 831,384 Z M 621,397 780,387 Q 759,515 715,619 687,569 663,514.5 639,460 619,402 Z"
     id="path2"
     style="display:inline" />
  <path
     id="path12"
     style="display:inline;fill:#ff0000"
     d="m 392,386 5,-102 108,-7 c 10,-1.33333 15,-5.66667 15,-13 0,-8 -5,-15 -15,-21 -10,-6 -17.66667,-9 -23,-9 -2,0 -3.66667,0.33333 -5,1 -5.33333,2 -11.16667,3.66667 -17.5,5 -6.33333,1.33333 -13.5,2.33333 -21.5,3 l -39,2 5,-117 c 0,-8 -3.83333,-14 -11.5,-18 -7.66667,-4 -15.33333,-6.66667 -23,-8 L 358,100 c -6,0 -9,1.66667 -9,5 0,2 0.33333,3.33333 1,4 3.33333,6.66667 5.33333,12.5 6,17.5 0.66667,5 1,10.83333 1,17.5 v 10 l -3,94 -106,7 -2,-107 c 0,-8 -5.83333,-14 -17.5,-18 -11.66667,-4 -21.16667,-6 -28.5,-6 -6,0 -9,2 -9,6 0,0.66667 0.66667,2.33333 2,5 3.33333,6 5.33333,12.66667 6,20 0.66667,7.33333 1.33333,15 2,23 l 3,80 -54,3 c -2.66667,0 -5.33333,0.16667 -8,0.5 -2.66667,0.33333 -5.33333,0.5 -8,0.5 -8.66667,0 -18,-1 -28,-3 h -3 c -3.333333,0 -5,1 -5,3 0,2 1.5,6.16667 4.5,12.5 3,6.33333 7.5,12.16667 13.5,17.5 6,5.33333 13.66667,8 23,8 3.33333,0 6.83333,-0.16667 10.5,-0.5 3.66667,-0.33333 7.83333,-0.5 12.5,-0.5 l 43,-3 4,100 m 42,-2 -2,-101 103,-6 -3,101 m 0,0 -98,6" />
  <path
     style="display:inline"
     d="m 209,396 -102,6 H 96 c -10,0 -21.666667,-1 -35,-3 h -3 c -3.333333,0 -5,1 -5,3 0,1.33333 0.333333,2.66667 1,4 5.333333,18.66667 13,29.5 23,32.5 10,3 16.333333,4.5 19,4.5 3.333333,0 7,-0.16667 11,-0.5 4,-0.33333 8.33333,-0.5 13,-0.5 l 421,-24 c 10,-1.33333 15,-5.33333 15,-12 0,-8 -5.16667,-15.5 -15.5,-22.5 -10.33333,-7 -17.83333,-10.5 -22.5,-10.5 -2,0 -5,0.66667 -9,2 -6,1.33333 -11.83333,2.5 -17.5,3.5 -5.66667,1 -12.16667,1.83333 -19.5,2.5 l -80,5"
     id="path1" />
</svg>
