<?xml version="1.0" encoding="UTF-8" standalone="no"?>
<svg
   version="1.1"
   viewBox="-10 0 1010 1000"
   id="svg1"
   sodipodi:docname="uni65BC_KleeOne-Regular.svg"
   inkscape:version="1.4 (e7c3feb100, 2024-10-09)"
   xmlns:inkscape="http://www.inkscape.org/namespaces/inkscape"
   xmlns:sodipodi="http://sodipodi.sourceforge.net/DTD/sodipodi-0.dtd"
   xmlns="http://www.w3.org/2000/svg"
   xmlns:svg="http://www.w3.org/2000/svg">
  <defs
     id="defs1" />
  <sodipodi:namedview
     id="namedview1"
     pagecolor="#ffffff"
     bordercolor="#000000"
     borderopacity="0.25"
     inkscape:showpageshadow="2"
     inkscape:pageopacity="0.0"
     inkscape:pagecheckerboard="0"
     inkscape:deskcolor="#d1d1d1"
     inkscape:zoom="0.8"
     inkscape:cx="505"
     inkscape:cy="500"
     inkscape:window-width="1920"
     inkscape:window-height="1011"
     inkscape:window-x="0"
     inkscape:window-y="0"
     inkscape:window-maximized="1"
     inkscape:current-layer="svg1" />
  <path
     d="m 806,953 q 8,0 20,-10.5 Q 838,932 838,919 838,909 826,897 771,849 710.5,800.5 650,752 594,712 q -8,-5 -13,-5 -13,0 -19.5,11 -6.5,11 -6.5,15 0,7 12,17 54,43 111.5,93 57.5,50 112.5,103 9,7 15,7 z"
     id="path4" />
  <path
     d="m 808,646 q 5,-6 5,-15 0,-13 -15,-25 -36,-27 -74,-52 -38,-25 -66,-41.5 -28,-16.5 -35,-16.5 -10,0 -19,16 -4,5 -4,11 0,10 13,18 38,24 78,54 40,30 78,63 8,6 15,6 12,0 24,-18 z"
     id="path3" />
  <path
     d="m 305,871 h -2 q -22,-11 -43,-27 -21,-16 -38,-29 -20,-16 -31,-16 -7,0 -7,7 0,7 15,27.5 15,20.5 37,44 22,23.5 42.5,40 20.5,16.5 31.5,16.5 6,0 12.5,-3 6.5,-3 13.5,-7 17,-10 23.5,-30.5 Q 366,873 372,850 383,811 393.5,751 404,691 413,625 q 9,-66 14,-122 1,-5 3.5,-9.5 2.5,-4.5 2.5,-10.5 0,-11 -12,-21 -12,-10 -27,-10 h -7 l -136,11 q 5,-29 9,-59.5 4,-30.5 7,-61.5 l 237,-16 q 16,-2 16,-14 0,-10 -13.5,-22 -13.5,-12 -24.5,-12 -4,0 -12,3 -10,4 -17.5,5 -7.5,1 -18.5,2 l -128,9 1,-156 q 0,-6 -6,-10.5 -6,-4.5 -23,-8.5 -12,-3 -21,-3 -14,0 -14,6 0,4 2,6 11,13 11,29 l 2,140 -150,10 H 97 q -9,0 -18.5,-1 -9.5,-1 -17.5,-3 -1,-1 -4,-1 -4,0 -4,5 0,2 4,13.5 4,11.5 16,21.5 5,5 10,6.5 5,1.5 12,1.5 4,0 9,-0.5 5,-0.5 10,-0.5 l 100,-7 Q 202,496 160.5,631.5 119,767 60,873 q -11,22 -11,32 0,9 7,9 10,0 33,-30 23,-30 52,-84.5 29,-54.5 57,-129.5 28,-75 46,-165 l 134,-9 Q 367,628 348,724.5 329,821 312,867 q -1,4 -7,4 z"
     id="path2"
     style="fill:#ff0000" />
  <path
     d="m 645,92 v 2 q 3,12 3,24 0,10 -7.5,43 -7.5,33 -23,81.5 Q 602,291 578,349.5 554,408 522.5,468.5 491,529 450,585 q -13,17 -13,28 0,7 6,7 11,0 47,-41.5 Q 526,537 573.5,458 621,379 665,264 q 28,43 62,87.5 34,44.5 68.5,85.5 34.5,41 65,74 30.5,33 50.5,52 20,19 24,19 2,0 12.5,-4.5 10.5,-4.5 21,-11 Q 979,560 979,555 979,548 971,543 887,470 815.5,389 744,308 683,214 q 17,-47 30,-93 0,-1 0.5,-2 0.5,-1 0.5,-2 0,-13 -19,-22.5 -19,-9.5 -38,-9.5 -12,0 -12,7 z"
     id="path1" />
</svg>
