<?xml version="1.0" encoding="UTF-8" standalone="no"?>
<svg
   version="1.1"
   viewBox="-10 0 1010 1000"
   id="svg1"
   sodipodi:docname="uni66FD_KleeOne-Regular.svg"
   inkscape:version="1.4 (e7c3feb100, 2024-10-09)"
   xmlns:inkscape="http://www.inkscape.org/namespaces/inkscape"
   xmlns:sodipodi="http://sodipodi.sourceforge.net/DTD/sodipodi-0.dtd"
   xmlns="http://www.w3.org/2000/svg"
   xmlns:svg="http://www.w3.org/2000/svg">
  <defs
     id="defs1" />
  <sodipodi:namedview
     id="namedview1"
     pagecolor="#ffffff"
     bordercolor="#000000"
     borderopacity="0.25"
     inkscape:showpageshadow="2"
     inkscape:pageopacity="0.0"
     inkscape:pagecheckerboard="0"
     inkscape:deskcolor="#d1d1d1"
     inkscape:zoom="0.8"
     inkscape:cx="505"
     inkscape:cy="500"
     inkscape:window-width="1920"
     inkscape:window-height="1011"
     inkscape:window-x="0"
     inkscape:window-y="0"
     inkscape:window-maximized="1"
     inkscape:current-layer="svg1" />
  <path
     d="m 328,929 393,-8 q 6,0 11.5,-2 5.5,-2 5.5,-8 0,-11 -22,-33 l 17,-234 q 1,-5 3.5,-9.5 2.5,-4.5 2.5,-8.5 0,-7 -10.5,-17 Q 718,599 699,599 h -9 l -371,15 q -42,-16 -54,-16 -8,0 -8,6 0,3 2,9 8,23 10,51 l 8,217 v 14 q 0,11 -0.5,23 -0.5,12 -1.5,23 v 3 q 0,6 4.5,10.5 4.5,4.5 17.5,12.5 12,6 18,6 8,0 11,-5 3,-5 3,-12 z m 353,-290 -5,92 -355,12 -3,-89 z m -8,132 -6,109 -340,7 -4,-104 z"
     id="path3"
     style="display:inline" />
  <path
     d="m 419,224 q 12,-11 12,-21 0,-6 -11.5,-19.5 Q 408,170 390.5,153 373,136 354,120.5 335,105 320,95 305,85 300,85 q -4,0 -14.5,8 -10.5,8 -10.5,17 0,4 3,7.5 3,3.5 7,6.5 25,19 52.5,45.5 27.5,26.5 45.5,49.5 10,13 18,13 7,0 18,-8 z"
     id="path2"
     style="display:inline;fill:#ff0000" />
  <path
     id="path8"
     style="display:inline"
     d="m 510,228 -296,18 c -32.66667,-12 -53,-18 -61,-18 -5.33333,0 -8,2 -8,6 0,3.33333 1.66667,8.33333 5,15 3.33333,6.66667 5.83333,15 7.5,25 1.66667,10 2.83333,19.66667 3.5,29 l 19,183 c 0.66667,4 1,7.66667 1,11 v 10 c 0,5.33333 -0.16667,10.33333 -0.5,15 -0.33333,4.66667 -0.83333,8.66667 -1.5,12 0,1.33333 -0.16667,2.5 -0.5,3.5 -0.33333,1 -0.5,2.16667 -0.5,3.5 0,8.66667 5.66667,15.83333 17,21.5 11.33333,5.66667 19.33333,8.5 24,8.5 8.66667,0 13,-5 13,-15 v -3 l -1,-10 572,-26 c 13.33333,-1.33333 20,-5.33333 20,-12 0,-8 -8.33333,-17.66667 -25,-29 l 33,-214 3.5,-7 2.5,-12 c 0,-5.33333 -3.66667,-12 -11,-20 -7.33333,-8 -19,-12 -35,-12 l -219,13 m 207,30 -11,90 -254,13 1,-87 z m -311,19 -1,86 -251,13 -7,-83 z m 295,111 -11,95 -240,11 1,-93 z m -297,15 -1,93 -238,11 -7,-92 z" />
  <path
     style="display:inline;fill:#ff0000"
     d="m 572,224 c 20.66667,-14.66667 41.83333,-31.33333 63.5,-50 21.66667,-18.66667 40.5,-36 56.5,-52 2.66667,-2.66667 4,-6.66667 4,-12 0,-9.33333 -4.5,-19.833333 -13.5,-31.5 C 673.5,66.833333 665,61 657,61 c -4,0 -6.33333,2.333333 -7,7 -0.66667,4.666667 -2.5,10.666667 -5.5,18 -3,7.333333 -9,16.83333 -18,28.5 -9,11.66667 -22.66667,26.66667 -41,45 C 567.16667,177.83333 542,200.66667 510,228"
     id="path1" />
</svg>
