<?xml version="1.0" encoding="UTF-8" standalone="no"?>
<svg
   version="1.1"
   viewBox="-10 0 1010 1000"
   id="svg1"
   sodipodi:docname="uni672B_KleeOne-Regular.svg"
   inkscape:version="1.4 (e7c3feb100, 2024-10-09)"
   xmlns:inkscape="http://www.inkscape.org/namespaces/inkscape"
   xmlns:sodipodi="http://sodipodi.sourceforge.net/DTD/sodipodi-0.dtd"
   xmlns="http://www.w3.org/2000/svg"
   xmlns:svg="http://www.w3.org/2000/svg">
  <defs
     id="defs1" />
  <sodipodi:namedview
     id="namedview1"
     pagecolor="#ffffff"
     bordercolor="#000000"
     borderopacity="0.25"
     inkscape:showpageshadow="2"
     inkscape:pageopacity="0.0"
     inkscape:pagecheckerboard="0"
     inkscape:deskcolor="#d1d1d1"
     inkscape:zoom="1.1313708"
     inkscape:cx="442.82562"
     inkscape:cy="529.4462"
     inkscape:window-width="1920"
     inkscape:window-height="1011"
     inkscape:window-x="0"
     inkscape:window-y="0"
     inkscape:window-maximized="1"
     inkscape:current-layer="svg1" />
  <path
     d="m 432,499 c -31.33333,45.33333 -66.83333,88.66667 -106.5,130 -39.66667,41.33333 -81,79.33333 -124,114 -43,34.66667 -85.5,64.33333 -127.5,89 -16,9.33333 -24,17.66667 -24,25 0,5.33333 4,8 12,8 7.333333,0 22.166667,-5.83333 44.5,-17.5 22.33333,-11.66667 49.33333,-28 81,-49 31.66667,-21 64.83333,-46 99.5,-75 34.66667,-29 67.83333,-61.16667 99.5,-96.5 31.66667,-35.33333 58.83333,-72.33333 81.5,-111 -0.66667,13.33333 -1.33333,33.16667 -2,59.5 -0.66667,26.33333 -1.33333,54.83333 -2,85.5 -0.66667,30.66667 -1.16667,60 -1.5,88 -0.33333,28 -0.66667,51 -1,69 l -0.5,27 c -0.66667,16 -1.16667,31.33333 -1.5,46 -0.33333,14.66667 -1.5,28.66667 -3.5,42 v 6 c 0,9.33333 3.16667,16.5 9.5,21.5 6.33333,5 12.83333,8.5 19.5,10.5 6.66667,2 10.33333,3 11,3 10,0 15,-6.33333 15,-19 L 511.5,921.5 512,835 V 725 c 0,-43.33333 -0.16667,-84.5 -0.5,-123.5 -0.33333,-39 -0.83333,-67.83333 -1.5,-86.5 26,39.33333 56.33333,76.33333 91,111 34.66667,34.66667 70.5,66.33333 107.5,95 37,28.66667 71.5,53.33333 103.5,74 32,20.66667 58.33333,36.66667 79,48 20.66667,11.33333 32,17 34,17 2,0 6.5,-1.83333 13.5,-5.5 7,-3.66667 13.83333,-8.16667 20.5,-13.5 6.66667,-5.33333 10,-9.66667 10,-13 0,-6 -4.33333,-10.33333 -13,-13 C 903.33333,792.33333 851.16667,763.83333 799.5,729.5 747.83333,695.16667 699.66667,657.66667 655,617 610.33333,576.33333 571.33333,535 538,493"
     id="path6" />
  <path
     id="path5"
     d="m 463,457 -168,9 h -12 c -6.66667,0 -13.83333,-0.33333 -21.5,-1 -7.66667,-0.66667 -15.16667,-1.66667 -22.5,-3 h -4 c -4.66667,0 -7,1.33333 -7,4 0,0.66667 1.5,4.5 4.5,11.5 3,7 8,13.83333 15,20.5 7,6.66667 16.16667,10 27.5,10 4.66667,0 9.66667,-0.16667 15,-0.5 5.33333,-0.33333 11.66667,-0.83333 19,-1.5 l 176,-10 272,-13 c 9.33333,-1.33333 14,-5 14,-11 0,-5.33333 -2.83333,-10.83333 -8.5,-16.5 -5.66667,-5.66667 -12,-10.33333 -19,-14 -7,-3.66667 -12.5,-5.5 -16.5,-5.5 -2,0 -5,0.66667 -9,2 -12.66667,4.66667 -31.66667,7.66667 -57,9 l -147,8"
     sodipodi:nodetypes="ccsscsssssscccssssccc"
     style="fill:#ff0000" />
  <path
     id="path3"
     d="m 463,307 v 150 l 51,-2 1,-151 z"
     sodipodi:nodetypes="ccccc" />
  <path
     id="path2"
     d="m 515,304 301,-15 c 10.66667,-1.33333 16,-6.66667 16,-16 0,-7.33333 -4.33333,-14.5 -13,-21.5 -8.66667,-7 -17,-10.5 -25,-10.5 -3.33333,0 -6,0.33333 -8,1 -8,2 -14.83333,3.33333 -20.5,4 -5.66667,0.66667 -13.16667,1.33333 -22.5,2 L 489,262.5 212,278 c -2.66667,0 -5.33333,0.16667 -8,0.5 -2.66667,0.33333 -5.66667,0.5 -9,0.5 -12,0 -23,-1.33333 -33,-4 -0.66667,0 -1.16667,-0.16667 -1.5,-0.5 -0.33333,-0.33333 -0.83333,-0.5 -1.5,-0.5 -2.66667,0 -4,1.33333 -4,4 0,1.33333 0.33333,2.66667 1,4 1.33333,5.33333 3.33333,11.16667 6,17.5 2.66667,6.33333 6.33333,11.5 11,15.5 6.66667,4.66667 16.33333,7 29,7 3.33333,0 6.66667,-0.16667 10,-0.5 3.33333,-0.33333 7.33333,-0.5 12,-0.5 l 239,-14"
     sodipodi:nodetypes="ccssscscccsscssscscsscc"
     style="fill:#ff0000" />
  <path
     d="m 515,261 1,-164 c 0,-6 -3.16667,-11.166667 -9.5,-15.5 -6.33333,-4.333333 -13.33333,-7.666667 -21,-10 C 477.83333,69.166667 471.66667,68 467,68 c -7.33333,0 -11,2 -11,6 0,0.666667 0.16667,1.333333 0.5,2 0.33333,0.666667 0.5,1.333333 0.5,2 2,6.666667 3.66667,14.333333 5,23 1.33333,8.66667 2,17.33333 2,26 l -1,137"
     id="path1" />
</svg>
