<?xml version="1.0" encoding="UTF-8" standalone="no"?>
<svg
   version="1.1"
   viewBox="-10 0 1010 1000"
   id="svg1"
   sodipodi:docname="uni6B62_KleeOne-Regular.svg"
   inkscape:version="1.4 (e7c3feb100, 2024-10-09)"
   xmlns:inkscape="http://www.inkscape.org/namespaces/inkscape"
   xmlns:sodipodi="http://sodipodi.sourceforge.net/DTD/sodipodi-0.dtd"
   xmlns="http://www.w3.org/2000/svg"
   xmlns:svg="http://www.w3.org/2000/svg">
  <defs
     id="defs1" />
  <sodipodi:namedview
     id="namedview1"
     pagecolor="#ffffff"
     bordercolor="#000000"
     borderopacity="0.25"
     inkscape:showpageshadow="2"
     inkscape:pageopacity="0.0"
     inkscape:pagecheckerboard="0"
     inkscape:deskcolor="#d1d1d1"
     inkscape:zoom="0.8"
     inkscape:cx="505"
     inkscape:cy="500"
     inkscape:window-width="1920"
     inkscape:window-height="1011"
     inkscape:window-x="0"
     inkscape:window-y="0"
     inkscape:window-maximized="1"
     inkscape:current-layer="svg1" />
  <path
     d="m 504,832 -185,7 -5,-432 c 0,-7.33333 -3.66667,-13 -11,-17 -7.33333,-4 -15.33333,-7 -24,-9 -8.66667,-2 -15,-3 -19,-3 -6.66667,0 -10,2 -10,6 0,0.66667 0.66667,2.33333 2,5 4.66667,9.33333 7.66667,17.66667 9,25 1.33333,7.33333 2,16 2,26 l 7,400 -156,6 h -11 c -6.666667,0 -13.666667,-0.33333 -21,-1 -7.333333,-0.66667 -14.333333,-2.33333 -21,-5 -0.666667,0 -1.333333,-0.16667 -2,-0.5 -0.666667,-0.33333 -1.666667,-0.5 -3,-0.5 -3.333333,0 -5,1.66667 -5,5 0,2.66667 0.333333,4.66667 1,6 4,14 10.333333,25.66667 19,35 7.333333,5.33333 17,8 29,8 3.33333,0 7,-0.16667 11,-0.5 4,-0.33333 8.33333,-0.5 13,-0.5 l 811,-28 c 8.66667,0 13,-4 13,-12 0,-4 -2,-9.33333 -6,-16 -4,-6.66667 -9.16667,-12.66667 -15.5,-18 -6.33333,-5.33333 -12.5,-8 -18.5,-8 -2,0 -3.83333,0.16667 -5.5,0.5 -1.66667,0.33333 -3.83333,0.83333 -6.5,1.5 -5.33333,1.33333 -13.5,2.83333 -24.5,4.5 -11,1.66667 -21.5,2.83333 -31.5,3.5 l -285,10"
     id="path2" />
  <path
     d="m 555,830 -1,-347 256,-13 c 10,-1.33333 15,-5.33333 15,-12 0,-2.66667 -2.16667,-7 -6.5,-13 -4.33333,-6 -10,-11.66667 -17,-17 -7,-5.33333 -14.5,-8 -22.5,-8 -2,0 -3.83333,0.16667 -5.5,0.5 -1.66667,0.33333 -3.5,0.83333 -5.5,1.5 -7.33333,2.66667 -15.83333,4.66667 -25.5,6 -9.66667,1.33333 -21.5,2.33333 -35.5,3 l -153,6 -1,-309 c 0,-7.33333 -6.16667,-13.66667 -18.5,-19 -12.33333,-5.33333 -24.83333,-8 -37.5,-8 -6.66667,0 -10,2 -10,6 0,1.33333 0.33333,2.66667 1,4 8,16 12,33 12,51 l 4,670"
     id="path1"
     style="fill:#ff0000" />
</svg>
