<?xml version="1.0" encoding="UTF-8" standalone="no"?>
<svg
   version="1.1"
   viewBox="-10 0 1010 1000"
   id="svg1"
   sodipodi:docname="uni6BD4_KleeOne-Regular.svg"
   inkscape:version="1.4 (e7c3feb100, 2024-10-09)"
   xmlns:inkscape="http://www.inkscape.org/namespaces/inkscape"
   xmlns:sodipodi="http://sodipodi.sourceforge.net/DTD/sodipodi-0.dtd"
   xmlns="http://www.w3.org/2000/svg"
   xmlns:svg="http://www.w3.org/2000/svg">
  <defs
     id="defs1" />
  <sodipodi:namedview
     id="namedview1"
     pagecolor="#ffffff"
     bordercolor="#000000"
     borderopacity="0.25"
     inkscape:showpageshadow="2"
     inkscape:pageopacity="0.0"
     inkscape:pagecheckerboard="0"
     inkscape:deskcolor="#d1d1d1"
     inkscape:zoom="0.8"
     inkscape:cx="505"
     inkscape:cy="500"
     inkscape:window-width="1920"
     inkscape:window-height="1011"
     inkscape:window-x="0"
     inkscape:window-y="0"
     inkscape:window-maximized="1"
     inkscape:current-layer="svg1" />
  <path
     d="m 217,206 -1,633 q -38,16 -58.5,24 -20.5,8 -32,11 -11.5,3 -23.5,4 -6,1 -6,6 0,1 2,5 13,19 27,25 14,6 18,6 6,0 32.5,-12 26.5,-12 65.5,-31.5 39,-19.5 81,-43 42,-23.5 79,-46 37,-22.5 60,-40.5 23,-18 23,-27 0,-8 -11,-8 -4,0 -11,2 -7,2 -15,7 -45,26 -92,51 -47,25 -92,45 l 2,-319 202,-11 q 13,-2 13,-12 0,-10 -15,-22 -21,-14 -31,-14 -3,0 -9,2 -30,10 -54,11 l -106,4 1,-267 q 0,-14 -13,-20.5 -13,-6.5 -26,-8.5 l -13,-2 q -7,0 -7,4 0,3 1,4 6,12 7.5,20.5 1.5,8.5 1.5,19.5 z"
     id="path2" />
  <path
     d="m 543,173 -3,647 q 0,43 17,63 17,20 54.5,25.5 37.5,5.5 98.5,5.5 31,0 64.5,-2 33.5,-2 71.5,-6 32,-4 51.5,-18.5 Q 917,873 920,838 q 3,-32 6,-68 3,-36 3,-64 0,-47 -14,-47 -13,0 -19,46 -7,54 -11.5,84 -4.5,30 -10,43.5 -5.5,13.5 -14.5,18 -9,4.5 -25,7.5 -64,9 -117,9 -54,0 -82,-4.5 Q 608,858 598,846 588,834 588,812 l 2,-270 q 77,-35 136,-71.5 59,-36.5 122,-89.5 4,-4 4,-11 0,-8 -6,-19.5 -6,-11.5 -14,-20 -8,-8.5 -14,-8.5 -3,0 -6,5 -5,13 -9,18.5 -4,5.5 -10,11.5 -33,34 -86.5,73 Q 653,469 590,503 l 3,-357 q 0,-12 -12.5,-18 -12.5,-6 -25,-8.5 Q 543,117 542,117 q -9,0 -9,6 0,4 1,6 9,22 9,44 z"
     id="path1"
     style="fill:#ff0000" />
</svg>
