<?xml version="1.0" encoding="UTF-8" standalone="no"?>
<svg
   version="1.1"
   viewBox="-10 0 1010 1000"
   id="svg1"
   sodipodi:docname="uni6BDB_KleeOne-Regular.svg"
   inkscape:version="1.4 (e7c3feb100, 2024-10-09)"
   xmlns:inkscape="http://www.inkscape.org/namespaces/inkscape"
   xmlns:sodipodi="http://sodipodi.sourceforge.net/DTD/sodipodi-0.dtd"
   xmlns="http://www.w3.org/2000/svg"
   xmlns:svg="http://www.w3.org/2000/svg">
  <defs
     id="defs1" />
  <sodipodi:namedview
     id="namedview1"
     pagecolor="#ffffff"
     bordercolor="#000000"
     borderopacity="0.25"
     inkscape:showpageshadow="2"
     inkscape:pageopacity="0.0"
     inkscape:pagecheckerboard="0"
     inkscape:deskcolor="#d1d1d1"
     inkscape:zoom="0.8"
     inkscape:cx="505"
     inkscape:cy="500"
     inkscape:window-width="1920"
     inkscape:window-height="1011"
     inkscape:window-x="0"
     inkscape:window-y="0"
     inkscape:window-maximized="1"
     inkscape:current-layer="svg1" />
  <path
     d="m 450,421 -241,33 c -6.66667,0.66667 -12.5,1.16667 -17.5,1.5 -5,0.33333 -10.16667,0.5 -15.5,0.5 h -11 c -6,0 -9,1.33333 -9,4 0,3.33333 3.66667,9 11,17 7.33333,8 13,13.66667 17,17 2.66667,2.66667 7,4 13,4 3.33333,0 7.66667,-0.5 13,-1.5 5.33333,-1 11.33333,-1.83333 18,-2.5 l 221,-31 -1,148 -323,43 c -4.66667,0.66667 -8.83333,1.16667 -12.5,1.5 -3.66667,0.33333 -7.16667,0.5 -10.5,0.5 -3.333333,0 -6.666667,-0.16667 -10,-0.5 -3.333333,-0.33333 -7,-0.5 -11,-0.5 -6,0 -9,1.33333 -9,4 0,1.33333 0.666667,2.66667 2,4 4.666667,8.66667 11,16.5 19,23.5 8,7 15.66667,10.5 23,10.5 3.33333,0 7.33333,-0.5 12,-1.5 4.66667,-1 10.33333,-1.83333 17,-2.5 l 303,-41 -1,152 v 3 c 0,36 8,62.66667 24,80 16,17.33333 38,27.66667 66,31 21.33333,2.66667 44.5,4.5 69.5,5.5 25,1 50.83333,1.5 77.5,1.5 31.33333,0 62.66667,-0.83333 94,-2.5 31.33333,-1.66667 59.66667,-4.16667 85,-7.5 28.66667,-3.33333 49.66667,-12.33333 63,-27 13.33333,-14.66667 22.16667,-37.83333 26.5,-69.5 4.33333,-31.66667 6.5,-74.16667 6.5,-127.5 0,-29.33333 -5,-44 -15,-44 -3.33333,0 -7,3.5 -11,10.5 -4,7 -6.66667,17.16667 -8,30.5 -2.66667,20.66667 -5.5,42.16667 -8.5,64.5 -3,22.33333 -7.16667,43.5 -12.5,63.5 -3.33333,12.66667 -9.16667,23.5 -17.5,32.5 -8.33333,9 -19.16667,14.5 -32.5,16.5 -24,3.33333 -50.83333,5.83333 -80.5,7.5 -29.66667,1.66667 -59.16667,2.5 -88.5,2.5 -44,0 -78.66667,-1 -104,-3 -25.33333,-2 -44.16667,-5.83333 -56.5,-11.5 -12.33333,-5.66667 -20.16667,-14 -23.5,-25 -3.33333,-11 -5,-25.5 -5,-43.5 l 1,-146 401,-54 c 10,-1.33333 15,-5.33333 15,-12 0,-6 -3,-11.5 -9,-16.5 -6,-5 -12.5,-9 -19.5,-12 -7,-3 -11.83333,-4.5 -14.5,-4.5 -3.33333,0 -5.66667,0.33333 -7,1 -5.33333,2.66667 -11.16667,5.16667 -17.5,7.5 -6.33333,2.33333 -13.5,4.16667 -21.5,5.5 l -327,44 1,-148 288,-40 c 11.33333,-2 17,-6.66667 17,-14 0,-4 -4.33333,-10.66667 -13,-20 -8.66667,-9.33333 -19,-14 -31,-14 -1.33333,0 -2.66667,0.16667 -4,0.5 -1.33333,0.33333 -2.66667,0.83333 -4,1.5 -4.66667,2 -10.33333,4.5 -17,7.5 -6.66667,3 -14.33333,5.16667 -23,6.5 l -213,29"
     id="path2"
     style="fill:#ff0000" />
  <path
     d="m 498,414 1,-154 c 36.66667,-13.33333 73.83333,-27.5 111.5,-42.5 37.66667,-15 75.5,-31.16667 113.5,-48.5 6.66667,-2.66667 10,-7.33333 10,-14 0,-6 -2.16667,-13 -6.5,-21 -4.33333,-8 -9.16667,-15 -14.5,-21 -5.33333,-6 -10,-9 -14,-9 -4,0 -7.33333,2.33333 -10,7 -5.33333,7.33333 -10.16667,12.83333 -14.5,16.5 -4.33333,3.66667 -8.83333,6.83333 -13.5,9.5 -64.66667,34 -135.5,65.83333 -212.5,95.5 -77,29.66667 -151.83333,54.5 -224.5,74.5 -21.33333,6 -32,13.33333 -32,22 0,6 6.33333,9 19,9 10,0 24,-1.83333 42,-5.5 18,-3.66667 37.66667,-8.5 59,-14.5 21.33333,-6 42,-11.83333 62,-17.5 20,-5.66667 37.16667,-10.83333 51.5,-15.5 14.33333,-4.66667 22.83333,-7.33333 25.5,-8 l -1,144"
     id="path1" />
</svg>
