<?xml version="1.0" encoding="UTF-8" standalone="no"?>
<svg
   version="1.1"
   viewBox="-10 0 1010 1000"
   id="svg1"
   sodipodi:docname="uni6C5F_KleeOne-Regular.svg"
   inkscape:version="1.4 (e7c3feb100, 2024-10-09)"
   xmlns:inkscape="http://www.inkscape.org/namespaces/inkscape"
   xmlns:sodipodi="http://sodipodi.sourceforge.net/DTD/sodipodi-0.dtd"
   xmlns="http://www.w3.org/2000/svg"
   xmlns:svg="http://www.w3.org/2000/svg">
  <defs
     id="defs1" />
  <sodipodi:namedview
     id="namedview1"
     pagecolor="#ffffff"
     bordercolor="#000000"
     borderopacity="0.25"
     inkscape:showpageshadow="2"
     inkscape:pageopacity="0.0"
     inkscape:pagecheckerboard="0"
     inkscape:deskcolor="#d1d1d1"
     inkscape:zoom="0.8"
     inkscape:cx="505"
     inkscape:cy="500"
     inkscape:window-width="1920"
     inkscape:window-height="1011"
     inkscape:window-x="0"
     inkscape:window-y="0"
     inkscape:window-maximized="1"
     inkscape:current-layer="svg1" />
  <path
     d="m 128,929 h 4 q 8,0 14.5,-8 6.5,-8 13.5,-19 21,-36 44.5,-78.5 Q 228,781 251,738.5 274,696 292.5,658.5 311,621 322,595 q 11,-26 11,-34 0,-11 -7,-11 -4,0 -12.5,7.5 Q 305,565 295,582 254,652 206.5,727 159,802 118,861 q -8,12 -16,19 -8,7 -19,13 -6,3 -6,8 0,4 8.5,12 8.5,8 42.5,16 z"
     id="path4" />
  <path
     d="m 232,504 q 10,0 17,-13.5 7,-13.5 7,-17.5 0,-10 -11,-19 Q 227,439 203,421.5 179,404 156,388 133,372 115.5,361.5 98,351 92,351 87,351 80.5,357.5 74,364 74,376 q 0,8 11,16 32,22 67,49.5 35,27.5 63,53.5 11,9 17,9 z"
     id="path3" />
  <path
     d="m 370,849 567,-18 q 17,-2 17,-16 0,-9 -8,-18 -8,-9 -18,-14.5 -10,-5.5 -16,-5.5 -2,0 -4,0.5 -2,0.5 -4,1.5 -8,3 -17.5,4 -9.5,1 -21.5,2 l -212,7 2,-480 200,-12 q 17,-2 17,-14 0,-12 -15,-24 -15,-12 -24,-12 -3,0 -9,2 -14,5 -37,6 l -344,21 h -8 q -10,0 -19,-1.5 -9,-1.5 -18,-2.5 -1,0 -2,-0.5 -1,-0.5 -2,-0.5 -4,0 -4,4 0,3 1,5 9,31 21,36.5 12,5.5 24,5.5 5,0 10,-0.5 5,-0.5 11,-0.5 l 147,-9 -4,479 -242,8 h -6 q -10,0 -20.5,-2 -10.5,-2 -20.5,-4 -2,-1 -4,-1 -5,0 -5,5 0,1 0.5,2 0.5,1 0.5,3 4,13 13,29 9,16 34,16 5,0 9.5,-0.5 Q 364,849 370,849 Z"
     id="path2"
     style="fill:#ff0000" />
  <path
     d="m 307,294 q 12,0 18.5,-14 6.5,-14 6.5,-16 0,-10 -10,-19 Q 304,228 280,208.5 256,189 233,171.5 210,154 192.5,142.5 175,131 170,131 q -7,0 -15,9 -7,8 -7,16 0,8 9,14 33,24 68.5,54 35.5,30 64.5,61 9,9 17,9 z"
     id="path1" />
</svg>
