<?xml version="1.0" encoding="UTF-8" standalone="no"?>
<svg
   version="1.1"
   viewBox="-10 0 1010 1000"
   id="svg1"
   sodipodi:docname="uni6D41_KleeOne-Regular.svg"
   inkscape:version="1.4 (e7c3feb100, 2024-10-09)"
   xmlns:inkscape="http://www.inkscape.org/namespaces/inkscape"
   xmlns:sodipodi="http://sodipodi.sourceforge.net/DTD/sodipodi-0.dtd"
   xmlns="http://www.w3.org/2000/svg"
   xmlns:svg="http://www.w3.org/2000/svg">
  <defs
     id="defs1" />
  <sodipodi:namedview
     id="namedview1"
     pagecolor="#ffffff"
     bordercolor="#000000"
     borderopacity="0.25"
     inkscape:showpageshadow="2"
     inkscape:pageopacity="0.0"
     inkscape:pagecheckerboard="0"
     inkscape:deskcolor="#d1d1d1"
     inkscape:zoom="0.8"
     inkscape:cx="505"
     inkscape:cy="500"
     inkscape:window-width="1920"
     inkscape:window-height="1011"
     inkscape:window-x="0"
     inkscape:window-y="0"
     inkscape:window-maximized="1"
     inkscape:current-layer="svg1" />
  <path
     d="m 282,939 10,-5 Q 381,884 431.5,803 482,722 486,588 486,576 475.5,568.5 465,561 453,557.5 441,554 434,554 q -8,0 -8,6 0,3 1,5 3,8 5,14.5 2,6.5 2,13.5 -3,114 -44,189.5 -41,75.5 -112,128.5 -24,19 -24,29 0,5 8,5 7,0 20,-6 z"
     id="path7" />
  <path
     d="m 564,882 v 4 q 0,11 10,18 10,7 19.5,10 l 9.5,3 q 15,0 15,-16 l 1,-318 q 0,-14 -10.5,-21 -10.5,-7 -23,-9.5 Q 573,550 567,550 q -9,0 -9,5 0,4 2,6 10,17 10,46 l -2,204 q 0,19 -1,37 -1,18 -3,34 z"
     id="path6"
     style="fill:#ff0000" />
  <path
     d="m 127,900 h 3 q 8,0 14,-7.5 6,-7.5 13,-20.5 14,-27 33,-63 19,-36 38,-75.5 Q 247,694 263.5,658 280,622 290,595.5 300,569 300,558 q 0,-10 -6,-10 -11,0 -30,35 -51,96 -84,151.5 Q 147,790 127.5,817 108,844 98,853.5 88,863 83,866 q -6,3 -6,7 l 10,12 z"
     id="path5" />
  <path
     d="m 723,580 -1,268 q 0,36 14,54 14,18 38,23.5 24,5.5 54,5.5 48,0 76,-4 28,-4 41.5,-21.5 Q 959,888 963,850 q 4,-38 4,-106 0,-46 -15,-46 -15,0 -19,43 -5,49 -9.5,77 -4.5,28 -10,41 -5.5,13 -12.5,17 -7,4 -18,6 -9,1 -22,2.5 -13,1.5 -27,1.5 -37,0 -51,-8.5 Q 769,869 769,840 l 2,-278 q 0,-10 -11,-16 -11,-6 -23,-9 -12,-3 -15,-3 -11,0 -11,6 l 2,4 q 10,16 10,36 z"
     id="path4"
     style="fill:#ff0000" />
  <path
     d="m 220,505 q 5,0 14.5,-11.5 Q 244,482 244,472 244,464 229.5,450 215,436 193,419 171,402 148.5,387 126,372 109,362.5 92,353 88,353 l -10,5 q 0,0 -10,19 0,8 12,17 32,21 65.5,49 33.5,28 57.5,51 11,11 17,11 z"
     id="path3" />
  <path
     d="m 296,289 q 9,-9 9,-18 0,-7 -13,-22 Q 279,234 259,215 239,196 218,178.5 197,161 180.5,149.5 164,138 159,138 q -3,0 -12.5,8 -9.5,8 -9.5,17 0,6 10,14 29,24 58.5,52.5 29.5,28.5 56.5,60.5 9,10 16,10 7,0 18,-11 z"
     id="path2" />
  <path
     d="m 593,296 287,-17 q 13,-2 13,-12 0,-13 -16.5,-24.5 Q 860,231 849,231 q -3,0 -5.5,0.5 -2.5,0.5 -5.5,1.5 -12,4 -24.5,6 -12.5,2 -32.5,4 l -161,10 1,-130 v -2 Q 620,112 609.5,106 599,100 587,97.5 575,95 569,95 q -11,0 -11,6 0,2 2,6 5,8 7.5,16.5 2.5,8.5 2.5,19.5 l 1,113 -175,10 q -4,0 -8.5,0.5 -4.5,0.5 -9.5,0.5 -8,0 -17,-1 -9,-1 -18,-3 -1,0 -2.5,-0.5 -1.5,-0.5 -3.5,-0.5 -6,0 -6,4 l 4,10.5 q 0,0 14,21 14,21 28,10.5 h 12 q 0,0 15,-1 l 133,-8 Q 515,342 488.5,383.5 462,425 427,469 l -7,1 q 0,0 -12,1 -7,0 -12.5,0.5 -5.5,0.5 -10.5,0.5 -5,0 -10,-0.5 -5,-0.5 -12,-1.5 -1,0 -2,-0.5 -1,-0.5 -2,-0.5 -6,0 -6,6 0,1 4.5,12.5 4.5,11.5 14,22.5 9.5,11 25.5,11 18,0 55,-5 37,-5 82.5,-12.5 45.5,-7.5 91,-15.5 45.5,-8 82.5,-15.5 37,-7.5 55,-11.5 14,15 26,28.5 12,13.5 26,33.5 5,7 10,12 5,5 11,5 4,0 17,-8 13,-8 13,-21 0,-6 -15.5,-25.5 Q 835,466 811,440 787,414 759,387.5 731,361 706,340 q -7,-5 -15,-5 -8,0 -17,7 -9,7 -9,15 0,8 7,13 14,12 29,26.5 15,14.5 31,30.5 -61,11 -124.5,20.5 Q 544,457 486,463 515,426 540.5,385.5 566,345 593,296 Z"
     id="path1" />
</svg>
