<?xml version="1.0" encoding="UTF-8" standalone="no"?>
<svg
   version="1.1"
   viewBox="-10 0 1010 1000"
   id="svg1"
   sodipodi:docname="uni725F_KleeOne-Regular.svg"
   inkscape:version="1.4 (e7c3feb100, 2024-10-09)"
   xmlns:inkscape="http://www.inkscape.org/namespaces/inkscape"
   xmlns:sodipodi="http://sodipodi.sourceforge.net/DTD/sodipodi-0.dtd"
   xmlns="http://www.w3.org/2000/svg"
   xmlns:svg="http://www.w3.org/2000/svg">
  <defs
     id="defs1" />
  <sodipodi:namedview
     id="namedview1"
     pagecolor="#ffffff"
     bordercolor="#000000"
     borderopacity="0.25"
     inkscape:showpageshadow="2"
     inkscape:pageopacity="0.0"
     inkscape:pagecheckerboard="0"
     inkscape:deskcolor="#d1d1d1"
     inkscape:zoom="0.8"
     inkscape:cx="505"
     inkscape:cy="500"
     inkscape:window-width="1920"
     inkscape:window-height="1011"
     inkscape:window-x="0"
     inkscape:window-y="0"
     inkscape:window-maximized="1"
     inkscape:current-layer="svg1" />
  <path
     d="m 528,729 409,-16 q 14,-2 14,-14 0,-11 -8.5,-19 -8.5,-8 -17.5,-13 -9,-5 -12,-5 -1,0 -2,0.5 -1,0.5 -2,0.5 -10,4 -18.5,5 -8.5,1 -22.5,2 l -340,14 1,-140 242,-13 q 15,-2 15,-13 0,-11 -14,-21.5 -14,-10.5 -23,-10.5 -4,0 -7,1 -17,4 -39,5 l -174,10 1,-107 q 0,-15 -12,-22.5 -12,-7.5 -25,-10 -13,-2.5 -15,-2.5 -9,0 -9,6 0,1 2,7 6,11 7.5,21 1.5,10 1.5,24 l -1,87 -175,9 q 22,-33 35.5,-58 13.5,-25 13.5,-32 0,-8 -9,-16.5 -9,-8.5 -20.5,-14 Q 312,388 306,388 q -9,0 -9,13 0,17 -13.5,47.5 Q 270,479 248,515 q -22,36 -47.5,70 -25.5,34 -50.5,60 -15,15 -15,24 0,5 6,5 13,0 51.5,-32.5 Q 231,609 272,558 l 207,-11 -1,139 -359,15 h -12 q -9,0 -18,-1 -9,-1 -17,-3 -1,0 -2,-0.5 -1,-0.5 -2,-0.5 -5,0 -5,4 0,2 1,4 10,29 21,35 11,6 27,6 h 12 l 354,-14 -1,146 q 0,19 -1.5,33.5 Q 474,925 471,944 v 6 q 0,13 16,24.5 16,11.5 27,11.5 13,0 13,-15 z"
     id="path2" />
  <path
     d="m 261,304 h -14 q -21,0 -41,-4 h -2 q -8,0 -8,5 l 0.5,0.5 q 0,0 0.5,1.5 7,19 14.5,26.5 l 9.5,9.5 q 12,9 29,9 5,0 31.5,-3 26.5,-3 68,-7.5 41.5,-4.5 90,-10 48.5,-5.5 97,-12 48.5,-6.5 89.5,-12 41,-5.5 67,-9.5 37,40 62,73 8,10 15,10 10,0 20,-11.5 10,-11.5 10,-18.5 0,-7 -14,-25 -14,-18 -36.5,-41 -22.5,-23 -47.5,-47 -25,-24 -47,-44 -22,-20 -35,-30 -6,-6 -13,-6 -7,0 -16,9 -9,9 -9,15 0,7 9,15 30,27 71,68 -71,10 -155,18 -84,8 -164,15 42,-44 81,-91 39,-47 76,-100 2,-4 2,-6 0,-11 -9.5,-20.5 Q 483,71 472,64.5 461,58 455,58 q -8,0 -8,8 -1,21 -10,36 -26,43 -65,94 -39,51 -89,106 l -7.5,1 z"
     id="path1"
     style="fill:#ff0000" />
</svg>
