<?xml version="1.0" encoding="UTF-8" standalone="no"?>
<svg
   version="1.1"
   viewBox="-10 0 1010 1000"
   id="svg1"
   sodipodi:docname="uni7531_KleeOne-Regular.svg"
   inkscape:version="1.4 (e7c3feb100, 2024-10-09)"
   xmlns:inkscape="http://www.inkscape.org/namespaces/inkscape"
   xmlns:sodipodi="http://sodipodi.sourceforge.net/DTD/sodipodi-0.dtd"
   xmlns="http://www.w3.org/2000/svg"
   xmlns:svg="http://www.w3.org/2000/svg">
  <defs
     id="defs1" />
  <sodipodi:namedview
     id="namedview1"
     pagecolor="#ffffff"
     bordercolor="#000000"
     borderopacity="0.25"
     inkscape:showpageshadow="2"
     inkscape:pageopacity="0.0"
     inkscape:pagecheckerboard="0"
     inkscape:deskcolor="#d1d1d1"
     inkscape:zoom="0.8"
     inkscape:cx="582.5"
     inkscape:cy="618.75"
     inkscape:window-width="1920"
     inkscape:window-height="1011"
     inkscape:window-x="0"
     inkscape:window-y="0"
     inkscape:window-maximized="1"
     inkscape:current-layer="svg1" />
  <path
     id="path1"
     style="display:inline;fill:#000000"
     d="m 789,817 40,-428 c 0.66667,-3.33333 1.83333,-6.5 3.5,-9.5 1.66667,-3 2.5,-6.5 2.5,-10.5 0,-5.33333 -3.5,-12.16667 -10.5,-20.5 -7,-8.33333 -17.16667,-12.5 -30.5,-12.5 h -7 L 518,351 V 119 c 0,-8 -4.33333,-13.83333 -13,-17.5 -8.66667,-3.666667 -17.33333,-6.166667 -26,-7.5 -8.66667,-1.333333 -13.66667,-2 -15,-2 -4.66667,0 -7,1.666667 -7,5 0,2.666667 0.33333,4.66667 1,6 6.66667,14.66667 10,28 10,40 l 1,211 -239,14 c -15.33333,-5.33333 -27.5,-9 -36.5,-11 -9,-2 -15.5,-3 -19.5,-3 -4.66667,0 -7,1.66667 -7,5 0,2 1,5.66667 3,11 3.33333,6.66667 6,14.33333 8,23 2,8.66667 3.33333,17.66667 4,27 l 30,431 m 0,0 c 0.66667,4.66667 1,9.16667 1,13.5 v 12.5 14 l -1,15 v 6 c 0,10 5.16667,17.83333 15.5,23.5 10.33333,5.66667 18.5,8.5 24.5,8.5 8,0 12,-4.33333 12,-13 v -2 l -3,-52 530,-15 c 14.72126,-0.41664 22,-5 22,-11 0,-7.33333 -8,-18.66667 -24,-34 M 517,574 518,394 777,381 763,562 517,574 M 242,587 230,409 469,397 v 179 z m 16,248 -14,-207 273,-13 243,-12 -16,218 z"
     sodipodi:nodetypes="ccssssccsssssccccssscscccscccsssscccsccccccccccccccccc" />
  <path
     id="path12"
     style="fill:#ff0000"
     d="m 517,574 -48,2 -227,11 2,41 225,-11 m 0,0 1,212 -212,6 3,42 530,-15 -47,-41 -227,7 V 615 574"
     sodipodi:nodetypes="cccccccccccccc" />
</svg>
