<?xml version="1.0" encoding="UTF-8" standalone="no"?>
<svg
   version="1.1"
   viewBox="-10 0 1010 1000"
   id="svg1"
   sodipodi:docname="uni793C_KleeOne-Regular.svg"
   inkscape:version="1.4 (e7c3feb100, 2024-10-09)"
   xmlns:inkscape="http://www.inkscape.org/namespaces/inkscape"
   xmlns:sodipodi="http://sodipodi.sourceforge.net/DTD/sodipodi-0.dtd"
   xmlns="http://www.w3.org/2000/svg"
   xmlns:svg="http://www.w3.org/2000/svg">
  <defs
     id="defs1" />
  <sodipodi:namedview
     id="namedview1"
     pagecolor="#ffffff"
     bordercolor="#000000"
     borderopacity="0.25"
     inkscape:showpageshadow="2"
     inkscape:pageopacity="0.0"
     inkscape:pagecheckerboard="0"
     inkscape:deskcolor="#d1d1d1"
     inkscape:zoom="0.8"
     inkscape:cx="505"
     inkscape:cy="500"
     inkscape:window-width="1920"
     inkscape:window-height="1011"
     inkscape:window-x="0"
     inkscape:window-y="0"
     inkscape:window-maximized="1"
     inkscape:current-layer="svg1" />
  <path
     d="m 301,571 -1,290 q 0,19 -1.5,31 -1.5,12 -3.5,26 0,1 -0.5,2.5 -0.5,1.5 -0.5,3.5 0,10 14,23 14,13 27,13 15,0 15,-15 l -3,-373 q 39,22 81,50 42,28 75,53 8,7 15,7 4,0 11.5,-9.5 7.5,-9.5 7.5,-23.5 0,-6 -6.5,-14 Q 524,627 505,614.5 486,602 448,580 410,558 347,524 387,481 417.5,438.5 448,396 465.5,367 483,338 483,334 q 0,-9 -8,-15 -8,-6 -16.5,-9 -8.5,-3 -10.5,-3 -2,0 -4.5,0.5 -2.5,0.5 -5.5,0.5 l -273,25 q -7,1 -15.5,1.5 -8.5,0.5 -16.5,0.5 -5,0 -10.5,-0.5 Q 117,334 112,333 q -1,0 -2,-0.5 -1,-0.5 -2,-0.5 -6,0 -6,5 l 2,6 q 5,9 14.5,24.5 9.5,15.5 28.5,15.5 6,0 15,-1.5 9,-1.5 22,-2.5 L 414,354 Q 355,459 270.5,542.5 186,626 82,697 q -23,16 -23,27 0,8 10,8 10,0 47,-21 37,-21 87,-57.5 50,-36.5 98,-82.5 z"
     id="path3" />
  <path
     d="m 386,287 q 11,0 19,-15 8,-15 8,-20 0,-4 -3.5,-10.5 -3.5,-6.5 -17,-19 Q 379,210 349,188 q -30,-22 -83,-58 -9,-6 -16,-6 -7,0 -15,8.5 -8,8.5 -8,18.5 0,9 9,15 32,22 70,54 38,32 63,57 10,10 17,10 z"
     id="path2" />
  <path
     d="m 617,807 v 3 q 0,70 37,92.5 37,22.5 119,22.5 66,0 102.5,-9.5 36.5,-9.5 53,-30.5 16.5,-21 20.5,-53 5,-34 6.5,-69 1.5,-35 1.5,-69 0,-44 -15,-44 -5,0 -11,10.5 -6,10.5 -8,30.5 -8,57 -14,91 -6,34 -12.5,52 -6.5,18 -16.5,25.5 -10,7.5 -28,10.5 -41,7 -75,7 -44,0 -68,-6 -24,-6 -33.5,-23 -9.5,-17 -9.5,-51 l 4,-650 q 0,-8 -11,-14.5 -11,-6.5 -24,-10.5 -13,-4 -19,-4 -8,0 -8,5 0,2 2,6 7,11 9,20.5 2,9.5 2,20.5 z"
     id="path1"
     style="fill:#ff0000" />
</svg>
