<?xml version="1.0" encoding="UTF-8" standalone="no"?>
<svg
   version="1.1"
   viewBox="-10 0 1010 1000"
   id="svg1"
   sodipodi:docname="uni7962_KleeOne-Regular.svg"
   inkscape:version="1.4 (e7c3feb100, 2024-10-09)"
   xmlns:inkscape="http://www.inkscape.org/namespaces/inkscape"
   xmlns:sodipodi="http://sodipodi.sourceforge.net/DTD/sodipodi-0.dtd"
   xmlns="http://www.w3.org/2000/svg"
   xmlns:svg="http://www.w3.org/2000/svg">
  <defs
     id="defs1" />
  <sodipodi:namedview
     id="namedview1"
     pagecolor="#ffffff"
     bordercolor="#000000"
     borderopacity="0.25"
     inkscape:showpageshadow="2"
     inkscape:pageopacity="0.0"
     inkscape:pagecheckerboard="0"
     inkscape:deskcolor="#d1d1d1"
     inkscape:zoom="0.8"
     inkscape:cx="505"
     inkscape:cy="500"
     inkscape:window-width="1920"
     inkscape:window-height="1011"
     inkscape:window-x="0"
     inkscape:window-y="0"
     inkscape:window-maximized="1"
     inkscape:current-layer="svg1" />
  <path
     d="m 393,811 q 13,0 34,-24 21,-24 44.5,-60.5 Q 495,690 516,652 q 21,-38 34,-66 13,-28 13,-35 0,-10 -10.5,-20 Q 542,521 530,514.5 518,508 513,508 q -7,0 -7,10 0,29 -12.5,66.5 Q 481,622 463,660 q -18,38 -36,69 -18,31 -29,48 -12,19 -12,27 0,7 7,7 z"
     id="path5" />
  <path
     d="m 941,783 q 15,-12 15,-25 0,-10 -18.5,-47 Q 919,674 887.5,622 856,570 817,516 q -10,-13 -20,-13 -13,0 -20.5,7.5 -7.5,7.5 -7.5,14.5 0,7 5,14 69,93 130,236 7,16 18,16 6,0 19,-8 z"
     id="path4" />
  <path
     d="m 221,919 v 4 q 0,17 12.5,27.5 12.5,10.5 25.5,10.5 15,0 15,-15 l -3,-383 q 57,39 103,82 10,8 14,8 7,0 16,-17 6,-11 6,-18 0,-9 -21,-26 Q 368,575 336.5,554.5 305,534 272,516 294,488 316.5,454 339,420 358,388.5 377,357 389,336 q 12,-21 12,-23 0,-11 -12,-18.5 -12,-7.5 -23,-7.5 -2,0 -4.5,0.5 -2.5,0.5 -5.5,0.5 l -218,23 q -6,1 -13.5,1.5 -7.5,0.5 -15.5,0.5 -7,0 -13,-0.5 -6,-0.5 -12,-1.5 -1,0 -2,-0.5 -1,-0.5 -2,-0.5 -6,0 -6,5 l 2,6 q 5,9 16,23.5 11,14.5 30,14.5 12,0 34,-3 L 330,334 Q 278,442 210,527.5 142,613 62,690 q -21,19 -21,32 0,7 8,7 12,0 38,-21 26,-21 62,-57 36,-36 77,-81 l -1,291 q 0,19 -1,31.5 -1,12.5 -3,26.5 z"
     id="path3"
     style="fill:#ff0000" />
  <path
     d="m 324,232 q 0,-3 -2.5,-9.5 Q 319,216 308.5,202 298,188 274,163.5 250,139 207,99 q -8,-8 -16,-8 -9,0 -17,10 -8,10 -8,16 0,7 7,14 29,27 56.5,59.5 27.5,32.5 46.5,58.5 9,13 18,13 9,0 19.5,-10 10.5,-10 10.5,-20 z"
     id="path2"
     style="fill:#ff0000" />
  <path
     d="m 647,342 2,565 q -29,-12 -57,-27 -28,-15 -55,-31 -8,-5 -14,-7 -6,-2 -10,-2 -7,0 -7,6 0,6 12.5,20 12.5,14 32.5,32 20,18 41.5,34.5 21.5,16.5 40.5,27.5 19,11 29,11 14,0 26.5,-13 12.5,-13 12.5,-34 0,-7 -0.5,-14.5 Q 700,902 700,895 l -3,-556 220,-15 q 12,-2 12,-11 0,-11 -15,-26 -15,-15 -32,-15 -3,0 -9,2 -14,7 -27.5,9 -13.5,2 -29.5,3 l -265,18 q 23,-41 44.5,-86 21.5,-45 43.5,-97 0,-1 0.5,-2 0.5,-1 0.5,-2 0,-9 -10.5,-17.5 Q 619,91 606.5,85 594,79 586,79 q -8,0 -8,8 v 9 q 0,19 -13.5,60 Q 551,197 527,249.5 503,302 472,358 q -31,56 -67,107 -9,13 -9,21 0,8 8,8 10,0 30.5,-23.5 20.5,-23.5 45,-57 Q 504,380 524,349 Z"
     id="path1" />
</svg>
