<?xml version="1.0" encoding="UTF-8" standalone="no"?>
<svg
   version="1.1"
   viewBox="-10 0 1010 1000"
   id="svg1"
   sodipodi:docname="uni8207_KleeOne-Regular.svg"
   inkscape:version="1.4 (e7c3feb100, 2024-10-09)"
   xmlns:inkscape="http://www.inkscape.org/namespaces/inkscape"
   xmlns:sodipodi="http://sodipodi.sourceforge.net/DTD/sodipodi-0.dtd"
   xmlns="http://www.w3.org/2000/svg"
   xmlns:svg="http://www.w3.org/2000/svg">
  <defs
     id="defs1" />
  <sodipodi:namedview
     id="namedview1"
     pagecolor="#ffffff"
     bordercolor="#000000"
     borderopacity="0.25"
     inkscape:showpageshadow="2"
     inkscape:pageopacity="0.0"
     inkscape:pagecheckerboard="0"
     inkscape:deskcolor="#d1d1d1"
     inkscape:zoom="0.8"
     inkscape:cx="505"
     inkscape:cy="500"
     inkscape:window-width="1920"
     inkscape:window-height="1011"
     inkscape:window-x="0"
     inkscape:window-y="0"
     inkscape:window-maximized="1"
     inkscape:current-layer="svg1" />
  <path
     d="m 854,957 c 8,0 14.5,-4.5 19.5,-13.5 5,-9 7.5,-16.16667 7.5,-21.5 0,-3.33333 -0.83333,-7 -2.5,-11 -1.66667,-4 -5.16667,-8 -10.5,-12 -26,-23.33333 -52.5,-45.33333 -79.5,-66 -27,-20.66667 -52.16667,-39 -75.5,-55 -23.33333,-16 -42.5,-28.5 -57.5,-37.5 -15,-9 -23.5,-13.5 -25.5,-13.5 -4,0 -9,2.5 -15,7.5 -6,5 -9,11.16667 -9,18.5 0,5.33333 4,11 12,17 34,24.66667 69.66667,52.16667 107,82.5 37.33333,30.33333 74.33333,62.16667 111,95.5 6,6 12,9 18,9 z"
     id="path4" />
  <path
     d="m 398,777 c 1.33333,-0.66667 2,-2.66667 2,-6 0,-6.66667 -3.33333,-13.66667 -10,-21 -6.66667,-7.33333 -14,-13.66667 -22,-19 -8,-5.33333 -14,-8 -18,-8 -4,0 -6.33333,2 -7,6 -2,12 -9,25.66667 -21,41 -12,15.33333 -27.16667,31.16667 -45.5,47.5 -18.33333,16.33333 -37.33333,32.16667 -57,47.5 -19.66667,15.33333 -38.16667,29 -55.5,41 -17.33333,12 -31,21.33333 -41,28 -8,4.66667 -13.66667,9.33333 -17,14 -3.33333,4.66667 -5,8.66667 -5,12 0,5.33333 3.33333,8 10,8 7.33333,0 25.33333,-7.16667 54,-21.5 28.66667,-14.33333 63.66667,-35.66667 105,-64 C 311.33333,854.16667 354,819 398,777 Z"
     id="path3" />
  <path
     d="m 769,639 -182,7 13,-241 c 0,-2 0.66667,-4.33333 2,-7 1.33333,-2.66667 2,-5.33333 2,-8 0,-2.66667 -1,-5.66667 -3,-9 -2,-3.33333 -6.33333,-7.33333 -13,-12 -4.66667,-4 -9.66667,-6 -15,-6 -1.33333,0 -2.66667,0.16667 -4,0.5 -1.33333,0.33333 -3,0.5 -5,0.5 l -104,6 3,-98 155,-9 c 11.33333,-1.33333 17,-5.66667 17,-13 0,-6 -5,-13 -15,-21 -10,-8 -18,-12 -24,-12 -2.66667,0 -5.66667,1 -9,3 -10.66667,4.66667 -22.66667,7.33333 -36,8 l -87,5 4,-106 c 0,-10 -3.16667,-17.66667 -9.5,-23 -6.33333,-5.333333 -13.33333,-9 -21,-11 -7.66667,-2 -13.16667,-3 -16.5,-3 -5.33333,0 -8,2 -8,6 0,0.666667 0.16667,1.333333 0.5,2 0.33333,0.666667 0.5,1.333333 0.5,2 4,10.66667 6.5,19.16667 7.5,25.5 1,6.33333 1.5,13.83333 1.5,22.5 l -5,208 c 0,8.66667 -0.66667,16.66667 -2,24 -1.33333,7.33333 -3,14.66667 -5,22 -1.33333,5.33333 -2,9 -2,11 0,7.33333 5.16667,13.66667 15.5,19 10.33333,5.33333 17.5,8 21.5,8 8,0 12,-4.66667 12,-14 l 1,-18 96,-5 -11,245 -94,3 3,-154 c 0,-8.66667 -3.83333,-16.5 -11.5,-23.5 -7.66667,-7 -19.16667,-10.5 -34.5,-10.5 -6,0 -9,2 -9,6 0,2 0.33333,3.66667 1,5 6,14 9,30 9,48 l -2,131 -177,7 -9,-134 133,-8 c 10.66667,-0.66667 16,-5 16,-13 0,-7.33333 -4,-14.33333 -12,-21 -8,-6.66667 -15.66667,-10 -23,-10 -4.66667,0 -8,0.66667 -10,2 -6,2 -11.66667,3.33333 -17,4 -5.33333,0.66667 -11.66667,1.33333 -19,2 l -71,3 -8,-106 141,-9 c 11.33333,-1.33333 17,-5.33333 17,-12 0,-7.33333 -4.83333,-14.5 -14.5,-21.5 -9.66667,-7 -17.16667,-10.5 -22.5,-10.5 -2.66667,0 -6,0.66667 -10,2 -5.33333,2.66667 -10.83333,4.33333 -16.5,5 -5.66667,0.66667 -12.16667,1.33333 -19.5,2 l -78,5 -7,-102 c 24.66667,-8 49.5,-17.66667 74.5,-29 25,-11.33333 52.5,-25 82.5,-41 1.33333,-1.33333 2,-3.66667 2,-7 0,-6.66667 -2,-14.16667 -6,-22.5 -4,-8.33333 -8.66667,-15.5 -14,-21.5 -5.33333,-6 -10,-9 -14,-9 -3.33333,0 -6,2.66667 -8,8 -1.33333,5.33333 -3.5,10 -6.5,14 -3,4 -6.16667,7 -9.5,9 -16.66667,13.33333 -34.83333,25.66667 -54.5,37 -19.66667,11.33333 -38.83333,19.66667 -57.5,25 -10.66667,-4.66667 -19.16667,-8.16667 -25.5,-10.5 -6.33333,-2.33333 -11.16667,-3.5 -14.5,-3.5 -4,0 -6,2 -6,6 0,6 2.33333,14 7,24 4,10 6.66667,21.33333 8,34 1.33333,12.66667 2.33333,26.33333 3,41 l 25,370 -87,3 H 86 c -6.666667,0 -13.166667,-0.33333 -19.5,-1 -6.333333,-0.66667 -12.833333,-1.66667 -19.5,-3 -0.666667,0 -1.166667,-0.16667 -1.5,-0.5 -0.333333,-0.33333 -0.833333,-0.5 -1.5,-0.5 -2.666667,0 -4,1.33333 -4,4 0,1.33333 0.333333,2.66667 1,4 5.333333,18 11.5,29.33333 18.5,34 7,4.66667 15.5,7 25.5,7 3.333333,0 6.5,-0.16667 9.5,-0.5 3,-0.33333 6.16667,-0.5 9.5,-0.5 l 839,-32 c 10.66667,-1.33333 16,-5.33333 16,-12 0,-6.66667 -4.83333,-14.16667 -14.5,-22.5 -9.66667,-8.33333 -18.16667,-12.5 -25.5,-12.5 -2.66667,0 -5,0.33333 -7,1 -7.33333,1.33333 -14,2.33333 -20,3 -6,0.66667 -13.66667,1.33333 -23,2 l -54,2"
     id="path2" />
  <path
     d="m 815,637 29,-440 c 0.66667,-4 2,-7.66667 4,-11 2,-3.33333 3,-6.66667 3,-10 0,-6 -3.83333,-12.16667 -11.5,-18.5 -7.66667,-6.33333 -16.16667,-9.5 -25.5,-9.5 h -8 l -122,8 h -12 c -6,0 -12.16667,-0.33333 -18.5,-1 -6.33333,-0.66667 -11.5,-1.33333 -15.5,-2 -0.66667,-0.66667 -1.66667,-1 -3,-1 -3.33333,0 -5,2 -5,6 0,0.66667 0.16667,1.16667 0.5,1.5 0.33333,0.33333 0.5,1.16667 0.5,2.5 1.33333,4.66667 5,12.16667 11,22.5 6,10.33333 16.33333,15.5 31,15.5 3.33333,0 6.66667,-0.16667 10,-0.5 3.33333,-0.33333 7,-0.5 11,-0.5 l 104,-5 -8,118 -102,6 h -12 c -13.33333,0 -24,-1 -32,-3 -0.66667,0 -1.33333,-0.16667 -2,-0.5 -0.66667,-0.33333 -1.33333,-0.5 -2,-0.5 -2.66667,0 -4,1.33333 -4,4 0,2 0.33333,3.66667 1,5 1.33333,5.33333 4.83333,12.66667 10.5,22 5.66667,9.33333 14.16667,14 25.5,14 2.66667,0 6,-0.16667 10,-0.5 4,-0.33333 8.33333,-0.5 13,-0.5 l 92,-5 -8,109 -94,6 h -10 c -12,0 -23,-1.33333 -33,-4 -0.66667,-0.66667 -2,-1 -4,-1 -2.66667,0 -4,1.66667 -4,5 0,0.66667 0.16667,1.33333 0.5,2 0.33333,0.66667 0.5,1.66667 0.5,3 5.33333,17.33333 11.66667,27.83333 19,31.5 7.33333,3.66667 13.33333,5.5 18,5.5 3.33333,0 6.83333,-0.16667 10.5,-0.5 3.66667,-0.33333 7.83333,-0.5 12.5,-0.5 l 82,-5 -9,135"
     id="path1"
     style="fill:#ff0000" />
</svg>
