<?xml version="1.0" encoding="UTF-8" standalone="no"?>
<svg
   version="1.1"
   viewBox="-10 0 1010 1000"
   id="svg1"
   sodipodi:docname="uni826F_KleeOne-Regular.svg"
   inkscape:version="1.4 (e7c3feb100, 2024-10-09)"
   xmlns:inkscape="http://www.inkscape.org/namespaces/inkscape"
   xmlns:sodipodi="http://sodipodi.sourceforge.net/DTD/sodipodi-0.dtd"
   xmlns="http://www.w3.org/2000/svg"
   xmlns:svg="http://www.w3.org/2000/svg">
  <defs
     id="defs1" />
  <sodipodi:namedview
     id="namedview1"
     pagecolor="#ffffff"
     bordercolor="#000000"
     borderopacity="0.25"
     inkscape:showpageshadow="2"
     inkscape:pageopacity="0.0"
     inkscape:pagecheckerboard="0"
     inkscape:deskcolor="#d1d1d1"
     inkscape:zoom="0.56568543"
     inkscape:cx="355.32116"
     inkscape:cy="572.75649"
     inkscape:window-width="1920"
     inkscape:window-height="1011"
     inkscape:window-x="0"
     inkscape:window-y="0"
     inkscape:window-maximized="1"
     inkscape:current-layer="svg1" />
  <path
     style="display:inline;fill:#000000"
     d="m 315,517 1,-108"
     id="path47" />
  <path
     style="display:inline;fill:#000000"
     d="M 316,369 V 274"
     id="path45" />
  <path
     style="display:inline;fill:#000000"
     d="m 680,350 -364,19 v 40 l 361,-17"
     id="path51" />
  <path
     style="display:inline;fill:#ff0000"
     d="m 677,392 -9,110 48,-2 24,-238 c 0.66667,-4 2,-8 4,-12 2,-4 3,-8 3,-12 0,-2.66667 -2.66667,-7.83333 -8,-15.5 -5.33333,-7.66667 -15.66667,-11.5 -31,-11.5 -2,0 -4.16667,0.16667 -6.5,0.5 -2.33333,0.33333 -4.5,0.5 -6.5,0.5 l -179,10 1,-123 c 0,-7.333333 -3.83333,-12.833333 -11.5,-16.5 -7.66667,-3.666667 -15.66667,-6.333333 -24,-8 C 473.16667,72.833333 468,72 466,72 c -8.66667,0 -13,2.333333 -13,7 0,1.333333 0.66667,3.333333 2,6 8,10.666667 12,22 12,34 l 2,106 -150,8 -3,41 372,-19 -8,95"
     id="path48" />
  <path
     id="path40"
     style="display:inline;fill:#000000"
     d="m 668,502 -353,15 v 42 l 74,-3 c 44,70 93.16667,129 147.5,177 54.33333,48 114,88 179,120 65,32 135.83333,59.33333 212.5,82 2,0.66667 4.66667,1 8,1 8,0 15.33333,-3 22,-9 6.66667,-6 12,-12 16,-18 4,-6 6,-9.33333 6,-10 0,-4 -3.33333,-7 -10,-9 -78.66667,-19.33333 -148.33333,-42 -209,-68 -60.66667,-26 -114.66667,-57.33333 -162,-94 41.33333,-20 78.83333,-40.66667 112.5,-62 33.66667,-21.33333 66.16667,-44.66667 97.5,-70 3.33333,-2.66667 6,-5.5 8,-8.5 2,-3 3,-6.5 3,-10.5 0,-2 -1.83333,-7 -5.5,-15 -3.66667,-8 -8,-15.66667 -13,-23 -5,-7.33333 -9.83333,-11 -14.5,-11 -4.66667,0 -9,5.66667 -13,17 -4,12 -13.5,25.16667 -28.5,39.5 -15,14.33333 -33.16667,28.83333 -54.5,43.5 -21.33333,14.66667 -43,28.33333 -65,41 -22,12.66667 -41.66667,23.66667 -59,33 -24,-21.33333 -46.66667,-44.16667 -68,-68.5 -21.33333,-24.33333 -41.66667,-50.83333 -61,-79.5 l 280,-12 h 3 c 10.66667,-0.66667 16,-4 16,-10 0,-7.33333 -7,-18 -21,-32"
     sodipodi:nodetypes="ccccsscsssscscscssssscssscscccsc" />
  <path
     style="display:inline;fill:#000000"
     d="m 319,233 c -14,-7.33333 -25.16667,-12.33333 -33.5,-15 -8.33333,-2.66667 -14.5,-4 -18.5,-4 -6,0 -9,2.33333 -9,7 0,2 0.33333,3.66667 1,5 4,12.66667 6.5,23.83333 7.5,33.5 1,9.66667 1.5,20.16667 1.5,31.5 l -3,593 c -36,8 -61.5,12.66667 -76.5,14 -15,1.33333 -23.83333,2 -26.5,2 h -9 c -6,0 -9,2.66667 -9,8 0,2 2.5,6.5 7.5,13.5 5,7 11.33333,13.83333 19,20.5 7.66667,6.66667 14.83333,10 21.5,10 1.33333,0 13.66667,-2.83333 37,-8.5 23.33333,-5.66667 60.33333,-17.33333 111,-35 50.66667,-17.66667 117.33333,-44.5 200,-80.5 14.66667,-6.66667 22,-13 22,-19 0,-6 -5.33333,-9 -16,-9 -4,0 -9,1 -15,3 -40.66667,14 -79.16667,26.66667 -115.5,38 -36.33333,11.33333 -70.16667,21.33333 -101.5,30 l 1,-312"
     id="path1" />
</svg>
