<?xml version="1.0" encoding="UTF-8" standalone="no"?>
<svg
   version="1.1"
   viewBox="-10 0 1010 1000"
   id="svg1"
   sodipodi:docname="uni9808_KleeOne-Regular.svg"
   inkscape:version="1.4 (e7c3feb100, 2024-10-09)"
   xmlns:inkscape="http://www.inkscape.org/namespaces/inkscape"
   xmlns:sodipodi="http://sodipodi.sourceforge.net/DTD/sodipodi-0.dtd"
   xmlns="http://www.w3.org/2000/svg"
   xmlns:svg="http://www.w3.org/2000/svg">
  <defs
     id="defs1" />
  <sodipodi:namedview
     id="namedview1"
     pagecolor="#ffffff"
     bordercolor="#000000"
     borderopacity="0.25"
     inkscape:showpageshadow="2"
     inkscape:pageopacity="0.0"
     inkscape:pagecheckerboard="0"
     inkscape:deskcolor="#d1d1d1"
     inkscape:zoom="0.8"
     inkscape:cx="505"
     inkscape:cy="500"
     inkscape:window-width="1920"
     inkscape:window-height="1011"
     inkscape:window-x="0"
     inkscape:window-y="0"
     inkscape:window-maximized="1"
     inkscape:current-layer="svg1" />
  <path
     d="m 912,962 q 11,0 19,-12 8,-12 8,-19 0,-10 -12,-22 -37,-35 -86,-77.5 -49,-42.5 -93,-73.5 -9,-6 -15,-6 -4,0 -14.5,8 -10.5,8 -10.5,19 0,8 11,16 47,34 89,72 42,38 88,87 8,8 16,8 z"
     id="path6"
     style="fill:#ff0000" />
  <path
     d="m 548,786 q -31,37 -79,76.5 -48,39.5 -101,76.5 -15,10 -15,18 0,7 10,7 14,0 44,-15.5 30,-15.5 66,-39.5 36,-24 68.5,-49 32.5,-25 54,-44 21.5,-19 21.5,-25 0,-9 -9.5,-19.5 Q 598,761 587,753.5 576,746 571,746 q -7,0 -9,11 -4,19 -14,29 z"
     id="path5"
     style="fill:#ff0000" />
  <path
     d="m 404,612 q 2,-4 2,-7 0,-14 -10,-25 -10,-11 -21.5,-18 -11.5,-7 -14.5,-7 -9,0 -9,11 -1,10 -3.5,20 Q 345,596 339,604 288,680 221,750 154,820 74,882 61,892 55.5,899.5 50,907 50,912 q 0,6 7,6 9,0 42,-18.5 Q 132,881 181,843 230,805 288,747.5 346,690 404,612 Z"
     id="path4" />
  <path
     d="m 325,352 q 0,22 -11,38 -38,57 -84,105 -46,48 -103,93 -24,20 -24,31 0,6 8,6 7,0 33.5,-14.5 26.5,-14.5 64.5,-43 38,-28.5 82,-71 44,-42.5 86,-98.5 3,-3 3,-9 0,-11 -8.5,-21.5 -8.5,-10.5 -19,-18 Q 342,342 334,342 q -7,0 -9,10 z"
     id="path3" />
  <path
     d="m 526,724 322,-12 q 17,-2 17,-11 0,-5 -5,-13.5 -5,-8.5 -17,-21.5 l 15,-320 q 0,-4 2.5,-8.5 2.5,-4.5 2.5,-10.5 0,-12 -13.5,-21 -13.5,-9 -21.5,-9 -2,0 -4.5,0.5 -2.5,0.5 -5.5,0.5 l -189,12 q 29,-36 45,-66 16,-30 16,-32 0,-7 -20,-19 l 234,-15 q 14,-2 14,-12 0,-13 -16,-24.5 -16,-11.5 -26,-11.5 -5,0 -7,1 -16,7 -37,8 l -392,24 q -4,0 -9,0.5 -5,0.5 -10,0.5 -7,0 -13.5,-0.5 Q 401,163 394,162 h -3 q -5,0 -5,3 l 4.5,13.5 q 0,0 17.5,24.5 3,2 12,4 h 9 q 5,0 11.5,-0.5 Q 447,206 454,206 l 178,-11 q 0,3 0.5,5.5 0.5,2.5 0.5,4.5 0,8 -14.5,39 -14.5,31 -39.5,69 l -63,4 q -22,-11 -35,-15.5 -13,-4.5 -19,-4.5 -7,0 -7,6 0,2 1,5.5 1,3.5 2,7.5 3,10 5.5,25.5 2.5,15.5 3.5,30.5 l 11,301 q 0,10 -0.5,20.5 Q 477,704 475,717 v 5 q 0,16 16,24.5 16,8.5 23,8.5 13,0 13,-14 z m 283,-381 -3,78 -290,16 -3,-76 z m -4,120 -3,77 -282,13 -3,-75 z m -5,119 -3,89 -272,11 -3,-87 z"
     id="path2" />
  <path
     d="m 312,132 q 0,18 -17.5,47 Q 277,208 249,242.5 221,277 187,311.5 153,346 120,375 108,385 102.5,393.5 97,402 97,407 q 0,7 8,7 11,0 52,-28.5 41,-28.5 97,-82 56,-53.5 111,-128.5 2,-4 2,-6 0,-10 -8.5,-20.5 -8.5,-10.5 -19,-18 Q 329,123 321,123 q -7,0 -9,9 z"
     id="path1" />
</svg>
